<svg xmlns="http://www.w3.org/2000/svg" viewBox="0 0 108 94.49"><defs><style>.cls-1{fill:#4f5e66;}.cls-2{fill:#313b45;}.cls-3{fill:#526168;}.cls-4{fill:#00b45a;}.cls-5{fill:#fff;}</style></defs><title>2fa_call</title><g id="Text"><path class="cls-1" d="M74,7.51v77.9a2.66,2.66,0,0,1-2.66,2.65h-2.7a2.66,2.66,0,0,0,2.66-2.65V7.51a2.66,2.66,0,0,0-2.66-2.66h2.7A2.66,2.66,0,0,1,74,7.51Z"/><path class="cls-2" d="M71.32,7.35V85.51A2.58,2.58,0,0,1,68.66,88H29.71a2.58,2.58,0,0,1-2.65-2.5V7.35a2.58,2.58,0,0,1,2.65-2.5H68.66A2.58,2.58,0,0,1,71.32,7.35ZM69.1,79.52V13.7H29.27V79.52Zm-10.76-70a.9.9,0,1,0-.9.9A.9.9,0,0,0,58.34,9.47ZM57.15,83.64a.89.89,0,0,0-.89-.89H42.11a.89.89,0,1,0,0,1.77H56.26A.88.88,0,0,0,57.15,83.64ZM54.63,9.52a.89.89,0,0,0-.89-.89H43.55a.88.88,0,0,0-.63.26.9.9,0,0,0-.26.63.89.89,0,0,0,.89.89H53.74A.89.89,0,0,0,54.63,9.52Z"/><rect class="cls-3" x="29.27" y="13.7" width="39.83" height="65.81"/><path class="cls-1" d="M57.44,8.57a.9.9,0,1,1-.9.9A.9.9,0,0,1,57.44,8.57Z"/><path class="cls-1" d="M56.26,82.75a.89.89,0,1,1,0,1.77H42.11a.89.89,0,1,1,0-1.77Z"/><path class="cls-1" d="M53.74,8.63a.89.89,0,1,1,0,1.78H43.55a.89.89,0,0,1-.89-.89.9.9,0,0,1,.26-.63.88.88,0,0,1,.63-.26Z"/><path class="cls-4" d="M88,46A24.33,24.33,0,1,1,64.05,21.25,24.32,24.32,0,0,1,88,46Z"/><path class="cls-4" d="M53.74,34.06c.27-.13,2.06-.67,2.22-.71a2.23,2.23,0,0,1,.93-.13c.17.05.41.1.9.84s2.53,4,2.53,4a1.27,1.27,0,0,1,0,1.24,13.09,13.09,0,0,1-2.15,2,1.11,1.11,0,0,0-.41.81,1.35,1.35,0,0,0,.19.74,17.47,17.47,0,0,0,1.88,2.64c.39.44,1,1.21,1.76,2s1.47,1.42,1.88,1.81a16.08,16.08,0,0,0,2.56,2,1.39,1.39,0,0,0,.73.23,1.12,1.12,0,0,0,.83-.38A12.92,12.92,0,0,1,69.76,49a1.27,1.27,0,0,1,1.23.11s3.07,2.1,3.86,2.68.76.76.8.94a2.33,2.33,0,0,1-.16.92c0,.15-.66,1.92-.8,2.19s-.33.74-2.15,1.38a6.58,6.58,0,0,1-5-.26,21.06,21.06,0,0,1-5.73-3.33,34.65,34.65,0,0,1-3.35-3A37.83,37.83,0,0,1,55.43,47a21.11,21.11,0,0,1-3.1-5.86,6.58,6.58,0,0,1-.06-5C53,34.35,53.46,34.18,53.74,34.06Z"/><polygon class="cls-4" points="46.75 62.37 46.75 74.5 56.86 62.37 46.75 62.37"/><path class="cls-5" d="M89.14,44.53A24.34,24.34,0,1,1,65.2,19.81,24.33,24.33,0,0,1,89.14,44.53Z"/><path class="cls-4" d="M53.89,31.48c.3-.14,2.27-.73,2.44-.78a2.65,2.65,0,0,1,1-.14c.2.06.45.11,1,.92s2.77,4.36,2.77,4.36a1.41,1.41,0,0,1,.06,1.36,13.64,13.64,0,0,1-2.36,2.24,1.28,1.28,0,0,0-.46.9,1.57,1.57,0,0,0,.22.81,17.46,17.46,0,0,0,2.07,2.9c.42.5,1.13,1.34,1.93,2.17s1.61,1.57,2.06,2a18.21,18.21,0,0,0,2.82,2.19,1.59,1.59,0,0,0,.8.25,1.26,1.26,0,0,0,.91-.42A13.88,13.88,0,0,1,71.51,48a1.38,1.38,0,0,1,1.35.11s3.38,2.31,4.25,3,.83.84.88,1a2.53,2.53,0,0,1-.18,1c0,.18-.72,2.12-.88,2.42s-.36.81-2.36,1.52-3.51.39-5.47-.29A23.41,23.41,0,0,1,62.8,53a37.06,37.06,0,0,1-3.68-3.34,41.44,41.44,0,0,1-3.37-4,23.07,23.07,0,0,1-3.41-6.45c-.61-2-.89-3.42-.07-5.47S53.58,31.62,53.89,31.48Z"/><polygon class="cls-5" points="47.9 60.93 47.9 73.06 58.01 60.93 47.9 60.93"/></g></svg>