<?xml version="1.0" encoding="UTF-8"?>
<svg width="60px" height="60px" viewBox="0 0 60 60" version="1.1" xmlns="http://www.w3.org/2000/svg" xmlns:xlink="http://www.w3.org/1999/xlink">
    <title>3A2BC4BD-252F-4DD7-9E1B-2ACC20BBD33E</title>
    <g id="Green-Sticker-Sheet" stroke="none" stroke-width="1" fill="none" fill-rule="evenodd">
        <g id="BLKS---Iconography" transform="translate(-960.000000, -1975.000000)">
            <g id="2FA---Authenicator-v2" transform="translate(960.000000, 1975.000000)">
                <rect id="Rectangle" fill-opacity="0" fill="#D8D8D8" x="0" y="0" width="60" height="60"></rect>
                <path d="M51.454654,36.4474375 L52.7915081,38.4574511 C53.1606657,39.0124778 53.0266166,39.7816882 52.4920995,40.1755394 L36.7514287,51.7726481 C36.2168747,52.1664438 35.4842784,52.0357414 35.1151291,51.4806673 L28.970503,42.2422514 C28.6013453,41.6872247 28.7353945,40.9180143 29.2699116,40.5241631 L31.2055829,39.0980001 C31.7401,38.7041489 32.4727415,38.8348593 32.8418908,39.3899335 L36.9812132,45.6133249 L49.8183461,36.1555041 C50.3528549,35.7617004 51.0854964,35.8924108 51.454654,36.4474375 Z M45.7921312,29.6015537 C46.9930789,29.6015537 47.9666394,30.5866142 47.9666394,31.8017479 L47.9666394,35.0690363 L43.8263758,38.1196055 L42.3835067,37.3083029 L44.7048771,35.9972906 L43.5842155,34.1643012 L41.5830342,35.5845645 L41.720258,32.901845 L39.5361115,32.901845 L39.6733353,35.5724255 L37.6835893,34.1643012 L36.574363,35.9972906 L38.8842981,37.3083029 L36.574363,38.6193152 L37.6835893,40.4401655 L39.6733353,39.0441802 L39.5589035,41.2636831 L37.4704543,42.8028811 L34.4655146,38.2843604 C33.877589,37.4003217 32.9344536,36.9163653 31.9654794,36.8912706 L33.5485768,35.9972906 L32.4279152,34.1643012 L30.4267338,35.5845645 L30.5639577,32.901845 L28.3798111,32.901845 L28.517035,35.5724255 L26.5272889,34.1643012 L25.4180627,35.9972906 L27.7279978,37.3083029 L25.4180627,38.6193152 L26.5272889,40.4401655 L27.2099312,39.9617642 C26.6424482,40.9958014 26.6559387,42.3089989 27.3468743,43.3478172 L28.4482538,45.0029131 L13.1745082,45.0029131 C11.9735605,45.0029131 11,44.0178526 11,42.8027189 L11,31.8017479 C11,30.5866142 11.9735605,29.6015537 13.1745082,29.6015537 L45.7921312,29.6015537 Z M19.4076573,32.901845 L17.2235108,32.901845 L17.3607346,35.5724255 L15.3709886,34.1643012 L14.2617623,35.9972906 L16.5716974,37.3083029 L14.2617623,38.6193152 L15.3709886,40.4401655 L17.3607346,39.0441802 L17.2235108,41.7026218 L19.4076573,41.7026218 L19.2704334,39.0320412 L21.2716148,40.4401655 L22.3808411,38.6071762 L20.070906,37.3083029 L22.3922764,35.9972906 L21.2716148,34.1643012 L19.2704334,35.5845645 L19.4076573,32.901845 Z M41.5830342,39.0320412 L42.0976418,39.393518 L41.61925,39.7466491 L41.5830342,39.0320412 Z M45.7921312,12 C46.9930789,12 47.9666394,12.9850605 47.9666394,14.2001942 L47.9666394,25.2011652 C47.9666394,26.416299 46.9930789,27.4013595 45.7921312,27.4013595 L13.1745082,27.4013595 C11.9735605,27.4013595 11,26.416299 11,25.2011652 L11,14.2001942 C11,12.9850605 11.9735605,12 13.1745082,12 L45.7921312,12 Z M41.720258,15.3002913 L39.5361115,15.3002913 L39.6733353,17.9708719 L37.6835893,16.5627476 L36.574363,18.395737 L38.8842981,19.7067492 L36.574363,21.0177615 L37.6835893,22.8386119 L39.6733353,21.4426266 L39.5361115,24.1010681 L41.720258,24.1010681 L41.5830342,21.4304876 L43.5842155,22.8386119 L44.6934418,21.0056225 L42.3835067,19.7067492 L44.7048771,18.395737 L43.5842155,16.5627476 L41.5830342,17.9830109 L41.720258,15.3002913 Z M19.4076573,15.3002913 L17.2235108,15.3002913 L17.3607346,17.9708719 L15.3709886,16.5627476 L14.2617623,18.395737 L16.5716974,19.7067492 L14.2617623,21.0177615 L15.3709886,22.8386119 L17.3607346,21.4426266 L17.2235108,24.1010681 L19.4076573,24.1010681 L19.2704334,21.4304876 L21.2716148,22.8386119 L22.3808411,21.0056225 L20.070906,19.7067492 L22.3922764,18.395737 L21.2716148,16.5627476 L19.2704334,17.9830109 L19.4076573,15.3002913 Z M30.5639577,15.3002913 L28.3798111,15.3002913 L28.517035,17.9708719 L26.5272889,16.5627476 L25.4180627,18.395737 L27.7279978,19.7067492 L25.4180627,21.0177615 L26.5272889,22.8386119 L28.517035,21.4426266 L28.3798111,24.1010681 L30.5639577,24.1010681 L30.4267338,21.4304876 L32.4279152,22.8386119 L33.5371414,21.0056225 L31.2272064,19.7067492 L33.5485768,18.395737 L32.4279152,16.5627476 L30.4267338,17.9830109 L30.5639577,15.3002913 Z" id="Shape" fill="#FFFFFF" transform="translate(32.000000, 32.000000) rotate(-10.000000) translate(-32.000000, -32.000000) "></path>
            </g>
        </g>
    </g>
</svg>