<svg xmlns="http://www.w3.org/2000/svg" width="60" height="60" viewBox="0 0 60 60">
    <g fill="none" fill-rule="evenodd">
        <g>
            <g>
                <path fill="#D8D8D8" fill-opacity="0" d="M0 0H60V60H0z" transform="translate(-1312 -1981) translate(1312 1981)"/>
                <path fill="#FFF" d="M38.652 42.942l3.357 4.964 10.41-7.544c.434-.314 1.028-.21 1.328.233l1.084 1.603c.3.443.19 1.056-.243 1.37l-12.765 9.25c-.434.315-1.028.21-1.327-.232l-4.984-7.37c-.3-.442-.19-1.055.243-1.37l1.57-1.137c.433-.314 1.028-.21 1.327.233zm8.304-13.872c1.139 0 2.061.93 2.061 2.076v8.514l-5.437 3.939h-1.388l-1.416-2.094c-1.112-1.643-3.35-2.036-4.956-.872l-1.57 1.137c-.645.469-1.09 1.117-1.31 1.83l-16.902-.001c-1.138 0-2.06-.93-2.06-2.076V31.146c0-1.147.922-2.076 2.06-2.076h30.918zm-3.68 3.412H41.23l.129 2.552-1.864-1.346-1.04 1.752 2.165 1.253-2.164 1.253 1.039 1.74 1.864-1.334-.129 2.541h2.047l-.129-2.552 1.875 1.346 1.04-1.752-2.165-1.242 2.175-1.253-1.05-1.752-1.875 1.358.129-2.564zm-10.766-.353h-2.047l.129 2.552-1.864-1.345-1.04 1.751 2.165 1.253-2.164 1.253 1.039 1.74L30.592 38l-.129 2.54h2.047l-.129-2.552 1.875 1.346 1.04-1.752-2.165-1.242 2.175-1.253-1.05-1.751-1.875 1.357.129-2.564zm-10.017-.22h-2.046l.128 2.552-1.864-1.346-1.04 1.752 2.165 1.253-2.164 1.253 1.039 1.74 1.864-1.334-.128 2.541h2.046l-.129-2.552 1.875 1.346 1.04-1.752-2.165-1.242 2.175-1.253-1.05-1.752-1.875 1.358.129-2.564zm-16.82-5.544l7.42 1.614c-.792.742-1.305 1.778-1.366 2.934l-.006.233v5.694L5.672 26.365zM33.799 7.072l-1.9 5.936-3.828 13.806H17.148l-.818-.229L5 24.12c.097-.83.57-1.604 1.35-2.053l25.46-14.7c.626-.362 1.336-.447 1.989-.295zM30.225 24.99l5.994 1.824h-6.578l.584-1.824zM35.54 8.36l8.21 14.218c.755 1.309.307 2.981-1.001 3.736l-.39.225-11.51-3.504L35.54 8.36z" transform="translate(-1312 -1981) translate(1312 1981)"/>
            </g>
        </g>
    </g>
</svg>
