<svg xmlns="http://www.w3.org/2000/svg" width="60" height="60" viewBox="0 0 60 60">
    <g fill="none" fill-rule="evenodd">
        <g>
            <g>
                <path fill="#D8D8D8" fill-opacity="0" d="M0 0H60V60H0z" transform="translate(-1202 -1981) translate(1202 1981)"/>
                <path fill="#FFF" d="M41.02 10c2.065 0 3.748 1.622 3.843 3.66l.004.18-.001 8.381H17.138l-.187.004c-2.233.096-4.02 1.893-4.116 4.123l-.004.187v10.334l.004.187c.095 2.23 1.883 4.027 4.116 4.123l.187.004H34.04c.098.276.232.542.403.794l.232.343H11.693L4 50l.02-36.16c0-2.061 1.605-3.741 3.645-3.836L7.846 10h33.175zm13.73 25.944l1.081 1.597c.299.44.19 1.052-.242 1.365l-12.733 9.211c-.432.313-1.025.21-1.323-.232l-4.97-7.338c-.3-.44-.191-1.052.241-1.364l1.566-1.133c.432-.313 1.025-.21 1.324.232l3.348 4.943 10.384-7.512c.433-.313 1.025-.21 1.324.231zm-6.773-11.476c1.135 0 2.056.925 2.056 2.067v8.479l-6.394 4.773-.414-.85-1.413-2.086c-1.108-1.636-3.341-2.027-4.943-.869l-1.565 1.133c-.645.466-1.087 1.112-1.307 1.822h-16.86c-1.135 0-2.055-.926-2.055-2.068V26.535c0-1.142.92-2.067 2.056-2.067h30.839zm-3.67 3.397h-2.041l.128 2.542-1.86-1.34-1.036 1.745 2.158 1.247-2.158 1.248 1.036 1.733 1.86-1.329-.128 2.53h2.04l-.128-2.541 1.87 1.34 1.037-1.744-2.158-1.237 2.169-1.247-1.047-1.745-1.87 1.352.128-2.554zm-10.74-.351h-2.04l.127 2.542-1.859-1.34-1.037 1.744 2.159 1.248-2.159 1.248 1.037 1.733 1.86-1.329-.129 2.53h2.041l-.128-2.542 1.87 1.34 1.037-1.744-2.159-1.236 2.17-1.248-1.048-1.744-1.87 1.351.128-2.553zm-9.991-.22h-2.041l.128 2.543-1.86-1.34-1.036 1.744 2.159 1.248-2.159 1.248 1.037 1.733 1.86-1.33-.13 2.531h2.042l-.128-2.542 1.87 1.34 1.036-1.744-2.158-1.236 2.17-1.248-1.048-1.745-1.87 1.352.128-2.553z" transform="translate(-1202 -1981) translate(1202 1981)"/>
            </g>
        </g>
    </g>
</svg>
