<svg xmlns="http://www.w3.org/2000/svg" viewBox="0 0 120 104.99"><defs><style>.cls-1{fill:#313b45;}.cls-2{fill:#526168;}.cls-3{fill:#00b45a;}.cls-4{fill:#106540;}.cls-5{fill:#fff;}</style></defs><title>2fa_email</title><g id="Design"><rect class="cls-1" x="23.43" y="37.06" width="76.15" height="48.87"/><polygon class="cls-2" points="99.59 85.92 61.51 61.49 99.59 37.06 99.59 85.92"/><polygon class="cls-2" points="23.43 85.92 23.43 37.06 61.51 61.49 23.43 85.92"/><polygon class="cls-3" points="61.51 61.49 23.43 37.06 99.59 37.06 61.51 61.49"/><polygon class="cls-4" points="61.51 12.63 99.59 37.06 23.43 37.06 61.51 12.63"/><path class="cls-5" d="M46.68,73.11V30H76.33V73.11Zm29-.62h0ZM47.91,31.25V71.88h27.2V31.25Z"/><rect class="cls-5" x="52.44" y="36.78" width="17.87" height="1.28"/><rect class="cls-5" x="52.44" y="41.45" width="17.87" height="1.28"/><rect class="cls-5" x="52.44" y="46.12" width="17.87" height="1.28"/><rect class="cls-5" x="52.44" y="50.79" width="17.87" height="1.28"/><rect class="cls-5" x="52.44" y="55.46" width="17.87" height="1.28"/><rect class="cls-5" x="63.45" y="63.64" width="6.85" height="1.28"/></g></svg>