<svg xmlns="http://www.w3.org/2000/svg" width="60" height="60" viewBox="0 0 60 60">
    <g fill="none" fill-rule="evenodd">
        <g>
            <g>
                <path fill="#D8D8D8" fill-opacity="0" d="M0 0H60V60H0z" transform="translate(-1092 -1981) translate(1092 1981)"/>
                <path fill="#FFF" fill-rule="nonzero" d="M39.705 42.972l3.346 4.95L53.428 40.4c.432-.313 1.024-.209 1.323.232l1.08 1.599c.299.441.19 1.053-.242 1.366l-12.724 9.222c-.432.313-1.024.21-1.322-.232l-4.967-7.347c-.299-.44-.19-1.053.242-1.366l1.564-1.134c.432-.313 1.025-.21 1.323.232zm-22.91-30.408l.074.167 2.309 6.683c.824 2.386-1.147 4.798-3.548 4.42-1.68-.224-3.425.91-3.647 2.587-.437 1.959-.02 4.603.878 7.022v8.115l.004.187c.095 2.234 1.882 4.032 4.113 4.128l.187.004h11.153l.258.743c.559 1.617-.302 3.471-1.944 4.254l-.167.075-4.536 1.557c-2.907.998-6.562-1.457-9.85-6.06l-.351-.502-.174-.257-.346-.526c-.115-.177-.23-.358-.343-.54l-.339-.557-.168-.283-.332-.579c-.165-.292-.328-.59-.49-.894l-.32-.613-.315-.627-.155-.318-.306-.647c-.101-.217-.201-.437-.3-.658l-.294-.671-.144-.34-.283-.689-.14-.348-.272-.706-.265-.716-.256-.726c-.17-.493-.332-.984-.485-1.473l-.221-.73-.21-.726-.195-.72c-.094-.36-.183-.717-.268-1.071l-.162-.707-.077-.35-.143-.696-.13-.69-.117-.68-.053-.338-.098-.668-.085-.66-.072-.65-.059-.64-.046-.63c-.06-.936-.079-1.836-.055-2.693l.022-.564c.218-4.276 1.523-7.37 3.813-8.33l.151-.06 4.537-1.557c1.618-.556 3.475.307 4.261 1.948zm31.187 16.579c1.135 0 2.055.926 2.055 2.07V39.7l-5.42 3.928h-1.383l-1.412-2.088c-1.108-1.638-3.339-2.03-4.94-.87l-1.564 1.134c-.644.467-1.086 1.114-1.306 1.824H17.165c-1.135 0-2.055-.927-2.055-2.07V31.212c0-1.143.92-2.07 2.055-2.07h30.817zm-3.667 3.401h-2.04l.128 2.545-1.858-1.342-1.036 1.747 2.157 1.249-2.157 1.249 1.036 1.735 1.858-1.33-.128 2.533h2.04l-.128-2.545 1.868 1.342 1.036-1.747-2.157-1.237 2.168-1.25-1.047-1.746-1.868 1.353.128-2.556zm-10.732-.352h-2.04l.128 2.545-1.858-1.342-1.036 1.747 2.157 1.249-2.157 1.25 1.036 1.734 1.858-1.33-.128 2.533h2.04l-.128-2.545 1.868 1.342 1.036-1.746-2.157-1.238 2.168-1.25-1.047-1.746-1.868 1.354.128-2.557zm-9.985-.22h-2.04l.129 2.546-1.858-1.342-1.036 1.746 2.157 1.25-2.157 1.249 1.036 1.735 1.858-1.33-.128 2.533h2.04l-.129-2.545 1.87 1.342 1.035-1.747-2.157-1.237 2.168-1.25-1.047-1.746-1.869 1.353.128-2.556zm.115-13.461c2.689 2.026 4.272 4.976 4.64 8.075h-1.751c-.358-2.57-1.698-5.003-3.934-6.688-.383-.289-.46-.833-.171-1.216.289-.383.833-.46 1.216-.171zm6.215-5.843c4.54 3.421 6.925 8.64 6.912 13.919h-1.737c.013-4.752-2.133-9.452-6.22-12.532-.383-.288-.46-.833-.17-1.216.288-.383.832-.46 1.215-.17zm6.579-4.493c5.943 4.48 8.837 11.504 8.31 18.412h-1.743c.532-6.38-2.122-12.887-7.612-17.025-.383-.289-.46-.833-.171-1.216.288-.383.833-.46 1.216-.171z" transform="translate(-1092 -1981) translate(1092 1981)"/>
            </g>
        </g>
    </g>
</svg>
