<svg xmlns="http://www.w3.org/2000/svg" width="60" height="60" viewBox="0 0 60 60">
    <g fill="none" fill-rule="evenodd">
        <g>
            <g>
                <path fill="#D8D8D8" fill-opacity="0" d="M0 0H60V60H0z" transform="translate(-1422 -1981) translate(1422 1981)"/>
                <path fill="#FFF" fill-rule="nonzero" d="M54.732 40.439l1.097 1.623c.303.448.193 1.07-.246 1.388l-12.911 9.366c-.438.318-1.04.213-1.342-.235l-5.04-7.462c-.303-.448-.193-1.07.245-1.388l1.588-1.152c.438-.318 1.04-.212 1.342.236l3.395 5.027 10.53-7.64c.439-.317 1.04-.212 1.342.237zM36.12 8c4.774 0 8.644 3.874 8.644 8.654v9.83h-8.208c.11-.62-.104-1.28-.62-1.714l-8.69-7.3c-.193-.162-.479-.137-.64.055l-.875 1.044-1.39-1.168c-2.684-2.254-6.7-1.902-8.952.784-2.08 2.482-1.939 6.101.21 8.416-1.872.436-3.278 2.083-3.367 4.07l-.005.2v10.508l.004.19c.097 2.268 1.91 4.095 4.174 4.192l.19.004h17.139c.1.28.235.552.409.808l.833 1.235h-21.33C8.87 47.808 5 43.933 5 39.154v-22.5C5 11.874 8.87 8 13.644 8H36.12zm11.745 20.77c1.152 0 2.085.94 2.085 2.1v8.622l-6.483 4.854-.42-.865-1.433-2.12c-1.124-1.664-3.388-2.062-5.012-.884l-1.587 1.152c-.654.474-1.103 1.131-1.326 1.852H16.593c-1.151 0-2.085-.941-2.085-2.102V30.871c0-1.16.934-2.102 2.085-2.102h31.271zm-3.721 3.454h-2.07l.13 2.584-1.885-1.363-1.051 1.774 2.188 1.27-2.188 1.268 1.05 1.762 1.886-1.35-.13 2.572h2.07l-.13-2.585 1.896 1.363 1.051-1.774-2.189-1.257 2.2-1.269-1.062-1.774-1.896 1.375.13-2.596zm-10.89-.358h-2.07l.13 2.585-1.885-1.363-1.051 1.774 2.188 1.269-2.188 1.269 1.05 1.762 1.886-1.351-.13 2.573h2.07l-.13-2.585 1.896 1.363 1.051-1.774-2.189-1.257 2.2-1.269-1.062-1.774-1.896 1.375.13-2.597zm-10.131-.222h-2.07l.13 2.584-1.886-1.363-1.05 1.774 2.188 1.269-2.189 1.269 1.051 1.762 1.886-1.351-.13 2.573h2.07l-.13-2.585 1.896 1.363 1.051-1.774-2.189-1.257 2.2-1.269-1.062-1.774-1.896 1.375.13-2.596zm3.863-6.09c.295.248.496.573.588.93h-3.51c.065-.252.186-.493.364-.706.644-.768 1.79-.868 2.558-.224zm-4.396-6.065l1.39 1.169-4.667 5.568-1.39-1.168c-1.534-1.288-1.734-3.585-.448-5.12 1.287-1.536 3.582-1.737 5.115-.449z" transform="translate(-1422 -1981) translate(1422 1981)"/>
            </g>
        </g>
    </g>
</svg>
