<svg xmlns="http://www.w3.org/2000/svg" viewBox="0 0 108 94.49"><defs><style>.cls-1{fill:#4f5e66;}.cls-2{fill:#313b45;}.cls-3{fill:#526168;}.cls-4{fill:#106540;}.cls-5{fill:#00b45a;}.cls-6{fill:#fff;}</style></defs><title>2fa_sms</title><g id="Text"><path class="cls-1" d="M72.12,7.24V85.13a2.66,2.66,0,0,1-2.66,2.66h-2.7a2.66,2.66,0,0,0,2.66-2.66V7.24a2.66,2.66,0,0,0-2.66-2.66h2.7A2.66,2.66,0,0,1,72.12,7.24Z"/><path class="cls-2" d="M69.42,7.07V85.24a2.58,2.58,0,0,1-2.66,2.49H27.82a2.58,2.58,0,0,1-2.66-2.49V7.07a2.58,2.58,0,0,1,2.66-2.49H66.76A2.58,2.58,0,0,1,69.42,7.07ZM67.21,79.25V13.43H27.37V79.25ZM56.45,9.2a.9.9,0,1,0-.9.9A.9.9,0,0,0,56.45,9.2ZM55.26,83.36a.88.88,0,0,0-.89-.88H40.21a.92.92,0,0,0-.63.26.88.88,0,0,0-.26.62.89.89,0,0,0,.89.89H54.37A.89.89,0,0,0,55.26,83.36ZM52.74,9.25a.89.89,0,0,0-.89-.89H41.65a.92.92,0,0,0-.63.26.88.88,0,0,0,.63,1.51h10.2A.88.88,0,0,0,52.74,9.25Z"/><rect class="cls-3" x="27.37" y="13.43" width="39.83" height="65.81"/><path class="cls-1" d="M55.55,8.3a.9.9,0,1,1-.9.9A.9.9,0,0,1,55.55,8.3Z"/><path class="cls-1" d="M54.37,82.48a.89.89,0,1,1,0,1.77H40.21a.89.89,0,0,1-.89-.89.88.88,0,0,1,.26-.62.92.92,0,0,1,.63-.26Z"/><path class="cls-1" d="M51.85,8.36a.89.89,0,1,1,0,1.77H41.65A.88.88,0,0,1,41,8.62a.92.92,0,0,1,.63-.26Z"/><path class="cls-4" d="M36.46,24.91a2.33,2.33,0,0,1,.77-1.62,2.29,2.29,0,0,1,1.56-.61H89.05a2.32,2.32,0,0,1,1.53.58h0s0,0,0,0h0a2.53,2.53,0,0,1,.57.77.19.19,0,0,0,0,.07,2.55,2.55,0,0,1,.13.39,2.3,2.3,0,0,1,0,.39h0V58a2.33,2.33,0,0,1-.79,1.72h0l-.06,0a0,0,0,0,1,0,0h0a2.31,2.31,0,0,1-1.48.55H57.23L47.05,72.56V60.35H38.79a2.28,2.28,0,0,1-.45,0c-.1,0-.19-.06-.29-.09l-.12,0L37.57,60h0a2.35,2.35,0,0,1-1.12-2V24.9Z"/><path class="cls-5" d="M37.5,23.68a2.36,2.36,0,0,1,2.33-2.23H90.08a2.36,2.36,0,0,1,1.54.59h0l0,0h0a2.37,2.37,0,0,1,.57.76.26.26,0,0,0,0,.08,2.43,2.43,0,0,1,.13.38,2.58,2.58,0,0,1,0,.39h0V56.79a2.35,2.35,0,0,1-.79,1.72h0l-.06.05,0,0h0a2.32,2.32,0,0,1-1.48.55H58.27L48.08,71.34V59.13H39.83a3.14,3.14,0,0,1-.45,0l-.3-.09L39,59c-.13-.05-.25-.12-.37-.18h0a2.32,2.32,0,0,1-1.11-2V23.68Z"/><rect class="cls-6" x="73.35" y="29.38" width="12.74" height="2.87"/><rect class="cls-6" x="44.75" y="29.38" width="23.91" height="2.87"/><rect class="cls-6" x="81.23" y="38.79" width="4.86" height="2.87"/><rect class="cls-6" x="55.75" y="38.79" width="21.54" height="2.87"/><rect class="cls-6" x="44.75" y="38.79" width="6.14" height="2.87"/><rect class="cls-6" x="44.75" y="48.19" width="24.09" height="2.87"/></g></svg>