<svg width="100%" height="100%" viewBox="0 0 30 30" version="1.1" xmlns="http://www.w3.org/2000/svg" xmlns:xlink="http://www.w3.org/1999/xlink" xml:space="preserve" xmlns:serif="http://www.serif.com/" style="fill-rule:evenodd;clip-rule:evenodd;stroke-linejoin:round;stroke-miterlimit:2;">
    <g>
        <g>
            <g>
                <g transform="matrix(1,0,0,1,-2094,0)">
                    <rect x="2094" y="0" width="30" height="30" style="fill:rgb(216,216,216);fill-opacity:0;"/>
                </g>
                <g transform="matrix(1,0,0,1,-2094,0)">
                    <path d="M2118.48,22.126L2118.48,23.396L2115.73,23.396L2115.73,22.126L2118.48,22.126ZM2108.07,15.259L2108.07,23.291L2099.37,23.291L2099.37,15.26L2108.07,15.26L2108.07,15.259ZM2112.53,22.126L2112.53,23.291L2111.27,23.291L2111.27,22.126L2112.53,22.126L2112.53,22.126ZM2106.62,16.598L2100.82,16.598L2100.82,21.953L2106.62,21.953L2106.62,16.598ZM2111.23,15.259L2111.23,16.599L2112.68,16.599L2112.68,17.937L2114.13,17.937L2114.13,16.598L2115.58,16.598L2115.58,17.937L2118.48,17.937L2118.48,20.614L2115.58,20.614L2115.58,21.953L2112.68,21.953L2112.68,19.276L2111.23,19.276L2111.23,17.936L2109.78,17.936L2109.78,15.26L2111.23,15.26L2111.23,15.259ZM2111.04,19.379L2111.04,21.711L2109.78,21.711L2109.78,19.379L2111.04,19.379ZM2115.58,19.276L2114.13,19.276L2114.13,20.614L2115.58,20.614L2115.58,19.276ZM2105.09,18.006L2105.09,20.545L2102.34,20.545L2102.34,18.006L2105.09,18.006ZM2118.48,15.259L2118.48,16.425L2117.22,16.425L2117.22,15.26L2118.48,15.26L2118.48,15.259ZM2114.02,15.259L2114.02,16.425L2112.75,16.425L2112.75,15.26L2114.02,15.26L2114.02,15.259ZM2108.07,5.647L2108.07,13.679L2099.37,13.679L2099.37,5.647L2108.07,5.647L2108.07,5.647ZM2118.48,5.647L2118.48,13.679L2109.78,13.679L2109.78,5.647L2118.48,5.647ZM2106.62,6.985L2100.82,6.985L2100.82,12.34L2106.62,12.34L2106.62,6.985ZM2117.03,6.985L2111.23,6.985L2111.23,12.34L2117.03,12.34L2117.03,6.985ZM2105.09,8.393L2105.09,10.933L2102.34,10.933L2102.34,8.393L2105.09,8.393ZM2115.5,8.393L2115.5,10.933L2112.75,10.933L2112.75,8.393L2115.5,8.393Z" style="fill:white;fill-rule:nonzero;"/>
                </g>
            </g>
        </g>
    </g>
</svg>
