<svg xmlns="http://www.w3.org/2000/svg" width="61" height="60" viewBox="0 0 61 60">
    <g fill="none" fill-rule="evenodd">
        <g>
            <g>
                <path fill="#D8D8D8" fill-opacity="0" d="M0 0H60V60H0z" transform="translate(-1312 -2353) translate(1312.5 2353)"/>
                <path fill="#FFF" fill-rule="nonzero" d="M15.349 47v-2.55h30.14V16.4H48V47H15.349zm26.465-7.896v2.011h-4.29v-2.01h4.29zM25.572 28.228V40.95H12V28.228h13.572zm6.96 10.876v1.847h-1.969v-1.847h1.97zm-9.222-8.756h-9.048v8.482h9.048v-8.482zm7.195-2.12v2.12h2.262v2.12h2.262v-2.12h2.262v2.12h4.523v4.242h-4.523v2.12h-4.524v-4.24h-2.262v-2.121h-2.262v-4.241h2.262zm-.293 6.526v3.693h-1.97v-3.693h1.97zm7.079-.165h-2.262v2.12h2.262v-2.12zm-16.36-2.01V36.6h-4.29v-4.022h4.29zm20.883-4.351v1.846h-1.97v-1.846h1.97zm-6.96 0v1.846h-1.97v-1.846h1.97zM25.571 13v12.723H12V13h13.572zm16.242 0v12.723H28.243V13h13.571zM23.31 15.12h-9.048v8.483h9.048V15.12zm16.242 0h-9.047v8.483h9.047V15.12zm-18.621 2.23v4.023h-4.29V17.35h4.29zm16.243 0v4.023h-4.29V17.35h4.29z" transform="translate(-1312 -2353) translate(1312.5 2353)"/>
            </g>
        </g>
    </g>
</svg>
