<svg id="Layer_1" data-name="Layer 1" xmlns="http://www.w3.org/2000/svg" xmlns:xlink="http://www.w3.org/1999/xlink" viewBox="0 0 24 24"><defs><style>.cls-1{fill:none;}.cls-2{clip-path:url(#clip-path);}.cls-3{fill:#00b45a;}.cls-4{clip-path:url(#clip-path-2);}</style><clipPath id="clip-path"><rect class="cls-1" x="-30.95" y="-34.75" width="21.97" height="17.42"/></clipPath><clipPath id="clip-path-2"><path class="cls-1" d="M-78.17,58.75a4.67,4.67,0,0,1-4.67,4.68,4.67,4.67,0,0,1-4.68-4.68,4.67,4.67,0,0,1,4.68-4.67A4.67,4.67,0,0,1-78.17,58.75Zm5.91-2-3.09-.48a7.9,7.9,0,0,0-1.56-2.71l1.18-2.91-3.38-2-2,2.42a7.62,7.62,0,0,0-3.49,0l-2-2.42-3.38,2,1.18,2.9a7.92,7.92,0,0,0-1.55,2.7l-3.09.5v3.93l3.09.48a7.87,7.87,0,0,0,1.55,2.71L-90,66.81l3.38,2,2-2.42a7.62,7.62,0,0,0,3.49,0l2,2.42,3.38-2-1.18-2.9a7.9,7.9,0,0,0,1.56-2.71l3.09-.49Z"/></clipPath></defs><title>advanced</title><path class="cls-1" d="M0,0H24V24H0Z"/><path class="cls-3" d="M12.09,2.91A6.5,6.5,0,0,0,4.65,1.67L9,6,6,9,1.65,4.67a6.49,6.49,0,0,0,8.14,8.91l9.82,9.82,3.71-3.71L13.54,9.9A6.51,6.51,0,0,0,12.09,2.91Z"/></svg>