<svg xmlns="http://www.w3.org/2000/svg" width="60" height="60" viewBox="0 0 60 60">
    <defs>
        <filter id="lk0d0el3aa">
            <feColorMatrix in="SourceGraphic" values="0 0 0 0 1.000000 0 0 0 0 1.000000 0 0 0 0 1.000000 0 0 0 1.000000 0"/>
        </filter>
    </defs>
    <g fill="none" fill-rule="evenodd">
        <g>
            <g>
                <path fill="#D8D8D8" fill-opacity="0" d="M0 0H60V60H0z" transform="translate(-1045 -1582) translate(1045 1582)"/>
                <g filter="url(#lk0d0el3aa)" transform="translate(-1045 -1582) translate(1045 1582)">
                    <g fill="#FFF" transform="translate(10 14)">
                        <path fill-rule="nonzero" d="M40 27L40 31 15 31 15 27zM40 14L40 18 15 18 15 14zM40 1L40 5 15 5 15 1z"/>
                        <rect width="7" height="4" x="3" y="27" opacity=".3" rx="2"/>
                        <rect width="7" height="4" y="14" opacity=".3" rx="2"/>
                        <rect width="7" height="4" y="1" opacity=".3" rx="2"/>
                        <rect width="6" height="6" y="26" rx="3"/>
                        <rect width="6" height="6" x="4" y="13" rx="3"/>
                        <rect width="6" height="6" x="4" rx="3"/>
                    </g>
                </g>
            </g>
        </g>
    </g>
</svg>
