<svg width="24" height="24" viewBox="0 0 24 24" fill="none" xmlns="http://www.w3.org/2000/svg">
<g>
<path d="M19.5 3.18762H4.5C4.1519 3.18762 3.81806 3.3259 3.57192 3.57204C3.32578 3.81819 3.1875 4.15203 3.1875 4.50012V19.5001C3.1875 19.8482 3.32578 20.1821 3.57192 20.4282C3.81806 20.6743 4.1519 20.8126 4.5 20.8126H19.5C19.8481 20.8126 20.1819 20.6743 20.4281 20.4282C20.6742 20.1821 20.8125 19.8482 20.8125 19.5001V4.50012C20.8125 4.15203 20.6742 3.81819 20.4281 3.57204C20.1819 3.3259 19.8481 3.18762 19.5 3.18762ZM4.5 4.31262H19.5C19.5497 4.31262 19.5974 4.33238 19.6326 4.36754C19.6677 4.4027 19.6875 4.45039 19.6875 4.50012V14.4376H16.8103C16.6379 14.4373 16.4671 14.4711 16.3078 14.5371C16.1486 14.603 16.0039 14.6999 15.8822 14.822L14.0719 16.6323C14.0369 16.6675 13.9893 16.6874 13.9397 16.6876H10.0603C10.0108 16.6877 9.96328 16.6681 9.92813 16.6332L8.11781 14.822C7.99611 14.6999 7.85145 14.603 7.69216 14.5371C7.53287 14.4711 7.3621 14.4373 7.18969 14.4376H4.3125V4.50012C4.3125 4.45039 4.33225 4.4027 4.36742 4.36754C4.40258 4.33238 4.45027 4.31262 4.5 4.31262ZM19.5 19.6876H4.5C4.45027 19.6876 4.40258 19.6679 4.36742 19.6327C4.33225 19.5975 4.3125 19.5499 4.3125 19.5001V15.5626H7.18969C7.2392 15.5626 7.28672 15.5821 7.32187 15.617L9.13219 17.4282C9.25389 17.5504 9.39855 17.6472 9.55784 17.7132C9.71713 17.7791 9.8879 17.8129 10.0603 17.8126H13.9397C14.1121 17.8129 14.2829 17.7791 14.4422 17.7132C14.6014 17.6472 14.7461 17.5504 14.8678 17.4282L16.6781 15.6179C16.7131 15.5827 16.7607 15.5628 16.8103 15.5626H19.6875V19.5001C19.6875 19.5499 19.6677 19.5975 19.6326 19.6327C19.5974 19.6679 19.5497 19.6876 19.5 19.6876ZM8.6025 11.6476C8.50314 11.541 8.44905 11.4 8.45162 11.2542C8.45419 11.1085 8.51322 10.9695 8.61628 10.8664C8.71934 10.7633 8.85838 10.7043 9.00411 10.7017C9.14983 10.6992 9.29087 10.7533 9.3975 10.8526L11.4375 12.8917V6.75012C11.4375 6.60094 11.4968 6.45786 11.6023 6.35237C11.7077 6.24689 11.8508 6.18762 12 6.18762C12.1492 6.18762 12.2923 6.24689 12.3977 6.35237C12.5032 6.45786 12.5625 6.60094 12.5625 6.75012V12.8917L14.6025 10.8526C14.7091 10.7533 14.8502 10.6992 14.9959 10.7017C15.1416 10.7043 15.2807 10.7633 15.3837 10.8664C15.4868 10.9695 15.5458 11.1085 15.5484 11.2542C15.551 11.4 15.4969 11.541 15.3975 11.6476L12.3975 14.6476C12.292 14.753 12.1491 14.8121 12 14.8121C11.8509 14.8121 11.708 14.753 11.6025 14.6476L8.6025 11.6476Z" fill="white"/>
</g>
</svg>
