<svg xmlns="http://www.w3.org/2000/svg" width="61" height="60" viewBox="0 0 61 60">
    <defs>
        <filter id="536um3toia">
            <feColorMatrix in="SourceGraphic" values="0 0 0 0 1.000000 0 0 0 0 1.000000 0 0 0 0 1.000000 0 0 0 1.000000 0"/>
        </filter>
    </defs>
    <g fill="none" fill-rule="evenodd">
        <g>
            <g>
                <path fill="#D8D8D8" fill-opacity="0" d="M0 0H60V60H0z" transform="translate(-1086 -2352) translate(1086.5 2352)"/>
                <g filter="url(#536um3toia)" transform="translate(-1086 -2352) translate(1086.5 2352)">
                    <g>
                        <path fill="#FFF" fill-rule="nonzero" d="M27.514 6.584L27.514.06 20.571.06zM9.927 7.961L25.913 7.961 17.92.451zM26.959 10.061L8.881 10.061 17.92 30.74zM8.326 6.584L15.269.06 8.326.06zM6.226 7.961L6.226 1.641.228 7.961zM29.614 7.961L35.612 7.961 29.614 1.641zM29.251 10.061L21.879 26.927 35.84 10.061zM6.589 10.061L0 10.061 13.961 26.927z" transform="translate(12 16)"/>
                    </g>
                </g>
            </g>
        </g>
    </g>
</svg>
