<svg xmlns="http://www.w3.org/2000/svg" width="48" height="48" viewBox="0 0 48 48">
    <g fill="none" fill-rule="evenodd">
        <g fill="#FFF" fill-rule="nonzero">
            <g>
                <path d="M38.809 13.375c.898 1.427 1.625 2.982 2.161 4.625l1.924-.708c-.61-1.883-1.444-3.663-2.48-5.292l-1.605 1.375zM24.264 3.016c-.595-.021-1.2-.021-1.796 0l.164 2.456c.9-.034 1.802-.009 2.7.076.898.086 1.79.238 2.668.452l.596-2.38c-1.004-.248-2.022-.42-3.049-.518-.42-.043-.862-.075-1.283-.086zM4.085 33.523C3.228 31.932 2.61 30.242 2.25 28.5L0 28.826c.394 1.97 1.092 3.88 2.07 5.674l2.015-.977zM3.064 10.932L5.24 12c1.085-1.609 2.415-3.08 3.951-4.371L7.53 6c-1.741 1.453-3.244 3.113-4.465 4.932zM0 19.14l2.185.36c.387-1.739 1.026-3.42 1.9-4.997L2.14 13.5C1.15 15.279.43 17.177 0 19.14zM15.32 1.275L16.155 3c1.695-.591 3.476-.97 5.29-1.127L21.298 0c-2.051.17-4.064.6-5.978 1.275zM8.17 5.558L9.624 7.5c1.418-1.446 2.99-2.658 4.674-3.604L13.446 1.5C11.537 2.547 9.76 3.913 8.17 5.558zM41.872 38.964L40.088 37.5c-1.267 1.53-2.728 2.88-4.343 4.013l1.227 1.987c1.834-1.268 3.483-2.795 4.9-4.536zM14.298 44.164c-1.68-.968-3.241-2.2-4.639-3.664L8.17 42.38c1.574 1.653 3.335 3.04 5.234 4.12l.894-2.336zM47.901 26.084c.27-3.227-.017-6.482-.845-9.584l-2.006.752c1.149 4.394 1.11 9.078-.114 13.446l1.989.802c.5-1.76.827-3.575.976-5.416zM34.723 41.014L33.488 39c-1.53.947-3.175 1.677-4.892 2.171l.547 2.329c1.96-.562 3.838-1.398 5.58-2.486zM6.07 26.65c-.14-1.424-.154-2.862-.04-4.29.024-.35.057-.65.098-.96L4.28 21c-.041.38-.082.76-.115 1.15-.125 1.614-.105 3.24.057 4.85l1.847-.35zM29.617 3.663c2.034.535 3.975 1.321 5.768 2.337l1.381-1.859c-2.025-1.148-4.218-2.037-6.515-2.641l-.634 2.163zM20.215 48l.21-1.835c-1.787-.2-3.535-.592-5.202-1.165l-.925 1.69c1.895.65 3.884 1.09 5.917 1.31zM9.695 39l1.539-1.705C10.019 36.014 8.971 34.57 8.117 33l-1.99 1.1c.976 1.793 2.176 3.44 3.568 4.9zM38.058 4.5l-1.292 1.936c1.603 1.153 3.045 2.52 4.285 4.064l1.843-1.419C41.5 7.334 39.874 5.792 38.058 4.5zM39.343 36c1.045-1.605 1.896-3.365 2.53-5.233L40.002 30c-.556 1.635-1.302 3.177-2.216 4.585L39.343 36zM41.067 19.5l-2.168.664c.6 1.91.804 3.907.602 5.887-.11 1.101-.342 2.19-.692 3.248l2.158.701c.414-1.222.69-2.48.823-3.755.228-2.27-.018-4.56-.723-6.745zM21.27 42l.177-2.051c-1.127-.18-2.231-.498-3.29-.949l-.795 1.87c1.255.544 2.567.923 3.907 1.13zM36.075 19.5l1.712-.714c-.413-1.34-.96-2.612-1.628-3.786l-1.436 1.345c.554.98 1.008 2.04 1.352 3.155zM24.6 9h-1.11l.148 2.61c1.14-.041 2.278.09 3.391.39l.545-2.524c-.67-.185-1.348-.315-2.032-.39-.308-.037-.625-.062-.942-.086zM8.17 14.017L9.912 15c.652-1.096 1.44-2.102 2.343-2.994L10.914 10.5c-1.064 1.044-1.986 2.226-2.744 3.517zM28.596 8.494c1.355.478 2.652 1.152 3.861 2.006l1.245-2.154C32.287 7.341 30.765 6.552 29.174 6l-.578 2.494zM35.924 13.5l1.863-1.278c-1.103-1.22-2.38-2.303-3.799-3.222l-1.307 1.76c1.208.783 2.299 1.704 3.243 2.74zM33.702 31.61L35.097 33c.68-1.16 1.24-2.42 1.669-3.753l-1.677-.747c-.365 1.1-.83 2.144-1.387 3.11zM12.778 36l-1.544 1.667c1.263 1.127 2.667 2.08 4.176 2.833l.93-2.08c-1.285-.646-2.483-1.46-3.562-2.42zM11.198 25.141c-.092-1.054-.098-2.117-.018-3.174.018-.184.036-.38.054-.554L9.329 21c-.027.25-.055.5-.073.75-.094 1.248-.085 2.504.027 3.75l1.915-.359zM8.04 27l-1.912.304c.271 1.453.727 2.864 1.354 4.196l1.71-.93c-.53-1.135-.917-2.335-1.152-3.57zM32.68 37.2l1.257 1.8c1.427-.899 2.722-1.964 3.85-3.169L35.96 34.5c-.963 1.025-2.064 1.932-3.278 2.7zM9.191 15.956L7.54 15c-.646 1.312-1.121 2.708-1.411 4.153l1.868.347c.247-1.232.649-2.423 1.195-3.544zM27.574 37.19l.474 1.81c1.263-.331 2.477-.807 3.612-1.417L30.56 36c-.942.501-1.944.9-2.986 1.19zM12.158 30l-1.945 1.04c.71 1.26 1.574 2.423 2.57 3.46l1.515-1.65c-.818-.863-1.536-1.819-2.14-2.85zM23.214 39.39c-.182-.005-.364-.02-.545-.047l-.2 2.599c1.709.148 3.427.013 5.105-.4L27.068 39c-1.267.318-2.561.449-3.854.39zM11.234 10.283L12.745 12c1.095-.944 2.304-1.739 3.595-2.367L15.452 7.5c-1.52.732-2.938 1.668-4.218 2.783zM17.362 7.097l.9 1.903c1.353-.473 2.766-.787 4.206-.934L22.298 6c-1.691.169-3.35.537-4.936 1.097zM22.14 47.985c2.165.07 4.33-.112 6.456-.544L28.093 45c-1.845.396-3.729.558-5.61.482-.302 0-.523-.042-.825-.063l-.211 2.556c.231.01.462.01.694 0v.01z" transform="translate(-968 -2166) translate(968 2166)"/>
            </g>
        </g>
    </g>
</svg>
