<svg width="114" height="16" viewBox="0 0 114 16" fill="none" xmlns="http://www.w3.org/2000/svg">
<path d="M10.1731 11.329C10.1731 14.4221 7.70904 15.3795 4.2888 15.3795H0.0839844V1.31348H3.76167C7.37805 1.31348 9.58466 2.33222 9.58466 4.89748C9.58466 6.65266 8.32199 7.64685 6.98576 7.92915C8.56717 8.236 10.1731 9.00926 10.1731 11.329ZM2.75643 7.10679H4.41139C5.8702 7.10679 6.8264 6.45627 6.8264 5.13068C6.8264 3.7069 5.84568 3.30186 4.0191 3.30186H2.75643V7.10679ZM7.3658 11.2308C7.3658 9.53703 6.16442 8.96016 4.60754 8.96016H2.75643V13.3665H4.31332C6.09086 13.3788 7.37806 13.0106 7.3658 11.2308Z" fill="white"/>
<path d="M15.5417 13.5873C15.7501 13.5873 15.9585 13.5505 16.1546 13.4891L16.694 15.3179C16.1056 15.5634 15.4804 15.6861 14.8429 15.6861C13.237 15.6861 12.3053 14.7288 12.3053 12.9368V0.294575L14.9042 0V12.7527C14.9287 13.3418 15.1126 13.5873 15.5417 13.5873Z" fill="white"/>
<path d="M27.9855 9.99095C27.9855 13.3786 26.0976 15.6983 22.9103 15.6983C19.723 15.6983 17.8351 13.5381 17.8351 9.99095C17.8351 6.60334 19.723 4.30811 22.9103 4.30811C26.0976 4.30811 27.9855 6.46832 27.9855 9.99095ZM20.6056 9.99095C20.6056 12.5808 21.4024 13.71 22.9225 13.71C24.4427 13.71 25.2395 12.5439 25.2395 9.99095C25.2395 7.43797 24.4427 6.28421 22.9348 6.28421C21.427 6.28421 20.5811 7.45024 20.5811 9.99095H20.6056Z" fill="white"/>
<path d="M37.8662 5.57251L36.6893 7.15585C36.0886 6.64035 35.3286 6.35805 34.5317 6.35805C33.0239 6.35805 32.1045 7.46271 32.1045 10.0402C32.1045 12.6178 33.0607 13.5629 34.5317 13.5629C35.3163 13.5506 36.0764 13.2437 36.6648 12.716L37.8662 14.4098C36.8854 15.2199 35.6596 15.6617 34.3846 15.6494C31.2709 15.6494 29.3462 13.4892 29.3462 10.0525C29.3462 6.6158 31.2831 4.29602 34.3724 4.29602C35.6595 4.2592 36.91 4.71334 37.8662 5.57251Z" fill="white"/>
<path d="M39.6559 15.3793V0.294575L42.2548 0V15.3793H39.6559ZM49.0585 15.3793H46.0673L42.3529 9.48778L45.957 4.60274H48.6907L45.1111 9.35276L49.0585 15.3793Z" fill="white"/>
<path d="M58.2153 5.5847L57.1978 7.15577C56.4255 6.59116 55.5061 6.25977 54.5499 6.23522C53.4466 6.23522 52.8581 6.66481 52.8581 7.31533C52.8581 7.96585 53.2749 8.35861 55.1138 8.86185C57.3081 9.451 58.5463 10.347 58.5463 12.2495C58.5463 14.4833 56.4745 15.6739 54.0105 15.6739C52.4413 15.723 50.909 15.1707 49.7198 14.1519L51.0438 12.6668C51.8529 13.3418 52.8704 13.7223 53.9369 13.7469C55.1138 13.7469 55.8738 13.2437 55.8738 12.4827C55.8738 11.5376 55.457 11.2553 53.4343 10.6907C51.2154 10.077 50.2347 9.02141 50.2347 7.43807C50.2347 5.64607 51.8774 4.30821 54.3905 4.30821C55.7758 4.25911 57.1365 4.72552 58.2153 5.5847Z" fill="white"/>
<path d="M64.4923 15.6864C62.3838 15.6618 61.2559 14.4712 61.2559 12.1637V6.46862H59.5642V4.61525H61.2559V2.2341L63.8548 1.92725V4.61525H66.3557L66.0982 6.46862H63.8548V12.0901C63.8548 13.1579 64.1981 13.5752 64.9949 13.5752C65.4485 13.5507 65.8898 13.4157 66.2576 13.1457L67.1648 14.8395C66.3924 15.3918 65.4485 15.6864 64.4923 15.6864Z" fill="white"/>
<path d="M75.145 4.4676L74.6914 7.00832C74.3849 6.9224 74.0539 6.88558 73.7352 6.88558C72.4358 6.88558 71.7615 7.84295 71.357 9.64722V15.3914H68.7581V4.61489H71.0137L71.2589 6.72601C71.7615 5.17949 72.8035 4.32031 74.0662 4.32031C74.434 4.32031 74.7895 4.36941 75.145 4.4676Z" fill="white"/>
<path d="M85.4426 10.801H78.7002C78.8841 12.9981 79.9261 13.71 81.3481 13.71C82.3288 13.6977 83.2605 13.354 84.0328 12.7526L85.1116 14.2377C83.9961 15.1706 82.5863 15.6861 81.1152 15.6861C77.7808 15.6861 75.991 13.4645 75.991 10.0646C75.991 6.78744 77.7195 4.30811 80.772 4.30811C83.8244 4.30811 85.5162 6.34558 85.5162 9.74547C85.5039 10.0891 85.4671 10.5187 85.4426 10.801ZM82.9295 9.00903C82.9295 7.24158 82.3043 6.17375 80.821 6.17375C79.5951 6.17375 78.835 6.98383 78.7125 9.13177H82.9418V9.00903H82.9295Z" fill="white"/>
<path d="M96.6228 13.9186L96.0711 15.6492C94.8943 15.5511 94.122 15.1215 93.6929 14.0782C92.9696 15.1337 91.756 15.7474 90.4811 15.6861C88.3235 15.6861 86.9995 14.3237 86.9995 12.3721C86.9995 10.0278 88.7648 8.76356 91.9031 8.76356H93.2516V8.16213C93.2516 6.75062 92.6141 6.28421 91.2411 6.28421C90.2726 6.33331 89.3042 6.51742 88.397 6.86109L87.7841 5.08136C89.0345 4.59041 90.3585 4.33265 91.6947 4.30811C94.5633 4.30811 95.8259 5.63369 95.8259 8.01484V12.5439C95.8137 13.4031 96.0956 13.71 96.6228 13.9186ZM93.2393 12.4703V10.2733H92.1605C90.4688 10.2733 89.6229 10.8869 89.6229 12.1512C89.6229 13.1945 90.1501 13.7836 91.143 13.7836C92.0379 13.7836 92.8593 13.2804 93.2393 12.4703Z" fill="white"/>
<path d="M113.025 7.58541V15.3794H110.414V7.99046C110.414 6.65259 109.887 6.25983 109.237 6.25983C108.342 6.25983 107.79 6.8858 107.202 7.89226V15.3917H104.591V8.00273C104.591 6.66487 104.039 6.2721 103.414 6.2721C102.494 6.2721 101.943 6.89807 101.354 7.90454V15.4039H98.7555V4.62739H101.011L101.22 6.03889C101.894 4.97106 103.071 4.33281 104.333 4.34509C105.51 4.29599 106.577 5.03243 106.932 6.16163C107.754 5.0447 108.747 4.34509 110.169 4.34509C111.873 4.30827 113.025 5.54794 113.025 7.58541Z" fill="white"/>
</svg>
