<?xml version="1.0" encoding="UTF-8" standalone="no"?>
<svg
   xmlns:dc="http://purl.org/dc/elements/1.1/"
   xmlns:cc="http://creativecommons.org/ns#"
   xmlns:rdf="http://www.w3.org/1999/02/22-rdf-syntax-ns#"
   xmlns:svg="http://www.w3.org/2000/svg"
   xmlns="http://www.w3.org/2000/svg"
   xmlns:sodipodi="http://sodipodi.sourceforge.net/DTD/sodipodi-0.dtd"
   xmlns:inkscape="http://www.inkscape.org/namespaces/inkscape"
   width="245"
   height="96"
   version="1.1"
   id="svg40"
   sodipodi:docname="blockstream_jade.svg"
   inkscape:version="1.0.1 (c497b03c, 2020-09-10)">
  <metadata
     id="metadata46">
    <rdf:RDF>
      <cc:Work
         rdf:about="">
        <dc:format>image/svg+xml</dc:format>
        <dc:type
           rdf:resource="http://purl.org/dc/dcmitype/StillImage" />
        <dc:title></dc:title>
      </cc:Work>
    </rdf:RDF>
  </metadata>
  <defs
     id="defs44" />
  <sodipodi:namedview
     pagecolor="#ffffff"
     bordercolor="#666666"
     borderopacity="1"
     objecttolerance="10"
     gridtolerance="10"
     guidetolerance="10"
     inkscape:pageopacity="0"
     inkscape:pageshadow="2"
     inkscape:window-width="1311"
     inkscape:window-height="955"
     id="namedview42"
     showgrid="false"
     fit-margin-top="0"
     fit-margin-left="0"
     fit-margin-right="0"
     fit-margin-bottom="0"
     inkscape:zoom="2.6465976"
     inkscape:cx="121.88145"
     inkscape:cy="61.482199"
     inkscape:window-x="4121"
     inkscape:window-y="229"
     inkscape:window-maximized="0"
     inkscape:current-layer="svg40"
     inkscape:document-rotation="0" />
  <g
     id="g1431">
    <path
       id="path1320"
       style="fill:#c9c9cb;fill-opacity:1;stroke-width:34.1606"
       d="m 74.453125,0 a 40,40 0 0 0 -1.857422,0.046875 l 0.263672,2.3769531 -3.564453,0.4003907 -0.03711,-2.2773438 a 40,40 0 0 0 -3.576171,0.5527344 l 0.677734,2.0996094 -3.46875,1.1074218 -0.517578,-2.1582031 a 40,40 0 0 0 -3.306641,1.0429687 l 0.998047,2.0488282 -0.273437,0.1308594 h 28.998046 l -0.189453,-0.083984 0.97461,-2.1875 A 40,40 0 0 0 86.458984,1.9628906 L 85.865234,4.2636719 82.337891,3.328125 82.941406,0.94726562 A 40,40 0 0 0 79.693359,0.42382812 L 79.480469,2.8398438 75.822266,2.5195312 76.046875,0.02734375 A 40,40 0 0 0 74.453125,0 Z m 18.431641,4.7226562 -0.306641,0.6484376 h 1.474609 A 40,40 0 0 0 92.884766,4.7226562 Z M 55.945312,4.7988281 A 40,40 0 0 0 54.78125,5.3710938 h 1.433594 z" />
    <rect
       style="fill:none;fill-opacity:1;stroke:#c9c9cb;stroke-width:4.74206;stroke-miterlimit:4;stroke-dasharray:none;stroke-opacity:1"
       id="rect491"
       width="240.25793"
       height="86.257942"
       x="2.371031"
       y="5.3710308"
       rx="8"
       ry="8" />
    <rect
       style="fill:none;stroke:#c9c9cb;stroke-width:1.85928;stroke-miterlimit:4;stroke-dasharray:none;stroke-opacity:1"
       id="rect493"
       width="104.14072"
       height="62.140717"
       x="14.435867"
       y="17.447464"
       rx="4"
       ry="4" />
    <rect
       style="fill:none;stroke:#c9c9cb;stroke-width:2;stroke-miterlimit:4;stroke-dasharray:none;stroke-opacity:1"
       id="rect495"
       width="32"
       height="48"
       x="146.50635"
       y="24.500002"
       rx="4"
       ry="4" />
    <rect
       style="fill:#c9c9cb;fill-opacity:1;stroke:#c9c9cb;stroke-width:1.58676;stroke-miterlimit:4;stroke-dasharray:none;stroke-opacity:1"
       id="rect1415"
       width="12.875004"
       height="3.7144239"
       x="190.8004"
       y="90.537354" />
    <rect
       style="fill:#c9c9cb;fill-opacity:1;stroke:#c9c9cb;stroke-width:0.581849;stroke-miterlimit:4;stroke-dasharray:none;stroke-opacity:1"
       id="rect1417"
       width="1.3625535"
       height="4.7193384"
       x="196.55663"
       y="90.989738" />
  </g>
</svg>
