<?xml version="1.0" ?>
<svg height="48" viewBox="0 0 48 48" width="48" xmlns="http://www.w3.org/2000/svg">
  <path d="M41.46,28.35A18,18 0,1 1,28.35 6.54,18 18,0 0,1 41.46,28.35Z" fill="#F89A1E"/>
  <path d="M31.94,21.44c0.35,-2.4 -1.47,-3.69 -4,-4.55l0.81,-3.24 -2,-0.49L26,16.32l-1.58,-0.38 0.79,-3.18 -2,-0.49 -0.81,3.25 -1.26,-0.3h0l-2.72,-0.68 -0.53,2.11s1.47,0.33 1.44,0.35a1.06,1.06 0,0 1,0.92 1.15l-0.92,3.7a0.8,0.8 0,0 1,0.2 0.07l-0.21,-0.06L18.08,27a0.72,0.72 0,0 1,-0.9 0.47s-1.44,-0.36 -1.44,-0.36l-1,2.26 2.57,0.64 1.41,0.37 -0.82,3.28 2,0.49 0.81,-3.25c0.54,0.15 1.07,0.29 1.58,0.41l-0.81,3.23 2,0.5 0.81,-3.28c3.37,0.64 5.9,0.38 7,-2.66 0.86,-2.46 0,-3.87 -1.82,-4.79A3.16,3.16 0,0 0,31.94 21.44ZM27.42,27.76c-0.61,2.46 -4.74,1.13 -6.07,0.8l1.08,-4.35C23.77,24.54 28.06,25.21 27.42,27.76ZM28,21.4c-0.55,2.23 -4,1.1 -5.1,0.82l1,-3.94C25,18.55 28.61,19.07 28,21.4Z" fill="#fff"/>
</svg>
