<?xml version="1.0" encoding="utf-8"?>
<!-- Generator: Adobe Illustrator 24.2.3, SVG Export Plug-In . SVG Version: 6.00 Build 0)  -->
<svg version="1.1" id="Layer_1" xmlns="http://www.w3.org/2000/svg" xmlns:xlink="http://www.w3.org/1999/xlink" x="0px" y="0px"
	 viewBox="0 0 60 60" style="enable-background:new 0 0 60 60;" xml:space="preserve">
<style type="text/css">
	.st0{fill:url(#SVGID_1_);}
	.st1{fill:#EAEAEB;}
</style>
<g>
	<g>
		<g>
			<g>
				
					<linearGradient id="SVGID_1_" gradientUnits="userSpaceOnUse" x1="-267.7237" y1="416.9897" x2="-266.9737" y2="419.9076" gradientTransform="matrix(39.9983 0 0 -40.0003 10734.542 16725.1211)">
					<stop  offset="0" style="stop-color:#FF8E00"/>
					<stop  offset="1" style="stop-color:#F7931A"/>
				</linearGradient>
				<path class="st0" d="M59.1,37.3c-4,16.1-20.3,25.9-36.4,21.8C6.7,55.1-3.1,38.8,0.9,22.7C4.9,6.7,21.2-3.1,37.3,0.9
					C53.3,4.9,63.1,21.2,59.1,37.3L59.1,37.3z"/>
				<path class="st1" d="M42.4,25.1c0.6-3.9-2.3-6.1-6.3-7.5l1.3-5.3l-3.2-0.8L33,16.7c-0.8-0.2-1.7-0.4-2.5-0.6l1.3-5.2L28.6,10
					l-1.3,5.3c-0.7-0.2-1.4-0.3-2-0.5l0,0l-4.4-1.1l-0.8,3.5c0,0,2.3,0.6,2.3,0.6c1.3,0.3,1.5,1.2,1.5,1.9l-1.5,6.1
					c0.1,0,0.2,0.1,0.3,0.1l-0.3-0.1l-2.1,8.5c-0.2,0.4-0.6,1-1.4,0.8c0,0-2.3-0.6-2.3-0.6L15,38.2l4.1,1.1c0.8,0.2,1.5,0.4,2.3,0.6
					L20,45.2l3.2,0.8l1.3-5.3c0.9,0.2,1.7,0.5,2.5,0.7l-1.3,5.3l3.2,0.8l1.3-5.4c5.4,1.1,9.4,0.6,11.1-4.4c1.4-4-0.1-6.4-2.9-7.9
					C40.5,29.4,42,28,42.4,25.1z M35.2,35.5c-1,4-7.6,1.9-9.7,1.3l1.7-7.2C29.4,30.2,36.2,31.3,35.2,35.5z M36.2,25
					c-0.9,3.7-6.4,1.8-8.2,1.4l1.6-6.5C31.4,20.3,37.1,21.2,36.2,25L36.2,25z"/>
			</g>
		</g>
	</g>
</g>
</svg>
