<svg id="Layer_1" data-name="Layer 1" xmlns="http://www.w3.org/2000/svg" xmlns:xlink="http://www.w3.org/1999/xlink" viewBox="0 0 48 48"><defs><style>.cls-1{fill:none;}.cls-2{fill:#6d7880;}.cls-3{clip-path:url(#clip-path);}</style><clipPath id="clip-path"><path class="cls-1" d="M-154.23,12a4.67,4.67,0,0,1-4.67,4.68A4.68,4.68,0,0,1-163.58,12a4.68,4.68,0,0,1,4.68-4.67A4.67,4.67,0,0,1-154.23,12Zm5.91-2-3.09-.48A7.74,7.74,0,0,0-153,6.83l1.18-2.91-3.37-2-2,2.42a7.62,7.62,0,0,0-3.49,0l-2-2.42-3.37,2,1.17,2.9a7.92,7.92,0,0,0-1.55,2.7l-3.09.5V14l3.09.48a7.87,7.87,0,0,0,1.55,2.71L-166,20l3.37,2,2-2.42a7.62,7.62,0,0,0,3.49,0l2,2.42,3.37-2-1.18-2.9a7.74,7.74,0,0,0,1.56-2.71l3.09-.49Z"/></clipPath></defs><title>btc_testnet</title><g id="btc_testnet" data-name="btc testnet"><g id="Bitcoin"><path class="cls-2" d="M39.64,14.41a18.08,18.08,0,0,0-11.23-8.3A17.9,17.9,0,0,0,24,5.56a18.25,18.25,0,0,0-4.41,35.95,18.25,18.25,0,0,0,20.06-27.1Zm.61,13.45A16.72,16.72,0,0,1,24,40.56a16.9,16.9,0,0,1-4.06-.5,16.75,16.75,0,0,1,4-33,17,17,0,0,1,4.06.5A16.77,16.77,0,0,1,40.25,27.86Z"/><path id="Shape" class="cls-2" d="M31.94,21.25c.35-2.4-1.47-3.69-4-4.55l.81-3.24-2-.49L26,16.13l-1.58-.38.79-3.18-2-.49-.81,3.24L21.19,15h0l-2.72-.68-.53,2.11s1.47.33,1.44.35A1.06,1.06,0,0,1,20.3,18l-.92,3.7.2.06-.21-.05-1.29,5.18a.72.72,0,0,1-.9.47S15.74,27,15.74,27l-1,2.26,2.57.64,1.41.37-.82,3.28,2,.49.81-3.25,1.58.41-.81,3.23,2,.5.81-3.28c3.37.64,5.9.38,7-2.67.86-2.45,0-3.86-1.82-4.79A3.14,3.14,0,0,0,31.94,21.25Zm-4.52,6.32c-.61,2.46-4.74,1.13-6.07.8L22.43,24C23.77,24.35,28.06,25,27.42,27.57ZM28,21.21c-.55,2.23-4,1.1-5.1.82l1-3.94C25,18.36,28.61,18.88,28,21.21Z"/></g></g></svg>