<svg xmlns="http://www.w3.org/2000/svg" width="60" height="60" viewBox="0 0 60 60">
    <g fill="none" fill-rule="evenodd">
        <g>
            <g>
                <path fill="#D8D8D8" fill-opacity="0" d="M0 0H60V60H0z" transform="translate(-725 -543) translate(725 543)"/>
                <g fill-rule="nonzero">
                    <path fill="#8C8C8C" d="M39.401 24.838C36.73 35.553 25.877 42.073 15.16 39.401 4.448 36.73-2.074 25.878.6 15.164 3.27 4.448 14.121-2.073 24.835.598c10.716 2.672 17.237 13.525 14.565 24.24z" transform="translate(-725 -543) translate(725 543) translate(10 10)"/>
                    <path fill="#EAEAEB" d="M28.285 16.717c.382-2.627-1.56-4.039-4.214-4.981l.86-3.558-2.102-.54-.838 3.464c-.553-.141-1.12-.275-1.685-.408l.845-3.488-2.102-.54-.861 3.558c-.458-.107-.907-.214-1.343-.325l.002-.011-2.9-.746-.559 2.313s1.56.369 1.527.391c.852.22 1.006.8.98 1.26l-.98 4.054c.058.016.134.038.218.072l-.222-.056-1.375 5.678c-.105.267-.369.667-.964.515.021.031-1.528-.393-1.528-.393L10 25.456l2.736.702c.51.131 1.008.269 1.5.399l-.871 3.599 2.1.54.862-3.561c.574.16 1.13.308 1.675.448l-.858 3.544 2.102.54.87-3.593c3.586.7 6.282.417 7.417-2.923.914-2.69-.046-4.242-1.932-5.254 1.374-.326 2.408-1.257 2.684-3.18zm-4.804 6.94c-.65 2.69-5.046 1.236-6.47.871l1.154-4.768c1.425.366 5.996 1.092 5.316 3.897zm.65-6.979c-.592 2.447-4.251 1.204-5.438.9l1.047-4.326c1.187.305 5.01.874 4.392 3.426z" transform="translate(-725 -543) translate(725 543) translate(10 10)"/>
                </g>
            </g>
        </g>
    </g>
</svg>
