<svg xmlns="http://www.w3.org/2000/svg" width="61" height="60" viewBox="0 0 61 60">
    <g fill="none" fill-rule="evenodd">
        <g>
            <g>
                <path fill="#D8D8D8" fill-opacity="0" d="M0 0H60V60H0z" transform="translate(-1422 -2352) translate(1422.5 2352)"/>
                <path fill="#FFF" fill-rule="nonzero" d="M43.716 26.645C45.154 28.651 46 31.109 46 33.765 46 40.522 40.522 46 33.765 46c-2.656 0-5.114-.846-7.12-2.284 1.075.263 2.199.402 3.355.402 7.797 0 14.118-6.321 14.118-14.118 0-1.054-.116-2.08-.335-3.068l-.067-.287zM28.118 14c7.797 0 14.117 6.32 14.117 14.118 0 7.797-6.32 14.117-14.117 14.117C20.32 42.235 14 35.915 14 28.118 14 20.32 20.32 14 28.118 14z" transform="translate(-1422 -2352) translate(1422.5 2352)"/>
            </g>
        </g>
    </g>
</svg>
