<?xml version="1.0" encoding="UTF-8"?>
<svg width="10px" height="14px" viewBox="0 0 10 14" version="1.1" xmlns="http://www.w3.org/2000/svg" xmlns:xlink="http://www.w3.org/1999/xlink">
    <!-- Generator: Sketch 58 (84663) - https://sketch.com -->
    <title>copy</title>
    <desc>Created with Sketch.</desc>
    <g id="Green_Desktop" stroke="none" stroke-width="1" fill="none" fill-rule="evenodd">
        <g id="Receive_Liquid_1" transform="translate(-1227.000000, -510.000000)" fill="#FFFFFF" fill-rule="nonzero">
            <g id="Group-9" transform="translate(788.000000, 506.000000)">
                <g id="copy" transform="translate(439.000000, 4.000000)">
                    <path d="M7.14285714,11.6666667 L7.14285714,12.7083333 C7.14285714,13.0535156 6.90301339,13.3333333 6.60714286,13.3333333 L0.535714286,13.3333333 C0.23984375,13.3333333 0,13.0535156 0,12.7083333 L0,3.125 C0,2.77981771 0.23984375,2.5 0.535714286,2.5 L2.14285714,2.5 L2.14285714,10.2083333 C2.14285714,11.012474 2.70359375,11.6666667 3.39285714,11.6666667 L7.14285714,11.6666667 Z M7.14285714,2.70833333 L7.14285714,0 L3.39285714,0 C3.09698661,0 2.85714286,0.279817708 2.85714286,0.625 L2.85714286,10.2083333 C2.85714286,10.5535156 3.09698661,10.8333333 3.39285714,10.8333333 L9.46428571,10.8333333 C9.76015625,10.8333333 10,10.5535156 10,10.2083333 L10,3.33333333 L7.67857143,3.33333333 C7.38392857,3.33333333 7.14285714,3.05208333 7.14285714,2.70833333 Z M9.84310268,1.90028646 L8.37118304,0.183046875 C8.2707186,0.0658444049 8.1344629,0 7.99238839,0 L7.85714286,0 L7.85714286,2.5 L10,2.5 L10,2.34221354 C10,2.17645995 9.94356194,2.01749497 9.84310268,1.90028646 L9.84310268,1.90028646 Z" id="Shape"></path>
                </g>
            </g>
        </g>
    </g>
</svg>