<?xml version="1.0" encoding="UTF-8" standalone="no"?>
<svg
   xmlns:dc="http://purl.org/dc/elements/1.1/"
   xmlns:cc="http://creativecommons.org/ns#"
   xmlns:rdf="http://www.w3.org/1999/02/22-rdf-syntax-ns#"
   xmlns:svg="http://www.w3.org/2000/svg"
   xmlns="http://www.w3.org/2000/svg"
   xmlns:sodipodi="http://sodipodi.sourceforge.net/DTD/sodipodi-0.dtd"
   xmlns:inkscape="http://www.inkscape.org/namespaces/inkscape"
   width="60px"
   height="60px"
   viewBox="0 0 60 60"
   version="1.1"
   id="svg840"
   sodipodi:docname="electrum.svg"
   inkscape:version="1.0.1 (c497b03c, 2020-09-10)">
  <metadata
     id="metadata846">
    <rdf:RDF>
      <cc:Work
         rdf:about="">
        <dc:format>image/svg+xml</dc:format>
        <dc:type
           rdf:resource="http://purl.org/dc/dcmitype/StillImage" />
      </cc:Work>
    </rdf:RDF>
  </metadata>
  <defs
     id="defs844" />
  <sodipodi:namedview
     pagecolor="#ffffff"
     bordercolor="#666666"
     borderopacity="1"
     objecttolerance="10"
     gridtolerance="10"
     guidetolerance="10"
     inkscape:pageopacity="0"
     inkscape:pageshadow="2"
     inkscape:window-width="1204"
     inkscape:window-height="688"
     id="namedview842"
     showgrid="false"
     inkscape:zoom="6.3202654"
     inkscape:cx="16.156527"
     inkscape:cy="26.71231"
     inkscape:window-x="0"
     inkscape:window-y="25"
     inkscape:window-maximized="0"
     inkscape:current-layer="svg840" />
  <title
     id="title833">BEFDA71D-121B-48BC-B7F2-FDCDD4EDF282</title>
  <rect
     id="Rectangle"
     fill-opacity="0"
     fill="#D8D8D8"
     x="0"
     y="0"
     width="60"
     height="60"
     style="fill:#ff0000;fill-rule:evenodd;stroke:none;stroke-width:1" />
  <path
     d="M 30,0 C 46.568542,0 60,13.431458 60,30 60,46.568543 46.568542,60 30,60 13.431458,60 0,46.568543 0,30 0,13.431458 13.431458,0 30,0 Z M 41.828102,9.8727684 C 38.444977,7.91952 34.198062,8.2730964 29.975208,10.400954 25.751476,8.2729218 21.50459,7.9193612 18.121484,9.8725978 14.738628,11.825692 12.921397,15.679958 12.65287,20.401387 8.6977324,22.995268 6.2678577,26.49655 6.2678577,30.403216 c 0,3.906666 2.4298747,7.407948 6.3842433,10.00252 0.269219,4.721232 2.086443,8.57535 5.469211,10.528392 2.951798,1.704222 6.561167,1.652334 10.238992,0.197922 l 0.367988,-0.150106 0.531128,-0.23273 c 0.237998,-0.10853 0.47608,-0.222784 0.714058,-0.344152 4.224085,2.12851 8.471402,2.482296 11.854793,0.528894 3.383113,-1.95324 5.200362,-5.807942 5.468148,-10.528913 3.95514,-2.593883 6.385012,-6.095163 6.385012,-10.001831 0,-3.906664 -2.429872,-7.407948 -6.384179,-10.003124 C 47.02782,15.679344 45.210614,11.82566 41.828102,9.8727656 Z m 3.477616,31.6937356 c -0.453192,3.521928 -1.936481,6.30941 -4.416378,7.74118 -2.479768,1.431696 -5.635248,1.322604 -8.912216,-0.04476 2.056508,-1.312559 4.073671,-3.031467 5.947776,-5.093414 l 0.456057,-0.1023 v 0 l 0.451685,-0.107842 0.679922,-0.1749 0.669094,-0.1874 0.65234,-0.197927 c 1.293377,-0.407776 2.518182,-0.886641 3.660366,-1.428805 l 0.564145,-0.276319 z m -30.6615,0.0012 c 1.356672,0.704707 2.843788,1.316255 4.435113,1.820085 l 0.688301,0.209289 0.669093,0.1874 0.679922,0.1749 0.452471,0.107964 0.457052,0.102141 0.317552,0.344856 v 0 l 0.320174,0.33826 0.491432,0.501378 0.517607,0.505608 c 1.387704,1.325453 2.833166,2.467288 4.297972,3.403023 -3.276109,1.367863 -6.431167,1.476773 -8.910663,0.04522 -2.346997,-1.355038 -3.801342,-3.92438 -4.334646,-7.181376 z m 20.118857,3.139148 c -1.554889,1.455853 -3.172665,2.65698 -4.788617,3.569997 -1.615278,-0.913235 -3.232601,-2.114001 -4.787252,-3.568986 1.547662,0.193598 3.149006,0.295001 4.787438,0.295001 1.154254,0 2.2901,-0.05032 3.401736,-0.147759 l 0.8291,-0.08186 z M 29.974644,17.681456 c 2.437991,0 4.77821,0.235505 6.960936,0.668938 1.465143,1.673824 2.838363,3.581819 4.056684,5.692015 1.08283,1.875515 1.966152,3.777134 2.652632,5.655341 l 0.24821,0.703134 -0.125612,0.366583 -0.242468,0.664 c -0.668457,1.773171 -1.512022,3.564636 -2.532928,5.332896 -0.893292,1.547228 -1.869858,2.985753 -2.904874,4.30297 l -0.447085,0.557058 -0.453809,0.541983 -0.249614,0.288517 -0.380904,0.07524 c -2.07388,0.385824 -4.284126,0.594886 -6.581164,0.594886 -2.43821,0 -4.778633,-0.235548 -6.961366,-0.669838 -1.464807,-1.673579 -2.837716,-3.581226 -4.05579,-5.690992 -1.21897,-2.111322 -2.185114,-4.255724 -2.901473,-6.361778 0.717025,-2.105967 1.682859,-4.249426 2.901303,-6.359835 1.083208,-1.87617 2.28886,-3.5925 3.572697,-5.126523 l 0.483198,-0.565677 0.380267,-0.07404 c 1.84345,-0.342955 3.794644,-0.546245 5.818768,-0.587187 z M 15.192608,33.408694 c 0.60625,1.4374 1.319226,2.875198 2.138606,4.294408 0.819421,1.419276 1.708148,2.755692 2.6501,3.99854 -2.038145,-0.618648 -3.887148,-1.419104 -5.485774,-2.361308 -0.01412,-1.56104 0.147264,-3.225096 0.486528,-4.948898 l 0.135564,-0.649142 z m 29.563748,2.38e-4 c 0.483282,2.074426 0.714538,4.075948 0.697964,5.930886 -1.598361,0.94227 -3.446746,1.742566 -5.484326,2.360912 0.941186,-1.243206 1.829398,-2.578946 2.648376,-3.997458 0.598871,-1.037274 1.140901,-2.084476 1.625966,-3.134198 L 44.59745,33.781426 Z M 12.640915,22.708486 c 0.07734,1.736928 0.343407,3.559726 0.797427,5.424268 l 0.179067,0.701074 0.188489,0.67628 0.132564,0.444918 0.140524,0.446096 c -0.849492,2.653148 -1.329581,5.25915 -1.437936,7.69697 -2.8231598,-2.15337 -4.4953353,-4.831519 -4.4953353,-7.694876 0,-2.685728 1.4711435,-5.208514 3.9833413,-7.288144 L 12.41245,22.88584 Z m 34.667463,-3.8e-5 c 2.823073,2.153352 4.495193,4.83146 4.495193,7.694768 0,2.86331 -1.67212,5.541416 -4.494777,7.693846 -0.0774,-1.736662 -0.343459,-3.559156 -0.79741,-5.42338 L 46.332346,31.97273 46.143856,31.296448 46.043533,30.957276 45.93915,30.617494 45.87079,30.404706 c 0.742964,-2.320698 1.203297,-4.605314 1.379617,-6.772282 l 0.04104,-0.588014 z m -7.341482,-3.603984 c 2.038723,0.618738 3.888218,1.419382 5.486974,2.36139 0.01694,1.855876 -0.214382,3.857374 -0.696724,5.93201 -0.606248,-1.437402 -1.319225,-2.875198 -2.138604,-4.294408 -0.651272,-1.128034 -1.346324,-2.203724 -2.076984,-3.222164 l -0.442604,-0.604154 z m -19.98636,2.32e-4 c -0.9416,1.243624 -1.83019,2.579858 -2.649492,3.99893 -0.682476,1.182084 -1.291134,2.377062 -1.825788,3.573968 l -0.31191,0.718286 -0.122788,-0.549368 -0.130164,-0.648314 c -0.243606,-1.291004 -0.38691,-2.54727 -0.430906,-3.750464 l -0.01376,-0.597088 V 21.46628 c 1.336954,-0.78822 2.849224,-1.477158 4.500835,-2.043464 l 0.625812,-0.206572 z m 11.998136,-7.56002 0.130993,-0.05452 c 3.229077,-1.316378 6.333109,-1.403541 8.7795,0.0088 2.479615,1.431605 3.962849,4.21862 4.415901,7.739688 -1.356672,-0.704708 -2.843788,-1.316256 -4.435114,-1.820084 l -0.6883,-0.209292 -0.669094,-0.187397 -0.679921,-0.174901 -0.452744,-0.108088 -0.457138,-0.102528 -0.151271,-0.165742 -0.485635,-0.516766 -0.491433,-0.501378 -0.496839,-0.485752 -0.525367,-0.49141 C 34.716286,13.51004 33.630108,12.650632 32.529874,11.90681 Z m -12.918258,-0.0458 c 2.390961,-1.38042 5.410099,-1.32844 8.560208,-0.09646 l 0.350526,0.141723 -0.262769,0.170648 c -0.576105,0.378065 -1.148759,0.78792 -1.715652,1.228177 l -0.564886,0.450337 -0.51267,0.429214 -0.254848,0.220787 v 0 l -0.253789,0.224873 -0.504212,0.461874 c -0.638025,0.597386 -1.26437,1.233506 -1.87534,1.906308 l -0.457364,0.102565 v 0 l -0.452971,0.108141 -0.679922,0.1749 -0.669093,0.187398 -0.688301,0.209288 c -1.591323,0.503828 -3.078438,1.11535 -4.43509,1.819842 0.453429,-3.521189 1.936644,-6.308056 4.416173,-7.739615 z m 10.914906,1.030853 c 1.308284,0.739671 2.617912,1.667967 3.894405,2.767381 l 0.477063,0.420267 0.415298,0.381198 c -1.547664,-0.193597 -3.149008,-0.295001 -4.787442,-0.295001 -1.364731,0 -2.703732,0.07036 -4.007412,0.20574 l -0.777891,0.089 0.170453,-0.15937 0.486923,-0.438628 c 1.162725,-1.023724 2.354876,-1.90543 3.550143,-2.63176 z"
     id="Shape"
     fill="#FFFFFF"
     fill-rule="nonzero"
     style="fill:#ffffff;stroke:none;stroke-width:1.76471" />
</svg>
