<svg id="Layer_1" data-name="Layer 1" xmlns="http://www.w3.org/2000/svg" xmlns:xlink="http://www.w3.org/1999/xlink" viewBox="0 0 24 24"><defs><style>.cls-1{fill:none;}.cls-2{clip-path:url(#clip-path);}.cls-3{clip-path:url(#clip-path-2);}.cls-4{fill:#fff;}</style><clipPath id="clip-path"><rect class="cls-1" x="-30.95" y="3.29" width="21.97" height="17.42"/></clipPath><clipPath id="clip-path-2"><path class="cls-1" d="M-78.17,96.79a4.68,4.68,0,0,1-4.67,4.68,4.68,4.68,0,0,1-4.68-4.68,4.67,4.67,0,0,1,4.68-4.67A4.67,4.67,0,0,1-78.17,96.79Zm5.91-2-3.09-.47a7.9,7.9,0,0,0-1.56-2.71l1.18-2.91-3.38-2-2,2.43a7.62,7.62,0,0,0-3.49,0l-2-2.43-3.38,2,1.18,2.9a7.74,7.74,0,0,0-1.55,2.7l-3.09.49v3.94l3.09.48a7.92,7.92,0,0,0,1.55,2.7L-90,104.85l3.38,2,2-2.42a7.91,7.91,0,0,0,3.49,0l2,2.42,3.38-2-1.18-2.9a7.9,7.9,0,0,0,1.56-2.71l3.09-.49Z"/></clipPath></defs><title>erase</title><path class="cls-4" d="M22.5,5.33V18.67H6.8L1.8,12l5-6.67H22.5M24,4H6L0,12l6,8H24V4Z"/><path class="cls-4" d="M17.6,15.62l-2.72-2.71-2.71,2.71-.91-.9L14,12,11.26,9.28l.91-.9,2.71,2.71L17.6,8.38l.9.9L15.79,12l2.71,2.72Z"/></svg>