<svg xmlns="http://www.w3.org/2000/svg" width="60" height="60" viewBox="0 0 60 60">
    <g fill="none" fill-rule="evenodd">
        <g>
            <g>
                <path fill="#D8D8D8" fill-opacity="0" d="M0 0H60V60H0z" transform="translate(-962 -1582) translate(962 1582)"/>
                <path fill="#FFF" fill-rule="nonzero" d="M34.71 10l.936 5.8.129.052c1.323.52 2.562 1.212 3.684 2.06l.111.084 5.576-2.203 4.852 7.913-4.647 3.737.023.135c.272 1.608.272 3.236 0 4.846l-.023.135L50 36.294l-4.874 7.913-5.574-2.2-.11.083c-1.125.848-2.364 1.54-3.683 2.058l-.13.052-.917 5.8H25.27l-.936-5.8-.13-.052c-1.32-.517-2.56-1.21-3.683-2.058l-.112-.084-5.558 2.203L10 36.294l4.647-3.735-.023-.135c-.272-1.61-.272-3.238 0-4.846l.023-.135L10 23.706l4.852-7.913 5.576 2.203.113-.084c1.122-.848 2.361-1.543 3.682-2.06l.13-.052.935-5.8h9.422zm-4.72 11.796c-4.63 0-8.397 3.68-8.397 8.204 0 4.524 3.768 8.205 8.397 8.205 4.626-.005 8.392-3.686 8.398-8.205 0-4.523-3.768-8.204-8.398-8.204z" transform="translate(-962 -1582) translate(962 1582)"/>
            </g>
        </g>
    </g>
</svg>
