<?xml version="1.0" encoding="utf-8"?>
<!-- Generator: Adobe Illustrator 24.2.3, SVG Export Plug-In . SVG Version: 6.00 Build 0)  -->
<svg version="1.1" id="Layer_1" xmlns="http://www.w3.org/2000/svg" xmlns:xlink="http://www.w3.org/1999/xlink" x="0px" y="0px"
	 viewBox="0 0 60 60" style="enable-background:new 0 0 60 60;" xml:space="preserve">
<style type="text/css">
	.st0{fill:#878787;}
	.st1{fill:#515151;}
	.st2{fill:#595959;}
	.st3{fill:#707070;}
	.st4{opacity:0.8;}
	.st5{fill:#FFFFFF;}
</style>
<g>
	<g>
		<g>
			<g>
				<path class="st0" d="M0,29.1V30c0,14.3,10.2,26.7,24.2,29.4l-5.1-20.2L0,29.1z"/>
				<path class="st1" d="M59.8,33.3l-22.7-5.8l-8.8,16.6l-9.1-4.8l5.1,20.2c1.9,0.4,3.8,0.6,5.8,0.6C45.3,60,58.1,48.5,59.8,33.3z"
					/>
				<path class="st2" d="M28.3,44.1l8.8-16.6L19.6,23l5.8-22.7C11.1,2.6,0.4,14.7,0,29.1l19.1,10.1C19.1,39.2,28.3,44.1,28.3,44.1z"
					/>
				<path class="st3" d="M19.6,23l17.5,4.4l22.7,5.8c0.1-1.1,0.2-2.2,0.2-3.3C60,13.4,46.6,0,30,0c-1.5,0-3.1,0.1-4.6,0.4
					C25.4,0.4,19.6,23,19.6,23z"/>
				<g class="st4">
					<path class="st5" d="M37.8,28.7l-3.6,4.8c-0.5,0.7-0.9,1.6-0.9,2.5v1h-6.4v-1.5c0-1.9,0.6-3.7,1.9-5.1l3.7-4.7
						c0.8-0.9,1.3-2.1,1.4-3.3c0.1-1.1-0.3-2.2-1.1-2.9c-0.8-0.8-1.8-1.2-2.9-1.1c-1.1-0.1-2.1,0.4-2.9,1.1c-0.8,0.8-1.1,1.8-1,2.9
						h-6.4c0-6.1,4.6-9.9,10.4-9.9c5.7,0,10.4,3.6,10.4,9.9C40.1,24.8,39.3,27,37.8,28.7L37.8,28.7z M26.5,48.1v-6.6h6.8v6.6H26.5z"
						/>
				</g>
			</g>
		</g>
	</g>
</g>
</svg>
