<?xml version="1.0" encoding="UTF-8"?>
<svg width="32px" height="32px" viewBox="0 0 32 32" version="1.1" xmlns="http://www.w3.org/2000/svg" xmlns:xlink="http://www.w3.org/1999/xlink">
    <!-- Generator: Sketch 56.2 (81672) - https://sketch.com -->
    <title>asset_unknown_1</title>
    <desc>Created with Sketch.</desc>
    <g id="asset_unknown_1" stroke="none" stroke-width="1" fill="none" fill-rule="evenodd">
        <rect fill="#000000" opacity="0" x="0" y="0" width="32" height="32"></rect>
        <g id="Artboard-18" transform="translate(1.000000, 1.000000)" fill-rule="nonzero">
            <path d="M0,14.559375 C0,14.709375 0,14.85 0,15 C0.00121503759,22.1736481 5.08151767,28.3423064 12.121875,29.71875 L9.58125,19.621875 L0,14.559375 Z" id="Path" fill="#878787"></path>
            <path d="M29.90625,16.63125 L18.54375,13.734375 L14.15625,22.040625 L9.58125,19.621875 L12.121875,29.71875 C13.0695936,29.9074134 14.0336865,30.0016244 15,30.0000207 C22.6511044,29.9975583 29.0741927,24.2369771 29.90625,16.63125 L29.90625,16.63125 Z" id="Path" fill="#515151"></path>
            <path d="M14.15625,22.040625 L18.54375,13.734375 L9.80625,11.5125 L12.69375,0.178125 C5.54973486,1.28652804 0.212742666,7.33301698 -1.77635684e-15,14.559375 L9.571875,19.621875 L14.15625,22.040625 Z" id="Path" fill="#595959"></path>
            <path d="M9.80625,11.5125 L18.54375,13.734375 L29.90625,16.63125 C29.9707074,16.089918 30.0020157,15.5451523 30.0000915,15 C30.0000915,6.71572875 23.2842712,0 15,0 C14.2278902,0.0019434728 13.4570011,0.0614836895 12.69375,0.178125 L9.80625,11.5125 Z" id="Path" fill="#707070"></path>
            <g id="Group" opacity="0.8" transform="translate(9.375000, 5.625000)" fill="#FFFFFF">
                <path d="M9.50625,8.728125 L7.6875,11.146875 C7.41370789,11.5139346 7.25688958,11.9549861 7.2375,12.4125 L7.2375,12.928125 L4.03125,12.928125 L4.03125,12.1875 C4.01743756,11.2451321 4.35117723,10.3306854 4.96875,9.61875 L6.796875,7.275 C7.19664122,6.81119504 7.44235191,6.23459394 7.5,5.625 C7.5449988,5.08036747 7.35014523,4.54320608 6.96643129,4.15408772 C6.58271735,3.76496936 6.04833359,3.56262247 5.503125,3.6 C4.96265175,3.57114074 4.43607285,3.77724213 4.05878391,4.16531075 C3.68149498,4.55337937 3.4903056,5.08555391 3.534375,5.625 L0.328125,5.625 C0.328125,2.56875 2.653125,0.69375 5.5125,0.69375 C8.371875,0.69375 10.715625,2.5125 10.715625,5.625 C10.6853435,6.76848223 10.2577226,7.86571119 9.50625,8.728125 Z M3.88125,18.43125 L3.88125,15.15 L7.29375,15.15 L7.29375,18.43125 L3.88125,18.43125 Z" id="Shape"></path>
            </g>
        </g>
    </g>
</svg>