<svg width="186" height="61" viewBox="0 0 186 61" fill="none" xmlns="http://www.w3.org/2000/svg">
<g clip-path="url(#clip0_2164_394)">
<path d="M5.76958 33.1578V5.70502H37.5865V0H0.0683594V27.5216C0.0683594 33.0479 3.95618 37.5294 9.02545 41.6398C7.01972 39.0828 5.76958 36.2922 5.76958 33.1578Z" fill="#00B45A"/>
<path d="M30.2374 11.2726H11.3203V38.7941C11.3203 47.6335 21.294 53.8059 30.0725 60.0745C38.8647 53.8196 48.8247 47.6472 48.8247 38.7941V11.2726H30.2374ZM43.2334 38.7941C43.2334 43.7156 36.7216 48.527 30.1 53.1735C23.4921 48.5133 16.9666 43.7156 16.9666 38.7941V16.8951H43.2334V38.7941Z" fill="white"/>
<path d="M70.0893 17.7046C70.5992 18.1539 70.861 18.821 70.861 19.7195C70.861 20.972 70.4062 21.857 69.5243 22.3879C68.6286 22.9189 67.3883 23.1776 65.776 23.1776H62.1104V11.1561H65.2937C68.6423 11.1561 70.3236 12.1771 70.3236 14.2193C70.3511 14.8592 70.1169 15.4854 69.6759 15.9483C69.2487 16.3976 68.6837 16.6971 68.0773 16.806C68.8077 16.9286 69.5105 17.2417 70.0893 17.7046ZM64.4255 16.1117H65.8449C66.3961 16.1389 66.9335 15.9892 67.3745 15.6896C67.7604 15.3901 67.9671 14.9136 67.9395 14.4235C67.9809 13.947 67.7604 13.4705 67.347 13.2118C66.7682 12.9395 66.1343 12.8306 65.5004 12.8715H64.4117L64.4255 16.1117ZM67.7466 21.081C68.2014 20.8223 68.4218 20.3458 68.4218 19.6378C68.477 19.066 68.2289 18.5078 67.7742 18.1675C67.2505 17.8407 66.6442 17.6774 66.024 17.7182H64.4255V21.4758H65.776C66.4512 21.503 67.1265 21.3805 67.7466 21.081Z" fill="white"/>
<path d="M75.1052 21.4894C75.2017 21.6119 75.3533 21.6664 75.5049 21.6528C75.684 21.6528 75.8632 21.6255 76.0285 21.5711L76.5108 23.1367C76.001 23.3409 75.4635 23.4499 74.9123 23.4499C74.306 23.4907 73.7272 23.2729 73.3 22.8508C72.8866 22.3607 72.6936 21.7344 72.735 21.1082V10.312L74.995 10.0669V20.9584C74.9674 21.1354 75.0088 21.326 75.1052 21.4894Z" fill="white"/>
<path d="M84.848 15.0225C85.6197 15.8802 86.0055 17.0647 86.0055 18.5759C86.0193 19.4472 85.8402 20.3185 85.4819 21.1218C85.1511 21.8297 84.6275 22.4152 83.966 22.8372C83.2632 23.2593 82.4501 23.4635 81.6233 23.4499C80.2452 23.4499 79.1704 23.0278 78.3986 22.1565C77.6269 21.2988 77.2273 20.1007 77.2273 18.5759C77.2135 17.7046 77.3927 16.8333 77.751 16.0436C78.0817 15.3357 78.6054 14.7502 79.2668 14.3418C79.9834 13.9198 80.7965 13.7156 81.6233 13.7292C83.0014 13.7292 84.0762 14.1512 84.848 15.0225ZM79.5976 18.5759C79.5976 19.665 79.7629 20.4683 80.0937 20.9993C80.4244 21.503 80.9894 21.8025 81.5957 21.7753C82.2021 21.8025 82.7809 21.503 83.0978 20.9856C83.4286 20.4683 83.6077 19.665 83.6077 18.5895C83.6077 17.514 83.4423 16.7107 83.0978 16.1934C82.7809 15.6896 82.2159 15.3901 81.6095 15.4174C80.2728 15.4174 79.5976 16.4657 79.5976 18.5759Z" fill="white"/>
<path d="M93.502 13.9742C94.0118 14.1648 94.4804 14.4371 94.88 14.7911L93.8603 16.1525C93.5847 15.9347 93.2815 15.7713 92.9645 15.6352C92.6614 15.5263 92.3306 15.4718 91.9999 15.4718C90.5943 15.4718 89.9052 16.5201 89.9052 18.6167C89.9052 19.6787 90.0844 20.4547 90.4565 20.9176C90.8285 21.3805 91.4073 21.6391 92.0137 21.6119C92.3306 21.6119 92.6476 21.5574 92.937 21.4485C93.2677 21.2988 93.5709 21.1218 93.8603 20.904L94.9076 22.3607C94.067 23.055 92.9921 23.4362 91.9034 23.4226C91.0904 23.4362 90.2911 23.2456 89.5745 22.8372C88.913 22.4424 88.3894 21.8706 88.0586 21.1762C87.6866 20.373 87.5074 19.5153 87.535 18.6303C87.5212 17.7454 87.7004 16.8605 88.0586 16.0572C88.3756 15.3493 88.8993 14.7502 89.5745 14.3282C90.2635 13.9061 91.0628 13.6883 91.8759 13.7155C92.4271 13.7155 92.9783 13.7972 93.502 13.9742Z" fill="white"/>
<path d="M96.5342 23.1776V10.2847L98.7942 10.0397V23.1776H96.5342ZM104.665 23.1776H102.088L98.8769 18.1539L101.991 13.9742H104.362L101.261 18.0313L104.665 23.1776Z" fill="white"/>
<path d="M112.175 14.8047L111.293 16.1389C110.632 15.6488 109.832 15.3765 109.005 15.3629C108.633 15.3357 108.248 15.431 107.931 15.6216C107.696 15.7577 107.545 16.0164 107.559 16.2887C107.559 16.4793 107.614 16.6563 107.71 16.806C107.862 16.983 108.068 17.1192 108.289 17.2008C108.689 17.3642 109.088 17.5004 109.515 17.6093C110.342 17.7863 111.1 18.1402 111.762 18.6712C112.258 19.1477 112.533 19.8284 112.492 20.5228C112.52 21.3805 112.092 22.1973 111.362 22.6602C110.535 23.2048 109.557 23.4771 108.565 23.4362C107.848 23.4499 107.131 23.3273 106.47 23.0959C105.877 22.8781 105.312 22.5649 104.844 22.1429L105.988 20.8767C106.69 21.4622 107.572 21.7889 108.496 21.8025C108.923 21.8161 109.336 21.7208 109.708 21.503C109.984 21.3396 110.163 21.0401 110.163 20.7134C110.177 20.4819 110.122 20.2641 109.998 20.0599C109.846 19.8693 109.639 19.7195 109.405 19.6378C108.964 19.4608 108.509 19.3111 108.055 19.1885C107.269 19.0252 106.539 18.6576 105.96 18.113C105.505 17.6501 105.271 17.0239 105.285 16.384C105.271 15.8802 105.436 15.4037 105.739 14.9953C106.07 14.5733 106.497 14.2329 107.007 14.0423C107.6 13.7972 108.234 13.6883 108.881 13.7019C110.053 13.6747 111.238 14.0695 112.175 14.8047Z" fill="white"/>
<path d="M118.528 23.2593C118.128 23.3682 117.715 23.4362 117.287 23.4362C116.502 23.4907 115.744 23.2048 115.193 22.6602C114.711 22.1565 114.49 21.4077 114.49 20.4275V15.5807H113.029V13.9606H114.49V11.9321L116.75 11.6734V13.9606H118.914L118.693 15.5671H116.75V20.373C116.722 20.7134 116.805 21.0537 116.984 21.3396C117.177 21.5575 117.453 21.6664 117.728 21.6391C118.128 21.6255 118.5 21.503 118.831 21.2988L119.63 22.7419C119.299 22.9734 118.927 23.1503 118.528 23.2593Z" fill="white"/>
<path d="M126.438 13.8517L126.052 16.0028C125.777 15.9347 125.501 15.8939 125.225 15.8939C124.729 15.8666 124.247 16.0845 123.93 16.4793C123.544 17.0102 123.282 17.6365 123.172 18.2764V23.164H120.912V13.9606H122.869L123.076 15.7713C123.255 15.1859 123.586 14.655 124.04 14.2465C124.44 13.9062 124.964 13.7156 125.501 13.7156C125.818 13.7156 126.135 13.7564 126.438 13.8517Z" fill="white"/>
<path d="M135.258 19.2566H129.415C129.498 20.1552 129.732 20.7814 130.118 21.1626C130.545 21.5575 131.11 21.7617 131.689 21.7344C132.088 21.7344 132.474 21.6664 132.846 21.5302C133.26 21.3669 133.646 21.1626 134.004 20.9176L134.941 22.1837C133.976 22.987 132.75 23.4226 131.496 23.4226C130.076 23.4226 128.974 23.0006 128.216 22.1429C127.444 21.2852 127.058 20.1143 127.058 18.6304C127.045 17.759 127.21 16.9013 127.555 16.0981C127.844 15.3901 128.34 14.7775 128.974 14.3418C129.622 13.9062 130.407 13.6883 131.193 13.7019C132.502 13.7019 133.508 14.1104 134.224 14.9272C134.941 15.7441 135.299 16.8877 135.299 18.3445C135.313 18.467 135.313 18.7665 135.258 19.2566ZM133.081 17.7046C133.081 16.0845 132.474 15.2812 131.261 15.2812C130.752 15.254 130.269 15.4854 129.966 15.8802C129.649 16.2751 129.47 16.9149 129.415 17.7999H133.081V17.7046Z" fill="white"/>
<path d="M144.436 21.5166C144.56 21.7072 144.753 21.8434 144.973 21.9114L144.491 23.3954C144.036 23.3682 143.595 23.2456 143.195 23.0278C142.837 22.7964 142.575 22.456 142.424 22.0612C142.134 22.5105 141.721 22.8644 141.239 23.0959C140.742 23.3273 140.191 23.4499 139.64 23.4362C138.827 23.4771 138.041 23.1912 137.435 22.6466C136.884 22.102 136.595 21.3669 136.622 20.5908C136.567 19.6923 136.98 18.8346 137.725 18.3036C138.455 17.7726 139.502 17.514 140.88 17.514H142.038V16.9966C142.093 16.5474 141.941 16.0845 141.624 15.7577C141.239 15.4854 140.77 15.3629 140.288 15.4174C139.447 15.4446 138.606 15.608 137.821 15.9075L137.297 14.3963C138.372 13.9742 139.516 13.7428 140.674 13.7292C143.058 13.7292 144.243 14.7775 144.257 16.8877V20.7542C144.243 21.0129 144.312 21.2852 144.436 21.5166ZM142.038 20.6725V18.7937H141.101C139.654 18.7937 138.923 19.3247 138.923 20.4002C138.896 20.7814 139.02 21.149 139.254 21.4349C139.516 21.6936 139.874 21.8297 140.246 21.8025C141.018 21.8161 141.721 21.3669 142.038 20.6725Z" fill="white"/>
<path d="M158.671 14.4507C159.14 15.0225 159.388 15.7577 159.346 16.4929V23.1503H157.086V16.8333C157.086 15.853 156.742 15.3493 156.067 15.3629C155.722 15.3629 155.391 15.4854 155.13 15.7033C154.799 16.0028 154.523 16.3567 154.317 16.7379V23.1503H152.056V16.8333C152.056 15.853 151.712 15.3493 151.037 15.3629C150.678 15.3629 150.348 15.4854 150.072 15.7033C149.741 16.0028 149.48 16.3567 149.259 16.7379V23.1503H146.999V13.9606H148.956L149.135 15.1587C149.728 14.2465 150.734 13.7019 151.836 13.7019C152.332 13.6883 152.828 13.8245 153.242 14.0968C153.655 14.3827 153.958 14.7775 154.11 15.2404C154.427 14.7775 154.84 14.3827 155.322 14.0831C155.805 13.8109 156.342 13.6747 156.893 13.6883C157.555 13.6747 158.216 13.947 158.671 14.4507Z" fill="white"/>
<path d="M132.76 52.7378H121.823H121.74V52.6546V46.832V46.7488H121.823H131.135V42.7561H121.823H121.74V42.673V37.0583V36.9751H121.823H132.76V32.9686H117.264V56.7304H132.76V52.7378Z" fill="#00B45A"/>
<path d="M158.684 52.7378H147.733H147.651V52.6546V46.832V46.7488H147.733H157.045V42.7561H147.733H147.651V42.673V37.0583V36.9751H147.733H158.684V32.9686H143.174V56.7304H158.684V52.7378Z" fill="#00B45A"/>
<path d="M185.861 56.6333V32.9686H181.384V45.5842V45.7783L181.247 45.6536L167.83 33.0795V56.7304H172.307V44.087V43.8929L172.445 44.0177L185.861 56.6333Z" fill="#00B45A"/>
<path d="M69.507 56.6611C69.7963 56.7304 70.0993 56.7858 70.4162 56.8274L70.485 56.8413C70.9671 56.9106 71.3804 56.9383 71.7799 56.9383C72.1242 56.9383 72.4824 56.9245 72.8543 56.8829C72.8681 56.8829 72.8818 56.8829 72.8956 56.8829C72.9094 56.8829 72.9231 56.8829 72.9231 56.8829C72.9507 56.8829 72.9645 56.8829 72.9782 56.869C73.0058 56.869 73.0333 56.8552 73.0609 56.8552C75.5128 56.6472 77.579 55.7184 79.1768 54.0963C80.7885 52.4605 81.4221 50.4364 81.4221 46.8597V43.4493H72.6063V47.1785H76.904H76.9867V47.2617V48.1628C76.9867 49.5769 76.6148 50.6721 75.8985 51.4207C74.9756 52.3773 73.8874 52.6407 73.0333 52.7793C72.689 52.8348 72.3584 52.8625 72.0278 52.8625C69.0938 52.8625 66.146 50.381 66.146 44.8356C66.146 40.8291 67.9092 36.7672 71.8625 36.7672C72.138 36.7672 72.4273 36.7949 72.7303 36.8226C74.3419 37.086 76.2153 38.1674 76.8351 39.9696L80.5956 37.7515C80.1548 36.8781 78.0886 33.3429 72.9782 32.8161L72.9094 32.8022H72.8956C72.4961 32.7606 72.138 32.7468 71.7936 32.7468C71.036 32.7468 70.2646 32.8438 69.5208 33.024L69.4106 33.0518L69.3555 33.0656C69.204 33.1072 69.0662 33.1488 68.9285 33.1904C64.3415 34.5074 61.5453 38.9853 61.6555 44.8772C61.6555 50.8385 64.5068 55.3163 69.1076 56.564V56.6056H69.1213L69.1351 56.564C69.2453 56.6056 69.3831 56.6333 69.507 56.6611Z" fill="#00B45A"/>
<path d="M102.566 56.7304H107.622L101.657 46.7765L101.823 46.7349C102.346 46.624 102.801 46.4992 103.228 46.3745C105.9 45.404 107.498 43.0888 107.498 40.1914C107.498 35.9354 104.371 32.9686 99.8804 32.9686H90.6514V56.7304H95.0593V47.1508H96.9739L102.566 56.7304ZM95.0868 36.9058H99.6049C101.671 36.9058 103.117 38.2644 103.117 40.2053C103.117 42.1461 101.671 43.5047 99.6049 43.5047H95.0868V36.9058Z" fill="#00B45A"/>
</g>
<defs>
<clipPath id="clip0_2164_394">
<rect width="186" height="60.45" fill="white"/>
</clipPath>
</defs>
</svg>
