<svg xmlns="http://www.w3.org/2000/svg" width="400" height="130" viewBox="0 0 400 130">
    <g fill="none" fill-rule="evenodd">
        <g fill-rule="nonzero">
            <g>
                <path fill="#00B45A" d="M12.408 71.307V12.27h68.424V0H.148v59.186c0 11.885 8.36 21.522 19.262 30.362-4.313-5.499-7.002-11.5-7.002-18.24z" transform="translate(-95 -208) translate(95 208)"/>
                <path fill="#FFF" d="M65.026 24.242H24.344v59.186c0 19.01 21.449 32.284 40.327 45.765C83.58 115.74 105 102.467 105 83.428V24.242H65.026zm27.948 59.186c0 10.584-14.003 20.931-28.244 30.924-14.21-10.022-28.243-20.34-28.243-30.924V36.334h56.487v47.094zM161.28 21.65v23.422c-.06.38.03.79.237 1.142.181.23.454.349.737.355l.122-.004c.386 0 .77-.059 1.126-.176l1.038 3.367c-1.097.44-2.253.674-3.438.674-1.304.088-2.549-.38-3.467-1.288-.89-1.054-1.304-2.401-1.216-3.748V22.176l4.86-.527zm14.254 7.875c2.964 0 5.276.908 6.935 2.782 1.66 1.844 2.49 4.391 2.49 7.641.03 1.874-.356 3.748-1.127 5.475-.71 1.523-1.837 2.782-3.26 3.69-1.51.907-3.26 1.346-5.038 1.317-2.963 0-5.275-.908-6.934-2.782-1.66-1.844-2.52-4.42-2.52-7.7-.029-1.874.356-3.747 1.127-5.446.711-1.522 1.837-2.781 3.26-3.66 1.54-.907 3.29-1.346 5.067-1.317zm75.542-4.421v4.919h4.652l-.474 3.455h-4.178v10.335c-.06.732.118 1.464.503 2.079.378.425.902.658 1.44.653l.16-.01c.86-.029 1.66-.292 2.372-.731l1.718 3.103c-.71.498-1.51.879-2.37 1.113-.86.234-1.749.38-2.668.38-1.689.118-3.319-.497-4.504-1.668-1.037-1.084-1.512-2.694-1.512-4.802V33.507h-3.141v-3.484h3.141V25.66l4.86-.556zm-9.84 6.734l-1.896 2.87c-1.334-.989-2.928-1.565-4.587-1.658l-.333-.012c-.8-.058-1.63.147-2.311.557-.504.293-.83.849-.8 1.434 0 .41.118.79.326 1.113.326.38.77.673 1.244.849.86.351 1.72.644 2.638.878 1.778.381 3.408 1.142 4.83 2.284 1.067 1.025 1.66 2.489 1.571 3.982.06 1.844-.86 3.601-2.43 4.597-1.778 1.17-3.882 1.756-6.016 1.668-1.541.03-3.082-.234-4.505-.731-1.274-.469-2.489-1.142-3.497-2.05l2.46-2.723c1.512 1.26 3.408 1.962 5.394 1.991.919.03 1.808-.176 2.608-.644.547-.324.917-.898.971-1.537l.007-.161c.03-.498-.09-.966-.356-1.406-.285-.358-.661-.65-1.088-.835l-.186-.072c-.948-.38-1.926-.703-2.904-.966-1.69-.352-3.26-1.142-4.505-2.313-.917-.934-1.417-2.176-1.452-3.461v-.258c-.03-1.083.326-2.108.978-2.986.652-.832 1.478-1.516 2.456-1.94l.27-.11c1.275-.527 2.638-.76 4.03-.731 2.52-.059 5.068.79 7.084 2.371zm61.287-2.313c5.127 0 7.676 2.254 7.705 6.793v8.315c-.03.556.119 1.142.386 1.64.266.41.681.702 1.155.848l-1.037 3.192c-.978-.059-1.926-.322-2.786-.79-.77-.499-1.333-1.23-1.66-2.08-.622.967-1.51 1.728-2.548 2.226-1.067.497-2.252.76-3.438.731-1.748.088-3.437-.527-4.741-1.698-1.186-1.17-1.808-2.752-1.749-4.42-.118-1.933.77-3.778 2.371-4.92 1.57-1.141 3.823-1.698 6.787-1.698h2.489v-1.112c.119-.966-.207-1.962-.89-2.664-.829-.586-1.836-.85-2.874-.732-1.808.058-3.615.41-5.305 1.054l-1.126-3.25c2.312-.908 4.772-1.406 7.261-1.435zm-105.289-.034l.35.005c1.185 0 2.37.175 3.496.556 1.097.41 2.104.996 2.964 1.757l-2.193 2.928c-.593-.469-1.245-.82-1.926-1.113-.652-.234-1.364-.351-2.075-.351-3.023 0-4.505 2.254-4.505 6.763 0 2.284.386 3.953 1.186 4.948.753.937 1.9 1.485 3.12 1.497l.229-.004c.681 0 1.363-.117 1.985-.351.712-.322 1.364-.703 1.986-1.171l2.252 3.133c-1.717 1.418-3.89 2.229-6.11 2.281l-.35.002c-1.749.03-3.468-.38-5.009-1.259-1.422-.849-2.548-2.079-3.26-3.572-.8-1.727-1.185-3.572-1.126-5.475-.03-1.903.356-3.806 1.126-5.533.682-1.523 1.808-2.811 3.26-3.719 1.383-.847 2.973-1.311 4.6-1.322zm84.9-.024c2.815 0 4.979.878 6.52 2.635 1.54 1.756 2.311 4.216 2.311 7.348l.011.15.006.203v.122l-.009.287-.018.343-.015.192-.038.43-.026.235h-12.565c.178 1.932.681 3.28 1.511 4.099.858.792 1.973 1.228 3.13 1.235l.249-.005c.86 0 1.689-.147 2.489-.44.89-.35 1.719-.79 2.49-1.317l2.015 2.723c-2.075 1.727-4.712 2.664-7.41 2.664-3.052 0-5.423-.907-7.053-2.752-1.66-1.844-2.489-4.362-2.489-7.554-.03-1.874.326-3.718 1.067-5.446.622-1.522 1.69-2.84 3.052-3.776 1.393-.937 3.083-1.406 4.772-1.376zM140.416 23.99c7.073 0 10.687 2.119 10.814 6.355l.003.233c.06 1.376-.444 2.723-1.393 3.718-.918.967-2.133 1.61-3.437 1.845 1.57.263 3.082.937 4.326 1.932 1.097.967 1.66 2.401 1.66 4.334 0 2.693-.978 4.596-2.875 5.738-1.926 1.142-4.593 1.698-8.06 1.698h-7.884V23.991h6.846zm72.044-2.4v28.253h-4.86V22.118l4.86-.527zm11.973 8.461l-6.668 8.725 7.32 11.067h-5.542l-6.905-10.803 6.698-8.989h5.097zm45.461-.556c.682 0 1.363.088 2.015.293l-.83 4.626c-.473-.118-.948-.197-1.422-.224l-.355-.01c-1.067-.06-2.105.41-2.786 1.258-.83 1.142-1.393 2.489-1.63 3.865v10.51h-4.86V30.024h4.208l.444 3.894c.386-1.26 1.097-2.401 2.075-3.28.86-.731 1.985-1.141 3.141-1.141zm67.215-.06l.295.001c1.423-.029 2.845.557 3.823 1.64 1.008 1.23 1.541 2.81 1.452 4.392v14.317h-4.86V36.2c0-2.109-.74-3.192-2.193-3.163-.74 0-1.452.264-2.015.732-.711.645-1.304 1.406-1.749 2.226v13.79h-4.86V36.2c0-2.109-.74-3.192-2.193-3.163-.77 0-1.482.264-2.074.732-.712.645-1.275 1.406-1.749 2.226v13.79h-4.86V30.023h4.208l.385 2.576c1.275-1.961 3.438-3.132 5.809-3.132 1.067-.03 2.134.263 3.023.849.889.614 1.54 1.463 1.867 2.459.681-.996 1.57-1.845 2.608-2.489.95-.536 2.001-.827 3.083-.85zm-31.652 10.98h-2.015c-3.112 0-4.683 1.142-4.683 3.455-.059.82.208 1.61.712 2.226.563.556 1.333.849 2.133.79 1.66.03 3.171-.937 3.853-2.43v-4.04zm-129.736-7.264l-.216.004c-2.875 0-4.327 2.254-4.327 6.792 0 2.342.356 4.07 1.067 5.212.711 1.083 1.926 1.727 3.23 1.669 1.304.058 2.549-.586 3.23-1.699.712-1.112 1.097-2.84 1.097-5.153 0-2.313-.356-4.04-1.097-5.153-.643-1.023-1.763-1.654-2.984-1.672zm-33.734 4.952h-3.438v8.08h2.904c1.453.059 2.905-.205 4.238-.849.978-.556 1.453-1.58 1.453-3.103.118-1.23-.415-2.43-1.393-3.162-1.126-.703-2.43-1.054-3.764-.966zm137.51-3.953c-.682.85-1.068 2.225-1.186 4.128h7.883v-.205c0-3.387-1.233-5.114-3.698-5.207l-.214-.004c-1.097-.059-2.134.439-2.786 1.288zm-138.636-6.47h-2.341l.03 6.968h3.052c1.185.058 2.34-.264 3.29-.908.829-.644 1.274-1.669 1.214-2.723.09-1.024-.385-2.05-1.274-2.606-1.245-.585-2.608-.82-3.971-.731z" transform="translate(-95 -208) translate(95 208)"/>
                <path fill="#00B45A" d="M154.397 70.423c.592 0 1.203.02 1.864.073l.505.046h.03l.148.03c5.734.591 9.686 2.944 12.29 5.325l.42.397c.478.463.905.923 1.285 1.368l.315.377.292.368.138.18.259.35.121.171.227.33.207.313.271.435.294.506.22.409.043.085-8.088 4.77c-1.333-3.876-5.361-6.201-8.827-6.768-.652-.06-1.274-.119-1.866-.119-8.187 0-12.007 8.1-12.278 16.394l-.014.639-.002.319c0 11.925 6.34 17.262 12.65 17.262.71 0 1.421-.06 2.162-.18 1.836-.297 4.176-.864 6.161-2.92 1.476-1.544 2.272-3.771 2.336-6.63l.004-.377v-2.117h-9.42v-8.02h18.959v7.334c0 7.692-1.363 12.045-4.829 15.563-3.328 3.38-7.603 5.36-12.66 5.887l-.492.046-.178.03c-.02.02-.04.026-.068.029h-.199c-.8.09-1.57.12-2.31.12-.736 0-1.495-.044-2.35-.15l-.435-.059-.148-.03c-.51-.067-1.005-.15-1.483-.251l-.472-.106c-.2-.045-.416-.09-.612-.147l-.188-.062-.03.09h-.029v-.09c-9.894-2.683-16.026-12.313-16.026-25.133-.234-12.522 5.636-22.073 15.294-25.03l.948-.282.317-.09.356-.089c1.6-.387 3.258-.596 4.888-.596zm131.11.477v8.616H261.81V91.95h20.203v8.586h-20.203v12.88h23.698V122h-33.325V70.9h33.325zm55.75 0v8.616H317.53V91.95h20.203v8.586H317.53v12.88h23.728V122h-33.356V70.9h33.356zm58.447 0v50.892l-28.853-27.13-.296-.269v27.608h-9.628V71.139l28.853 27.04.296.269V70.9h9.628zm-184.906 0c9.657 0 16.381 6.38 16.381 15.533 0 6.231-3.436 11.21-9.183 13.297l-.804.23c-.548.151-1.124.3-1.744.441l-.474.104-.355.09L231.446 122h-10.872L208.547 101.4h-4.117V122h-9.48V70.9h19.848zm-.593 8.467h-9.716V93.56h9.716c4.444 0 7.554-2.922 7.554-7.096 0-4.09-2.987-6.978-7.289-7.092l-.265-.004z" transform="translate(-95 -208) translate(95 208)"/>
            </g>
        </g>
    </g>
</svg>
