<svg xmlns="http://www.w3.org/2000/svg" width="400" height="130" viewBox="0 0 400 130">
    <g fill="none" fill-rule="evenodd">
        <g fill-rule="nonzero">
            <g>
                <g>
                    <path fill="#00B45A" d="M12.408 71.307V12.27h68.424V0H.148v59.186c0 11.885 8.36 21.522 19.262 30.362-4.313-5.499-7.002-11.5-7.002-18.24z" transform="translate(-95 -208) translate(95 208)"/>
                    <path fill="#FFF" d="M65.026 24.242H24.344v59.186c0 19.01 21.449 32.284 40.327 45.765C83.58 115.74 105 102.467 105 83.428V24.242H65.026zm27.948 59.186c0 10.584-14.003 20.931-28.244 30.924-14.21-10.022-28.243-20.34-28.243-30.924V36.334h56.487v47.094z" transform="translate(-95 -208) translate(95 208)"/>
                </g>
                <path fill="#FFF" d="M150.73 38.074c1.096.967 1.659 2.401 1.659 4.334 0 2.693-.978 4.596-2.875 5.738-1.926 1.142-4.593 1.698-8.06 1.698h-7.884V23.991h6.846c7.202 0 10.817 2.196 10.817 6.588.06 1.376-.444 2.723-1.393 3.718-.918.967-2.133 1.61-3.437 1.845 1.57.263 3.082.937 4.326 1.932zm-12.18-3.425h3.052c1.185.058 2.34-.264 3.29-.908.829-.644 1.274-1.669 1.214-2.723.09-1.024-.385-2.05-1.274-2.606-1.245-.585-2.608-.82-3.971-.731h-2.341l.03 6.968zm7.141 10.686c.978-.556 1.453-1.58 1.453-3.103.118-1.23-.415-2.43-1.393-3.162-1.126-.703-2.43-1.054-3.764-.966h-3.438v8.08h2.904c1.453.059 2.905-.205 4.238-.849zM161.517 46.214c.207.263.533.38.86.351.385 0 .77-.059 1.125-.176l1.038 3.367c-1.097.44-2.253.674-3.438.674-1.304.088-2.549-.38-3.467-1.288-.89-1.054-1.304-2.401-1.216-3.748V22.176l4.86-.527v23.423c-.059.38.03.79.238 1.142zM182.47 32.307c1.659 1.844 2.489 4.391 2.489 7.641.03 1.874-.356 3.748-1.127 5.475-.71 1.523-1.837 2.782-3.26 3.69-1.51.907-3.26 1.346-5.038 1.317-2.963 0-5.275-.908-6.934-2.782-1.66-1.844-2.52-4.42-2.52-7.7-.029-1.874.356-3.747 1.127-5.446.711-1.522 1.837-2.781 3.26-3.66 1.54-.907 3.29-1.346 5.067-1.317 2.964 0 5.276.908 6.935 2.782zm-11.292 7.641c0 2.342.356 4.07 1.067 5.212.711 1.083 1.926 1.727 3.23 1.669 1.304.058 2.549-.586 3.23-1.699.712-1.112 1.097-2.84 1.097-5.153 0-2.313-.356-4.04-1.097-5.153-.681-1.083-1.896-1.727-3.2-1.668-2.875 0-4.327 2.254-4.327 6.792zM201.08 30.052c1.097.41 2.104.996 2.964 1.757l-2.193 2.928c-.593-.469-1.245-.82-1.926-1.113-.652-.234-1.364-.351-2.075-.351-3.023 0-4.505 2.254-4.505 6.763 0 2.284.386 3.953 1.186 4.948.8.995 2.045 1.552 3.349 1.493.681 0 1.363-.117 1.985-.351.712-.322 1.364-.703 1.986-1.171l2.252 3.133c-1.808 1.493-4.12 2.312-6.46 2.283-1.749.03-3.468-.38-5.009-1.259-1.422-.849-2.548-2.079-3.26-3.572-.8-1.727-1.185-3.572-1.126-5.475-.03-1.903.356-3.806 1.126-5.533.682-1.523 1.808-2.811 3.26-3.719 1.482-.907 3.2-1.376 4.95-1.317 1.185 0 2.37.175 3.496.556zM207.6 49.844V22.118l4.86-.527v28.253h-4.86zm17.485 0h-5.542l-6.905-10.803 6.698-8.989h5.097l-6.668 8.725 7.32 11.067zM241.237 31.838l-1.897 2.87c-1.423-1.055-3.141-1.64-4.92-1.67-.8-.058-1.63.147-2.311.557-.504.293-.83.849-.8 1.434 0 .41.118.79.326 1.113.326.38.77.673 1.244.849.86.351 1.72.644 2.638.878 1.778.381 3.408 1.142 4.83 2.284 1.067 1.025 1.66 2.489 1.571 3.982.06 1.844-.86 3.601-2.43 4.597-1.778 1.17-3.882 1.756-6.016 1.668-1.541.03-3.082-.234-4.505-.731-1.274-.469-2.489-1.142-3.497-2.05l2.46-2.723c1.512 1.26 3.408 1.962 5.394 1.991.919.03 1.808-.176 2.608-.644.593-.351.978-.995.978-1.698.03-.498-.09-.966-.356-1.406-.326-.41-.77-.731-1.274-.907-.948-.38-1.926-.703-2.904-.966-1.69-.352-3.26-1.142-4.505-2.313-.978-.996-1.482-2.343-1.452-3.719-.03-1.083.326-2.108.978-2.986.711-.908 1.63-1.64 2.726-2.05 1.275-.527 2.638-.76 4.03-.731 2.52-.059 5.068.79 7.084 2.371zM254.899 50.02c-.86.234-1.749.38-2.668.38-1.689.118-3.319-.497-4.504-1.668-1.037-1.084-1.512-2.694-1.512-4.802V33.507h-3.141v-3.484h3.141V25.66l4.86-.556v4.919h4.653l-.474 3.455h-4.178v10.335c-.06.732.118 1.464.503 2.079.415.468 1.008.702 1.6.644.86-.03 1.66-.293 2.372-.732l1.718 3.103c-.71.498-1.51.879-2.37 1.113zM271.91 29.789l-.83 4.626c-.593-.147-1.186-.235-1.778-.235-1.067-.058-2.105.41-2.786 1.26-.83 1.141-1.393 2.488-1.63 3.864v10.51h-4.86V30.024h4.208l.444 3.894c.386-1.26 1.097-2.401 2.075-3.28.86-.731 1.985-1.141 3.141-1.141.682 0 1.363.088 2.015.293zM290.876 41.412h-12.565c.178 1.932.681 3.28 1.511 4.099.919.85 2.134 1.288 3.379 1.23.86 0 1.689-.147 2.489-.44.89-.35 1.719-.79 2.49-1.317l2.015 2.723c-2.075 1.727-4.712 2.664-7.41 2.664-3.052 0-5.423-.907-7.053-2.752-1.66-1.844-2.489-4.362-2.489-7.554-.03-1.874.326-3.718 1.067-5.446.622-1.522 1.69-2.84 3.052-3.776 1.393-.937 3.083-1.406 4.772-1.376 2.815 0 4.979.878 6.52 2.635 1.54 1.756 2.311 4.216 2.311 7.348.03.264.03.908-.089 1.962zm-4.682-3.338c0-3.484-1.304-5.211-3.912-5.211-1.097-.059-2.134.439-2.786 1.288-.681.85-1.067 2.225-1.185 4.128h7.883v-.205zM310.614 46.272c.266.41.681.703 1.155.85l-1.037 3.19c-.978-.058-1.926-.321-2.786-.79-.77-.498-1.333-1.23-1.66-2.079-.622.967-1.51 1.728-2.548 2.226-1.067.497-2.252.76-3.438.731-1.748.088-3.437-.527-4.741-1.698-1.186-1.17-1.808-2.752-1.749-4.42-.118-1.933.77-3.778 2.371-4.92 1.57-1.141 3.823-1.698 6.787-1.698h2.489v-1.112c.119-.966-.207-1.962-.89-2.664-.829-.586-1.836-.85-2.874-.732-1.808.058-3.615.41-5.305 1.054l-1.126-3.25c2.312-.908 4.772-1.406 7.261-1.435 5.127 0 7.676 2.254 7.705 6.793v8.315c-.03.556.119 1.142.386 1.64zm-5.157-1.815v-4.04h-2.015c-3.112 0-4.683 1.141-4.683 3.454-.059.82.208 1.61.712 2.226.563.556 1.333.849 2.133.79 1.66.03 3.171-.937 3.853-2.43zM341.227 31.077c1.008 1.23 1.541 2.81 1.452 4.392v14.317h-4.86V36.2c0-2.109-.74-3.192-2.193-3.163-.74 0-1.452.264-2.015.732-.711.645-1.304 1.406-1.749 2.226v13.79h-4.86V36.2c0-2.109-.74-3.192-2.193-3.163-.77 0-1.482.264-2.074.732-.712.645-1.275 1.406-1.749 2.226v13.79h-4.86V30.023h4.208l.385 2.576c1.275-1.961 3.438-3.132 5.809-3.132 1.067-.03 2.134.263 3.023.849.889.614 1.54 1.463 1.867 2.459.681-.996 1.57-1.845 2.608-2.489 1.037-.585 2.193-.878 3.378-.849 1.423-.029 2.845.557 3.823 1.64z" transform="translate(-95 -208) translate(95 208)"/>
                <path fill="#00B45A" d="M285.507 113.414L261.987 113.414 261.809 113.414 261.809 113.236 261.809 100.714 261.809 100.535 261.987 100.535 282.012 100.535 282.012 91.949 261.987 91.949 261.809 91.949 261.809 91.77 261.809 79.695 261.809 79.516 261.987 79.516 285.507 79.516 285.507 70.9 252.182 70.9 252.182 122.001 285.507 122.001zM341.258 113.414L317.708 113.414 317.53 113.414 317.53 113.236 317.53 100.714 317.53 100.535 317.708 100.535 337.733 100.535 337.733 91.949 317.708 91.949 317.53 91.949 317.53 91.77 317.53 79.695 317.53 79.516 317.708 79.516 341.258 79.516 341.258 70.9 307.902 70.9 307.902 122.001 341.258 122.001zM399.704 121.792L399.704 70.9 390.076 70.9 390.076 98.031 390.076 98.448 389.78 98.18 360.927 71.139 360.927 122.001 370.555 122.001 370.555 94.811 370.555 94.393 370.851 94.662zM149.48 121.852c.621.149 1.273.268 1.954.358l.148.03c1.037.148 1.926.208 2.785.208.74 0 1.51-.03 2.31-.12h.149c.059 0 .088 0 .118-.029.06 0 .119-.03.178-.03 5.273-.447 9.716-2.445 13.152-5.933 3.466-3.518 4.829-7.87 4.829-15.563V93.44h-18.959v8.02h9.42v2.117c0 3.041-.8 5.396-2.34 7.006-1.985 2.057-4.325 2.624-6.161 2.922-.741.12-1.452.179-2.163.179-6.31 0-12.649-5.337-12.649-17.262 0-8.616 3.792-17.352 12.294-17.352.592 0 1.214.06 1.866.12 3.466.566 7.494 2.891 8.827 6.767l8.088-4.77c-.948-1.878-5.392-9.48-16.382-10.614l-.148-.03h-.03c-.859-.089-1.629-.119-2.37-.119-1.629 0-3.288.209-4.887.596l-.237.06-.119.03c-.326.09-.622.179-.918.268-9.864 2.833-15.878 12.462-15.641 25.133 0 12.82 6.132 22.45 16.026 25.133v.09h.03l.03-.09c.236.09.532.15.8.209zM220.574 122h10.872l-12.827-21.405.355-.09c1.126-.238 2.104-.507 3.022-.775 5.747-2.087 9.183-7.066 9.183-13.297 0-9.153-6.724-15.533-16.381-15.533H194.95V122h9.48v-20.6h4.117l12.027 20.6zM204.49 79.368h9.716c4.444 0 7.554 2.922 7.554 7.096 0 4.174-3.11 7.096-7.554 7.096h-9.716V79.367z" transform="translate(-95 -208) translate(95 208)"/>
            </g>
        </g>
    </g>
</svg>
