<svg id="Layer_1" data-name="Layer 1" xmlns="http://www.w3.org/2000/svg" xmlns:xlink="http://www.w3.org/1999/xlink" viewBox="0 0 24 24"><defs><style>.cls-1{fill:none;}.cls-2{clip-path:url(#clip-path);}.cls-3{fill:#00b45a;}.cls-4{clip-path:url(#clip-path-2);}.cls-5{fill:#fff;}.cls-6{clip-path:url(#clip-path-3);}</style><clipPath id="clip-path"><path class="cls-1" d="M5.33,13.13V3.48H16.62V1.59H3.42v9.68c0,1.94,1.37,3.52,3.15,5A4.89,4.89,0,0,1,5.33,13.13Z"/></clipPath><clipPath id="clip-path-2"><path class="cls-1" d="M18.6,15.23c0,1.73-2.3,3.42-4.62,5.06C11.65,18.65,9.36,17,9.36,15.23V7.53H18.6ZM14,5.55H7.38v9.68c0,3.11,3.51,5.28,6.6,7.48,3.1-2.2,6.6-4.37,6.6-7.48V5.55Z"/></clipPath><clipPath id="clip-path-3"><rect class="cls-1" x="127.49" y="-81.52" width="21.97" height="17.42"/></clipPath></defs><title>home</title><g class="cls-2"><rect class="cls-3" x="2.96" y="1.13" width="14.11" height="15.56"/></g><g class="cls-4"><rect class="cls-5" x="6.93" y="5.09" width="14.11" height="18.07"/></g></svg>