<svg width="39" height="39" viewBox="0 0 39 39" fill="none" xmlns="http://www.w3.org/2000/svg">
<path d="M30.7114 10.5955C31.483 11.6785 32.1033 12.86 32.5647 14.1097L34.2137 13.572C33.6918 12.1405 32.9732 10.7849 32.0881 9.55035L30.7114 10.5955Z" fill="#00C3FF"/>
<path d="M19.4328 2.78711C18.994 2.77196 18.5477 2.77196 18.109 2.78711L18.23 4.5139C18.8957 4.49118 19.5614 4.50633 20.2195 4.56692C20.8776 4.62751 21.5357 4.73354 22.1862 4.88501L22.6249 3.21123C21.8836 3.03704 21.1348 2.91586 20.3783 2.8477C20.0682 2.8174 19.7429 2.79468 19.4328 2.78711Z" fill="#00C3FF"/>
<path d="M3.28294 26.7426C2.59458 25.3339 2.09533 23.8419 1.80789 22.3044L0 22.5922C0.317704 24.3342 0.877469 26.0231 1.66416 27.606L3.28294 26.7426Z" fill="#00C3FF"/>
<path d="M2.35181 9.33077L3.95546 10.2245C4.75728 8.87635 5.73309 7.64942 6.86774 6.56639L5.64231 5.20313C4.35637 6.42249 3.25197 7.80847 2.35181 9.33077Z" fill="#00C3FF"/>
<path d="M0.0831299 15.2306L1.88345 15.5487C2.20116 14.0113 2.73066 12.5268 3.44928 11.1333L1.84563 10.2472C1.02868 11.8225 0.438656 13.4963 0.0831299 15.2306Z" fill="#00C3FF"/>
<path d="M11.8154 1.24208L12.534 2.92344C13.994 2.34784 15.522 1.97673 17.0802 1.82526L16.9516 3.8147e-06C15.1891 0.166624 13.4645 0.583175 11.8154 1.24208Z" fill="#00C3FF"/>
<path d="M6.41455 4.49872L7.63998 5.86197C8.83515 4.8471 10.1589 3.99886 11.581 3.33237L10.8624 1.65102C9.25119 2.38567 7.75345 3.34752 6.41455 4.49872Z" fill="#00C3FF"/>
<path d="M33.5407 31.4458L32.1111 30.3022C31.0975 31.4988 29.925 32.5516 28.6315 33.4377L29.6148 34.9903C31.0823 33.9981 32.4061 32.8091 33.5407 31.4458Z" fill="#00C3FF"/>
<path d="M11.2561 34.7101C9.84911 34.0209 8.54047 33.1423 7.368 32.0972L6.11987 33.4377C7.43608 34.6192 8.91869 35.6038 10.5072 36.3763L11.2561 34.7101Z" fill="#00C3FF"/>
<path d="M37.9503 20.8882C38.1848 18.4192 37.9352 15.9274 37.2166 13.5569L35.4768 14.1325C36.4753 17.4952 36.4374 21.0775 35.3784 24.4175L37.1031 25.031C37.5343 23.6904 37.8217 22.2969 37.9503 20.8882Z" fill="#00C3FF"/>
<path d="M27.2692 33.0817L26.3463 31.6276C25.2041 32.3092 23.9787 32.8394 22.6927 33.1953L23.1012 34.8767C24.5687 34.4677 25.9681 33.8694 27.2692 33.0817Z" fill="#00C3FF"/>
<path d="M4.59867 20.9336C4.47008 19.8581 4.45495 18.7675 4.56085 17.6845C4.58355 17.4194 4.6138 17.1922 4.65163 16.9574L2.94964 16.6545C2.91182 16.9423 2.87399 17.2301 2.84374 17.5255C2.73027 18.7448 2.7454 19.9793 2.89669 21.1987L4.59867 20.9336Z" fill="#00C3FF"/>
<path d="M23.79 2.44627C25.2954 2.88554 26.7326 3.53688 28.0563 4.36998L29.0775 2.8401C27.5798 1.89339 25.961 1.16632 24.259 0.666462L23.79 2.44627Z" fill="#00C3FF"/>
<path d="M16.3467 38.1257L16.5207 36.3005C15.0456 36.1036 13.6008 35.7098 12.2241 35.1417L11.4601 36.8231C13.0183 37.4668 14.6674 37.9061 16.3467 38.1257Z" fill="#00C3FF"/>
<path d="M7.38307 30.6959L8.57068 29.4387C7.6327 28.492 6.82331 27.4317 6.16521 26.2729L4.62964 27.0833C5.37851 28.4011 6.30893 29.6205 7.38307 30.6959Z" fill="#00C3FF"/>
<path d="M29.9398 3.43084L28.911 4.96072C30.1894 5.86956 31.3316 6.95259 32.3225 8.17195L33.79 7.05105C32.6781 5.66507 31.3846 4.45329 29.9398 3.43084Z" fill="#00C3FF"/>
<path d="M31.695 28.8406C32.6027 27.6212 33.344 26.2882 33.8962 24.8644L32.2699 24.2812C31.7857 25.5233 31.1352 26.6972 30.3409 27.7651L31.695 28.8406Z" fill="#00C3FF"/>
<path d="M33.0487 14.9352L31.4148 15.4805C31.8686 17.0483 32.0199 18.6918 31.8686 20.3125C31.7854 21.2138 31.6114 22.1075 31.3467 22.9784L32.973 23.554C33.2832 22.5543 33.495 21.5167 33.5933 20.4716C33.7673 18.6084 33.5782 16.7302 33.0487 14.9352Z" fill="#7EE0FF"/>
<path d="M16.7546 33.7482L16.9135 32.029C15.9074 31.8775 14.9165 31.6125 13.9709 31.2338L13.2599 32.8015C14.3794 33.256 15.5519 33.574 16.7546 33.7482Z" fill="#7EE0FF"/>
<path d="M28.6013 15.4351L30.1444 14.9125C29.7738 13.9355 29.2821 13.004 28.6769 12.1406L27.3834 13.1251C27.8827 13.8446 28.2911 14.6172 28.6013 15.4351Z" fill="#7EE0FF"/>
<path d="M19.2665 7.06625H18.4193L18.5328 8.68702C19.4027 8.66429 20.265 8.74003 21.1198 8.92937L21.5358 7.36163C21.0215 7.24802 20.5071 7.16471 19.9851 7.11927C19.7506 7.09655 19.5086 7.0814 19.2665 7.06625Z" fill="#7EE0FF"/>
<path d="M6.1875 11.4665L7.70038 12.3071C8.2677 11.368 8.9485 10.5122 9.73519 9.74725L8.57028 8.45973C7.64743 9.35342 6.8456 10.3607 6.1875 11.4665Z" fill="#7EE0FF"/>
<path d="M22.7007 6.59673C23.7446 6.91483 24.7506 7.36925 25.6811 7.93727L26.6417 6.49828C25.5525 5.82422 24.3724 5.30164 23.147 4.93053L22.7007 6.59673Z" fill="#7EE0FF"/>
<path d="M28.9111 10.7622L30.2803 9.71703C29.4709 8.7173 28.5253 7.83119 27.489 7.08139L26.5283 8.52039C27.4209 9.16415 28.2152 9.91394 28.9111 10.7622Z" fill="#7EE0FF"/>
<path d="M27.0659 25.1597L28.3367 26.1745C28.957 25.3263 29.4638 24.4099 29.8572 23.4329L28.3292 22.8876C27.9963 23.6904 27.5727 24.4553 27.0659 25.1597Z" fill="#7EE0FF"/>
<path d="M10.3025 28.9845L9.12244 30.2417C10.0907 31.09 11.1573 31.8095 12.3146 32.3775L13.0257 30.8098C12.0423 30.325 11.127 29.704 10.3025 28.9845Z" fill="#7EE0FF"/>
<path d="M8.73667 20.2823C8.66103 19.5476 8.65346 18.8054 8.72154 18.0708C8.73667 17.942 8.7518 17.8057 8.76693 17.6845L7.17084 17.3967C7.14815 17.5709 7.12546 17.7451 7.11033 17.9193C7.02712 18.7903 7.04225 19.6612 7.13302 20.5322L8.73667 20.2823Z" fill="#7EE0FF"/>
<path d="M6.0439 21.6304L4.33435 21.8954C4.57641 23.1602 4.98489 24.3947 5.54465 25.5535L7.07266 24.7431C6.5961 23.751 6.2557 22.7058 6.0439 21.6304Z" fill="#7EE0FF"/>
<path d="M26.324 29.8326L27.2544 31.2868C28.3134 30.5597 29.2741 29.6963 30.1062 28.7269L28.7521 27.6514C28.0411 28.4769 27.2241 29.2116 26.324 29.8326Z" fill="#7EE0FF"/>
<path d="M7.19372 13.2161L5.68841 12.383C5.09839 13.5266 4.66722 14.7459 4.40247 16.0032L6.10445 16.3061C6.33138 15.2307 6.69447 14.1931 7.19372 13.2161Z" fill="#7EE0FF"/>
<path d="M21.702 29.1207L22.0802 30.6885C23.0863 30.4007 24.0546 29.9917 24.9623 29.4615L24.0848 28.0907C23.3359 28.5224 22.5341 28.8708 21.702 29.1207Z" fill="#7EE0FF"/>
<path d="M9.85654 24.319L8.41931 25.0688C8.94125 25.9777 9.58423 26.8108 10.318 27.5606L11.4375 26.3715C10.8323 25.7504 10.3028 25.0612 9.85654 24.319Z" fill="#7EE0FF"/>
<path d="M18.3815 32.1653C18.2378 32.1653 18.0941 32.1502 17.9504 32.135L17.7915 33.8542C19.1455 33.9527 20.5071 33.8618 21.8309 33.5892L21.43 31.9078C20.4315 32.1199 19.4027 32.2032 18.3815 32.1653Z" fill="#7EE0FF"/>
<path d="M9.349 7.76301L10.5064 9.04296C11.346 8.33861 12.2689 7.74787 13.2598 7.2783L12.579 5.68783C11.4141 6.23313 10.3324 6.92991 9.349 7.76301Z" fill="#7EE0FF"/>
<path d="M13.54 5.27885L14.2208 6.86931C15.242 6.47548 16.3086 6.21041 17.3979 6.08923L17.2693 4.36243C15.9909 4.50633 14.7352 4.80928 13.54 5.27885Z" fill="#7EE0FF"/>
<path d="M17.8968 38.2546C19.5232 38.3076 21.1495 38.1713 22.7532 37.8607L22.3749 36.0961C20.9907 36.3839 19.5761 36.4975 18.154 36.4445C17.9271 36.4445 17.7607 36.4142 17.5337 36.399L17.3749 38.247C17.5489 38.2546 17.7228 38.2546 17.8968 38.2546Z" fill="#00C3FF"/>
</svg>
