<?xml version="1.0" encoding="UTF-8" standalone="no"?>
<!DOCTYPE svg PUBLIC "-//W3C//DTD SVG 1.1//EN" "http://www.w3.org/Graphics/SVG/1.1/DTD/svg11.dtd">
<svg width="100%" height="100%" viewBox="0 0 24 24" version="1.1" xmlns="http://www.w3.org/2000/svg" xmlns:xlink="http://www.w3.org/1999/xlink" xml:space="preserve" xmlns:serif="http://www.serif.com/" style="fill-rule:evenodd;clip-rule:evenodd;stroke-linejoin:round;stroke-miterlimit:2;">
    <g>
        <path d="M13.839,17.525C13.833,17.527 13.28,17.711 12.8,17.711C12.535,17.711 12.428,17.656 12.394,17.632C12.226,17.515 11.914,17.296 12.448,16.232L13.448,14.238C14.041,13.054 14.129,11.909 13.693,11.013C13.337,10.28 12.654,9.777 11.773,9.597C11.456,9.532 11.134,9.5 10.815,9.5C8.966,9.5 7.721,10.58 7.669,10.626C7.49,10.784 7.448,11.046 7.567,11.252C7.687,11.458 7.934,11.552 8.162,11.474C8.167,11.472 8.721,11.287 9.201,11.287C9.464,11.287 9.57,11.342 9.603,11.365C9.772,11.483 10.085,11.705 9.552,12.767L8.552,14.762C7.958,15.947 7.871,17.092 8.307,17.987C8.663,18.72 9.345,19.223 10.228,19.403C10.542,19.466 10.864,19.5 11.182,19.5C13.032,19.5 14.278,18.42 14.33,18.374C14.509,18.217 14.551,17.954 14.432,17.748C14.312,17.543 14.063,17.451 13.839,17.525Z" style="fill:white;fill-rule:nonzero;"/>
        <circle cx="13" cy="6.001" r="2.5" style="fill:white;"/>
    </g>
</svg>
