<?xml version="1.0" encoding="UTF-8" standalone="no"?>
<svg
   xmlns:dc="http://purl.org/dc/elements/1.1/"
   xmlns:cc="http://creativecommons.org/ns#"
   xmlns:rdf="http://www.w3.org/1999/02/22-rdf-syntax-ns#"
   xmlns:svg="http://www.w3.org/2000/svg"
   xmlns="http://www.w3.org/2000/svg"
   xmlns:sodipodi="http://sodipodi.sourceforge.net/DTD/sodipodi-0.dtd"
   xmlns:inkscape="http://www.inkscape.org/namespaces/inkscape"
   version="1.1"
   id="Layer_1"
   x="0px"
   y="0px"
   viewBox="0 0 1165.7323 366.29999"
   xml:space="preserve"
   sodipodi:docname="jade_logo_white_on_transparent_rgb.svg"
   width="1165.7323"
   height="366.29999"
   inkscape:version="1.0.1 (c497b03c, 2020-09-10)"><metadata
   id="metadata1682"><rdf:RDF><cc:Work
       rdf:about=""><dc:format>image/svg+xml</dc:format><dc:type
         rdf:resource="http://purl.org/dc/dcmitype/StillImage" /><dc:title></dc:title></cc:Work></rdf:RDF></metadata><defs
   id="defs1680" /><sodipodi:namedview
   pagecolor="#ffffff"
   bordercolor="#666666"
   borderopacity="1"
   objecttolerance="10"
   gridtolerance="10"
   guidetolerance="10"
   inkscape:pageopacity="0"
   inkscape:pageshadow="2"
   inkscape:window-width="1264"
   inkscape:window-height="881"
   id="namedview1678"
   showgrid="false"
   fit-margin-top="0"
   fit-margin-left="0"
   fit-margin-right="0"
   fit-margin-bottom="0"
   inkscape:zoom="0.52403487"
   inkscape:cx="438.90197"
   inkscape:cy="500.43346"
   inkscape:window-x="0"
   inkscape:window-y="23"
   inkscape:window-maximized="0"
   inkscape:current-layer="Layer_1" />
<style
   type="text/css"
   id="style1629">
	.st0{fill:#FFFFFF;}
	.st1{fill:#00B093;}
	.st2{fill:#06886F;}
	.st3{fill:#A9DBD3;}
</style>
<g
   id="g1675"
   transform="translate(-416.5,-329.5)">
	<g
   id="g1653">
		<path
   class="st0"
   d="m 932.8,400.6 c 3.7,3.3 5.6,8.2 5.6,14.9 0,9.2 -3.3,15.8 -9.8,19.7 -6.5,3.9 -15.6,5.8 -27.3,5.9 h -26.6 v -88.5 h 23.2 c 24.4,0 36.6,7.5 36.6,22.5 0.2,4.7 -1.5,9.3 -4.7,12.7 -3.1,3.3 -7.2,5.5 -11.7,6.4 5.4,0.7 10.5,2.9 14.7,6.4 z M 891.6,388.8 H 902 c 4,0.2 7.9,-0.9 11.2,-3.1 2.8,-2.2 4.3,-5.7 4.1,-9.3 0.3,-3.5 -1.3,-7 -4.3,-8.9 -4.2,-2 -8.8,-2.9 -13.4,-2.5 h -7.9 z m 24.1,36.7 c 3.3,-1.9 4.9,-5.4 4.9,-10.6 0.4,-4.2 -1.4,-8.3 -4.7,-10.9 -3.8,-2.4 -8.2,-3.6 -12.7,-3.3 h -11.7 v 27.7 h 9.9 c 4.9,0.1 9.9,-0.8 14.3,-2.9 z"
   id="path1631" />
		<path
   class="st0"
   d="m 969.3,428.4 c 0.7,0.9 1.8,1.3 3,1.2 1.3,0 2.6,-0.2 3.8,-0.6 l 3.5,11.5 c -3.7,1.5 -7.7,2.3 -11.7,2.3 -4.4,0.3 -8.7,-1.3 -11.8,-4.4 -3,-3.6 -4.4,-8.2 -4.1,-12.9 V 346 l 16.4,-1.8 v 80.2 c -0.1,1.4 0.2,2.8 0.9,4 z"
   id="path1633" />
		<path
   class="st0"
   d="m 1040.2,380.8 c 5.6,6.3 8.4,15.1 8.4,26.2 0.2,6.5 -1.2,12.9 -3.8,18.8 -2.4,5.2 -6.2,9.6 -11,12.6 -5.1,3.1 -11,4.6 -17,4.5 -10,0 -17.8,-3.2 -23.5,-9.5 -5.6,-6.4 -8.5,-15.1 -8.5,-26.3 -0.1,-6.4 1.2,-12.8 3.8,-18.7 2.4,-5.2 6.2,-9.5 11,-12.5 5.2,-3.1 11.1,-4.6 17.1,-4.5 10.1,-0.2 17.9,3 23.5,9.4 z M 1002,407 c 0,8 1.2,14 3.6,17.8 2.4,3.8 6.5,5.9 11,5.7 4.4,0.2 8.6,-2 10.9,-5.8 2.4,-3.8 3.7,-9.7 3.7,-17.7 0,-8 -1.2,-13.8 -3.7,-17.6 -2.3,-3.7 -6.5,-5.9 -10.8,-5.7 -9.8,0 -14.6,7.7 -14.6,23.2 h -0.1 z"
   id="path1635" />
		<path
   class="st0"
   d="m 1103.2,373.1 c 3.7,1.4 7.1,3.4 10.1,6 l -7.4,10 c -2,-1.6 -4.2,-2.8 -6.5,-3.8 -2.2,-0.8 -4.7,-1.2 -7.1,-1.2 -10.2,0 -15.3,7.7 -15.3,23.2 0,7.9 1.3,13.5 4,17 2.7,3.4 6.9,5.3 11.3,5.1 2.3,0 4.6,-0.4 6.7,-1.2 2.4,-1.1 4.6,-2.4 6.7,-4 l 7.6,10.7 c -6.2,5.1 -13.9,7.9 -21.9,7.8 -5.9,0.1 -11.8,-1.3 -16.9,-4.3 -4.8,-2.9 -8.7,-7.1 -11,-12.2 -2.7,-5.9 -4,-12.3 -3.8,-18.7 -0.1,-6.5 1.2,-13 3.8,-19 2.3,-5.2 6.2,-9.7 11,-12.7 5,-3.1 10.9,-4.7 16.8,-4.6 4,-0.1 8,0.6 11.9,1.9 z"
   id="path1637" />
		<path
   class="st0"
   d="M 1125.2,440.9 V 346 l 16.4,-1.8 V 441 Z m 59.2,0 h -18.8 l -23.3,-37 22.7,-30.8 h 17.3 l -22.5,29.9 z"
   id="path1639" />
		<path
   class="st0"
   d="m 1239,379.2 -6.4,9.9 c -4.8,-3.6 -10.7,-5.6 -16.7,-5.8 -2.8,-0.2 -5.5,0.5 -7.9,1.9 -1.7,1 -2.8,2.9 -2.8,4.9 -0.1,1.4 0.3,2.7 1.2,3.8 1.1,1.3 2.6,2.3 4.2,2.9 2.9,1.2 5.9,2.2 8.9,3 6,1.3 11.6,4 16.3,7.8 3.7,3.5 5.6,8.5 5.3,13.6 0.2,6.3 -2.9,12.3 -8.2,15.8 -6,4 -13.2,6 -20.4,5.7 -5.2,0.1 -10.4,-0.8 -15.3,-2.5 -4.3,-1.6 -8.4,-4 -11.8,-7 l 8.3,-9.3 c 5.1,4.3 11.5,6.7 18.2,6.8 3.1,0.1 6.2,-0.6 8.8,-2.2 2.1,-1.2 3.3,-3.4 3.3,-5.8 0.1,-1.7 -0.3,-3.4 -1.2,-4.8 -1.2,-1.4 -2.7,-2.5 -4.3,-3.2 -3.2,-1.3 -6.5,-2.4 -9.8,-3.3 -5.7,-1.2 -11,-4 -15.3,-7.9 -3.3,-3.4 -5,-8 -4.9,-12.7 -0.1,-3.7 1.1,-7.2 3.3,-10.2 2.4,-3.1 5.6,-5.6 9.2,-7 4.3,-1.8 8.9,-2.6 13.6,-2.5 9,-0.2 17.6,2.7 24.4,8.1 z"
   id="path1641" />
		<path
   class="st0"
   d="m 1285.2,441.5 c -2.9,0.8 -6,1.3 -9,1.3 -5.7,0.4 -11.2,-1.7 -15.3,-5.7 -3.5,-3.7 -5.1,-9.2 -5.1,-16.5 V 385 h -10.6 v -12 h 10.6 v -15 l 16.4,-1.9 V 373 h 15.7 l -1.6,11.8 h -14.1 v 35.4 c -0.2,2.5 0.4,5 1.7,7.2 1.4,1.6 3.4,2.4 5.4,2.2 2.9,-0.1 5.7,-1 8.1,-2.5 l 5.8,10.6 c -2.4,1.6 -5.1,2.9 -8,3.8 z"
   id="path1643" />
		<path
   class="st0"
   d="M 1342.8,372.1 1340,388 c -2,-0.5 -4,-0.8 -6,-0.8 -3.7,-0.1 -7.2,1.4 -9.4,4.3 -2.8,4 -4.7,8.5 -5.5,13.2 v 36 h -16.4 V 373 h 14.2 l 1.5,13.4 c 1.3,-4.3 3.7,-8.2 7,-11.2 2.9,-2.5 6.7,-3.9 10.7,-3.9 2.2,-0.1 4.5,0.2 6.7,0.8 z"
   id="path1645" />
		<path
   class="st0"
   d="m 1407,412 h -42.5 c 0.6,6.6 2.3,11.3 5.1,14.1 3.1,2.9 7.2,4.4 11.5,4.2 2.9,0 5.7,-0.5 8.4,-1.5 3,-1.2 5.8,-2.7 8.4,-4.6 l 6.8,9.3 c -7,5.9 -15.9,9.1 -25.1,9.1 -10.3,0 -18.3,-3.1 -23.9,-9.5 -5.6,-6.3 -8.4,-14.9 -8.4,-25.9 -0.1,-6.4 1.1,-12.7 3.6,-18.6 2.1,-5.2 5.7,-9.7 10.4,-12.9 4.8,-3.2 10.4,-4.8 16.1,-4.7 9.5,0 16.8,3 22.1,9 5.2,6 7.8,14.4 7.8,25.2 0.1,0.9 0,3.2 -0.3,6.8 z m -15.9,-11.4 c 0,-11.9 -4.4,-17.8 -13.2,-17.8 -3.7,-0.2 -7.2,1.5 -9.4,4.4 -2.3,3 -3.6,7.6 -4,14.2 h 26.6 z"
   id="path1647" />
		<path
   class="st0"
   d="m 1473.7,428.6 c 0.9,1.4 2.3,2.4 3.9,2.9 l -3.5,10.9 c -3.3,-0.2 -6.5,-1.1 -9.4,-2.8 -2.6,-1.7 -4.6,-4.2 -5.6,-7.1 -2.1,3.3 -5.1,5.9 -8.6,7.6 -3.6,1.7 -7.6,2.6 -11.6,2.5 -5.9,0.3 -11.7,-1.8 -16,-5.8 -4,-4 -6.1,-9.5 -5.9,-15.1 -0.4,-6.6 2.6,-12.9 8,-16.8 5.3,-3.9 13,-5.8 22.9,-5.9 h 8.4 v -3.8 c 0.3,-3.3 -0.7,-6.7 -3,-9.2 -2.8,-2 -6.2,-2.9 -9.7,-2.5 -6.1,0.2 -12.2,1.4 -17.9,3.6 l -3.8,-11.1 c 7.8,-3.1 16.2,-4.8 24.6,-4.9 17.3,0 26,7.8 26,23.3 V 423 c -0.1,1.9 0.3,3.9 1.2,5.6 z m -17.4,-6.2 v -13.8 h -6.8 c -10.6,0 -15.8,3.9 -15.9,11.8 -0.2,2.8 0.7,5.5 2.4,7.6 1.9,1.9 4.5,2.9 7.2,2.7 5.7,0.1 10.8,-3.2 13.1,-8.3 z"
   id="path1649" />
		<path
   class="st0"
   d="m 1577.3,376.6 c 3.4,4.2 5.2,9.6 4.9,15 v 49 h -16.4 v -46.5 c 0,-7.3 -2.5,-10.9 -7.4,-10.9 -2.5,0 -5,0.9 -6.8,2.5 -2.4,2.2 -4.4,4.8 -6,7.6 v 47.2 h -16.4 V 394 c 0,-7.3 -2.5,-10.9 -7.5,-10.9 -2.6,0 -5,0.9 -7,2.5 -2.4,2.2 -4.4,4.8 -5.9,7.6 v 47.2 h -16.4 V 373 h 14.2 l 1.3,8.8 c 4.3,-6.7 11.7,-10.8 19.6,-10.8 3.6,-0.1 7.2,0.9 10.2,3 3,2.1 5.2,5 6.3,8.5 2.3,-3.4 5.3,-6.4 8.9,-8.5 3.5,-2 7.4,-3 11.4,-2.9 4.9,-0.3 9.7,1.8 13,5.5 z"
   id="path1651" />
	</g>
	<g
   id="g1663">
		<path
   class="st1"
   d="M 968.1,623.3 V 507.8 h -32.3 v 114.1 c 0,19.3 -10.2,30.5 -28,30.5 -11.4,0 -16.9,-4.2 -22.1,-9.4 l -21.3,21.1 c 12.3,12.1 24.9,17 43.4,17 29,-0.2 60.3,-18.2 60.3,-57.8 z"
   id="path1655" />
		<path
   class="st1"
   d="m 1142.6,648.8 0.2,0.5 10.1,30.1 h 33.6 l -62.7,-171.7 h -25.4 l -62.5,171.7 h 33.6 l 10.5,-30.7 h 62.6 z m -30.7,-93.1 22.2,66.1 h -45.2 z"
   id="path1657" />
		<path
   class="st1"
   d="m 1383.1,599.4 c 0,-2.2 0,-4.3 0,-6.5 0,-2.2 0,-4.3 0,-6.5 0.1,-23 0.3,-44.7 -17.3,-62.3 -10.7,-10.7 -26.3,-16.3 -45.2,-16.3 h -61.8 v 171.7 h 61.8 c 18.9,0 34.5,-5.6 45.2,-16.3 17.6,-17.7 17.5,-40.1 17.3,-63.8 z m -39.8,40.4 c -6.2,7.5 -14.4,11 -25.9,11 h -26.3 V 536.4 h 26.3 c 11.5,0 19.7,3.5 25.9,11 v 0 c 6.4,7.9 7.5,18.2 7.5,45.5 0,26.6 -1,39 -7.5,46.9 z"
   id="path1659" />
		<polygon
   class="st1"
   points="1500.6,650.8 1500.6,607.2 1569,607.2 1569,578.5 1500.6,578.5 1500.6,536.4 1580.9,536.4 1580.9,507.8 1468.3,507.8 1468.3,679.5 1580.9,679.5 1580.9,650.8 "
   id="polygon1661" />
	</g>
	<g
   id="g1673">
		<polygon
   class="st2"
   points="416.5,523.3 588.6,694.9 588.6,581.4 530.3,523.3 "
   id="polygon1665" />
		<polygon
   class="st1"
   points="668.5,523.3 610,581.9 610,695.8 782,523.3 "
   id="polygon1667" />
		<polygon
   class="st3"
   points="668.9,501.9 782.8,501.9 610,329.5 610,443.1 "
   id="polygon1669" />
		<polygon
   class="st0"
   points="530,501.9 588.4,443.4 588.4,329.5 416.5,501.9 "
   id="polygon1671" />
	</g>
</g>
</svg>
