<svg xmlns="http://www.w3.org/2000/svg" width="60" height="60" viewBox="0 0 60 60">
    <g fill="none" fill-rule="evenodd">
        <g>
            <g>
                <path fill="#D8D8D8" fill-opacity="0" d="M0 0H60V60H0z" transform="translate(-202 -1775) translate(202 1775)"/>
                <path fill="#FFF" fill-rule="nonzero" d="M29.615 40.77c2.55 0 4.616 2.066 4.616 4.615 0 2.549-2.067 4.615-4.616 4.615C27.066 50 25 47.934 25 45.385c0-2.55 2.066-4.616 4.615-4.616zm0-15.385c2.55 0 4.616 2.066 4.616 4.615 0 2.549-2.067 4.615-4.616 4.615C27.066 34.615 25 32.55 25 30c0-2.549 2.066-4.615 4.615-4.615zm0-15.385c2.55 0 4.616 2.066 4.616 4.615 0 2.55-2.067 4.616-4.616 4.616-2.549 0-4.615-2.067-4.615-4.616C25 12.066 27.066 10 29.615 10z" transform="translate(-202 -1775) translate(202 1775)"/>
            </g>
        </g>
    </g>
</svg>
