<svg xmlns="http://www.w3.org/2000/svg" width="60" height="60" viewBox="0 0 60 60">
    <g fill="none" fill-rule="evenodd">
        <g>
            <g>
                <path fill="#D8D8D8" fill-opacity="0" d="M0 0H60V60H0z" transform="translate(-202 -1974) translate(202 1974)"/>
                <path fill="#FFF" fill-rule="nonzero" d="M46.23 13.77c-5.026-5.027-13.204-5.027-18.23 0-3.433 3.433-4.626 8.492-3.14 13.083L10.344 41.37c-.22.22-.343.517-.343.829v6.63c0 .647.524 1.171 1.172 1.171h6.63c.31 0 .608-.124.828-.343l1.657-1.659c.253-.253.377-.607.335-.963l-.206-1.78 2.468-.233c.56-.053 1.003-.496 1.056-1.057l.232-2.467 1.781.207c.33.045.664-.066.915-.288.249-.223.392-.542.392-.876V38.36h2.142c.312 0 .61-.123.829-.343l3.005-2.965c4.59 1.487 9.561.385 12.994-3.05 5.027-5.027 5.027-13.205 0-18.231zm-3.315 8.286c-1.37 1.371-3.6 1.371-4.971 0-1.371-1.37-1.371-3.6 0-4.971 1.37-1.371 3.6-1.371 4.971 0s1.371 3.6 0 4.971z" transform="translate(-202 -1974) translate(202 1974)"/>
            </g>
        </g>
    </g>
</svg>
