<?xml version="1.0" encoding="utf-8"?>
<!-- Svg Vector Icons : http://www.onlinewebfonts.com/icon -->
<!DOCTYPE svg PUBLIC "-//W3C//DTD SVG 1.1//EN" "http://www.w3.org/Graphics/SVG/1.1/DTD/svg11.dtd">
<svg version="1.1" xmlns="http://www.w3.org/2000/svg" xmlns:xlink="http://www.w3.org/1999/xlink" x="0px" y="0px" viewBox="0 0 1000 1000" enable-background="new 0 0 1000 1000" xml:space="preserve">
<metadata> Svg Vector Icons : http://www.onlinewebfonts.com/icon </metadata>
<g><g transform="translate(0.000000,512.000000) scale(0.100000,-0.100000)"><path d="M1059.6,4982.5c-445.8-95.7-834.3-487.9-928-935.7c-42.1-200.9-42.1-7663.5,0-7864.4c86.1-411.4,401.8-757.7,832.4-912.7l124.4-44h3913.1h3913.1l139.7,51.7c319.6,114.8,568.3,331,708,610.4c147.4,290.8,137.8-9.6,137.8,4226.9c0,4234.5,9.6,3932.2-135.8,4228.8c-156.9,315.7-482.2,568.3-830.5,641C8738.4,5024.6,1251,5024.6,1059.6,4982.5z M2552.1,112.7v-4286.2l-692.7,5.7l-694.6,5.7l-120.5,65.1c-133.9,72.7-191.3,132-267.9,277.5l-51.7,97.6L719,76.3c-3.8,3442.3-1.9,3807.8,26.8,3892c61.2,191.3,216.2,348.3,398,405.7c57.4,17.2,258.3,24.9,744.3,24.9l664,1.9V112.7z M8933.6,4345.3c120.5-61.2,237.3-176,296.6-298.5l47.8-95.7V114.6v-3836.5l-51.7-99.5c-67-126.3-162.6-222-288.9-288.9l-99.5-51.7l-2835.8-5.7l-2837.7-3.8V114.6v4286.2l2837.7-3.8l2835.8-5.7L8933.6,4345.3z"/></g></g>
</svg>