<svg xmlns="http://www.w3.org/2000/svg" width="60" height="60" viewBox="0 0 60 60">
    <defs>
        <filter id="a201v9aa2a" width="161.9%" height="152%" x="-31%" y="-26%" filterUnits="objectBoundingBox">
            <feOffset dy="1" in="SourceAlpha" result="shadowOffsetOuter1"/>
            <feGaussianBlur in="shadowOffsetOuter1" result="shadowBlurOuter1" stdDeviation="1"/>
            <feColorMatrix in="shadowBlurOuter1" result="shadowMatrixOuter1" values="0 0 0 0 0 0 0 0 0 0 0 0 0 0 0 0 0 0 0.243252841 0"/>
            <feMerge>
                <feMergeNode in="shadowMatrixOuter1"/>
                <feMergeNode in="SourceGraphic"/>
            </feMerge>
        </filter>
    </defs>
    <g fill="none" fill-rule="evenodd">
        <g>
            <g>
                <path fill="#D8D8D8" fill-opacity="0" d="M0 0H60V60H0z" transform="translate(-879 -213) translate(879 213)"/>
                <g transform="translate(-879 -213) translate(879 213) translate(10 10)">
                    <circle cx="19.886" cy="19.886" r="19.886" fill="#46BEAE"/>
                    <g fill="#FFF" filter="url(#a201v9aa2a)" transform="translate(8 8)">
                        <path d="M4.623 16.894c-.439 0-.856-.256-1.038-.683-.62-1.45-.935-2.99-.935-4.579C2.65 5.725 7.09.728 12.978.008c.62-.074 1.182.362 1.258.977.076.614-.364 1.174-.982 1.25-4.76.582-8.348 4.621-8.348 9.397 0 1.285.254 2.53.755 3.701.244.57-.024 1.23-.597 1.472-.144.06-.294.09-.44.09"/>
                        <path d="M7.06 10.766c-.062 0-.127-.008-.19-.024-.41-.107-.657-.528-.552-.941.975-3.82 4.389-6.488 8.303-6.488 1.997 0 3.942.707 5.475 1.993.326.272.37.76.1 1.088-.27.328-.753.373-1.078.1-1.26-1.055-2.856-1.637-4.497-1.637-3.215 0-6.02 2.191-6.82 5.329-.088.349-.4.58-.74.58M14.06 19.856c-.911-.062-1.8-.266-2.64-.608-.397-.162-.591-.622-.433-1.027.159-.406.61-.604 1.007-.442.69.28 1.42.448 2.168.499 1.034.07 2.046-.083 3.006-.457.4-.155.848.05 1 .458.153.408-.048.865-.448 1.02-1.17.455-2.402.642-3.66.557M9.796 24.845c-.074 0-.15-.011-.224-.034C3.936 23.092 0 17.578 0 11.472c0-2.614.743-5.154 2.15-7.345.228-.357.703-.46 1.06-.231.358.229.462.705.232 1.062C2.196 6.9 1.537 9.153 1.537 11.472c0 5.436 3.488 10.346 8.483 11.869.406.124.635.553.51.96-.1.33-.404.544-.734.544"/>
                        <path d="M14.5 22.857c-3.355 0-6.418-1.26-8.473-3.503-.328-.358-.302-.912.059-1.238.36-.325.919-.3 1.247.059 1.815 1.98 4.607 3.047 7.648 2.92.49-.023.899.356.919.84.02.482-.358.89-.846.911-.185.007-.37.011-.555.011"/>
                    </g>
                </g>
            </g>
        </g>
    </g>
</svg>
