<?xml version="1.0" encoding="utf-8"?>
<!-- Generator: Adobe Illustrator 24.2.3, SVG Export Plug-In . SVG Version: 6.00 Build 0)  -->
<svg version="1.1" id="Layer_1" xmlns="http://www.w3.org/2000/svg" xmlns:xlink="http://www.w3.org/1999/xlink" x="0px" y="0px"
	 viewBox="0 0 60 60" style="enable-background:new 0 0 60 60;" xml:space="preserve">
<style type="text/css">
	.st0{fill:none;stroke:#EAEAEB;stroke-width:1px;stroke-dasharray:4,4;stroke-linejoin:round;}
	.st1{fill:#EAEAEB;}
</style>
<g>
	<g>
		<g>
			<g>
				<g>
					<path class="st0" d="M28.7,59.9c-9.8-0.4-18.9-7.2-21.7-16.4c-2.2-7.1-1-14,2.5-20.5c2.5-4.7,6.2-8.6,10-12.4
						c3.3-3.3,6.8-6.4,9.9-9.9c0.5-0.6,0.9-1.2,1.7-0.3C35,5,39.6,8.9,43.8,13.2c3.8,4,7.2,8.3,9.2,13.6
						c4.4,11.8,0.7,24.6-11.5,30.8C37.5,59.5,33.9,60.2,28.7,59.9L28.7,59.9z"/>
				</g>
				<path class="st1" d="M40.7,32.4c0.4-2.5-1.4-5.2-4.9-6.4l0.9-3.6L34,21.7l-0.9,3.5c-0.7-0.2-1.5-0.3-2.2-0.5l0.9-3.5l-2.7-0.7
					l-0.9,3.6l-4.9-1.2l-0.7,2.9c0,0,2,0.5,2,0.5c1.1,0.3,1.3,1,1.3,1.6L22.7,40c-0.1,0.3-0.5,0.8-1.2,0.6c0,0-2-0.5-2-0.5l-1.3,3.1
					l4.9,1.2l-1,3.9l2.7,0.7l1-3.9c0.7,0.2,1.5,0.4,2.2,0.6l-1,3.9l2.7,0.7l1-3.9c4.7,0.9,8.2-0.3,9.1-3.8c0.7-2.8,0.1-4.9-2-6.4
					C39.2,35.7,40.4,34.4,40.7,32.4L40.7,32.4z M35.1,40.8c-0.8,3.4-6.5,1.5-8.4,1.1l1.5-5.9C30,36.4,36,37.3,35.1,40.8z M35.9,32.1
					c-0.8,3-5.5,1.5-7.1,1.1l1.3-5.4C31.8,28.3,36.7,29,35.9,32.1z"/>
			</g>
		</g>
	</g>
</g>
</svg>
