<svg width="24" height="25" viewBox="0 0 24 25" fill="none" xmlns="http://www.w3.org/2000/svg">
<path d="M20.4281 10.3361L12.9281 2.83613C12.8062 2.71424 12.6616 2.61755 12.5023 2.55158C12.3431 2.48561 12.1724 2.45166 12 2.45166C11.8276 2.45166 11.6569 2.48561 11.4977 2.55158C11.3385 2.61755 11.1938 2.71424 11.0719 2.83613L3.57188 10.3361C3.44967 10.4578 3.35278 10.6024 3.28681 10.7617C3.22083 10.921 3.18708 11.0918 3.1875 11.2643V20.2643C3.1875 20.4134 3.24677 20.5565 3.35226 20.662C3.45775 20.7675 3.60082 20.8268 3.75 20.8268H9.75C9.89919 20.8268 10.0423 20.7675 10.1478 20.662C10.2532 20.5565 10.3125 20.4134 10.3125 20.2643V14.8268H13.6875V20.2643C13.6875 20.4134 13.7468 20.5565 13.8523 20.662C13.9577 20.7675 14.1008 20.8268 14.25 20.8268H20.25C20.3992 20.8268 20.5423 20.7675 20.6478 20.662C20.7532 20.5565 20.8125 20.4134 20.8125 20.2643V11.2643C20.8129 11.0918 20.7792 10.921 20.7132 10.7617C20.6472 10.6024 20.5503 10.4578 20.4281 10.3361ZM19.6875 19.7018H14.8125V14.2643C14.8125 14.1151 14.7532 13.972 14.6478 13.8665C14.5423 13.761 14.3992 13.7018 14.25 13.7018H9.75C9.60082 13.7018 9.45775 13.761 9.35226 13.8665C9.24677 13.972 9.1875 14.1151 9.1875 14.2643V19.7018H4.3125V11.2643C4.31236 11.2396 4.31709 11.2151 4.32642 11.1923C4.33575 11.1694 4.3495 11.1487 4.36688 11.1311L11.8669 3.63113C11.8843 3.61356 11.905 3.59961 11.9279 3.59009C11.9507 3.58057 11.9753 3.57567 12 3.57567C12.0248 3.57567 12.0493 3.58057 12.0721 3.59009C12.095 3.59961 12.1157 3.61356 12.1331 3.63113L19.6331 11.1311C19.6505 11.1487 19.6643 11.1694 19.6736 11.1923C19.6829 11.2151 19.6876 11.2396 19.6875 11.2643V19.7018Z" fill="#A0A0A0"/>
</svg>
