<svg width="24" height="25" viewBox="0 0 24 25" fill="none" xmlns="http://www.w3.org/2000/svg">
<path d="M10.8976 16.1167C11.003 16.2221 11.0621 16.3651 11.0621 16.5142C11.0621 16.6632 11.003 16.8062 10.8976 16.9117L7.89763 19.9117C7.79216 20.017 7.64919 20.0762 7.50013 20.0762C7.35107 20.0762 7.2081 20.017 7.10263 19.9117L4.10263 16.9117C4.00327 16.805 3.94918 16.664 3.95175 16.5183C3.95432 16.3725 4.01335 16.2335 4.11641 16.1304C4.21947 16.0274 4.35851 15.9684 4.50424 15.9658C4.64996 15.9632 4.791 16.0173 4.89763 16.1167L6.93763 18.1557V4.51416C6.93763 4.36498 6.99689 4.2219 7.10238 4.11641C7.20787 4.01092 7.35094 3.95166 7.50013 3.95166C7.64931 3.95166 7.79239 4.01092 7.89788 4.11641C8.00337 4.2219 8.06263 4.36498 8.06263 4.51416V18.1557L10.1026 16.1167C10.2081 16.0113 10.3511 15.9522 10.5001 15.9522C10.6492 15.9522 10.7922 16.0113 10.8976 16.1167ZM19.8976 7.11666L16.8976 4.11666C16.7922 4.01132 16.6492 3.95216 16.5001 3.95216C16.3511 3.95216 16.2081 4.01132 16.1026 4.11666L13.1026 7.11666C13.0033 7.22329 12.9492 7.36433 12.9517 7.51005C12.9543 7.65578 13.0134 7.79482 13.1164 7.89788C13.2195 8.00094 13.3585 8.05997 13.5042 8.06254C13.65 8.06511 13.791 8.01102 13.8976 7.91166L15.9376 5.8726V19.5142C15.9376 19.6633 15.9969 19.8064 16.1024 19.9119C16.2079 20.0174 16.3509 20.0767 16.5001 20.0767C16.6493 20.0767 16.7924 20.0174 16.8979 19.9119C17.0034 19.8064 17.0626 19.6633 17.0626 19.5142V5.8726L19.1026 7.91166C19.2093 8.01102 19.3503 8.06511 19.496 8.06254C19.6417 8.05997 19.7808 8.00094 19.8838 7.89788C19.9869 7.79482 20.0459 7.65578 20.0485 7.51005C20.0511 7.36433 19.997 7.22329 19.8976 7.11666Z" fill="#A0A0A0"/>
</svg>
