<svg width="24" height="25" viewBox="0 0 24 25" fill="none" xmlns="http://www.w3.org/2000/svg">
<path d="M12.0002 7.70174C11.1473 7.70174 10.3135 7.95466 9.60434 8.42853C8.89515 8.90239 8.34241 9.57591 8.016 10.3639C7.6896 11.1519 7.6042 12.019 7.7706 12.8556C7.937 13.6921 8.34772 14.4605 8.95084 15.0636C9.55395 15.6668 10.3224 16.0775 11.1589 16.2439C11.9954 16.4103 12.8625 16.3249 13.6506 15.9985C14.4386 15.6721 15.1121 15.1193 15.5859 14.4101C16.0598 13.7009 16.3127 12.8672 16.3127 12.0142C16.3112 10.8709 15.8564 9.77491 15.048 8.96649C14.2396 8.15806 13.1435 7.70323 12.0002 7.70174ZM12.0002 15.2017C11.3698 15.2017 10.7535 15.0148 10.2294 14.6645C9.70517 14.3143 9.29662 13.8165 9.05537 13.234C8.81411 12.6516 8.75099 12.0107 8.87398 11.3924C8.99697 10.7741 9.30055 10.2061 9.74633 9.76034C10.1921 9.31456 10.7601 9.01098 11.3784 8.88799C11.9967 8.765 12.6376 8.82812 13.22 9.06937C13.8025 9.31063 14.3003 9.71918 14.6505 10.2434C15.0008 10.7675 15.1877 11.3838 15.1877 12.0142C15.1877 12.8596 14.8519 13.6704 14.2541 14.2681C13.6564 14.8659 12.8456 15.2017 12.0002 15.2017ZM22.1252 10.1017C22.1089 10.0233 22.0761 9.94935 22.0289 9.88468C21.9816 9.82001 21.9212 9.76616 21.8515 9.72674L18.9977 8.09736L18.9584 8.0308L18.9471 4.81424C18.9471 4.73299 18.9295 4.65271 18.8955 4.57891C18.8615 4.50511 18.812 4.43955 18.7502 4.38674C17.7535 3.54399 16.6061 2.89789 15.3687 2.48268C15.2943 2.45766 15.2155 2.4485 15.1373 2.45576C15.0592 2.46303 14.9834 2.48657 14.9149 2.52486L12.0434 4.12611H11.9496L9.08555 2.52299C9.01673 2.48458 8.94061 2.46106 8.86212 2.45395C8.78363 2.44685 8.70452 2.45631 8.62992 2.48174C7.39262 2.89817 6.24572 3.5459 5.25023 4.39049C5.18827 4.44302 5.13842 4.50835 5.10411 4.58199C5.0698 4.65562 5.05184 4.73582 5.05148 4.81705L5.03648 8.03643C5.02336 8.05799 5.01023 8.08049 4.99805 8.10299L2.14805 9.72393C2.07801 9.76395 2.01739 9.81857 1.97032 9.88408C1.92325 9.9496 1.89082 10.0245 1.87523 10.1036C1.62492 11.3657 1.62492 12.6647 1.87523 13.9267C1.89155 14.0051 1.9244 14.0791 1.97161 14.1438C2.01882 14.2085 2.07929 14.2623 2.14898 14.3017L5.00086 15.9264L5.04023 15.993L5.05148 19.2096C5.05103 19.2917 5.06859 19.373 5.10292 19.4477C5.13726 19.5224 5.18754 19.5886 5.25023 19.6417C6.24692 20.4845 7.39438 21.1306 8.6318 21.5458C8.70619 21.5708 8.78499 21.58 8.86313 21.5727C8.94128 21.5655 9.01704 21.5419 9.08555 21.5036L11.9552 19.9024H12.049L14.914 21.5055C14.9978 21.5518 15.092 21.5763 15.1877 21.5767C15.2493 21.577 15.3105 21.5669 15.3687 21.5467C16.6043 21.1298 17.7496 20.4821 18.7437 19.638C18.8056 19.5855 18.8555 19.5201 18.8898 19.4465C18.9241 19.3729 18.9421 19.2927 18.9424 19.2114L18.9574 15.9921C18.9705 15.9705 18.9837 15.948 18.9959 15.9255L21.8477 14.3046C21.9179 14.2646 21.9787 14.2101 22.026 14.1445C22.0732 14.079 22.1058 14.0041 22.1215 13.9249C22.373 12.663 22.3743 11.3641 22.1252 10.1017ZM21.0705 13.4571L18.3115 15.0236C18.222 15.0748 18.1481 15.1493 18.0977 15.2392C18.0424 15.333 17.9843 15.4371 17.9234 15.5336C17.8679 15.6225 17.8383 15.7251 17.838 15.8299L17.823 18.9433C17.0473 19.5648 16.176 20.0565 15.243 20.3992L12.469 18.8467C12.3851 18.7996 12.2905 18.7747 12.1943 18.7746H12.1812C12.0649 18.7746 11.9468 18.7746 11.8305 18.7746C11.73 18.7721 11.6306 18.7967 11.5427 18.8458L8.76117 20.3983C7.827 20.0573 6.9544 19.5668 6.17742 18.9461L6.16617 15.8364C6.16588 15.7317 6.13633 15.6291 6.08086 15.5402C6.02086 15.4464 5.9618 15.3452 5.90648 15.2458C5.8566 15.1558 5.78299 15.0812 5.69367 15.0302L2.93461 13.458C2.77422 12.5025 2.77422 11.5269 2.93461 10.5714L5.68898 9.00486C5.77983 8.95422 5.85505 8.87964 5.90648 8.78924C5.9618 8.69549 6.01992 8.59143 6.08086 8.49486C6.13633 8.40599 6.16588 8.30338 6.16617 8.19861L6.18117 5.08518C6.95575 4.46405 7.82575 3.97238 8.75742 3.62924L11.5315 5.18174C11.619 5.23165 11.7186 5.25631 11.8193 5.25299C11.9355 5.25299 12.0537 5.25299 12.1699 5.25299C12.2705 5.25541 12.3699 5.2308 12.4577 5.18174L15.2374 3.62924C16.1716 3.97028 17.0442 4.46072 17.8212 5.08143L17.8324 8.19111C17.8327 8.29588 17.8623 8.39849 17.9177 8.48736C17.9777 8.58111 18.0368 8.68236 18.0921 8.78174C18.142 8.87172 18.2156 8.9463 18.3049 8.99736L21.0659 10.5705C21.2272 11.5258 21.2281 12.5014 21.0687 13.4571H21.0705Z" fill="#A7A7A8"/>
</svg>
