<svg width="24" height="25" viewBox="0 0 24 25" fill="none" xmlns="http://www.w3.org/2000/svg">
<path d="M19.5 3.95166H4.5C4.1519 3.95166 3.81806 4.08994 3.57192 4.33608C3.32578 4.58222 3.1875 4.91606 3.1875 5.26416V10.5142C3.1875 15.3835 5.5425 18.3329 7.51875 19.9492C9.64969 21.6929 11.7628 22.2826 11.8519 22.307C11.9489 22.3334 12.0511 22.3334 12.1481 22.307C12.2372 22.2826 14.3503 21.6929 16.4813 19.9492C18.4575 18.3329 20.8125 15.3835 20.8125 10.5142V5.26416C20.8125 4.91606 20.6742 4.58222 20.4281 4.33608C20.1819 4.08994 19.8481 3.95166 19.5 3.95166ZM19.6875 10.5142C19.6875 14.0542 18.3806 16.9257 15.8025 19.051C14.6715 19.9798 13.3838 20.6992 12 21.1754C10.616 20.6996 9.32823 19.9802 8.1975 19.051C5.61938 16.9257 4.3125 14.0542 4.3125 10.5142V5.26416C4.3125 5.21443 4.33225 5.16674 4.36742 5.13158C4.40258 5.09641 4.45027 5.07666 4.5 5.07666H19.5C19.5497 5.07666 19.5974 5.09641 19.6326 5.13158C19.6677 5.16674 19.6875 5.21443 19.6875 5.26416V10.5142ZM16.1475 9.36666C16.2528 9.47213 16.312 9.6151 16.312 9.76416C16.312 9.91322 16.2528 10.0562 16.1475 10.1617L10.8975 15.4117C10.792 15.517 10.6491 15.5762 10.5 15.5762C10.3509 15.5762 10.208 15.517 10.1025 15.4117L7.8525 13.1617C7.75314 13.055 7.69905 12.914 7.70162 12.7683C7.70419 12.6225 7.76322 12.4835 7.86628 12.3804C7.96934 12.2774 8.10838 12.2184 8.25411 12.2158C8.39983 12.2132 8.54087 12.2673 8.6475 12.3667L10.5 14.2182L15.3525 9.36666C15.458 9.26132 15.6009 9.20216 15.75 9.20216C15.8991 9.20216 16.042 9.26132 16.1475 9.36666Z" fill="#A7A7A8"/>
</svg>
