<svg xmlns="http://www.w3.org/2000/svg" width="60" height="60" viewBox="0 0 60 60">
    <g fill="none" fill-rule="evenodd">
        <g>
            <g>
                <path fill="#D8D8D8" fill-opacity="0" d="M0 0H60V60H0z" transform="translate(-282 -1974) translate(282 1974)"/>
                <path fill="#FFF" fill-rule="nonzero" d="M26.59 20.507c2.746 2.809 3.7 6.947 2.51 10.702l11.608 11.876c.176.18.275.423.275.678v5.423c0 .53-.42.958-.937.958h-5.301c-.249 0-.487-.1-.662-.28l-1.325-1.357c-.203-.207-.301-.497-.268-.788l.164-1.457-1.973-.19c-.448-.043-.802-.405-.844-.864l-.186-2.018-1.424.169c-.264.037-.53-.054-.73-.236-.2-.182-.315-.443-.315-.716v-1.785H25.47c-.249 0-.486-.101-.662-.28l-2.403-2.427c-3.67 1.217-7.645.315-10.39-2.495-4.019-4.111-4.019-10.801 0-14.913s10.558-4.111 14.577 0zm3.052-8.069c3.378 2.003 5.37 5.754 5.194 9.688l14.286 8.467c.216.128.375.338.44.584l1.404 5.238c.137.512-.156 1.034-.657 1.168l-5.12 1.372c-.24.065-.496.029-.712-.1l-1.631-.967c-.25-.147-.42-.402-.463-.692l-.218-1.45-1.955.328c-.444.074-.88-.184-1.04-.617l-.701-1.901-1.332.532c-.246.104-.526.085-.767-.039-.24-.124-.418-.346-.488-.61l-.462-1.724-1.655.443c-.211.057-.435.036-.633-.057l-1.526-1.565.02-.096c.755-3.891-.3-7.946-2.896-10.945l-.264-.297-.258-.271c-3.321-3.398-8.06-4.496-12.296-3.293 2.964-4.561 8.98-6.011 13.73-3.196zM14.665 23.22c-1.096 1.122-1.096 2.945 0 4.067 1.096 1.121 2.879 1.121 3.975 0 1.096-1.122 1.096-2.945 0-4.067-1.096-1.121-2.879-1.121-3.975 0z" transform="translate(-282 -1974) translate(282 1974)"/>
            </g>
        </g>
    </g>
</svg>
