<?xml version="1.0" encoding="UTF-8" standalone="no"?>
<svg
   xmlns:dc="http://purl.org/dc/elements/1.1/"
   xmlns:cc="http://creativecommons.org/ns#"
   xmlns:rdf="http://www.w3.org/1999/02/22-rdf-syntax-ns#"
   xmlns:svg="http://www.w3.org/2000/svg"
   xmlns="http://www.w3.org/2000/svg"
   version="1.1"
   viewBox="0 0 48 48"
   data-name="Layer 1"
   id="Layer_1">
  <metadata
     id="metadata35">
    <rdf:RDF>
      <cc:Work
         rdf:about="">
        <dc:format>image/svg+xml</dc:format>
        <dc:type
           rdf:resource="http://purl.org/dc/dcmitype/StillImage" />
        <dc:title>new</dc:title>
      </cc:Work>
    </rdf:RDF>
  </metadata>
  <defs
     id="defs16">
    <style
       id="style2">.cls-1{fill:none;}.cls-2{clip-path:url(#clip-path);}.cls-3{clip-path:url(#clip-path-2);}.cls-4{fill:#00b45a;}.cls-5{clip-path:url(#clip-path-3);}.cls-6{clip-path:url(#clip-path-5);}</style>
    <clipPath
       id="clip-path">
      <polygon
         id="polygon4"
         points="25.55 15.77 23.39 15.77 23.39 23.25 15.91 23.25 15.91 25.41 23.39 25.41 23.39 32.89 25.55 32.89 25.55 25.41 33.03 25.41 33.03 23.25 25.55 23.25 25.55 15.77"
         class="cls-1" />
    </clipPath>
    <clipPath
       id="clip-path-2">
      <rect
         id="rect7"
         height="1948.8"
         width="900"
         y="-1060.47"
         x="-160.32"
         class="cls-1" />
    </clipPath>
    <clipPath
       id="clip-path-3">
      <path
         id="path10"
         d="M24.48,41.21A16.88,16.88,0,1,1,41.36,24.33,16.88,16.88,0,0,1,24.48,41.21Zm0-35.88a19,19,0,1,0,19,19A19,19,0,0,0,24.48,5.33Z"
         class="cls-1" />
    </clipPath>
  </defs>
  <title
     id="title18">new</title>
  <g
     id="g24"
     clip-path="url(#clip-path)"
     class="cls-2">
    <g
       id="g22"
       clip-path="url(#clip-path-2)"
       class="cls-3">
      <path
         id="rect20"
         d="M 3.9200001,3.77 H 45.039999 V 44.889999 H 3.9200001 Z"
         style="fill:#00b45a" />
    </g>
  </g>
  <g
     id="g30"
     clip-path="url(#clip-path-3)"
     class="cls-5">
    <g
       id="g28"
       clip-path="url(#clip-path-2)"
       class="cls-3">
      <path
         id="rect26"
         d="m -6.52,-6.6700001 h 62 V 55.33 h -62 z"
         style="fill:#00b45a" />
    </g>
  </g>
</svg>
