<svg id="Layer_1" data-name="Layer 1" xmlns="http://www.w3.org/2000/svg" xmlns:xlink="http://www.w3.org/1999/xlink" viewBox="0 0 24 24"><defs><style>.cls-1{fill:none;}.cls-2{clip-path:url(#clip-path);}.cls-3{clip-path:url(#clip-path-2);}.cls-4{fill:#fff;}.cls-5{fill:#ea5262;}</style><clipPath id="clip-path"><rect class="cls-1" x="1.27" y="-113.18" width="21.97" height="17.42"/></clipPath><clipPath id="clip-path-2"><path class="cls-1" d="M-46-19.68A4.67,4.67,0,0,1-50.63-15a4.67,4.67,0,0,1-4.67-4.67,4.68,4.68,0,0,1,4.67-4.68A4.68,4.68,0,0,1-46-19.68Zm5.91-2-3.09-.48a7.92,7.92,0,0,0-1.55-2.7l1.17-2.92-3.37-2-2,2.42a7.86,7.86,0,0,0-3.48,0l-2-2.42-3.37,2,1.17,2.9a7.87,7.87,0,0,0-1.55,2.71l-3.09.49v3.94l3.09.48a7.92,7.92,0,0,0,1.55,2.7l-1.17,2.91,3.37,2,2-2.42a7.86,7.86,0,0,0,3.48,0l2,2.42,3.37-2-1.17-2.89a7.87,7.87,0,0,0,1.55-2.71l3.09-.49Z"/></clipPath></defs><title>notifications_clicked_2</title><path class="cls-1" d="M0,0H24V24H0Z"/><path class="cls-4" d="M21.47,2.68l-9.4-1.45L5.8,7.5,1.08,9.05l4.51,4.51-.84.84,1.08,4,4,1.08.84-.84,4.43,4.43,1.55-4.72,6.27-6.27ZM9.3,17.5l-2-.54-.54-2,.12-.12,2.57,2.58Z"/><circle class="cls-5" cx="19.15" cy="5.07" r="3.51"/></svg>