<svg id="Layer_1" data-name="Layer 1" xmlns="http://www.w3.org/2000/svg" xmlns:xlink="http://www.w3.org/1999/xlink" viewBox="0 0 24 24"><defs><style>.cls-1{fill:none;}.cls-2{fill:#fff;}.cls-3{fill:#ea5262;}.cls-4{clip-path:url(#clip-path);}.cls-5{clip-path:url(#clip-path-2);}</style><clipPath id="clip-path"><rect class="cls-1" x="32.77" y="-113.18" width="21.97" height="17.42"/></clipPath><clipPath id="clip-path-2"><path class="cls-1" d="M-14.46-19.68A4.67,4.67,0,0,1-19.13-15a4.67,4.67,0,0,1-4.67-4.67,4.68,4.68,0,0,1,4.67-4.68A4.68,4.68,0,0,1-14.46-19.68Zm5.91-2-3.09-.48a7.92,7.92,0,0,0-1.55-2.7L-12-27.75l-3.37-2-2,2.42a7.86,7.86,0,0,0-3.48,0l-2-2.42-3.37,2,1.17,2.9a7.87,7.87,0,0,0-1.55,2.71l-3.09.49v3.94l3.09.48a7.92,7.92,0,0,0,1.55,2.7l-1.17,2.91,3.37,2,2-2.42a7.86,7.86,0,0,0,3.48,0l2,2.42,3.37-2-1.17-2.89a7.87,7.87,0,0,0,1.55-2.71l3.09-.49Z"/></clipPath></defs><title>notifications_2</title><path class="cls-2" d="M19.67,15.38V6.51L12,.9,4.32,6.51v8.87L2.08,19.81H8.46V21l3.59,2.07L15.64,21V19.81h6.27Zm-5.8,4.43V20L12.05,21,10.23,20v-.17ZM19,18H5L6.09,15.8V7.41L12,3.09l5.9,4.32V15.8Z"/><circle class="cls-3" cx="18.4" cy="5.72" r="3.51"/></svg>