<svg xmlns="http://www.w3.org/2000/svg" width="30" height="30" viewBox="0 0 30 30">
    <g fill="none" fill-rule="evenodd">
        <g>
            <g>
                <path fill="#D8D8D8" fill-opacity="0" d="M0 0H30V30H0z" transform="translate(-209 -12944) translate(209 12944)"/>
                <path fill="#FFF" fill-rule="nonzero" d="M15.25 7c5.119 0 9.48 3.223 11.25 7.773-1.77 4.55-6.131 7.772-11.25 7.772-5.114 0-9.48-3.223-11.25-7.772C5.77 10.223 10.136 7 15.25 7zm0 2.59c-2.823 0-5.114 2.322-5.114 5.183 0 2.86 2.291 5.182 5.114 5.182s5.114-2.322 5.114-5.182c0-2.86-2.291-5.182-5.114-5.182zm0 2.32c1.693 0 3.068 1.375 3.068 3.067 0 1.693-1.375 3.068-3.068 3.068s-3.068-1.375-3.068-3.068c0-1.692 1.375-3.068 3.068-3.068z" transform="translate(-209 -12944) translate(209 12944)"/>
            </g>
        </g>
    </g>
</svg>
