<svg xmlns="http://www.w3.org/2000/svg" width="61" height="60" viewBox="0 0 61 60">
    <defs>
        <filter id="4yf1oao05a">
            <feColorMatrix in="SourceGraphic" values="0 0 0 0 1.000000 0 0 0 0 1.000000 0 0 0 0 1.000000 0 0 0 1.000000 0"/>
        </filter>
    </defs>
    <g fill="none" fill-rule="evenodd">
        <g>
            <g>
                <path fill="#D8D8D8" fill-opacity="0" d="M0 0H60V60H0z" transform="translate(-967 -2352) translate(967.5 2352)"/>
                <g filter="url(#4yf1oao05a)" transform="translate(-967 -2352) translate(967.5 2352)">
                    <g fill="#FFF" fill-rule="nonzero">
                        <path d="M18 0C8.075 0 0 8.075 0 18s8.075 18 18 18 18-8.075 18-18S27.925 0 18 0zm0 32.87C9.801 32.87 3.13 26.199 3.13 18 3.13 9.801 9.801 3.13 18 3.13c8.199 0 14.87 6.671 14.87 14.87 0 8.199-6.671 14.87-14.87 14.87z" transform="translate(12 12)"/>
                        <path d="M26.246 10.228c-.224-.226-.56-.29-.849-.164L14.617 14.7c-.182.078-.326.224-.405.407l-4.62 10.817c-.125.291-.06.628.163.852.148.145.345.224.546.224.101 0 .204-.022.303-.062l10.78-4.636c.182-.079.326-.224.405-.406l4.62-10.818c.123-.29.058-.628-.163-.85zM18 20.046c-.849 0-1.54-.694-1.54-1.546 0-.851.691-1.545 1.54-1.545.848 0 1.54.694 1.54 1.545 0 .852-.692 1.546-1.54 1.546z" transform="translate(12 12)"/>
                    </g>
                </g>
            </g>
        </g>
    </g>
</svg>
