<?xml version="1.0" encoding="UTF-8" standalone="no"?>
<svg
   xmlns:dc="http://purl.org/dc/elements/1.1/"
   xmlns:cc="http://creativecommons.org/ns#"
   xmlns:rdf="http://www.w3.org/1999/02/22-rdf-syntax-ns#"
   xmlns:svg="http://www.w3.org/2000/svg"
   xmlns="http://www.w3.org/2000/svg"
   xmlns:sodipodi="http://sodipodi.sourceforge.net/DTD/sodipodi-0.dtd"
   xmlns:inkscape="http://www.inkscape.org/namespaces/inkscape"
   width="45"
   height="45"
   viewBox="0 0 45 45"
   version="1.1"
   id="svg105"
   sodipodi:docname="proxyV2.svg"
   inkscape:version="1.0.1 (c497b03c, 2020-09-10)">
  <metadata
     id="metadata111">
    <rdf:RDF>
      <cc:Work
         rdf:about="">
        <dc:format>image/svg+xml</dc:format>
        <dc:type
           rdf:resource="http://purl.org/dc/dcmitype/StillImage" />
        <dc:title />
      </cc:Work>
    </rdf:RDF>
  </metadata>
  <defs
     id="defs109" />
  <sodipodi:namedview
     pagecolor="#ffffff"
     bordercolor="#666666"
     borderopacity="1"
     objecttolerance="10"
     gridtolerance="10"
     guidetolerance="10"
     inkscape:pageopacity="0"
     inkscape:pageshadow="2"
     inkscape:window-width="1084"
     inkscape:window-height="730"
     id="namedview107"
     showgrid="false"
     fit-margin-top="0"
     fit-margin-left="0"
     fit-margin-right="0"
     fit-margin-bottom="0"
     inkscape:zoom="5.8353099"
     inkscape:cx="16.324948"
     inkscape:cy="30.787658"
     inkscape:window-x="0"
     inkscape:window-y="25"
     inkscape:window-maximized="0"
     inkscape:current-layer="svg105"
     inkscape:document-rotation="0" />
  <g
     fill="none"
     fill-rule="evenodd"
     id="g103"
     transform="matrix(1.2,0,0,1.2,-13.5,-13.5)"
     style="fill:#ffffff">
    <g
       id="g101"
       style="fill:#ffffff">
      <g
         id="g99"
         style="fill:#ffffff">
        <path
           fill="#d8d8d8"
           fill-opacity="0"
           d="M 0,0 H 60 V 60 H 0 Z"
           id="path85"
           style="fill:#ffffff" />
        <g
           id="g97"
           style="fill:#ffffff">
          <g
             id="g91"
             style="fill:#ffffff">
            <path
               fill="#d8d8d8"
               fill-opacity="0"
               d="M 0,0 H 36 V 36 H 0 Z"
               transform="translate(12,6)"
               id="path87"
               style="fill:#ffffff" />
            <path
               fill="#ffffff"
               fill-rule="nonzero"
               d="m 17.723,6.03 c 0.132,-0.04 0.272,-0.04 0.404,0 l 9.414,2.824 c 0.298,0.09 0.501,0.363 0.501,0.673 v 10.356 c 0,1.347 -0.545,2.726 -1.62,4.098 -0.822,1.048 -1.958,2.1 -3.378,3.128 -2.384,1.726 -4.733,2.785 -4.832,2.83 C 18.121,29.979 18.023,30 17.925,30 17.827,30 17.729,29.98 17.638,29.939 17.539,29.894 15.191,28.835 12.806,27.109 11.386,26.081 10.25,25.029 9.429,23.981 8.353,22.608 7.808,21.23 7.808,19.883 V 9.527 c 0,-0.31 0.204,-0.584 0.5,-0.673 z m 1.247,6.517 H 14.995 V 22.8 h 2.002 v -3.86 h 1.973 c 2.116,0 3.384,-1.454 3.384,-3.196 0,-1.742 -1.268,-3.197 -3.384,-3.197 z m -0.101,1.786 c 0.907,0 1.483,0.576 1.483,1.411 0,0.835 -0.576,1.397 -1.483,1.397 h -1.872 v -2.808 z"
               transform="translate(12,6)"
               id="path89"
               style="fill:#ffffff" />
          </g>
          <g
             fill="#ffffff"
             fill-rule="nonzero"
             id="g95"
             style="fill:#ffffff">
            <path
               d="m 0,4.08 v 0.576 c 0,0.398 0.31,0.72 0.694,0.72 H 4.536 V 3.36 H 0.694 C 0.311,3.36 0,3.682 0,4.08 Z M 25.226,3.36 h -3.842 v 2.016 h 3.842 c 0.383,0 0.694,-0.322 0.694,-0.72 V 4.08 c 0,-0.398 -0.31,-0.72 -0.694,-0.72 z M 18.675,2.688 H 7.245 C 6.823,2.688 6.48,3.049 6.48,3.494 v 2.42 c 0,0.445 0.343,0.806 0.765,0.806 h 11.43 c 0.422,0 0.765,-0.361 0.765,-0.806 v -2.42 c 0,-0.445 -0.343,-0.806 -0.765,-0.806 z M 10.368,0 h 4.536 v 1.344 h -4.536 z"
               transform="translate(17,41)"
               id="path93"
               style="fill:#ffffff" />
          </g>
        </g>
      </g>
    </g>
  </g>
</svg>
