<svg id="Layer_1" data-name="Layer 1" xmlns="http://www.w3.org/2000/svg" viewBox="0 0 48 48"><defs><style>.cls-1{fill:#78838e;}</style></defs><title>qr</title><path class="cls-1" d="M22.24,0H1.07V22.15H22.24ZM18.71,18.46H4.59V3.69H18.71Z"/><rect class="cls-1" x="8.12" y="7.38" width="7.06" height="7.38"/><path class="cls-1" d="M46.93,0H25.76V22.15H46.93ZM43.41,18.46H29.29V3.69H43.41Z"/><rect class="cls-1" x="32.82" y="7.38" width="7.06" height="7.38"/><path class="cls-1" d="M22.24,25.85H1.07V48H22.24ZM18.71,44.31H4.59V29.54H18.71Z"/><rect class="cls-1" x="8.12" y="33.23" width="7.06" height="7.38"/><polygon class="cls-1" points="32.82 44.31 39.88 44.31 39.88 40.62 36.35 40.62 36.35 36.92 39.88 36.92 39.88 40.62 46.93 40.62 46.93 33.23 39.88 33.23 39.88 29.54 36.35 29.54 36.35 33.23 32.82 33.23 32.82 29.54 29.29 29.54 29.29 25.85 25.76 25.85 25.76 33.23 29.29 33.23 29.29 36.92 32.82 36.92 32.82 44.31"/><rect class="cls-1" x="39.88" y="44.31" width="7.06" height="3.69"/><rect class="cls-1" x="25.76" y="36.92" width="3.53" height="7.38"/><rect class="cls-1" x="43.41" y="25.85" width="3.53" height="3.69"/><rect class="cls-1" x="32.82" y="25.85" width="3.53" height="3.69"/><rect class="cls-1" x="29.29" y="44.31" width="3.53" height="3.69"/></svg>