<?xml version="1.0" encoding="UTF-8" standalone="no"?>
<svg
   xmlns:dc="http://purl.org/dc/elements/1.1/"
   xmlns:cc="http://creativecommons.org/ns#"
   xmlns:rdf="http://www.w3.org/1999/02/22-rdf-syntax-ns#"
   xmlns:svg="http://www.w3.org/2000/svg"
   xmlns="http://www.w3.org/2000/svg"
   xmlns:sodipodi="http://sodipodi.sourceforge.net/DTD/sodipodi-0.dtd"
   xmlns:inkscape="http://www.inkscape.org/namespaces/inkscape"
   id="Layer_1"
   data-name="Layer 1"
   viewBox="0 0 24 24"
   version="1.1"
   sodipodi:docname="receive.svg"
   inkscape:version="1.0.1 (c497b03c, 2020-09-10)">
  <metadata
     id="metadata527">
    <rdf:RDF>
      <cc:Work
         rdf:about="">
        <dc:format>image/svg+xml</dc:format>
        <dc:type
           rdf:resource="http://purl.org/dc/dcmitype/StillImage" />
      </cc:Work>
    </rdf:RDF>
  </metadata>
  <sodipodi:namedview
     pagecolor="#ffffff"
     bordercolor="#666666"
     borderopacity="1"
     objecttolerance="10"
     gridtolerance="10"
     guidetolerance="10"
     inkscape:pageopacity="0"
     inkscape:pageshadow="2"
     inkscape:window-width="714"
     inkscape:window-height="480"
     id="namedview525"
     showgrid="false"
     inkscape:zoom="42"
     inkscape:cx="11.761905"
     inkscape:cy="23.809524"
     inkscape:window-x="0"
     inkscape:window-y="23"
     inkscape:window-maximized="0"
     inkscape:current-layer="Layer_1" />
  <defs
     id="defs514">
    <style
       id="style506">.cls-1{fill:none;}.cls-2{clip-path:url(#clip-path);}.cls-3{clip-path:url(#clip-path-2);}.cls-4{fill:#00b45a;}</style>
    <clipPath
       id="clip-path">
      <rect
         class="cls-1"
         x="95.59"
         y="57.31"
         width="21.97"
         height="17.42"
         id="rect508" />
    </clipPath>
    <clipPath
       id="clip-path-2">
      <path
         class="cls-1"
         d="M48.37,150.81a4.68,4.68,0,1,1-4.67-4.68A4.67,4.67,0,0,1,48.37,150.81Zm5.91-2-3.1-.48a7.76,7.76,0,0,0-1.55-2.7l1.18-2.92-3.38-2-2,2.42a7.91,7.91,0,0,0-3.49,0l-2-2.42-3.38,2,1.18,2.9a7.87,7.87,0,0,0-1.55,2.71l-3.09.49v3.94l3.09.47A7.87,7.87,0,0,0,37.76,156l-1.18,2.91,3.38,2,2-2.43a7.62,7.62,0,0,0,3.49,0l2,2.43,3.38-2L49.63,156a7.67,7.67,0,0,0,1.55-2.7l3.1-.49Z"
         id="path511" />
    </clipPath>
  </defs>
  <title
     id="title516">receive</title>
  <path
     class="cls-1"
     d="M0,0H24V24H0Z"
     id="path518" />
  <polygon
     class="cls-4"
     points="7.05 11.98 12 16.93 16.95 11.98 15.82 10.86 12.8 13.87 12.8 3.19 11.2 3.19 11.2 13.87 8.18 10.86 7.05 11.98"
     id="polygon520"
     style="fill:#ffffff" />
  <polygon
     class="cls-4"
     points="2.68 16.01 2.68 20.81 21.32 20.81 21.32 16.01 19.73 16.01 19.73 19.21 4.28 19.21 4.28 16.01 2.68 16.01"
     id="polygon522"
     style="fill:#ffffff" />
</svg>
