<svg id="Layer_1" data-name="Layer 1" xmlns="http://www.w3.org/2000/svg" xmlns:xlink="http://www.w3.org/1999/xlink" viewBox="0 0 24 24"><defs><style>.cls-1{fill:none;}.cls-2{clip-path:url(#clip-path);}.cls-3{clip-path:url(#clip-path-2);}.cls-4{fill:#00b45a;}</style><clipPath id="clip-path"><rect class="cls-1" x="95.59" y="57.31" width="21.97" height="17.42"/></clipPath><clipPath id="clip-path-2"><path class="cls-1" d="M48.37,150.81a4.68,4.68,0,1,1-4.67-4.68A4.67,4.67,0,0,1,48.37,150.81Zm5.91-2-3.1-.48a7.76,7.76,0,0,0-1.55-2.7l1.18-2.92-3.38-2-2,2.42a7.91,7.91,0,0,0-3.49,0l-2-2.42-3.38,2,1.18,2.9a7.87,7.87,0,0,0-1.55,2.71l-3.09.49v3.94l3.09.47A7.87,7.87,0,0,0,37.76,156l-1.18,2.91,3.38,2,2-2.43a7.62,7.62,0,0,0,3.49,0l2,2.43,3.38-2L49.63,156a7.67,7.67,0,0,0,1.55-2.7l3.1-.49Z"/></clipPath></defs><title>receive</title><path class="cls-1" d="M0,0H24V24H0Z"/><polygon class="cls-4" points="7.05 11.98 12 16.93 16.95 11.98 15.82 10.86 12.8 13.87 12.8 3.19 11.2 3.19 11.2 13.87 8.18 10.86 7.05 11.98"/><polygon class="cls-4" points="2.68 16.01 2.68 20.81 21.32 20.81 21.32 16.01 19.73 16.01 19.73 19.21 4.28 19.21 4.28 16.01 2.68 16.01"/></svg>