<?xml version="1.0" encoding="utf-8"?>
<!-- Svg Vector Icons : http://www.onlinewebfonts.com/icon -->
<!DOCTYPE svg PUBLIC "-//W3C//DTD SVG 1.1//EN" "http://www.w3.org/Graphics/SVG/1.1/DTD/svg11.dtd">
<svg version="1.1" xmlns="http://www.w3.org/2000/svg" xmlns:xlink="http://www.w3.org/1999/xlink" x="0px" y="0px" viewBox="0 0 1000 1000" enable-background="new 0 0 1000 1000" xml:space="preserve">
<metadata> Svg Vector Icons : http://www.onlinewebfonts.com/icon </metadata>
<g><g transform="translate(0.000000,511.000000) scale(0.100000,-0.100000)"><path d="M1548.9,3766.5c-291.4-683.3-525.3-1245.6-521.2-1249.7c16.4-12.3,2665.6-322.2,2677.9-311.9c6.1,6.2-119,238-279.1,515.1c-158,277-289.3,511-289.3,521.2c0,22.6,305.7,166.2,531.5,250.4c219.6,80,527.4,158,788,197c279.1,43.1,839.3,43.1,1122.5,0C7212.5,3438.1,8491,2243.9,8850.1,637.1c96.4-439.1,119-892.6,63.6-1325.6c-221.6-1717.5-1498-3071.9-3205.3-3396.1c-205.2-39-309.9-47.2-703.8-47.2c-391.9,0-498.6,8.2-703.8,47.2c-447.3,84.2-950.1,275-1317.4,496.6C1858.8-2908.8,1150.8-1739.1,1072.9-427.9l-14.4,225.7H730.2H401.8l14.4-238c73.9-1303,660.8-2468.6,1664.2-3307.9c605.3-506.9,1376.9-855.7,2216.2-1003.5c291.4-51.3,1124.5-51.3,1415.9,0c482.2,84.1,890.6,217.5,1313.3,422.7c923.4,451.4,1653.9,1184,2105.4,2105.4c1116.3,2288,162.1,5045.9-2125.9,6147.9c-648.4,314-1268.1,455.5-1990.5,455.5c-716.2,0-1387.2-153.9-2008.9-459.6c-110.8-55.4-205.2-100.5-209.3-100.5c-2.1,0-160.1,268.8-348.8,595.1c-188.8,328.3-348.8,595.1-357,595.1C2084.5,5010,1840.3,4449.8,1548.9,3766.5z"/><path d="M5004.6,782.8v-985h-985h-985v-328.3v-328.3h1313.3h1313.3V454.5v1313.3h-328.3h-328.3V782.8z"/></g></g>
</svg>