<?xml version="1.0" encoding="UTF-8" standalone="no"?>
<svg
   xmlns:dc="http://purl.org/dc/elements/1.1/"
   xmlns:cc="http://creativecommons.org/ns#"
   xmlns:rdf="http://www.w3.org/1999/02/22-rdf-syntax-ns#"
   xmlns:svg="http://www.w3.org/2000/svg"
   xmlns="http://www.w3.org/2000/svg"
   xmlns:sodipodi="http://sodipodi.sourceforge.net/DTD/sodipodi-0.dtd"
   xmlns:inkscape="http://www.inkscape.org/namespaces/inkscape"
   height="512px"
   id="Layer_1"
   style="enable-background:new 0 0 512 512;"
   version="1.1"
   viewBox="0 0 512 512"
   width="512px"
   xml:space="preserve"
   sodipodi:docname="search.svg"
   inkscape:version="1.0.1 (c497b03c, 2020-09-10)"><metadata
     id="metadata66"><rdf:RDF><cc:Work
         rdf:about=""><dc:format>image/svg+xml</dc:format><dc:type
           rdf:resource="http://purl.org/dc/dcmitype/StillImage" /><dc:title></dc:title></cc:Work></rdf:RDF></metadata><defs
     id="defs64" /><sodipodi:namedview
     pagecolor="#ffffff"
     bordercolor="#666666"
     borderopacity="1"
     objecttolerance="10"
     gridtolerance="10"
     guidetolerance="10"
     inkscape:pageopacity="0"
     inkscape:pageshadow="2"
     inkscape:window-width="784"
     inkscape:window-height="480"
     id="namedview62"
     showgrid="false"
     inkscape:zoom="0.4609375"
     inkscape:cx="256"
     inkscape:cy="256"
     inkscape:window-x="0"
     inkscape:window-y="23"
     inkscape:window-maximized="0"
     inkscape:current-layer="Layer_1" /><path
     d="M344.5,298c15-23.6,23.8-51.6,23.8-81.7c0-84.1-68.1-152.3-152.1-152.3C132.1,64,64,132.2,64,216.3  c0,84.1,68.1,152.3,152.1,152.3c30.5,0,58.9-9,82.7-24.4l6.9-4.8L414.3,448l33.7-34.3L339.5,305.1L344.5,298z M301.4,131.2  c22.7,22.7,35.2,52.9,35.2,85c0,32.1-12.5,62.3-35.2,85c-22.7,22.7-52.9,35.2-85,35.2c-32.1,0-62.3-12.5-85-35.2  c-22.7-22.7-35.2-52.9-35.2-85c0-32.1,12.5-62.3,35.2-85c22.7-22.7,52.9-35.2,85-35.2C248.5,96,278.7,108.5,301.4,131.2z"
     id="path59"
     style="fill:#ffffff" /></svg>
