<?xml version="1.0" encoding="UTF-8" standalone="no"?>
<svg
   xmlns:dc="http://purl.org/dc/elements/1.1/"
   xmlns:cc="http://creativecommons.org/ns#"
   xmlns:rdf="http://www.w3.org/1999/02/22-rdf-syntax-ns#"
   xmlns:svg="http://www.w3.org/2000/svg"
   xmlns="http://www.w3.org/2000/svg"
   xmlns:sodipodi="http://sodipodi.sourceforge.net/DTD/sodipodi-0.dtd"
   xmlns:inkscape="http://www.inkscape.org/namespaces/inkscape"
   id="Layer_1"
   data-name="Layer 1"
   viewBox="0 0 24 24"
   version="1.1"
   sodipodi:docname="security.svg"
   inkscape:version="1.0.1 (c497b03c, 2020-09-10)">
  <metadata
     id="metadata444">
    <rdf:RDF>
      <cc:Work
         rdf:about="">
        <dc:format>image/svg+xml</dc:format>
        <dc:type
           rdf:resource="http://purl.org/dc/dcmitype/StillImage" />
      </cc:Work>
    </rdf:RDF>
  </metadata>
  <sodipodi:namedview
     pagecolor="#ffffff"
     bordercolor="#666666"
     borderopacity="1"
     objecttolerance="10"
     gridtolerance="10"
     guidetolerance="10"
     inkscape:pageopacity="0"
     inkscape:pageshadow="2"
     inkscape:window-width="689"
     inkscape:window-height="480"
     id="namedview442"
     showgrid="false"
     inkscape:zoom="42"
     inkscape:cx="12"
     inkscape:cy="12"
     inkscape:window-x="0"
     inkscape:window-y="23"
     inkscape:window-maximized="0"
     inkscape:current-layer="Layer_1" />
  <defs
     id="defs433">
    <style
       id="style425">.cls-1{fill:none;}.cls-2{clip-path:url(#clip-path);}.cls-3{fill:#00b45a;}.cls-4{clip-path:url(#clip-path-2);}</style>
    <clipPath
       id="clip-path">
      <rect
         class="cls-1"
         x="32.77"
         y="-34.75"
         width="21.97"
         height="17.42"
         id="rect427" />
    </clipPath>
    <clipPath
       id="clip-path-2">
      <path
         class="cls-1"
         d="M-14.46,58.75a4.67,4.67,0,0,1-4.67,4.68,4.67,4.67,0,0,1-4.67-4.68,4.67,4.67,0,0,1,4.67-4.67A4.67,4.67,0,0,1-14.46,58.75Zm5.91-2-3.09-.48a7.87,7.87,0,0,0-1.55-2.71L-12,50.69l-3.37-2-2,2.42a7.58,7.58,0,0,0-3.48,0l-2-2.42-3.37,2,1.17,2.9a7.92,7.92,0,0,0-1.55,2.7l-3.09.5v3.93l3.09.48a7.87,7.87,0,0,0,1.55,2.71l-1.17,2.9,3.37,2,2-2.42a7.58,7.58,0,0,0,3.48,0l2,2.42,3.37-2-1.17-2.9a7.87,7.87,0,0,0,1.55-2.71l3.09-.49Z"
         id="path430" />
    </clipPath>
  </defs>
  <title
     id="title435">security</title>
  <path
     class="cls-1"
     d="M0,0H24V24H0Z"
     id="path437" />
  <path
     class="cls-3"
     d="M12,1,3,5v6c0,5.55,3.84,10.74,9,12,5.16-1.26,9-6.45,9-12V5Zm0,11h7c-.53,4.12-3.28,7.79-7,8.94V12H5V6.3l7-3.11Z"
     id="path439"
     style="fill:#ffffff" />
</svg>
