<svg id="Layer_1" data-name="Layer 1" xmlns="http://www.w3.org/2000/svg" xmlns:xlink="http://www.w3.org/1999/xlink" viewBox="0 0 24 24"><defs><style>.cls-1{fill:none;}.cls-2{clip-path:url(#clip-path);}.cls-3{fill:#00b45a;}.cls-4{clip-path:url(#clip-path-2);}</style><clipPath id="clip-path"><rect class="cls-1" x="32.77" y="-34.75" width="21.97" height="17.42"/></clipPath><clipPath id="clip-path-2"><path class="cls-1" d="M-14.46,58.75a4.67,4.67,0,0,1-4.67,4.68,4.67,4.67,0,0,1-4.67-4.68,4.67,4.67,0,0,1,4.67-4.67A4.67,4.67,0,0,1-14.46,58.75Zm5.91-2-3.09-.48a7.87,7.87,0,0,0-1.55-2.71L-12,50.69l-3.37-2-2,2.42a7.58,7.58,0,0,0-3.48,0l-2-2.42-3.37,2,1.17,2.9a7.92,7.92,0,0,0-1.55,2.7l-3.09.5v3.93l3.09.48a7.87,7.87,0,0,0,1.55,2.71l-1.17,2.9,3.37,2,2-2.42a7.58,7.58,0,0,0,3.48,0l2,2.42,3.37-2-1.17-2.9a7.87,7.87,0,0,0,1.55-2.71l3.09-.49Z"/></clipPath></defs><title>security</title><path class="cls-1" d="M0,0H24V24H0Z"/><path class="cls-3" d="M12,1,3,5v6c0,5.55,3.84,10.74,9,12,5.16-1.26,9-6.45,9-12V5Zm0,11h7c-.53,4.12-3.28,7.79-7,8.94V12H5V6.3l7-3.11Z"/></svg>