<svg id="Layer_1" data-name="Layer 1" xmlns="http://www.w3.org/2000/svg" viewBox="0 0 24 24"><defs><style>.cls-1{fill:#fff;}.cls-2{fill:none;}</style></defs><title>settings_clicked</title><path class="cls-1" d="M16.87,12A4.68,4.68,0,1,1,12.2,7.31,4.67,4.67,0,0,1,16.87,12Zm5.91-2-3.1-.48a7.72,7.72,0,0,0-1.55-2.71l1.18-2.91-3.38-2-2,2.42a7.62,7.62,0,0,0-3.49,0l-2-2.42-3.38,2,1.18,2.9a7.92,7.92,0,0,0-1.55,2.7L1.62,10V14l3.09.48a7.87,7.87,0,0,0,1.55,2.71L5.08,20l3.38,2,2-2.42a7.62,7.62,0,0,0,3.49,0l2,2.42,3.38-2-1.18-2.9a7.72,7.72,0,0,0,1.55-2.71l3.1-.49Z"/><path class="cls-2" d="M0,0H24V24H0Z"/></svg>