<svg xmlns="http://www.w3.org/2000/svg" width="36" height="36" viewBox="0 0 36 36">
    <g fill="none" fill-rule="evenodd">
        <g>
            <g>
                <g>
                    <g>
                        <g>
                            <path fill="#D8D8D8" fill-opacity="0" d="M0 0H36V36H0z" transform="translate(-211 -282) translate(85 109) translate(102 148) translate(0 1) translate(24 24)"/>
                            <path fill="#FFF" fill-rule="nonzero" d="M26.764 9.236c-2.714-2.715-7.13-2.715-9.844 0-1.854 1.854-2.498 4.586-1.695 7.064l-7.84 7.84c-.118.119-.185.28-.185.447v3.58c0 .35.283.633.633.633h3.58c.168 0 .329-.067.447-.185l.895-.896c.137-.136.203-.328.181-.52l-.111-.962 1.332-.125c.303-.029.542-.268.57-.57l.126-1.333.962.112c.178.024.358-.036.493-.156s.212-.292.212-.473v-1.178h1.157c.168 0 .329-.067.448-.185l1.622-1.602c2.479.804 5.163.208 7.017-1.647 2.715-2.714 2.715-7.13 0-9.844zm-1.79 4.474c-.74.74-1.944.74-2.684 0-.74-.74-.74-1.944 0-2.684.74-.74 1.944-.74 2.684 0 .74.74.74 1.944 0 2.684z" transform="translate(-211 -282) translate(85 109) translate(102 148) translate(0 1) translate(24 24) matrix(-1 0 0 1 36 0)"/>
                        </g>
                    </g>
                </g>
            </g>
        </g>
    </g>
</svg>
