<svg id="Layer_1" data-name="Layer 1" xmlns="http://www.w3.org/2000/svg" viewBox="0 0 24 24"><defs><style>.cls-1{fill:none;}.cls-2{fill:#fff;}</style></defs><title>stack_wallets</title><path class="cls-1" d="M0,0H24V24H0Z"/><path class="cls-2" d="M21.4,3.48H8.4A1.5,1.5,0,0,0,6.9,5v1.5H5.5A1.5,1.5,0,0,0,4,8V9.52H2.56A1.5,1.5,0,0,0,1.06,11v8a1.5,1.5,0,0,0,1.5,1.5h13a1.5,1.5,0,0,0,1.5-1.5V17.48H18.5A1.5,1.5,0,0,0,20,16v-1.5h1.4A1.5,1.5,0,0,0,22.9,13V5A1.5,1.5,0,0,0,21.4,3.48ZM16.06,19a.5.5,0,0,1-.5.5h-13a.5.5,0,0,1-.5-.5V11a.5.5,0,0,1,.5-.5h13a.51.51,0,0,1,.5.5ZM19,16a.5.5,0,0,1-.5.5H17.06V11a1.5,1.5,0,0,0-1.5-1.5H5V8a.5.5,0,0,1,.5-.5h13A.5.5,0,0,1,19,8Zm2.9-3a.5.5,0,0,1-.5.5H20V8a1.5,1.5,0,0,0-1.5-1.5H7.9V5a.5.5,0,0,1,.5-.5h13a.5.5,0,0,1,.5.5Z"/></svg>