<?xml version="1.0" encoding="UTF-8" standalone="no"?>
<svg
   xmlns:dc="http://purl.org/dc/elements/1.1/"
   xmlns:cc="http://creativecommons.org/ns#"
   xmlns:rdf="http://www.w3.org/1999/02/22-rdf-syntax-ns#"
   xmlns:svg="http://www.w3.org/2000/svg"
   xmlns="http://www.w3.org/2000/svg"
   xmlns:sodipodi="http://sodipodi.sourceforge.net/DTD/sodipodi-0.dtd"
   xmlns:inkscape="http://www.inkscape.org/namespaces/inkscape"
   width="45"
   height="45"
   viewBox="0 0 45 45"
   version="1.1"
   id="svg75"
   sodipodi:docname="torV2.svg"
   inkscape:version="1.0.1 (c497b03c, 2020-09-10)">
  <metadata
     id="metadata81">
    <rdf:RDF>
      <cc:Work
         rdf:about="">
        <dc:format>image/svg+xml</dc:format>
        <dc:type
           rdf:resource="http://purl.org/dc/dcmitype/StillImage" />
        <dc:title></dc:title>
      </cc:Work>
    </rdf:RDF>
  </metadata>
  <defs
     id="defs79" />
  <sodipodi:namedview
     pagecolor="#ffffff"
     bordercolor="#666666"
     borderopacity="1"
     objecttolerance="10"
     gridtolerance="10"
     guidetolerance="10"
     inkscape:pageopacity="0"
     inkscape:pageshadow="2"
     inkscape:window-width="1413"
     inkscape:window-height="834"
     id="namedview77"
     showgrid="false"
     fit-margin-top="0"
     fit-margin-left="0"
     fit-margin-right="0"
     fit-margin-bottom="0"
     inkscape:zoom="6.3119028"
     inkscape:cx="33.144388"
     inkscape:cy="46.682169"
     inkscape:window-x="0"
     inkscape:window-y="23"
     inkscape:window-maximized="0"
     inkscape:current-layer="svg75" />
  <g
     fill="none"
     fill-rule="evenodd"
     id="g73"
     style="fill:#ffffff"
     transform="translate(-7.5,-7.5)">
    <g
       id="g71"
       style="fill:#ffffff">
      <g
         id="g69"
         style="fill:#ffffff">
        <path
           fill="#D8D8D8"
           fill-opacity="0"
           d="M 0,0 H 60 V 60 H 0 Z"
           id="path63"
           style="fill:#ffffff" />
        <g
           id="g67"
           style="fill:#ffffff">
          <path
             fill="#FFF"
             fill-rule="nonzero"
             d="m 11.608,10.476 1.923,0.961 c 0.336,0.168 0.79,0.343 1.36,0.522 l 0.518,0.154 c 0.182,0.052 0.373,0.104 0.573,0.156 l 0.512,0.13 0.67,0.176 0.271,0.076 0.234,0.07 0.216,0.075 0.1,0.04 0.17,0.084 0.175,0.105 0.104,0.104 0.139,0.157 c 0.156,0.188 0.198,0.31 0.15,0.634 l -0.026,0.143 0.03,0.328 0.046,0.44 0.045,0.379 0.044,0.317 0.041,0.25 0.013,0.062 0.123,0.067 c 4.793,2.686 9.23,9.685 9.541,15.54 l 0.013,0.324 0.004,0.322 c 0,6.97 -5.592,10.717 -13.748,10.717 -7.976,0 -13.058,-3.682 -13.058,-10.717 0,-6.112 4.46,-13.285 9.746,-16.257 l 0.289,-0.158 0.141,-0.074 0.013,-0.205 0.003,-0.137 10e-4,-0.145 -10e-4,-0.15 -0.01,-0.37 -0.022,-0.42 -0.033,-0.468 -0.045,-0.531 z m 2.725,3.797 0.013,0.226 0.012,0.412 0.002,0.3 -0.007,0.297 -0.019,0.315 c -0.072,0.86 -0.255,1.406 -0.93,1.721 -4.826,2.253 -9.237,9.039 -9.237,14.548 0,5.528 3.884,8.34 10.682,8.34 0.59,0 1.161,-0.02 1.713,-0.061 0.106,-0.376 0.207,-0.75 0.303,-1.122 -0.608,0.079 -1.243,0.118 -1.9,0.118 -5.217,0 -8.696,-2.556 -8.696,-7.331 0,-2.34 1.219,-5.097 3.164,-7.693 l 0.246,-0.324 0.396,-0.494 c 1.402,-1.702 2.948,-3.071 4.266,-3.733 l 0.244,-0.116 0.532,-0.236 0.552,0.184 c 0.464,0.154 0.957,0.41 1.463,0.75 -0.372,-1.817 -0.853,-3.718 -1.44,-5.726 l -0.326,-0.084 c -0.225,-0.059 -0.442,-0.118 -0.65,-0.177 l -0.303,-0.09 z m 0.917,8.452 -0.128,0.086 c -0.737,0.505 -1.632,1.332 -2.486,2.329 l -0.232,0.276 -0.368,0.46 c -1.704,2.195 -2.767,4.516 -2.767,6.16 0,2.883 1.97,4.33 5.695,4.33 0.966,0 1.833,-0.096 2.591,-0.284 0.063,-0.354 0.12,-0.709 0.173,-1.063 -0.729,0.451 -1.648,0.69 -2.649,0.69 -2.336,0 -4.058,-1.358 -4.058,-3.673 0,-2.007 1.392,-5.186 3.051,-6.658 l 0.185,-0.156 1.049,-0.84 0.95,0.95 c 0.583,0.584 1.272,1.642 1.853,2.79 -0.035,-0.964 -0.106,-1.942 -0.213,-2.94 -0.847,-1.02 -1.722,-1.845 -2.435,-2.323 l -0.21,-0.134 z m -0.146,6.147 -0.134,0.24 c -0.543,1.006 -0.949,2.199 -0.949,2.924 0,0.481 0.244,0.673 1.058,0.673 0.897,0 1.288,-0.274 1.288,-0.673 0,-0.347 -0.222,-1.004 -0.54,-1.722 l -0.2,-0.436 c -0.105,-0.22 -0.216,-0.44 -0.33,-0.655 z M 23.85,0.9 c -1.068,0.903 -2.137,2.006 -3.206,3.31 l -0.692,0.855 -0.41,0.517 -0.366,0.473 -0.324,0.431 -0.283,0.389 c -0.087,0.122 -0.167,0.237 -0.24,0.345 1.543,-1.304 2.79,-2.207 3.74,-2.709 0.356,-0.188 0.796,-0.39 1.32,-0.606 L 23.939,3.684 24.236,3.57 24.87,3.335 25.56,3.09 26.306,2.836 26.7,2.706 l -0.432,0.361 -0.83,0.707 -0.784,0.685 -0.74,0.663 -0.354,0.324 -0.673,0.63 -0.628,0.61 c -0.809,0.798 -1.498,1.538 -2.068,2.22 -0.762,0.912 -1.385,1.827 -1.868,2.744 -0.42,0.796 -4.814,-0.482 -4.617,-1.424 0.123,-0.586 0.299,-1.187 0.526,-1.802 0.594,-1.605 1.544,-3.16 2.85,-4.665 L 16.192,7.22 C 16.429,6.518 17.32,5.515 18.863,4.21 20.407,2.906 22.07,1.803 23.85,0.9 Z"
             transform="translate(15,8)"
             id="path65"
             style="fill:#ffffff" />
        </g>
      </g>
    </g>
  </g>
</svg>
