<svg xmlns="http://www.w3.org/2000/svg" width="61" height="60" viewBox="0 0 61 60">
    <g fill="none" fill-rule="evenodd">
        <g>
            <g>
                <path fill="#D8D8D8" fill-opacity="0" d="M0 0H60V60H0z" transform="translate(-1199 -2352) translate(1199.5 2352)"/>
                <g fill="#FFF">
                    <path d="M32 8.456v21.049C32 30.883 30.883 32 29.504 32H8.456c-1.195 0-2.194-.84-2.439-1.96l21.526-.001c1.379 0 2.496-1.118 2.496-2.496V6.018C31.16 6.263 32 7.262 32 8.456z" transform="translate(-1199 -2352) translate(1199.5 2352) translate(14 14)"/>
                    <path d="M25.504 0C26.883 0 28 1.117 28 2.496v23.008C28 26.883 26.883 28 25.504 28H2.496C1.117 28 0 26.883 0 25.504V2.496C0 1.117 1.117 0 2.496 0h23.008zM13.879 7.256H5.927v1.967H8.82v11.473h2.165V9.223h2.894V7.256zm2.632 3.7h-2.184l2.333 4.753-2.557 4.987h2.202l1.475-3.253 1.475 3.253h2.202L18.9 15.709l2.333-4.752H19.05l-1.269 3.077-1.27-3.077z" transform="translate(-1199 -2352) translate(1199.5 2352) translate(14 14)"/>
                </g>
            </g>
        </g>
    </g>
</svg>
