<?xml version="1.0"?>
<svg xmlns="http://www.w3.org/2000/svg" viewBox="0 0 32 32">
    <path style="text-indent:0;text-align:start;line-height:normal;text-transform:none;block-progression:tb;-inkscape-font-specification:Sans" d="M 4 5 L 4 7 L 7 7 L 7 5 L 4 5 z M 9 5 L 9 7 L 20 7 L 20 5 L 9 5 z M 23 5 L 23 7 L 25 7 L 25 5 L 23 5 z M 26 5 L 26 7 L 28 7 L 28 5 L 26 5 z M 4 10 L 4 12 L 7 12 L 7 10 L 4 10 z M 9 10 L 9 12 L 20 12 L 20 10 L 9 10 z M 26 10 L 26 12 L 28 12 L 28 10 L 26 10 z M 4 15 L 4 17 L 7 17 L 7 15 L 4 15 z M 9 15 L 9 17 L 20 17 L 20 15 L 9 15 z M 26 15 L 26 17 L 28 17 L 28 15 L 26 15 z M 4 20 L 4 22 L 7 22 L 7 20 L 4 20 z M 9 20 L 9 22 L 20 22 L 20 20 L 9 20 z M 23 20 L 23 22 L 25 22 L 25 20 L 23 20 z M 26 20 L 26 22 L 28 22 L 28 20 L 26 20 z M 4 25 L 4 27 L 7 27 L 7 25 L 4 25 z M 9 25 L 9 27 L 20 27 L 20 25 L 9 25 z M 26 25 L 26 27 L 28 27 L 28 25 L 26 25 z"/>
</svg>
