<svg xmlns="http://www.w3.org/2000/svg" viewBox="0 0 120 104.99"><defs><style>.cls-1{fill:#313b45;}.cls-2{fill:#00b45a;}.cls-3{fill:#526168;}</style></defs><title>trezor</title><g id="Design"><path class="cls-1" d="M75.31,12.06v0A44,44,0,0,0,60,9.57a44.7,44.7,0,0,0-14.92,2.31v.06a9,9,0,0,0-6.89,8.68V66c0,7.73,9.22,28.47,14.14,28.47a63,63,0,0,0,15.34,0c4.92,0,14.14-20.74,14.14-28.47V20.62A9,9,0,0,0,75.31,12.06Z"/><rect class="cls-1" x="43.49" y="29.49" width="33.02" height="18.9" rx="1.06" ry="1.06"/><path class="cls-2" d="M74.34,48.9H45.66A2.68,2.68,0,0,1,43,46.22V31.66A2.68,2.68,0,0,1,45.66,29H74.34A2.68,2.68,0,0,1,77,31.66V46.22A2.68,2.68,0,0,1,74.34,48.9ZM45.66,30A1.67,1.67,0,0,0,44,31.66V46.22a1.66,1.66,0,0,0,1.66,1.66H74.34A1.66,1.66,0,0,0,76,46.22V31.66A1.67,1.67,0,0,0,74.34,30Z"/><rect class="cls-3" x="43.46" y="53.56" width="13.07" height="6.53" rx="0.81" ry="0.81"/><path class="cls-3" d="M54.87,60.61H45.12A2.18,2.18,0,0,1,43,58.44V55.22a2.18,2.18,0,0,1,2.17-2.17h9.75A2.17,2.17,0,0,1,57,55.22v3.22A2.17,2.17,0,0,1,54.87,60.61Zm-9.75-6.54A1.16,1.16,0,0,0,44,55.22v3.22a1.16,1.16,0,0,0,1.15,1.15h9.75A1.16,1.16,0,0,0,56,58.44V55.22a1.16,1.16,0,0,0-1.15-1.15Z"/><rect class="cls-3" x="62.89" y="53.56" width="13.07" height="6.53" rx="0.81" ry="0.81"/><path class="cls-3" d="M74.3,60.61H64.55a2.18,2.18,0,0,1-2.17-2.17V55.22a2.18,2.18,0,0,1,2.17-2.17H74.3a2.17,2.17,0,0,1,2.17,2.17v3.22A2.17,2.17,0,0,1,74.3,60.61Zm-9.75-6.54a1.16,1.16,0,0,0-1.15,1.15v3.22a1.16,1.16,0,0,0,1.15,1.15H74.3a1.15,1.15,0,0,0,1.15-1.15V55.22a1.15,1.15,0,0,0-1.15-1.15Z"/></g></svg>