<?xml version="1.0" encoding="UTF-8" standalone="no"?>
<svg
   xmlns:dc="http://purl.org/dc/elements/1.1/"
   xmlns:cc="http://creativecommons.org/ns#"
   xmlns:rdf="http://www.w3.org/1999/02/22-rdf-syntax-ns#"
   xmlns:svg="http://www.w3.org/2000/svg"
   xmlns="http://www.w3.org/2000/svg"
   xmlns:sodipodi="http://sodipodi.sourceforge.net/DTD/sodipodi-0.dtd"
   xmlns:inkscape="http://www.inkscape.org/namespaces/inkscape"
   width="60"
   height="60"
   viewBox="0 0 60 60"
   version="1.1"
   id="svg1531"
   sodipodi:docname="tx-spv-in-progress.svg"
   inkscape:version="1.0.1 (c497b03c, 2020-09-10)">
  <metadata
     id="metadata1537">
    <rdf:RDF>
      <cc:Work
         rdf:about="">
        <dc:format>image/svg+xml</dc:format>
        <dc:type
           rdf:resource="http://purl.org/dc/dcmitype/StillImage" />
      </cc:Work>
    </rdf:RDF>
  </metadata>
  <defs
     id="defs1535" />
  <sodipodi:namedview
     pagecolor="#ffffff"
     bordercolor="#666666"
     borderopacity="1"
     objecttolerance="10"
     gridtolerance="10"
     guidetolerance="10"
     inkscape:pageopacity="0"
     inkscape:pageshadow="2"
     inkscape:window-width="1474"
     inkscape:window-height="725"
     id="namedview1533"
     showgrid="false"
     inkscape:zoom="8.3333333"
     inkscape:cx="30"
     inkscape:cy="30"
     inkscape:window-x="0"
     inkscape:window-y="25"
     inkscape:window-maximized="0"
     inkscape:current-layer="svg1531"
     inkscape:document-rotation="0" />
  <path
     fill="#d8d8d8"
     fill-opacity="0"
     d="M -12,-12 H 72 V 72 H -12 Z"
     id="path1519"
     style="fill-rule:evenodd;stroke-width:1.4" />
  <path
     fill="#ffffff"
     fill-rule="nonzero"
     d="M 43.3056,7.6 C 45.2362,7.6 46.8,9.1638 46.8,11.0944 V 31.1718 L 43.2636,28.691 c -0.6328,-0.4438 -1.5064,-0.2898 -1.9502,0.343 -0.1652,0.2352 -0.2534,0.5166 -0.2534,0.8036 v 2.3072 l -0.3934,0.1568 c -1.4602,0.6104 -2.7762,1.4854 -3.9018,2.5648 L 34.06,29.5926 37.3262,22.9398 H 34.27 l -1.7766,4.3078 -1.778,-4.3078 h -3.0562 l 3.2662,6.6528 -3.5798,6.9818 h 3.0828 l 2.065,-4.5542 2.065,4.5542 0.7126,-0.0028 c -1.6464,2.2414 -2.6096,5.0302 -2.6096,8.0164 0,0.7504 0.0602,1.4896 0.1792,2.2148 L 11.0944,46.8 C 9.1638,46.8 7.6,45.2362 7.6,43.3056 V 11.0944 C 7.6,9.1638 9.1638,7.6 11.0944,7.6 Z M 27.0306,17.7584 H 15.8978 v 2.7538 h 4.0502 v 16.0622 h 3.031 V 20.5122 h 4.0516 z"
     id="path1521"
     style="stroke-width:1.4" />
  <path
     fill="#ffffff"
     fill-rule="nonzero"
     d="m 53.1812,35.6 c 2.0888,1.8928 3.4188,4.69 3.4188,7.812 0,5.068 -3.4944,9.275 -8.078,10.1346 L 48.2,53.6012 V 55.2 L 44,52.253 48.2,49.306 v 1.2544 c 3.1822,-0.6888 5.6,-3.598 5.6,-7.1484 0,-2.4094 -1.106,-4.55 -2.8098,-5.8954 l -0.2604,-0.196 2.45,-1.7206 z M 44,32.8 48.2,35.747 44,38.694 v -1.2978 c -3.1878,0.6874 -5.6,3.6372 -5.6,7.1918 0,2.4094 1.106,4.55 2.8098,5.8954 l 0.2604,0.196 -2.45,1.7206 C 36.93,50.5072 35.6,47.71 35.6,44.588 c 0,-5.068 3.4944,-9.2806 8.078,-10.1402 L 44,34.3932 Z"
     id="path1523"
     style="stroke-width:1.4" />
</svg>
