<?xml version="1.0" encoding="UTF-8" standalone="no"?>
<svg
   xmlns:dc="http://purl.org/dc/elements/1.1/"
   xmlns:cc="http://creativecommons.org/ns#"
   xmlns:rdf="http://www.w3.org/1999/02/22-rdf-syntax-ns#"
   xmlns:svg="http://www.w3.org/2000/svg"
   xmlns="http://www.w3.org/2000/svg"
   xmlns:sodipodi="http://sodipodi.sourceforge.net/DTD/sodipodi-0.dtd"
   xmlns:inkscape="http://www.inkscape.org/namespaces/inkscape"
   width="60"
   height="60"
   viewBox="0 0 60 60"
   version="1.1"
   id="svg1563"
   sodipodi:docname="tx-spv-not-longest.svg"
   inkscape:version="1.0.1 (c497b03c, 2020-09-10)">
  <metadata
     id="metadata1569">
    <rdf:RDF>
      <cc:Work
         rdf:about="">
        <dc:format>image/svg+xml</dc:format>
        <dc:type
           rdf:resource="http://purl.org/dc/dcmitype/StillImage" />
      </cc:Work>
    </rdf:RDF>
  </metadata>
  <defs
     id="defs1567" />
  <sodipodi:namedview
     pagecolor="#ffffff"
     bordercolor="#666666"
     borderopacity="1"
     objecttolerance="10"
     gridtolerance="10"
     guidetolerance="10"
     inkscape:pageopacity="0"
     inkscape:pageshadow="2"
     inkscape:window-width="1428"
     inkscape:window-height="872"
     id="namedview1565"
     showgrid="false"
     inkscape:zoom="7.1583333"
     inkscape:cx="24.11083"
     inkscape:cy="24.96937"
     inkscape:window-x="0"
     inkscape:window-y="25"
     inkscape:window-maximized="0"
     inkscape:current-layer="svg1563"
     inkscape:document-rotation="0" />
  <path
     fill="#d8d8d8"
     fill-opacity="0"
     d="M -12,-12 H 72 V 72 H -12 Z"
     id="path1551"
     style="fill-rule:evenodd;stroke-width:1.4" />
  <path
     fill="#ffffff"
     fill-rule="nonzero"
     d="m 43.3056,7.6 c 1.9306,0 3.4944,1.5638 3.4944,3.4944 l 0.0014,16.6362 c -0.4844,-0.7336 -1.155,-1.33 -1.9474,-1.7248 -2.4892,-1.246 -5.516,-0.2366 -6.762,2.254 L 35.7638,32.9162 34.06,29.5926 37.3262,22.9398 H 34.27 l -1.7766,4.3078 -1.778,-4.3078 h -3.0562 l 3.2662,6.6528 -3.5798,6.9818 h 3.0828 l 2.065,-4.5542 1.7682,3.9018 L 28.8212,46.8 H 11.0944 C 9.1638,46.8 7.6,45.2362 7.6,43.3056 V 11.0944 C 7.6,9.1638 9.1638,7.6 11.0944,7.6 Z M 27.0306,17.7584 H 15.8978 v 2.7538 h 4.0502 v 16.0622 h 3.031 V 20.5122 h 4.0516 z"
     id="path1553"
     style="stroke-width:1.4" />
  <path
     id="rect9724"
     style="fill:#ff8c00;fill-opacity:1"
     d="M 42.707031 30.236328 C 42.053472 30.194919 41.408456 30.539459 41.097656 31.162109 L 31.134766 51.087891 C 31.018566 51.321691 30.957031 51.579444 30.957031 51.839844 C 30.957031 52.768044 31.709919 53.519531 32.636719 53.519531 L 52.564453 53.519531 C 52.824853 53.519531 53.082053 53.459397 53.314453 53.341797 C 54.144653 52.927397 54.480806 51.918091 54.066406 51.087891 L 44.101562 31.162109 C 43.939163 30.837309 43.676363 30.572556 43.351562 30.410156 C 43.144013 30.306556 42.924884 30.250131 42.707031 30.236328 z M 41.259766 38.400391 L 43.929688 38.400391 L 43.636719 47.037109 L 41.554688 47.037109 L 41.259766 38.400391 z M 42.595703 48.388672 C 43.017103 48.388672 43.357081 48.512813 43.613281 48.757812 C 43.870881 49.002813 44 49.317019 44 49.699219 C 44 50.075819 43.870881 50.385859 43.613281 50.630859 C 43.357081 50.875859 43.01655 51 42.59375 51 C 42.17935 51 41.842137 50.875859 41.585938 50.630859 C 41.328337 50.384459 41.199219 50.075819 41.199219 49.699219 C 41.199219 49.321219 41.328338 49.009519 41.585938 48.761719 C 41.842138 48.513919 42.179903 48.388672 42.595703 48.388672 z " />
</svg>
