<svg xmlns="http://www.w3.org/2000/svg" width="60" height="60" viewBox="0 0 60 60">
    <g fill="none" fill-rule="evenodd">
        <g>
            <g>
                <path fill="#D8D8D8" fill-opacity="0" d="M0 0H60V60H0z" transform="translate(-1345 -543) translate(1345 543)"/>
                <path fill="#FFF" fill-rule="nonzero" d="M40.5 20h-5c-.46 0-.833.353-.833.814v5.003c0 .461.372.834.833.834h.833v.613c0 .583-.31 1.13-.81 1.43l-4.19 2.516V18.312h2.5c.303 0 .582-.164.73-.43.146-.264.138-.588-.023-.846l-4.167-6.67c-.304-.488-1.108-.488-1.413 0l-4.166 6.67c-.162.258-.17.582-.023.846.147.266.426.43.729.43H28v18.013l-3.31-1.84c-.529-.294-.857-.852-.857-1.458v-1.726c1.47-.645 2.5-2.11 2.5-3.816 0-2.299-1.869-4.152-4.166-4.152-2.298 0-4.167 1.853-4.167 4.152 0 1.705 1.031 3.17 2.5 3.816v1.726c0 1.817.986 3.493 2.572 4.373L28 40.14v1.875c-1.469.645-2.5 2.11-2.5 3.816 0 2.298 1.87 4.169 4.167 4.169 2.297 0 4.166-1.87 4.166-4.17 0-1.705-1.03-3.17-2.5-3.815V35.1l5.905-3.546c1.498-.898 2.429-2.542 2.429-4.29v-.613h.833c.46 0 .833-.373.833-.834v-5.003c0-.46-.372-.814-.833-.814z" transform="translate(-1345 -543) translate(1345 543)"/>
            </g>
        </g>
    </g>
</svg>
