<svg width="24" height="24" viewBox="0 0 24 24" fill="none" xmlns="http://www.w3.org/2000/svg">
<path fill-rule="evenodd" clip-rule="evenodd" d="M7.50015 4.50024C7.77796 4.50024 8.03301 4.65381 8.16299 4.89933L14.913 17.6493C15.1068 18.0154 14.9671 18.4693 14.6011 18.6631C14.235 18.8569 13.7811 18.7172 13.5873 18.3512L7.50015 6.85319L1.41299 18.3512C1.21919 18.7172 0.765311 18.8569 0.399234 18.6631C0.0331573 18.4693 -0.106496 18.0154 0.0873091 17.6493L6.83731 4.89933C6.96729 4.65381 7.22234 4.50024 7.50015 4.50024Z" fill="white"/>
<path fill-rule="evenodd" clip-rule="evenodd" d="M19.5 13.7722C18.1602 13.7722 17.25 14.7026 17.25 15.6472C17.25 16.5918 18.1602 17.5222 19.5 17.5222C20.8398 17.5222 21.75 16.5918 21.75 15.6472C21.75 14.7026 20.8398 13.7722 19.5 13.7722ZM15.75 15.6472C15.75 13.6923 17.5261 12.2722 19.5 12.2722C21.4739 12.2722 23.25 13.6923 23.25 15.6472C23.25 17.6021 21.4739 19.0222 19.5 19.0222C17.5261 19.0222 15.75 17.6021 15.75 15.6472Z" fill="white"/>
<path fill-rule="evenodd" clip-rule="evenodd" d="M19.4916 10.3971C18.8504 10.3899 18.232 10.6347 17.7694 11.0788C17.4706 11.3657 16.9959 11.356 16.709 11.0572C16.4221 10.7584 16.4318 10.2837 16.7306 9.99679C17.4757 9.28142 18.4715 8.88668 19.5042 8.89718C21.4787 8.89918 23.25 10.3151 23.25 12.2722V18.0003C23.25 18.4145 22.9142 18.7503 22.5 18.7503C22.0858 18.7503 21.75 18.4145 21.75 18.0003V12.2722C21.75 11.3244 20.8426 10.3972 19.5 10.3972L19.4916 10.3971Z" fill="white"/>
<path fill-rule="evenodd" clip-rule="evenodd" d="M1.98743 14.2502C1.98743 13.836 2.32321 13.5002 2.73743 13.5002H12.2624C12.6766 13.5002 13.0124 13.836 13.0124 14.2502C13.0124 14.6645 12.6766 15.0002 12.2624 15.0002H2.73743C2.32321 15.0002 1.98743 14.6645 1.98743 14.2502Z" fill="white"/>
</svg>
