<svg width="24" height="24" viewBox="0 0 24 24" fill="none" xmlns="http://www.w3.org/2000/svg">
<path fill-rule="evenodd" clip-rule="evenodd" d="M8.78838 1.99599C8.99437 1.92949 9.21904 1.95523 9.40465 2.0666L11.597 3.382C11.8657 3.36999 12.1348 3.37 12.4036 3.38202L14.5868 2.07553C14.7709 1.96537 14.9933 1.93931 15.1978 2.00394C16.6306 2.45658 17.9478 3.21519 19.0583 4.22726C19.2175 4.37234 19.3067 4.57886 19.303 4.79422L19.2601 7.34256C19.4082 7.56991 19.544 7.80497 19.6671 8.04674L21.8895 9.28235C22.0766 9.38639 22.2103 9.56545 22.257 9.77442C22.584 11.2389 22.5874 12.757 22.2671 14.2229C22.2211 14.4337 22.0865 14.6144 21.8978 14.7189L19.6668 15.9546C19.5438 16.1961 19.4081 16.431 19.2601 16.6581L19.303 19.2065C19.3067 19.4218 19.2175 19.6284 19.0583 19.7735C17.9501 20.7833 16.6385 21.5441 15.2117 22.0047C15.0057 22.0712 14.781 22.0455 14.5954 21.9341L12.4031 20.6187C12.1343 20.6307 11.8652 20.6307 11.5965 20.6187L9.41328 21.9252C9.2292 22.0353 9.00676 22.0614 8.80221 21.9968C7.36949 21.5441 6.05226 20.7855 4.94172 19.7734C4.78251 19.6283 4.69337 19.4218 4.69701 19.2064L4.73996 16.6639C4.59279 16.4342 4.45708 16.1973 4.33335 15.9542L2.11058 14.7183C1.92345 14.6143 1.78971 14.4352 1.74305 14.2263C1.41608 12.7618 1.41263 11.2437 1.73294 9.77774C1.77899 9.56699 1.91356 9.38627 2.10228 9.28175L4.33326 8.04613C4.45625 7.80457 4.59199 7.56971 4.73991 7.34256L4.69701 4.79422C4.69338 4.57885 4.78253 4.37232 4.94174 4.22724C6.04995 3.21738 7.36157 2.45657 8.78838 1.99599ZM6.20264 5.11597L6.24367 7.55334C6.24633 7.71125 6.19907 7.86597 6.10864 7.99544C5.90747 8.28345 5.73135 8.58816 5.58221 8.90624C5.51517 9.04924 5.40469 9.16742 5.26653 9.24394L3.13328 10.4254C2.94669 11.4672 2.94928 12.5341 3.14094 13.575L5.2676 14.7573C5.40471 14.8336 5.51447 14.9509 5.58142 15.0928C5.73384 15.4157 5.9116 15.7261 6.11306 16.021C6.20066 16.1492 6.24629 16.3015 6.24367 16.4568L6.20266 18.8846C7.01332 19.5694 7.94034 20.1032 8.93958 20.4606L11.0243 19.213C11.1563 19.134 11.3094 19.0975 11.4629 19.1085C11.8205 19.1341 12.1795 19.1341 12.5371 19.1085C12.6909 19.0975 12.8443 19.1342 12.9765 19.2135L15.0679 20.4683C16.0639 20.1053 16.988 19.5692 17.7974 18.8847L17.7564 16.4473C17.7537 16.2894 17.801 16.1347 17.8914 16.0053C18.0926 15.7172 18.2687 15.4125 18.4178 15.0944C18.4849 14.9515 18.5954 14.8333 18.7335 14.7568L20.8668 13.5753C21.0534 12.5335 21.0508 11.4666 20.8591 10.4257L18.7325 9.24334C18.5948 9.1668 18.4847 9.04886 18.4178 8.90624C18.2687 8.58816 18.0926 8.28345 17.8914 7.99544C17.801 7.86597 17.7537 7.71125 17.7564 7.55334L17.7974 5.11607C16.9868 4.43125 16.0597 3.89746 15.0605 3.54013L12.9758 4.78766C12.8437 4.86667 12.6906 4.90316 12.5371 4.89218C12.1795 4.8666 11.8205 4.8666 11.4629 4.89218C11.3091 4.90318 11.1557 4.86653 11.0235 4.78721L8.93211 3.53236C7.93614 3.89536 7.01209 4.43148 6.20264 5.11597ZM12 8.25034C9.92896 8.25034 8.25003 9.92928 8.25003 12.0003C8.25003 14.0714 9.92896 15.7503 12 15.7503C14.0711 15.7503 15.75 14.0714 15.75 12.0003C15.75 9.92928 14.0711 8.25034 12 8.25034ZM6.75003 12.0003C6.75003 9.10085 9.10053 6.75034 12 6.75034C14.8995 6.75034 17.25 9.10085 17.25 12.0003C17.25 14.8998 14.8995 17.2503 12 17.2503C9.10053 17.2503 6.75003 14.8998 6.75003 12.0003Z" fill="white"/>
</svg>
