<?xml version="1.0" encoding="UTF-8"?>
<svg width="20px" height="18px" viewBox="0 0 20 18" version="1.1" xmlns="http://www.w3.org/2000/svg" xmlns:xlink="http://www.w3.org/1999/xlink">
    <title>Icons/Solid/wrench</title>
    <defs>
        <path d="M19.7748981,15.4692071 C20.4158005,16.5939961 19.6113218,18 18.331253,18 L1.66855293,18 C0.386018844,18 -0.414744647,16.5918164 0.224907813,15.4692071 L8.556362,0.843222821 C9.19757696,-0.282093574 10.8035831,-0.280054511 11.4436522,0.843222821 L19.7748981,15.4692071 Z M10.0000071,12.4453126 C9.1178895,12.4453126 8.40278569,13.1693555 8.40278569,14.0625 C8.40278569,14.9556446 9.1178895,15.6796875 10.0000071,15.6796875 C10.8821247,15.6796875 11.5972285,14.9556446 11.5972285,14.0625 C11.5972285,13.1693555 10.8821247,12.4453126 10.0000071,12.4453126 Z M8.48358426,6.6323673 L8.74115357,11.4136173 C8.75320218,11.6373516 8.93591042,11.8125001 9.15719503,11.8125001 L10.8428192,11.8125001 C11.0641038,11.8125001 11.246812,11.6373516 11.2588607,11.4136173 L11.51643,6.6323673 C11.5294508,6.39070324 11.3394162,6.18750011 11.1003885,6.18750011 L8.899591,6.18750011 C8.66056334,6.18750011 8.47056343,6.39070324 8.48358426,6.6323673 L8.48358426,6.6323673 Z" id="path-1"></path>
    </defs>
    <g id="RECENT-Send-Flow-All" stroke="none" stroke-width="1" fill="none" fill-rule="evenodd">
        <g id="Trigger-Verify" transform="translate(-49.000000, -98.000000)">
            <g id="Icons/Solid/wrench" transform="translate(49.000000, 98.000000)">
                <mask id="mask-2" fill="white">
                    <use xlink:href="#path-1"></use>
                </mask>
                <use id="exclamation-triangle" fill="#0E1218" fill-rule="nonzero" xlink:href="#path-1"></use>
            </g>
        </g>
    </g>
</svg>