<svg width="73" height="72" viewBox="0 0 73 72" fill="none" xmlns="http://www.w3.org/2000/svg">
<g id="cpu-thin 1" clip-path="url(#clip0_116_17729)">
<path id="Vector" d="M60.4551 15.2441H20.0596C18.8202 15.2441 17.8154 16.2489 17.8154 17.4883V57.8839C17.8154 59.1233 18.8202 60.1281 20.0596 60.1281H60.4551C61.6946 60.1281 62.6993 59.1233 62.6993 57.8839V17.4883C62.6993 16.2489 61.6946 15.2441 60.4551 15.2441Z" fill="#101318" stroke="white" stroke-width="1.49613" stroke-linecap="round" stroke-linejoin="round"/>
<path id="Vector_2" d="M60.4551 15.2441H20.0596C18.8202 15.2441 17.8154 16.2489 17.8154 17.4883V57.8839C17.8154 59.1233 18.8202 60.1281 20.0596 60.1281H60.4551C61.6946 60.1281 62.6993 59.1233 62.6993 57.8839V17.4883C62.6993 16.2489 61.6946 15.2441 60.4551 15.2441Z" fill="#101318" stroke="white" stroke-width="1.49613" stroke-linecap="round" stroke-linejoin="round"/>
<path id="Vector_3" d="M45.4932 29.8308H35.0203C33.5743 29.8308 32.4021 31.003 32.4021 32.449V42.922C32.4021 44.368 33.5743 45.5402 35.0203 45.5402H45.4932C46.9392 45.5402 48.1115 44.368 48.1115 42.922V32.449C48.1115 31.003 46.9393 29.8308 45.4932 29.8308Z" stroke="white" stroke-width="0.374033" stroke-linecap="round" stroke-linejoin="round"/>
<path id="Vector_4" d="M62.699 30.9536H69.4316" stroke="white" stroke-width="1.49613" stroke-linecap="round" stroke-linejoin="round"/>
<path id="Vector_5" d="M62.699 44.4175H69.4316" stroke="white" stroke-width="1.49613" stroke-linecap="round" stroke-linejoin="round"/>
<path id="Vector_6" d="M11.0828 30.9536H17.8154" stroke="white" stroke-width="1.49613" stroke-linecap="round" stroke-linejoin="round"/>
<path id="Vector_7" d="M11.0828 44.4175H17.8154" stroke="white" stroke-width="1.49613" stroke-linecap="round" stroke-linejoin="round"/>
<path id="Vector_8" d="M46.9895 60.127V66.8595" stroke="white" stroke-width="1.49613" stroke-linecap="round" stroke-linejoin="round"/>
<path id="Vector_9" d="M33.5249 60.127V66.8595" stroke="white" stroke-width="1.49613" stroke-linecap="round" stroke-linejoin="round"/>
<path id="Vector_10" d="M46.9895 8.51062V15.2432" stroke="white" stroke-width="1.49613" stroke-linecap="round" stroke-linejoin="round"/>
<path id="Vector_11" d="M33.5249 8.51062V15.2432" stroke="white" stroke-width="1.49613" stroke-linecap="round" stroke-linejoin="round"/>
</g>
<defs>
<clipPath id="clip0_116_17729">
<rect width="71.8143" height="71.8143" fill="white" transform="translate(0.35791 0.181641)"/>
</clipPath>
</defs>
</svg>
