<svg width="440" height="440" viewBox="0 0 440 440" fill="none" xmlns="http://www.w3.org/2000/svg">
<path opacity="0.3" d="M385.5 224.498C385.5 315.908 311.514 390 220.244 390C128.985 390 55 315.908 55 224.498C55 133.1 128.985 59 220.244 59C311.514 59 385.5 133.1 385.5 224.498Z" fill="url(#paint0_radial_2482_1907)"/>
<path d="M106.75 339.25V136.75L316.5 131.5L335.75 136.75V291.75L329.5 305.5H163L116.5 345.25L106.75 339.25Z" fill="#00183C"/>
<path d="M229.563 220C229.563 221.891 229.002 223.74 227.951 225.313C226.9 226.885 225.407 228.111 223.66 228.835C221.912 229.558 219.99 229.748 218.135 229.379C216.28 229.01 214.576 228.099 213.239 226.762C211.901 225.424 210.99 223.721 210.621 221.866C210.252 220.011 210.442 218.088 211.166 216.341C211.889 214.593 213.115 213.1 214.688 212.049C216.26 210.998 218.109 210.438 220 210.438C222.536 210.438 224.969 211.445 226.762 213.238C228.555 215.032 229.563 217.464 229.563 220ZM167.406 210.438C165.515 210.438 163.666 210.998 162.094 212.049C160.521 213.1 159.296 214.593 158.572 216.341C157.848 218.088 157.659 220.011 158.028 221.866C158.397 223.721 159.307 225.424 160.645 226.762C161.982 228.099 163.686 229.01 165.541 229.379C167.396 229.748 169.319 229.558 171.066 228.835C172.813 228.111 174.307 226.885 175.357 225.313C176.408 223.74 176.969 221.891 176.969 220C176.969 217.464 175.962 215.032 174.168 213.238C172.375 211.445 169.943 210.438 167.406 210.438ZM272.594 210.438C270.703 210.438 268.854 210.998 267.281 212.049C265.709 213.1 264.483 214.593 263.759 216.341C263.036 218.088 262.846 220.011 263.215 221.866C263.584 223.721 264.495 225.424 265.832 226.762C267.17 228.099 268.873 229.01 270.728 229.379C272.583 229.748 274.506 229.558 276.253 228.835C278.001 228.111 279.494 226.885 280.545 225.313C281.596 223.74 282.156 221.891 282.156 220C282.156 217.464 281.149 215.032 279.356 213.238C277.562 211.445 275.13 210.438 272.594 210.438ZM339.531 143.5V296.5C339.531 300.304 338.02 303.953 335.33 306.643C332.64 309.333 328.992 310.844 325.188 310.844H164.406L124.088 345.663C121.507 347.88 118.216 349.098 114.813 349.094C112.706 349.086 110.626 348.621 108.717 347.731C106.241 346.587 104.148 344.754 102.685 342.453C101.223 340.151 100.453 337.477 100.469 334.75V143.5C100.469 139.696 101.98 136.047 104.67 133.357C107.36 130.667 111.009 129.156 114.813 129.156H325.188C328.992 129.156 332.64 130.667 335.33 133.357C338.02 136.047 339.531 139.696 339.531 143.5ZM329.969 143.5C329.969 142.232 329.465 141.016 328.569 140.119C327.672 139.222 326.456 138.719 325.188 138.719H114.813C113.545 138.719 112.329 139.222 111.432 140.119C110.535 141.016 110.031 142.232 110.031 143.5V334.75C110.03 335.659 110.288 336.55 110.775 337.318C111.262 338.086 111.958 338.699 112.781 339.086C113.604 339.472 114.52 339.616 115.422 339.5C116.324 339.384 117.174 339.014 117.873 338.432L159.494 302.477C160.359 301.713 161.471 301.289 162.625 301.281H325.188C326.456 301.281 327.672 300.778 328.569 299.881C329.465 298.984 329.969 297.768 329.969 296.5V143.5Z" fill="white" stroke="#00183C" stroke-width="4"/>
<defs>
<radialGradient id="paint0_radial_2482_1907" cx="0" cy="0" r="1" gradientUnits="userSpaceOnUse" gradientTransform="translate(220.25 224.5) scale(165.248 165.502)">
<stop stop-color="#00BCFF"/>
<stop offset="0.653855" stop-color="#00BCFF" stop-opacity="0.1"/>
<stop offset="1" stop-color="#00BCFF" stop-opacity="0"/>
</radialGradient>
</defs>
</svg>
