<svg width="440" height="440" viewBox="0 0 440 440" fill="none" xmlns="http://www.w3.org/2000/svg">
<path opacity="0.3" d="M385.5 224.498C385.5 315.908 311.514 390 220.244 390C128.985 390 55 315.908 55 224.498C55 133.1 128.985 59 220.244 59C311.514 59 385.5 133.1 385.5 224.498Z" fill="url(#paint0_radial_2482_1902)"/>
<path d="M162 117L192.5 180.25L162 219.25L170.25 242.25L220 278L258 247.5L324.5 278L312.25 317.75L268 334.5L202.25 322.25L152 288.75L116.75 236.75L104.75 185.75L110 147.5L133 124L162 117Z" fill="#00183C"/>
<path d="M244.574 123.18C244.892 121.956 245.681 120.908 246.77 120.265C247.859 119.622 249.158 119.437 250.383 119.749C267.31 124.158 282.755 133.004 295.122 145.373C307.49 157.743 316.333 173.189 320.739 190.117C321.064 191.341 320.89 192.643 320.256 193.739C319.622 194.835 318.579 195.634 317.356 195.962C316.968 196.073 316.565 196.129 316.161 196.13C315.104 196.126 314.077 195.772 313.242 195.123C312.408 194.475 311.811 193.567 311.547 192.544C307.558 177.257 299.567 163.311 288.396 152.14C277.225 140.969 263.279 132.977 247.992 128.989C246.771 128.668 245.726 127.878 245.085 126.789C244.445 125.701 244.261 124.403 244.574 123.18ZM238.43 167.239C256.36 172.056 268.444 184.141 273.261 202.07C273.526 203.094 274.122 204.001 274.957 204.65C275.791 205.299 276.818 205.653 277.875 205.656C278.279 205.656 278.682 205.6 279.07 205.489C280.293 205.161 281.336 204.361 281.97 203.266C282.604 202.17 282.778 200.867 282.453 199.644C276.716 178.128 262.312 163.784 240.82 157.999C239.626 157.768 238.388 158.001 237.36 158.651C236.331 159.301 235.589 160.318 235.284 161.496C234.979 162.674 235.135 163.923 235.719 164.99C236.304 166.057 237.273 166.862 238.43 167.239ZM330.397 285.24C328.413 300.288 321.017 314.099 309.591 324.091C298.165 334.083 283.491 339.571 268.313 339.531C176.035 339.531 100.969 264.466 100.969 172.187C100.937 157.015 106.43 142.35 116.421 130.932C126.412 119.513 140.218 112.122 155.26 110.139C158.342 109.764 161.462 110.399 164.151 111.949C166.841 113.499 168.956 115.879 170.177 118.733L195.399 175.08C196.341 177.265 196.726 179.65 196.517 182.021C196.308 184.391 195.513 186.672 194.203 188.659C194.096 188.814 193.988 188.97 193.869 189.113L168.528 219.247C168.13 219.907 167.903 220.655 167.865 221.425C167.827 222.195 167.981 222.962 168.313 223.658C177.684 242.842 197.777 262.78 217.189 272.151C217.89 272.477 218.66 272.624 219.432 272.58C220.203 272.536 220.952 272.303 221.612 271.9L251.339 246.655L251.793 246.309C253.783 244.995 256.068 244.197 258.443 243.989C260.818 243.78 263.208 244.167 265.396 245.113L321.839 270.406C324.664 271.636 327.019 273.742 328.554 276.414C330.089 279.085 330.722 282.18 330.361 285.24H330.397ZM318.026 279.12L261.559 253.827C260.873 253.539 260.128 253.418 259.387 253.475C258.645 253.531 257.927 253.762 257.292 254.15L227.672 279.395L227.23 279.73C225.17 281.105 222.79 281.923 220.32 282.106C217.851 282.288 215.376 281.828 213.137 280.77C191.621 270.382 170.213 249.118 159.826 227.853C158.758 225.631 158.28 223.172 158.439 220.712C158.598 218.252 159.389 215.874 160.735 213.808C160.842 213.641 160.962 213.497 161.081 213.342L186.41 183.22C186.789 182.575 187.012 181.849 187.06 181.101C187.108 180.354 186.979 179.606 186.685 178.917L161.416 122.57C161.06 121.697 160.453 120.948 159.673 120.418C158.892 119.889 157.972 119.602 157.029 119.594C156.838 119.582 156.646 119.582 156.455 119.594C143.716 121.282 132.028 127.552 123.576 137.231C115.124 146.911 110.487 159.337 110.531 172.187C110.531 259.182 181.318 329.969 268.313 329.969C281.163 330.013 293.589 325.376 303.269 316.924C312.949 308.472 319.218 296.784 320.906 284.045C321.017 283.019 320.792 281.985 320.266 281.098C319.741 280.21 318.942 279.517 317.99 279.12H318.026Z" fill="white" stroke="#00183C" stroke-width="4"/>
<defs>
<radialGradient id="paint0_radial_2482_1902" cx="0" cy="0" r="1" gradientUnits="userSpaceOnUse" gradientTransform="translate(220.25 224.5) scale(165.248 165.502)">
<stop stop-color="#00BCFF"/>
<stop offset="0.653855" stop-color="#00BCFF" stop-opacity="0.1"/>
<stop offset="1" stop-color="#00BCFF" stop-opacity="0"/>
</radialGradient>
</defs>
</svg>
