<svg width="440" height="440" viewBox="0 0 440 440" fill="none" xmlns="http://www.w3.org/2000/svg">
<path opacity="0.76" d="M362.239 234.846C362.239 315.017 296.78 380 216.029 380C135.288 380 69.8301 315.017 69.8301 234.846C69.8301 154.685 135.288 89.6951 216.029 89.6951C296.78 89.6951 362.239 154.685 362.239 234.846Z" fill="url(#paint0_radial_2482_2001)"/>
<path d="M132.578 220.014C132.578 213.1 140.454 209.136 146.007 213.256L197.792 251.677H232.502L289.797 212.34C295.381 208.506 302.975 212.504 302.975 219.277V300.061C302.975 304.708 299.207 308.476 294.56 308.476H140.993C136.346 308.476 132.578 304.708 132.578 300.061V220.014Z" fill="#00183C"/>
<path opacity="0.4" d="M31.9644 35.0001L138.889 210.656L171.496 230.64L197.792 249.573H231.45L252.487 234.848L293.508 210.656L408.43 35.0001H31.9644Z" fill="url(#paint1_linear_2482_2001)"/>
<path fill-rule="evenodd" clip-rule="evenodd" d="M214.39 145.787C215.406 145.11 216.729 145.11 217.745 145.787L219.605 142.996L217.745 145.787L304.521 203.638C305.362 204.199 305.867 205.143 305.867 206.154V300.161C305.867 302.881 304.787 305.49 302.864 307.413C300.94 309.336 298.332 310.417 295.612 310.417H136.523C133.803 310.417 131.194 309.336 129.271 307.413C127.348 305.49 126.267 302.881 126.267 300.161V206.154C126.267 205.143 126.773 204.199 127.614 203.638L214.39 145.787ZM218.401 153.494C216.988 152.551 215.147 152.551 213.733 153.494L134.189 206.523C133.018 207.304 132.315 208.617 132.315 210.024V300.161C132.315 302.485 134.199 304.369 136.523 304.369H295.612C297.936 304.369 299.819 302.485 299.819 300.161V210.024C299.819 208.617 299.116 207.304 297.946 206.523L218.401 153.494Z" fill="white"/>
<path d="M131.924 202.635L198.189 251.019M198.189 251.019H231.847M198.189 251.019L131.924 301.507M231.847 251.019L300.216 202.635M231.847 251.019L300.872 302.164" stroke="white" stroke-width="9"/>
<defs>
<radialGradient id="paint0_radial_2482_2001" cx="0" cy="0" r="1" gradientUnits="userSpaceOnUse" gradientTransform="translate(216.034 234.848) scale(146.203 145.154)">
<stop stop-color="#00BCFF" stop-opacity="0.4"/>
<stop offset="0.653855" stop-color="#00BCFF" stop-opacity="0.1"/>
<stop offset="1" stop-color="#00BCFF" stop-opacity="0"/>
</radialGradient>
<linearGradient id="paint1_linear_2482_2001" x1="220.197" y1="36.7176" x2="220.197" y2="345.659" gradientUnits="userSpaceOnUse">
<stop stop-color="#00BCFF" stop-opacity="0"/>
<stop offset="0.269342" stop-color="#00BCFF" stop-opacity="0.2"/>
<stop offset="1" stop-color="#00BCFF" stop-opacity="0.2"/>
</linearGradient>
</defs>
</svg>
