<svg width="440" height="440" viewBox="0 0 440 440" fill="none" xmlns="http://www.w3.org/2000/svg">
<path opacity="0.1" d="M385.5 224.498C385.5 315.908 311.514 390 220.244 390C128.985 390 55 315.908 55 224.498C55 133.1 128.985 59 220.244 59C311.514 59 385.5 133.1 385.5 224.498Z" fill="url(#paint0_radial_2721_221)"/>
<path opacity="0.54" d="M326 86L110 131.511V184.96V203.609V227.481V242.401V306.989L326 353V86Z" fill="url(#paint1_linear_2721_221)"/>
<path d="M114.812 130.156C115.815 130.156 116.777 130.555 117.486 131.264C118.195 131.973 118.594 132.935 118.594 133.938V306.062C118.594 307.065 118.195 308.027 117.486 308.736C116.777 309.445 115.815 309.844 114.812 309.844C113.81 309.844 112.848 309.445 112.139 308.736C111.43 308.027 111.031 307.065 111.031 306.062V133.938C111.031 132.935 111.43 131.973 112.139 131.264C112.848 130.555 113.81 130.156 114.812 130.156ZM200.875 177.969C201.878 177.969 202.84 178.367 203.549 179.076C204.258 179.785 204.656 180.747 204.656 181.75V214.79L205.965 214.365L236.087 204.587C236.559 204.434 237.057 204.375 237.552 204.414C238.047 204.453 238.53 204.59 238.973 204.815C239.415 205.041 239.809 205.352 240.131 205.729C240.453 206.107 240.698 206.544 240.852 207.017C241.005 207.489 241.064 207.987 241.024 208.482C240.985 208.977 240.849 209.46 240.623 209.902C240.398 210.345 240.087 210.738 239.71 211.061C239.332 211.383 238.894 211.628 238.422 211.781L208.3 221.559L206.99 221.984L207.8 223.098L226.41 248.726C226.819 249.289 227.065 249.955 227.12 250.649C227.175 251.344 227.037 252.04 226.721 252.661C226.405 253.282 225.924 253.803 225.33 254.168C224.737 254.533 224.054 254.725 223.357 254.727C222.76 254.727 222.172 254.587 221.64 254.316C221.107 254.045 220.646 253.651 220.295 253.168L201.684 227.553L200.874 226.438L200.065 227.554L181.502 253.169L181.486 253.19C181.201 253.607 180.834 253.963 180.409 254.236C179.984 254.509 179.509 254.694 179.011 254.78C178.513 254.866 178.002 254.851 177.51 254.736C177.018 254.622 176.553 254.41 176.145 254.113C175.736 253.816 175.391 253.44 175.13 253.008C174.869 252.575 174.697 252.094 174.625 251.594C174.553 251.094 174.581 250.584 174.709 250.095C174.837 249.606 175.062 249.148 175.37 248.748L175.38 248.736L175.388 248.725L193.951 223.097L194.758 221.983L193.45 221.559L163.328 211.781C162.856 211.628 162.418 211.383 162.04 211.061C161.663 210.738 161.352 210.345 161.127 209.902C160.901 209.46 160.765 208.977 160.726 208.482C160.686 207.987 160.745 207.489 160.898 207.017C161.052 206.544 161.297 206.107 161.619 205.729C161.941 205.352 162.335 205.041 162.777 204.815C163.22 204.59 163.703 204.453 164.198 204.414C164.693 204.375 165.191 204.434 165.663 204.587L195.785 214.365L197.094 214.79V181.75C197.094 180.747 197.492 179.785 198.201 179.076C198.91 178.367 199.872 177.969 200.875 177.969ZM315.625 177.969C316.628 177.969 317.59 178.367 318.299 179.076C319.008 179.785 319.406 180.747 319.406 181.75V214.79L320.715 214.365L350.828 204.59C351.777 204.292 352.806 204.38 353.69 204.835C354.575 205.29 355.245 206.074 355.555 207.02L355.734 207.57C355.784 207.871 355.799 208.177 355.774 208.482C355.735 208.977 355.599 209.46 355.373 209.902C355.148 210.345 354.838 210.738 354.46 211.061C354.129 211.343 353.753 211.566 353.348 211.72L353.172 211.781L323.05 221.559L321.74 221.984L322.55 223.098L341.16 248.726C341.569 249.289 341.815 249.955 341.87 250.649C341.925 251.344 341.787 252.04 341.471 252.661C341.155 253.282 340.674 253.803 340.08 254.168C339.487 254.533 338.804 254.725 338.107 254.727C337.51 254.727 336.922 254.587 336.39 254.316C335.857 254.045 335.396 253.651 335.045 253.168L316.434 227.553L315.624 226.438L314.815 227.554L296.252 253.169L296.236 253.19C295.951 253.607 295.584 253.963 295.159 254.236C294.734 254.509 294.259 254.694 293.761 254.78C293.263 254.866 292.752 254.851 292.26 254.736C291.768 254.622 291.303 254.41 290.895 254.113C290.486 253.816 290.141 253.44 289.88 253.008C289.619 252.575 289.447 252.094 289.375 251.594C289.303 251.094 289.331 250.584 289.459 250.095C289.587 249.606 289.812 249.148 290.12 248.748L290.13 248.736L290.138 248.725L308.701 223.097L309.508 221.983L308.2 221.559L278.078 211.781C277.124 211.472 276.333 210.796 275.877 209.902C275.421 209.009 275.339 207.971 275.648 207.017C275.958 206.063 276.634 205.271 277.527 204.815C278.421 204.36 279.459 204.277 280.413 204.587L310.535 214.365L311.844 214.79V181.75C311.844 180.747 312.242 179.785 312.951 179.076C313.66 178.367 314.622 177.969 315.625 177.969Z" fill="white" stroke="#00183C" stroke-width="2"/>
<defs>
<radialGradient id="paint0_radial_2721_221" cx="0" cy="0" r="1" gradientUnits="userSpaceOnUse" gradientTransform="translate(220.25 224.5) scale(165.248 165.502)">
<stop stop-color="#00BCFF"/>
<stop offset="0.653855" stop-color="#00BCFF" stop-opacity="0.1"/>
<stop offset="1" stop-color="#00BCFF" stop-opacity="0"/>
</radialGradient>
<linearGradient id="paint1_linear_2721_221" x1="339.873" y1="180.709" x2="-2.13894" y2="180.709" gradientUnits="userSpaceOnUse">
<stop stop-color="#0021B3" stop-opacity="0"/>
<stop offset="0.269342" stop-color="#0021B3" stop-opacity="0.2"/>
<stop offset="1" stop-color="#0021B3" stop-opacity="0.5"/>
</linearGradient>
</defs>
</svg>
