<svg width="440" height="440" viewBox="0 0 440 440" fill="none" xmlns="http://www.w3.org/2000/svg">
<g clip-path="url(#clip0_2482_2010)">
<circle cx="224.559" cy="219.544" r="137.927" fill="#00183C"/>
<path d="M363.399 232.53C361.074 259.559 351.078 285.361 334.586 306.902C318.095 328.443 295.795 344.825 270.309 354.122C244.823 363.42 217.212 365.245 190.724 359.383C164.236 353.521 139.974 340.215 120.791 321.032C101.608 301.85 88.303 277.587 82.4409 251.099C76.5789 224.612 78.4038 197.001 87.701 171.515C96.9982 146.029 113.381 123.729 134.922 107.237C156.462 90.7459 182.265 80.7498 209.294 78.4249C210.731 78.3063 212.177 78.472 213.55 78.9124C214.923 79.3528 216.196 80.0593 217.296 80.9916C218.396 81.9239 219.302 83.0638 219.961 84.3461C220.621 85.6284 221.021 87.028 221.14 88.4651C221.258 89.9021 221.092 91.3485 220.652 92.7215C220.212 94.0945 219.505 95.3674 218.573 96.4674C217.641 97.5674 216.501 98.4729 215.218 99.1324C213.936 99.7919 212.536 100.192 211.099 100.311C188.223 102.276 166.384 110.735 148.151 124.691C129.919 138.648 116.052 157.521 108.182 179.091C100.312 200.661 98.7669 224.03 103.728 246.449C108.689 268.867 119.949 289.403 136.185 305.638C152.421 321.874 172.956 333.135 195.375 338.096C217.793 343.057 241.162 341.511 262.732 333.641C284.302 325.771 303.176 311.905 317.132 293.672C331.088 275.44 339.547 253.601 341.513 230.724C341.752 227.822 343.135 225.134 345.356 223.251C347.578 221.368 350.456 220.444 353.358 220.684C356.261 220.923 358.949 222.306 360.832 224.527C362.715 226.749 363.638 229.627 363.399 232.53ZM210.197 144.083V220.684C210.197 223.586 211.349 226.37 213.402 228.422C215.454 230.474 218.237 231.627 221.14 231.627H297.741C300.643 231.627 303.426 230.474 305.478 228.422C307.531 226.37 308.684 223.586 308.684 220.684C308.684 217.782 307.531 214.998 305.478 212.946C303.426 210.894 300.643 209.741 297.741 209.741H232.083V144.083C232.083 141.181 230.93 138.397 228.877 136.345C226.825 134.293 224.042 133.14 221.14 133.14C218.237 133.14 215.454 134.293 213.402 136.345C211.349 138.397 210.197 141.181 210.197 144.083ZM264.912 111.254C268.158 111.254 271.332 110.291 274.031 108.488C276.73 106.684 278.834 104.12 280.077 101.121C281.319 98.1216 281.644 94.8212 281.011 91.6371C280.377 88.453 278.814 85.5282 276.518 83.2326C274.223 80.937 271.298 79.3736 268.114 78.7403C264.93 78.1069 261.629 78.432 258.63 79.6744C255.631 80.9167 253.067 83.0206 251.263 85.72C249.46 88.4193 248.497 91.5929 248.497 94.8394C248.497 99.1928 250.226 103.368 253.305 106.446C256.383 109.525 260.558 111.254 264.912 111.254ZM314.155 144.083C317.402 144.083 320.575 143.12 323.275 141.317C325.974 139.513 328.078 136.949 329.32 133.95C330.563 130.951 330.888 127.65 330.254 124.466C329.621 121.282 328.058 118.357 325.762 116.062C323.466 113.766 320.542 112.203 317.357 111.569C314.173 110.936 310.873 111.261 307.874 112.503C304.874 113.746 302.311 115.85 300.507 118.549C298.703 121.248 297.741 124.422 297.741 127.668C297.741 132.022 299.47 136.197 302.548 139.275C305.627 142.354 309.802 144.083 314.155 144.083ZM346.984 193.326C350.231 193.326 353.404 192.364 356.104 190.56C358.803 188.756 360.907 186.193 362.149 183.193C363.392 180.194 363.717 176.894 363.083 173.71C362.45 170.525 360.887 167.601 358.591 165.305C356.295 163.009 353.371 161.446 350.186 160.813C347.002 160.179 343.702 160.505 340.703 161.747C337.703 162.989 335.14 165.093 333.336 167.792C331.532 170.492 330.57 173.665 330.57 176.912C330.57 181.265 332.299 185.44 335.377 188.519C338.456 191.597 342.631 193.326 346.984 193.326Z" fill="white" stroke="#00183C" stroke-width="14.5"/>
<path d="M247.355 308.455C247.355 366.377 199.892 413.326 141.341 413.326C82.7971 413.326 35.3345 366.377 35.3345 308.455C35.3345 250.539 82.7971 203.585 141.341 203.585C199.892 203.585 247.355 250.539 247.355 308.455Z" fill="url(#paint0_radial_2482_2010)"/>
<g clip-path="url(#clip1_2482_2010)">
<path d="M82.0343 299.329C80.5861 292.618 80.4675 285.688 81.6851 278.931C83.533 268.451 88.4472 258.754 95.8062 251.067C103.165 243.379 112.638 238.047 123.028 235.743C133.418 233.44 144.257 234.269 154.175 238.126C164.094 241.983 172.645 248.695 178.749 257.412C184.853 266.13 188.235 276.461 188.467 287.101C188.7 297.74 185.772 308.209 180.054 317.184C174.336 326.16 166.085 333.238 156.344 337.524C146.604 341.81 135.811 343.111 125.331 341.263C118.565 340.096 112.093 337.615 106.282 333.958L94.8542 341.96L77.1912 338.846L74.0768 356.508L56.4138 353.394L53.2994 371.057L23.8612 365.866L29.0519 336.428L82.0343 299.329Z" fill="#00183C" stroke="white" stroke-width="4.92626" stroke-linecap="round" stroke-linejoin="round"/>
<path d="M150.951 282.039C154.202 282.612 157.303 280.441 157.876 277.189C158.45 273.937 156.278 270.837 153.027 270.263C149.775 269.69 146.674 271.861 146.101 275.113C145.528 278.364 147.699 281.465 150.951 282.039Z" fill="white"/>
</g>
<g clip-path="url(#clip2_2482_2010)">
<path d="M119.136 342.131C114.892 336.733 111.748 330.557 109.88 323.95C106.947 313.72 107.113 302.85 110.357 292.715C113.601 282.58 119.778 273.634 128.107 267.009C136.435 260.385 146.541 256.378 157.146 255.497C167.752 254.616 178.38 256.899 187.688 262.059C196.995 267.218 204.564 275.021 209.437 284.482C214.309 293.943 216.267 304.636 215.062 315.21C213.858 325.783 209.544 335.762 202.669 343.884C195.793 352.006 186.662 357.907 176.433 360.84C169.84 362.758 162.936 363.364 156.11 362.625L149.346 374.827L132.106 379.77L137.049 397.011L119.809 401.955L124.752 419.195L96.0181 427.435L87.7786 398.7L119.136 342.131Z" fill="#00183C" stroke="white" stroke-width="4.92626" stroke-linecap="round" stroke-linejoin="round"/>
<path d="M173.499 296.378C176.673 295.468 178.508 292.157 177.598 288.984C176.688 285.81 173.377 283.974 170.203 284.885C167.03 285.795 165.194 289.105 166.104 292.279C167.015 295.453 170.325 297.288 173.499 296.378Z" fill="white"/>
</g>
</g>
<defs>
<radialGradient id="paint0_radial_2482_2010" cx="0" cy="0" r="1" gradientUnits="userSpaceOnUse" gradientTransform="translate(141.345 308.456) scale(106.009 104.871)">
<stop stop-color="#00BCFF"/>
<stop offset="0.653855" stop-color="#00BCFF" stop-opacity="0.1"/>
<stop offset="1" stop-color="#00BCFF" stop-opacity="0"/>
</radialGradient>
<clipPath id="clip0_2482_2010">
<rect width="440" height="440" fill="white"/>
</clipPath>
<clipPath id="clip1_2482_2010">
<rect width="191.311" height="191.311" fill="white" transform="translate(29.3765 196.859) rotate(10)"/>
</clipPath>
<clipPath id="clip2_2482_2010">
<rect width="191.311" height="191.311" fill="white" transform="translate(26.8911 273.114) rotate(-16)"/>
</clipPath>
</defs>
</svg>
