<svg width="16" height="11" viewBox="0 0 16 11" fill="none" xmlns="http://www.w3.org/2000/svg">
<path d="M15.25 1.5V5.5C15.25 5.69891 15.171 5.88968 15.0303 6.03033C14.8896 6.17098 14.6989 6.25 14.5 6.25C14.3011 6.25 14.1103 6.17098 13.9696 6.03033C13.829 5.88968 13.75 5.69891 13.75 5.5V3.3125L9.0306 8.0325C8.96092 8.10242 8.87813 8.1579 8.78696 8.19575C8.6958 8.23361 8.59806 8.25309 8.49935 8.25309C8.40064 8.25309 8.3029 8.23361 8.21173 8.19575C8.12057 8.1579 8.03778 8.10242 7.9681 8.0325L5.99997 6.0625L2.0306 10.0306C1.8897 10.1715 1.69861 10.2507 1.49935 10.2507C1.30009 10.2507 1.10899 10.1715 0.968098 10.0306C0.827202 9.88973 0.748047 9.69863 0.748047 9.49938C0.748047 9.30012 0.827202 9.10902 0.968098 8.96813L5.4681 4.46813C5.53778 4.39821 5.62057 4.34273 5.71173 4.30487C5.8029 4.26702 5.90064 4.24753 5.99935 4.24753C6.09806 4.24753 6.1958 4.26702 6.28696 4.30487C6.37813 4.34273 6.46092 4.39821 6.5306 4.46813L8.49997 6.4375L12.6875 2.25H10.5C10.3011 2.25 10.1103 2.17098 9.96964 2.03033C9.82899 1.88968 9.74997 1.69891 9.74997 1.5C9.74997 1.30109 9.82899 1.11032 9.96964 0.96967C10.1103 0.829018 10.3011 0.75 10.5 0.75H14.5C14.6989 0.75 14.8896 0.829018 15.0303 0.96967C15.171 1.11032 15.25 1.30109 15.25 1.5Z" fill="#00C60D"/>
</svg>
