<svg width="24" height="24" viewBox="0 0 24 24" fill="none" xmlns="http://www.w3.org/2000/svg">
<path d="M20.8125 20.25C20.8125 20.3992 20.7532 20.5423 20.6477 20.6477C20.5423 20.7532 20.3992 20.8125 20.25 20.8125H3.75C3.60082 20.8125 3.45774 20.7532 3.35225 20.6477C3.24676 20.5423 3.1875 20.3992 3.1875 20.25C3.1875 20.1008 3.24676 19.9577 3.35225 19.8523C3.45774 19.7468 3.60082 19.6875 3.75 19.6875H20.25C20.3992 19.6875 20.5423 19.7468 20.6477 19.8523C20.7532 19.9577 20.8125 20.1008 20.8125 20.25ZM7.5 16.3125C7.64913 16.3124 7.79211 16.253 7.8975 16.1475L17.4375 6.60844V14.25C17.4375 14.3992 17.4968 14.5423 17.6023 14.6477C17.7077 14.7532 17.8508 14.8125 18 14.8125C18.1492 14.8125 18.2923 14.7532 18.3977 14.6477C18.5032 14.5423 18.5625 14.3992 18.5625 14.25V5.25C18.5625 5.10082 18.5032 4.95774 18.3977 4.85225C18.2923 4.74676 18.1492 4.6875 18 4.6875H9C8.85082 4.6875 8.70774 4.74676 8.60225 4.85225C8.49676 4.95774 8.4375 5.10082 8.4375 5.25C8.4375 5.39918 8.49676 5.54226 8.60225 5.64775C8.70774 5.75324 8.85082 5.8125 9 5.8125H16.6416L7.1025 15.3525C7.02393 15.4312 6.97044 15.5313 6.94878 15.6404C6.92711 15.7494 6.93825 15.8625 6.98078 15.9652C7.02332 16.0679 7.09534 16.1557 7.18775 16.2175C7.28016 16.2794 7.38882 16.3124 7.5 16.3125Z" fill="#0A0A0A"/>
</svg>
