<svg width="16" height="11" viewBox="0 0 16 11" fill="none" xmlns="http://www.w3.org/2000/svg">
<path d="M15.25 9.5007V5.5007C15.25 5.30179 15.171 5.11102 15.0303 4.97037C14.8896 4.82972 14.6989 4.7507 14.5 4.7507C14.3011 4.7507 14.1103 4.82972 13.9696 4.97037C13.829 5.11102 13.75 5.30179 13.75 5.5007V7.6882L9.0306 2.9682C8.96092 2.89828 8.87813 2.8428 8.78696 2.80495C8.6958 2.76709 8.59806 2.74761 8.49935 2.74761C8.40064 2.74761 8.3029 2.76709 8.21173 2.80495C8.12057 2.8428 8.03778 2.89828 7.9681 2.9682L5.99997 4.9382L2.0306 0.970102C1.8897 0.829202 1.69861 0.750002 1.49935 0.750002C1.30009 0.750002 1.10899 0.829202 0.968098 0.970102C0.827202 1.11097 0.748047 1.30207 0.748047 1.50132C0.748047 1.70058 0.827202 1.89168 0.968098 2.03257L5.4681 6.53257C5.53778 6.60249 5.62057 6.65797 5.71173 6.69583C5.8029 6.73368 5.90064 6.75317 5.99935 6.75317C6.09806 6.75317 6.1958 6.73368 6.28696 6.69583C6.37813 6.65797 6.46092 6.60249 6.5306 6.53257L8.49997 4.5632L12.6875 8.7507H10.5C10.3011 8.7507 10.1103 8.82972 9.96964 8.97037C9.82899 9.11102 9.74997 9.30179 9.74997 9.5007C9.74997 9.69961 9.82899 9.89038 9.96964 10.031C10.1103 10.1717 10.3011 10.2507 10.5 10.2507H14.5C14.6989 10.2507 14.8896 10.1717 15.0303 10.031C15.171 9.89038 15.25 9.69961 15.25 9.5007Z" fill="#FF0000"/>
</svg>
