<svg width="440" height="455" viewBox="0 0 440 455" fill="none" xmlns="http://www.w3.org/2000/svg">
<path d="M284.221 46.9785L214.198 53.6397C207.565 54.2707 202.522 59.8803 202.598 66.5431L205.357 306.3C205.413 311.21 208.811 315.448 213.591 316.572L282.961 332.874C288.859 334.26 294.507 329.785 294.507 323.727V56.333C294.507 50.7918 289.737 46.4538 284.221 46.9785Z" stroke="white" stroke-width="0.854242"/>
<path d="M285.537 333.239L286.711 333.395C288.052 333.574 289.414 333.497 290.726 333.167L318.946 326.073C323.668 324.885 326.989 320.653 327.02 315.784L328.617 62.1866C328.651 56.8331 324.715 52.2822 319.413 51.5435L285.751 46.8542" stroke="white" stroke-width="0.854242"/>
<path d="M284.316 45.4988C285.288 45.3994 286.267 45.4168 287.234 45.5515L319.619 50.0632C325.664 50.9053 330.152 56.093 330.113 62.196L328.516 315.794C328.481 321.345 324.694 326.169 319.311 327.522L291.091 334.617C289.596 334.993 288.043 335.081 286.515 334.878L285.34 334.72L285.271 334.712L285.205 334.696L213.935 318.411C208.465 317.161 204.558 312.335 204.475 306.724L200.899 65.2039C200.806 58.8923 205.553 53.5562 211.832 52.9138L284.316 45.4988Z" fill="#00183C" stroke="white" stroke-width="2.98985"/>
<path d="M284.221 46.9785L214.198 53.6397C207.565 54.2707 202.522 59.8803 202.598 66.5431L205.357 306.3C205.413 311.21 208.811 315.448 213.591 316.572L282.961 332.874C288.859 334.26 294.507 329.785 294.507 323.727V56.333C294.507 50.7918 289.737 46.4538 284.221 46.9785Z" fill="#00183C" stroke="white" stroke-width="0.854242"/>
<path d="M308.816 328.541V328.541C312.104 327.655 314.41 324.701 314.471 321.296L314.747 305.844C314.775 304.282 315.941 302.974 317.49 302.768V302.768C319.431 302.509 321.137 304.059 321.066 306.016L320.639 317.774C320.466 322.51 317.192 326.567 312.599 327.735L307.748 328.968" stroke="white" stroke-width="0.854242"/>
<path d="M296.234 48.2657L295.361 48.1357L319.349 51.6864C324.585 52.4615 328.463 56.9559 328.463 62.2493V137.995C328.463 143.743 323.914 148.46 318.17 148.667L305.649 149.118C305.163 149.135 304.761 148.745 304.764 148.259L305.339 58.896C305.373 53.5802 301.492 49.0488 296.234 48.2657Z" fill="#00183C" stroke="white" stroke-width="0.854242"/>
<path d="M320.562 115.213V94.2289C320.562 91.6195 318.142 89.6833 315.596 90.2558C311.508 91.1752 308.603 94.806 308.603 98.9967V120.013C308.603 122.748 311.204 124.734 313.842 124.014C317.81 122.93 320.562 119.326 320.562 115.213Z" fill="#00183C" stroke="white" stroke-width="0.854242"/>
<path d="M320.562 279.227V258.244C320.562 255.634 318.142 253.698 315.596 254.27C311.508 255.19 308.603 258.821 308.603 263.011V284.028C308.603 286.763 311.204 288.749 313.842 288.028C317.81 286.945 320.562 283.341 320.562 279.227Z" fill="#00183C" stroke="white" stroke-width="0.854242"/>
<path d="M280.589 59.9404L215.453 65.4173C213.905 65.5475 212.714 66.8425 212.714 68.3967V243.47C212.714 244.976 213.835 246.248 215.33 246.436L280.466 254.652C282.251 254.877 283.83 253.485 283.83 251.685V62.9198C283.83 61.1697 282.333 59.7938 280.589 59.9404Z" fill="#00183C" stroke="white" stroke-width="0.854242"/>
<path d="M227.693 306.324V279.265C227.693 278.53 228.352 277.969 229.078 278.087L268.238 284.458C268.816 284.552 269.24 285.051 269.24 285.635V314.943C269.24 315.705 268.535 316.272 267.791 316.108L228.63 307.489C228.083 307.368 227.693 306.884 227.693 306.324Z" stroke="white" stroke-width="0.397572"/>
<path d="M152.155 360.524L143.105 360.783C142.327 360.805 141.734 361.485 141.817 362.258L142.867 371.965C142.94 372.642 143.511 373.155 144.192 373.155H153.767C154.586 373.155 155.211 372.423 155.083 371.614L153.51 361.649C153.405 360.986 152.825 360.505 152.155 360.524Z" stroke="white" stroke-width="0.666565"/>
<path d="M140.783 149.937L112.962 160.489C112.395 160.704 112.045 161.274 112.109 161.877L136.544 391.032C136.612 391.679 137.138 392.182 137.787 392.222L168.834 394.142C168.939 394.149 169.043 394.143 169.146 394.125L247.739 380.371C248.435 380.249 248.915 379.606 248.834 378.904L222.124 149.065C222.044 148.38 221.456 147.869 220.767 147.886L141.223 149.85C141.072 149.854 140.924 149.883 140.783 149.937Z" fill="#00183C" stroke="white" stroke-width="3.18057"/>
<path d="M210.088 160.239L156.764 162.461C155.989 162.493 155.405 163.178 155.496 163.949L168.173 271.217C168.258 271.934 168.897 272.453 169.616 272.389L222.946 267.627C223.696 267.56 224.242 266.886 224.151 266.139L211.467 161.411C211.383 160.72 210.783 160.21 210.088 160.239Z" fill="#00183C" stroke="white" stroke-width="0.795143"/>
<path d="M141.329 150.522L168.658 393.819" stroke="white" stroke-width="0.795143"/>
<path d="M179.976 298.691L220.655 294.31C221.388 294.231 222.046 294.762 222.124 295.495L224.844 321.193C224.921 321.916 224.404 322.567 223.682 322.656L183.005 327.663C182.264 327.754 181.593 327.219 181.516 326.477L178.793 300.154C178.717 299.424 179.246 298.77 179.976 298.691Z" stroke="white" stroke-width="0.795143"/>
<path d="M178.001 300.068L178.989 298.833L178.748 299.556C178.688 299.738 178.667 299.932 178.688 300.123L181.58 326.473C181.627 326.905 181.882 327.287 182.263 327.496L182.989 327.895L182.743 327.969C182.47 328.051 182.177 328.043 181.909 327.946L181.437 327.777C180.959 327.604 180.62 327.175 180.564 326.67L177.717 301.048C177.678 300.697 177.78 300.344 178.001 300.068Z" fill="white"/>
<path d="M210.318 160.521L223.316 267.505" stroke="white" stroke-width="1.33313"/>
<path d="M152.864 360.823H144.485C143.69 360.823 143.072 361.514 143.16 362.304L144.196 371.636C144.271 372.311 144.842 372.822 145.521 372.822H154.419C155.243 372.822 155.87 372.082 155.734 371.269L154.179 361.937C154.072 361.295 153.516 360.823 152.864 360.823Z" fill="#00183C" stroke="white" stroke-width="0.666565"/>
<path opacity="0.3" d="M370.787 324.038C370.787 377.082 327.853 420.077 274.89 420.077C221.933 420.077 179 377.082 179 324.038C179 271 221.933 228 274.89 228C327.853 228 370.787 271 370.787 324.038Z" fill="url(#paint0_radial_2752_68)"/>
<circle cx="295.494" cy="299.521" r="48.8896" fill="#00183C"/>
<path d="M209.756 359.001L251.682 316.35L280.552 343.043L268.801 354.794H252.843V370.752L235.144 371.768V386.565L233.548 387.29L227.02 388.306L218.606 386.565H209.756L207.58 379.021L209.756 359.001Z" fill="#00183C"/>
<path d="M334.221 261.956C325.745 253.471 314.629 248.13 302.708 246.814C290.787 245.499 278.774 248.288 268.652 254.72C258.53 261.152 250.904 270.844 247.032 282.195C243.161 293.546 243.275 305.878 247.357 317.155L207.82 356.692C207.047 357.462 206.434 358.378 206.016 359.386C205.598 360.394 205.384 361.475 205.386 362.567V382.467C205.386 384.675 206.263 386.792 207.824 388.353C209.385 389.914 211.502 390.791 213.709 390.791H235.905C236.641 390.791 237.347 390.498 237.867 389.978C238.388 389.458 238.68 388.752 238.68 388.016V374.143H252.553C253.288 374.143 253.994 373.851 254.515 373.331C255.035 372.81 255.327 372.105 255.327 371.369V357.496H269.2C269.564 357.497 269.925 357.425 270.262 357.286C270.599 357.147 270.905 356.942 271.163 356.685L279.022 348.819C284.769 350.896 290.834 351.955 296.945 351.947H297.014C307.435 351.934 317.617 348.832 326.276 343.034C334.934 337.236 341.68 329.003 345.661 319.373C349.643 309.743 350.681 299.149 348.644 288.93C346.608 278.711 341.589 269.324 334.221 261.956ZM344.084 300.799C343.286 325.922 322.165 346.384 297.007 346.419H296.945C290.956 346.431 285.02 345.293 279.459 343.069C278.946 342.842 278.377 342.775 277.826 342.878C277.275 342.981 276.768 343.248 276.372 343.644L268.048 351.968H252.553C251.817 351.968 251.111 352.26 250.591 352.781C250.07 353.301 249.778 354.007 249.778 354.743V368.615H235.905C235.17 368.615 234.464 368.908 233.944 369.428C233.423 369.948 233.131 370.654 233.131 371.39V385.262H213.709C212.973 385.262 212.268 384.97 211.747 384.45C211.227 383.929 210.935 383.224 210.935 382.488V362.567C210.939 361.832 211.23 361.127 211.746 360.604L252.553 319.804C252.949 319.408 253.216 318.901 253.319 318.35C253.422 317.799 253.355 317.23 253.128 316.718C250.896 311.137 249.758 305.179 249.778 299.169C249.778 274.011 270.275 252.89 295.398 252.064C301.854 251.849 308.284 252.962 314.292 255.334C320.3 257.705 325.756 261.286 330.323 265.853C334.89 270.42 338.471 275.877 340.843 281.884C343.215 287.892 344.327 294.323 344.112 300.778L344.084 300.799ZM316.367 285.359C316.367 286.456 316.041 287.529 315.431 288.442C314.822 289.354 313.955 290.065 312.941 290.485C311.927 290.905 310.811 291.015 309.735 290.801C308.659 290.587 307.67 290.059 306.894 289.282C306.118 288.506 305.589 287.518 305.375 286.441C305.161 285.365 305.271 284.249 305.691 283.235C306.111 282.221 306.822 281.355 307.735 280.745C308.647 280.135 309.72 279.81 310.818 279.81C312.289 279.81 313.701 280.394 314.741 281.435C315.782 282.476 316.367 283.887 316.367 285.359Z" fill="white" stroke="#00183C" stroke-width="2.32117"/>
<path opacity="0.3" d="M401.89 320.817C416.511 371.807 387.092 424.97 336.18 439.569C285.275 454.166 232.154 424.67 217.533 373.681C202.914 322.698 232.331 269.53 283.237 254.933C334.148 240.334 387.271 269.834 401.89 320.817Z" fill="url(#paint1_radial_2752_68)"/>
<g clip-path="url(#clip0_2752_68)">
<circle cx="322.756" cy="318.004" r="48.8896" transform="rotate(-16 322.756 318.004)" fill="#00183C"/>
<path d="M256.734 398.813L285.28 346.257L320.388 363.959L312.332 378.493L296.992 382.892L301.39 398.232L284.657 404.087L288.736 418.311L287.402 419.448L281.406 422.224L272.838 422.869L264.332 425.309L260.16 418.657L256.734 398.813Z" fill="#00183C"/>
<path d="M349.628 271.219C339.141 265.399 326.984 263.329 315.162 265.351C303.341 267.372 292.562 273.364 284.605 282.337C276.648 291.31 271.988 302.728 271.395 314.707C270.803 326.685 274.312 338.508 281.344 348.223L254.237 397.126C253.706 398.079 253.369 399.129 253.245 400.213C253.121 401.297 253.213 402.396 253.516 403.444L259.001 422.574C259.61 424.696 261.036 426.489 262.967 427.559C264.898 428.63 267.174 428.889 269.296 428.281L290.633 422.162C291.34 421.96 291.938 421.484 292.295 420.841C292.651 420.197 292.738 419.438 292.535 418.731L288.711 405.395L302.046 401.572C302.754 401.369 303.352 400.893 303.708 400.25C304.065 399.606 304.152 398.847 303.949 398.14L300.125 384.805L313.46 380.981C313.811 380.881 314.138 380.712 314.423 380.486C314.709 380.259 314.947 379.978 315.123 379.66L320.51 369.932C326.607 370.345 332.729 369.691 338.601 367.999L338.668 367.98C348.681 365.095 357.614 359.306 364.339 351.347C371.064 343.387 375.279 333.613 376.451 323.259C377.624 312.904 375.702 302.435 370.928 293.173C366.154 283.91 358.742 276.271 349.628 271.219ZM369.816 305.839C375.974 330.209 361.311 355.7 337.137 362.668L337.077 362.685C331.323 364.347 325.304 364.89 319.345 364.285C318.79 364.208 318.224 364.3 317.723 364.551C317.222 364.802 316.808 365.198 316.536 365.689L310.83 375.984L295.934 380.255C295.227 380.458 294.629 380.934 294.272 381.577C293.915 382.221 293.829 382.98 294.032 383.687L297.856 397.022L284.52 400.846C283.813 401.049 283.215 401.524 282.859 402.168C282.502 402.812 282.415 403.571 282.618 404.278L286.442 417.613L267.773 422.967C267.065 423.169 266.306 423.083 265.663 422.726C265.019 422.369 264.544 421.772 264.341 421.064L258.85 401.915C258.651 401.207 258.737 400.45 259.089 399.804L287.069 349.338C287.341 348.848 287.458 348.287 287.405 347.729C287.352 347.171 287.131 346.642 286.771 346.212C283.087 341.463 280.351 336.049 278.714 330.266C271.779 306.083 285.66 280.13 309.583 272.412C315.729 270.426 322.217 269.723 328.646 270.347C335.074 270.971 341.306 272.908 346.956 276.04C352.605 279.171 357.55 283.429 361.486 288.551C365.422 293.672 368.264 299.547 369.837 305.811L369.816 305.839ZM338.916 298.637C339.219 299.692 339.201 300.813 338.867 301.858C338.532 302.903 337.895 303.826 337.036 304.509C336.177 305.192 335.135 305.605 334.041 305.696C332.948 305.787 331.852 305.552 330.892 305.02C329.932 304.488 329.151 303.683 328.649 302.707C328.146 301.731 327.944 300.629 328.069 299.538C328.193 298.448 328.638 297.419 329.347 296.581C330.056 295.743 330.997 295.135 332.052 294.832C333.467 294.427 334.985 294.6 336.272 295.313C337.559 296.026 338.51 297.222 338.916 298.637Z" fill="white" stroke="#00183C" stroke-width="2.32117"/>
</g>
<defs>
<radialGradient id="paint0_radial_2752_68" cx="0" cy="0" r="1" gradientUnits="userSpaceOnUse" gradientTransform="translate(274.893 324.039) scale(95.8924 96.0393)">
<stop stop-color="#00BCFF"/>
<stop offset="0.653855" stop-color="#00BCFF" stop-opacity="0.1"/>
<stop offset="1" stop-color="#00BCFF" stop-opacity="0"/>
</radialGradient>
<radialGradient id="paint1_radial_2752_68" cx="0" cy="0" r="1" gradientUnits="userSpaceOnUse" gradientTransform="translate(309.712 347.25) rotate(-16) scale(95.8924 96.0393)">
<stop stop-color="#00BCFF"/>
<stop offset="0.653855" stop-color="#00BCFF" stop-opacity="0.1"/>
<stop offset="1" stop-color="#00BCFF" stop-opacity="0"/>
</radialGradient>
<clipPath id="clip0_2752_68">
<rect width="177.569" height="177.569" fill="white" transform="translate(199.034 283.907) rotate(-16)"/>
</clipPath>
</defs>
</svg>
