<svg width="440" height="440" viewBox="0 0 440 440" fill="none" xmlns="http://www.w3.org/2000/svg">
<path d="M284.221 46.9785L214.198 53.6397C207.565 54.2707 202.522 59.8803 202.598 66.5431L205.357 306.3C205.413 311.21 208.811 315.448 213.591 316.572L282.961 332.874C288.859 334.26 294.507 329.785 294.507 323.727V56.333C294.507 50.7918 289.737 46.4538 284.221 46.9785Z" stroke="white" stroke-width="0.854242"/>
<path d="M285.537 333.239L286.711 333.395C288.052 333.574 289.414 333.497 290.726 333.167L318.946 326.073C323.668 324.885 326.989 320.653 327.02 315.784L328.617 62.1866C328.651 56.8331 324.715 52.2822 319.413 51.5435L285.751 46.8542" stroke="white" stroke-width="0.854242"/>
<path d="M284.316 45.4988C285.288 45.3994 286.267 45.4168 287.234 45.5515L319.619 50.0632C325.664 50.9053 330.152 56.093 330.113 62.196L328.516 315.794C328.481 321.345 324.694 326.169 319.311 327.522L291.091 334.617C289.596 334.993 288.043 335.081 286.515 334.878L285.34 334.72L285.271 334.712L285.205 334.696L213.935 318.411C208.465 317.161 204.558 312.335 204.475 306.724L200.899 65.2039C200.806 58.8923 205.553 53.5562 211.832 52.9138L284.316 45.4988Z" fill="#00183C" stroke="white" stroke-width="2.98985"/>
<path d="M284.221 46.9785L214.198 53.6397C207.565 54.2707 202.522 59.8803 202.598 66.5431L205.357 306.3C205.413 311.21 208.811 315.448 213.591 316.572L282.961 332.874C288.859 334.26 294.507 329.785 294.507 323.727V56.333C294.507 50.7918 289.737 46.4538 284.221 46.9785Z" fill="#00183C" stroke="white" stroke-width="0.854242"/>
<path d="M308.816 328.541V328.541C312.104 327.655 314.41 324.701 314.471 321.296L314.747 305.844C314.775 304.282 315.941 302.974 317.49 302.768V302.768C319.431 302.509 321.137 304.059 321.066 306.016L320.639 317.774C320.466 322.51 317.192 326.567 312.599 327.735L307.748 328.968" stroke="white" stroke-width="0.854242"/>
<path d="M296.234 48.2657L295.361 48.1357L319.349 51.6864C324.585 52.4615 328.463 56.9559 328.463 62.2493V137.995C328.463 143.743 323.914 148.46 318.17 148.667L305.649 149.118C305.163 149.135 304.761 148.745 304.764 148.259L305.339 58.896C305.373 53.5802 301.492 49.0488 296.234 48.2657Z" fill="#00183C" stroke="white" stroke-width="0.854242"/>
<path d="M320.562 115.213V94.2289C320.562 91.6195 318.142 89.6833 315.596 90.2558C311.508 91.1752 308.603 94.806 308.603 98.9967V120.013C308.603 122.748 311.204 124.734 313.842 124.014C317.81 122.93 320.562 119.326 320.562 115.213Z" fill="#00183C" stroke="white" stroke-width="0.854242"/>
<path d="M320.562 279.227V258.244C320.562 255.634 318.142 253.698 315.596 254.27C311.508 255.19 308.603 258.821 308.603 263.011V284.028C308.603 286.763 311.204 288.749 313.842 288.028C317.81 286.945 320.562 283.341 320.562 279.227Z" fill="#00183C" stroke="white" stroke-width="0.854242"/>
<path d="M280.589 59.9404L215.453 65.4173C213.905 65.5475 212.714 66.8425 212.714 68.3967V243.47C212.714 244.976 213.835 246.248 215.33 246.436L280.466 254.652C282.251 254.877 283.83 253.485 283.83 251.685V62.9198C283.83 61.1697 282.333 59.7938 280.589 59.9404Z" fill="#00183C" stroke="white" stroke-width="0.854242"/>
<path d="M227.693 306.324V279.265C227.693 278.53 228.352 277.969 229.078 278.087L268.238 284.458C268.816 284.552 269.24 285.051 269.24 285.635V314.943C269.24 315.705 268.535 316.272 267.791 316.108L228.63 307.489C228.083 307.368 227.693 306.884 227.693 306.324Z" stroke="white" stroke-width="0.397572"/>
<path d="M152.155 360.524L143.105 360.783C142.327 360.805 141.734 361.485 141.817 362.258L142.867 371.965C142.94 372.642 143.511 373.155 144.192 373.155H153.767C154.586 373.155 155.211 372.423 155.083 371.614L153.51 361.649C153.405 360.986 152.825 360.505 152.155 360.524Z" stroke="white" stroke-width="0.666565"/>
<path d="M140.783 149.937L112.962 160.489C112.395 160.704 112.045 161.274 112.109 161.877L136.544 391.032C136.612 391.679 137.138 392.182 137.787 392.222L168.834 394.142C168.939 394.149 169.043 394.143 169.146 394.125L247.739 380.371C248.435 380.249 248.915 379.606 248.834 378.904L222.124 149.065C222.044 148.38 221.456 147.869 220.767 147.886L141.223 149.85C141.072 149.854 140.924 149.883 140.783 149.937Z" fill="#00183C" stroke="white" stroke-width="3.18057"/>
<path d="M210.088 160.239L156.764 162.461C155.989 162.493 155.405 163.178 155.496 163.949L168.173 271.217C168.258 271.934 168.897 272.453 169.616 272.389L222.946 267.627C223.696 267.56 224.242 266.886 224.151 266.139L211.467 161.411C211.383 160.72 210.783 160.21 210.088 160.239Z" fill="#00183C" stroke="white" stroke-width="0.795143"/>
<path d="M141.329 150.522L168.658 393.819" stroke="white" stroke-width="0.795143"/>
<path d="M179.976 298.691L220.655 294.31C221.388 294.231 222.046 294.762 222.124 295.495L224.844 321.193C224.921 321.916 224.404 322.567 223.682 322.656L183.005 327.663C182.264 327.754 181.593 327.219 181.516 326.477L178.793 300.154C178.717 299.424 179.246 298.77 179.976 298.691Z" stroke="white" stroke-width="0.795143"/>
<path d="M178.001 300.068L178.989 298.833L178.748 299.556C178.688 299.738 178.667 299.932 178.688 300.123L181.58 326.473C181.627 326.905 181.882 327.287 182.263 327.496L182.989 327.895L182.743 327.969C182.47 328.051 182.177 328.043 181.909 327.946L181.437 327.777C180.959 327.604 180.62 327.175 180.564 326.67L177.717 301.048C177.678 300.697 177.78 300.344 178.001 300.068Z" fill="white"/>
<path d="M210.318 160.521L223.316 267.505" stroke="white" stroke-width="1.33313"/>
<path d="M152.864 360.823H144.485C143.69 360.823 143.072 361.514 143.16 362.304L144.196 371.636C144.271 372.311 144.842 372.822 145.521 372.822H154.419C155.243 372.822 155.87 372.082 155.734 371.269L154.179 361.937C154.072 361.295 153.516 360.823 152.864 360.823Z" fill="#00183C" stroke="white" stroke-width="0.666565"/>
</svg>
