<svg width="440" height="440" viewBox="0 0 440 440" fill="none" xmlns="http://www.w3.org/2000/svg">
<path d="M199.898 322.62L191.603 326.25C190.891 326.562 190.595 327.415 190.962 328.101L195.572 336.708C195.893 337.308 196.615 337.57 197.246 337.315L206.124 333.728C206.883 333.421 207.189 332.508 206.767 331.806L201.575 323.155C201.23 322.58 200.512 322.351 199.898 322.62Z" stroke="white" stroke-width="0.666565"/>
<path d="M110.466 131.627L88.6243 151.833C88.1794 152.245 88.0681 152.905 88.3535 153.44L196.852 356.755C197.158 357.329 197.833 357.598 198.45 357.392L227.956 347.542C228.055 347.509 228.15 347.465 228.239 347.409L295.957 305.216C296.557 304.842 296.761 304.065 296.422 303.445L185.558 100.348C185.227 99.7432 184.49 99.4897 183.858 99.7637L110.842 131.382C110.704 131.442 110.577 131.525 110.466 131.627Z" fill="#00183C" stroke="white" stroke-width="3.18057"/>
<path d="M178.583 115.217L129.975 137.253C129.268 137.573 128.983 138.427 129.357 139.108L181.294 233.816C181.641 234.449 182.428 234.691 183.07 234.362L230.734 209.969C231.404 209.626 231.657 208.797 231.294 208.138L180.301 115.787C179.965 115.178 179.217 114.93 178.583 115.217Z" fill="#00183C" stroke="white" stroke-width="0.795143"/>
<path d="M111.192 131.966L227.672 347.308" stroke="white" stroke-width="0.795143"/>
<path d="M202.531 254.868L238.607 235.567C239.257 235.219 240.065 235.465 240.412 236.116L252.561 258.923C252.903 259.565 252.667 260.363 252.031 260.716L216.192 280.595C215.539 280.957 214.716 280.713 214.367 280.053L201.982 256.667C201.638 256.018 201.883 255.214 202.531 254.868Z" stroke="white" stroke-width="0.795143"/>
<path d="M201.215 256.884L201.669 255.369L201.716 256.13C201.728 256.322 201.781 256.509 201.872 256.678L214.425 280.026C214.631 280.409 215.01 280.667 215.441 280.719L216.264 280.817L216.064 280.977C215.841 281.156 215.567 281.258 215.281 281.269L214.781 281.288C214.273 281.308 213.798 281.036 213.556 280.589L201.319 257.899C201.151 257.588 201.114 257.223 201.215 256.884Z" fill="white"/>
<path d="M178.903 115.392L231.032 209.717" stroke="white" stroke-width="1.33313"/>
<path d="M200.668 322.632L192.899 325.771C192.162 326.069 191.847 326.941 192.225 327.64L196.682 335.904C197.004 336.502 197.725 336.762 198.355 336.507L206.605 333.174C207.368 332.866 207.672 331.945 207.242 331.242L202.304 323.173C201.964 322.617 201.272 322.388 200.668 322.632Z" fill="#00183C" stroke="white" stroke-width="0.666565"/>
<path opacity="0.3" d="M310.086 151.089C310.086 194.773 274.729 230.181 231.113 230.181C187.501 230.181 152.145 194.773 152.145 151.089C152.145 107.411 187.501 71.9998 231.113 71.9998C274.729 71.9998 310.086 107.411 310.086 151.089Z" fill="url(#paint0_radial_2752_103)"/>
<circle cx="248.08" cy="130.9" r="40.262" fill="#00183C"/>
<path d="M177.472 179.884L211.999 144.759L235.774 166.742L226.097 176.419H212.955V189.561L198.379 190.397V202.583L197.065 203.181L191.689 204.017L184.76 202.583H177.472L175.68 196.371L177.472 179.884Z" fill="#00183C"/>
<path d="M279.972 99.9636C272.992 92.9762 263.838 88.5778 254.021 87.4944C244.204 86.4111 234.311 88.7076 225.975 94.0048C217.639 99.3021 211.358 107.283 208.17 116.631C204.982 125.979 205.076 136.135 208.438 145.422L175.878 177.982C175.241 178.616 174.736 179.37 174.392 180.2C174.048 181.031 173.872 181.921 173.873 182.82V199.208C173.873 201.026 174.595 202.77 175.881 204.055C177.166 205.341 178.91 206.063 180.728 206.063H199.007C199.613 206.063 200.194 205.822 200.623 205.394C201.051 204.965 201.292 204.384 201.292 203.778V192.354H212.716C213.322 192.354 213.904 192.113 214.332 191.684C214.761 191.256 215.001 190.675 215.001 190.069V178.644H226.426C226.726 178.644 227.023 178.585 227.301 178.471C227.578 178.356 227.83 178.188 228.042 177.976L234.514 171.498C239.247 173.209 244.242 174.081 249.275 174.074H249.332C257.913 174.063 266.299 171.509 273.429 166.734C280.56 161.959 286.115 155.179 289.394 147.248C292.673 139.318 293.528 130.594 291.851 122.178C290.174 113.762 286.04 106.032 279.972 99.9636ZM288.095 131.952C287.438 152.642 270.045 169.493 249.326 169.522H249.275C244.342 169.531 239.454 168.595 234.874 166.763C234.452 166.576 233.983 166.521 233.53 166.606C233.076 166.69 232.658 166.91 232.332 167.237L225.478 174.091H212.716C212.11 174.091 211.529 174.332 211.101 174.761C210.672 175.189 210.431 175.77 210.431 176.376V187.801H199.007C198.401 187.801 197.82 188.042 197.391 188.47C196.963 188.899 196.722 189.48 196.722 190.086V201.51H180.728C180.122 201.51 179.541 201.27 179.112 200.841C178.684 200.413 178.443 199.831 178.443 199.225V182.82C178.446 182.214 178.686 181.634 179.111 181.203L212.716 147.604C213.043 147.278 213.263 146.86 213.348 146.406C213.432 145.953 213.377 145.484 213.19 145.062C211.352 140.466 210.415 135.56 210.431 130.61C210.431 109.891 227.311 92.4977 248.001 91.8179C253.317 91.6405 258.613 92.5569 263.561 94.5102C268.508 96.4635 273.002 99.4121 276.763 103.173C280.524 106.934 283.473 111.428 285.426 116.375C287.379 121.323 288.295 126.619 288.118 131.935L288.095 131.952ZM265.269 119.237C265.269 120.141 265.001 121.024 264.499 121.776C263.997 122.527 263.283 123.113 262.448 123.459C261.613 123.805 260.694 123.895 259.808 123.719C258.921 123.542 258.107 123.107 257.468 122.468C256.829 121.829 256.394 121.015 256.217 120.128C256.041 119.242 256.131 118.323 256.477 117.488C256.823 116.653 257.409 115.939 258.16 115.437C258.912 114.935 259.795 114.667 260.699 114.667C261.911 114.667 263.074 115.148 263.931 116.005C264.788 116.862 265.269 118.025 265.269 119.237Z" fill="white" stroke="#00183C" stroke-width="1.91155"/>
<path opacity="0.3" d="M335.701 148.438C347.742 190.429 323.514 234.211 281.587 246.233C239.665 258.254 195.918 233.964 183.877 191.972C171.838 149.986 196.064 106.201 237.986 94.18C279.913 82.1576 323.661 106.452 335.701 148.438Z" fill="url(#paint1_radial_2752_103)"/>
<g clip-path="url(#clip0_2752_103)">
<circle cx="270.532" cy="146.12" r="40.262" transform="rotate(-16 270.532 146.12)" fill="#00183C"/>
<path d="M216.16 212.669L239.668 169.387L268.582 183.965L261.947 195.935L249.314 199.558L252.936 212.19L239.156 217.012L242.515 228.726L241.416 229.662L236.479 231.948L229.423 232.48L222.417 234.489L218.982 229.011L216.16 212.669Z" fill="#00183C"/>
<path d="M292.662 107.591C284.026 102.799 274.014 101.094 264.278 102.759C254.543 104.423 245.666 109.358 239.113 116.747C232.56 124.137 228.723 133.54 228.235 143.405C227.747 153.269 230.637 163.006 236.428 171.006L214.104 211.279C213.667 212.065 213.389 212.929 213.288 213.822C213.186 214.715 213.261 215.619 213.511 216.483L218.028 232.236C218.529 233.984 219.704 235.461 221.294 236.342C222.884 237.224 224.759 237.437 226.506 236.936L244.077 231.898C244.66 231.731 245.152 231.339 245.446 230.809C245.74 230.279 245.811 229.654 245.644 229.072L242.495 218.09L253.477 214.941C254.06 214.774 254.552 214.382 254.846 213.852C255.139 213.322 255.211 212.697 255.044 212.114L251.895 201.133L262.876 197.983C263.165 197.901 263.435 197.762 263.67 197.576C263.905 197.389 264.101 197.158 264.246 196.895L268.682 188.885C273.703 189.225 278.745 188.686 283.581 187.293L283.636 187.277C291.882 184.901 299.238 180.134 304.776 173.579C310.315 167.024 313.786 158.974 314.752 150.447C315.718 141.921 314.135 133.299 310.203 125.671C306.271 118.043 300.167 111.752 292.662 107.591ZM309.287 136.102C314.358 156.171 302.283 177.164 282.375 182.902L282.326 182.916C277.587 184.285 272.63 184.732 267.723 184.234C267.265 184.17 266.8 184.247 266.387 184.453C265.974 184.66 265.633 184.986 265.41 185.39L260.71 193.869L248.443 197.386C247.861 197.553 247.368 197.945 247.075 198.475C246.781 199.005 246.71 199.63 246.877 200.212L250.026 211.194L239.044 214.343C238.461 214.51 237.969 214.902 237.675 215.432C237.381 215.962 237.31 216.587 237.477 217.169L240.626 228.151L225.252 232.56C224.669 232.727 224.044 232.656 223.514 232.362C222.984 232.068 222.592 231.576 222.425 230.993L217.903 215.223C217.74 214.64 217.81 214.017 218.1 213.485L241.142 171.924C241.366 171.521 241.463 171.059 241.419 170.599C241.375 170.14 241.193 169.704 240.897 169.35C237.863 165.439 235.61 160.981 234.262 156.219C228.551 136.303 239.982 114.93 259.683 108.574C264.745 106.938 270.088 106.359 275.382 106.873C280.676 107.387 285.809 108.983 290.461 111.561C295.113 114.14 299.186 117.647 302.427 121.864C305.669 126.082 308.009 130.92 309.304 136.079L309.287 136.102ZM283.84 130.171C284.089 131.04 284.075 131.963 283.8 132.824C283.524 133.684 283 134.444 282.292 135.007C281.585 135.569 280.727 135.91 279.826 135.984C278.925 136.059 278.022 135.865 277.232 135.427C276.441 134.989 275.799 134.326 275.385 133.523C274.971 132.719 274.805 131.811 274.907 130.913C275.009 130.015 275.376 129.168 275.96 128.478C276.544 127.788 277.319 127.287 278.188 127.038C279.353 126.703 280.603 126.846 281.663 127.434C282.723 128.021 283.506 129.006 283.84 130.171Z" fill="white" stroke="#00183C" stroke-width="1.91155"/>
</g>
<defs>
<radialGradient id="paint0_radial_2752_103" cx="0" cy="0" r="1" gradientUnits="userSpaceOnUse" gradientTransform="translate(231.115 151.09) scale(78.9702 79.0912)">
<stop stop-color="#00BCFF"/>
<stop offset="0.653855" stop-color="#00BCFF" stop-opacity="0.1"/>
<stop offset="1" stop-color="#00BCFF" stop-opacity="0"/>
</radialGradient>
<radialGradient id="paint1_radial_2752_103" cx="0" cy="0" r="1" gradientUnits="userSpaceOnUse" gradientTransform="translate(259.789 170.206) rotate(-16) scale(78.9702 79.0912)">
<stop stop-color="#00BCFF"/>
<stop offset="0.653855" stop-color="#00BCFF" stop-opacity="0.1"/>
<stop offset="1" stop-color="#00BCFF" stop-opacity="0"/>
</radialGradient>
<clipPath id="clip0_2752_103">
<rect width="146.234" height="146.234" fill="white" transform="translate(168.644 118.041) rotate(-16)"/>
</clipPath>
</defs>
</svg>
