<svg width="440" height="440" viewBox="0 0 440 440" fill="none" xmlns="http://www.w3.org/2000/svg">
<path opacity="0.3" d="M385.5 224.498C385.5 315.908 311.514 390 220.244 390C128.985 390 55 315.908 55 224.498C55 133.1 128.985 59 220.244 59C311.514 59 385.5 133.1 385.5 224.498Z" fill="url(#paint0_radial_2482_1912)"/>
<circle cx="255.75" cy="182.25" r="84.25" fill="#00183C"/>
<path d="M108 284.75L180.25 211.25L230 257.25L209.75 277.5H182.25V305L151.75 306.75V332.25L149 333.5L137.75 335.25L123.25 332.25H108L104.25 319.25L108 284.75Z" fill="#00183C"/>
<path d="M322.486 117.514C307.88 102.893 288.724 93.6887 268.181 91.4218C247.639 89.1549 226.937 93.9604 209.494 105.045C192.051 116.13 178.909 132.831 172.237 152.392C165.565 171.953 165.763 193.204 172.797 212.637L104.664 280.77C103.332 282.097 102.275 283.675 101.555 285.413C100.835 287.15 100.466 289.013 100.469 290.894V325.188C100.469 328.992 101.98 332.64 104.67 335.33C107.36 338.02 111.008 339.531 114.813 339.531H153.063C154.331 339.531 155.547 339.028 156.443 338.131C157.34 337.234 157.844 336.018 157.844 334.75V310.844H181.75C183.018 310.844 184.234 310.34 185.131 309.443C186.028 308.547 186.531 307.331 186.531 306.063V282.156H210.438C211.066 282.157 211.688 282.034 212.268 281.794C212.848 281.554 213.376 281.202 213.82 280.758L227.363 267.203C237.267 270.783 247.719 272.607 258.25 272.594H258.37C276.327 272.57 293.874 267.225 308.795 257.234C323.715 247.243 335.34 233.054 342.201 216.459C349.062 199.865 350.851 181.609 347.342 163.998C343.833 146.387 335.184 130.212 322.486 117.514ZM339.483 184.452C338.109 227.746 301.712 263.007 258.358 263.067H258.25C247.929 263.087 237.699 261.127 228.116 257.294C227.233 256.903 226.252 256.788 225.303 256.965C224.353 257.142 223.48 257.603 222.797 258.286L208.453 272.63H181.75C180.482 272.63 179.266 273.133 178.369 274.03C177.473 274.927 176.969 276.143 176.969 277.411V301.317H153.063C151.794 301.317 150.578 301.821 149.682 302.718C148.785 303.614 148.281 304.83 148.281 306.098V330.005H114.813C113.544 330.005 112.328 329.501 111.432 328.604C110.535 327.708 110.031 326.492 110.031 325.223V290.894C110.038 289.627 110.54 288.413 111.43 287.511L181.75 217.203C182.433 216.52 182.894 215.647 183.071 214.697C183.248 213.748 183.133 212.767 182.742 211.884C178.895 202.267 176.935 192 176.969 181.643C176.969 138.289 212.29 101.891 255.584 100.469C266.709 100.098 277.791 102.015 288.144 106.102C298.496 110.19 307.899 116.36 315.77 124.23C323.64 132.101 329.81 141.504 333.898 151.857C337.985 162.209 339.902 173.291 339.531 184.416L339.483 184.452ZM291.719 157.844C291.719 159.735 291.158 161.584 290.107 163.157C289.056 164.729 287.563 165.955 285.816 166.678C284.068 167.402 282.146 167.592 280.291 167.223C278.436 166.854 276.732 165.943 275.395 164.606C274.057 163.268 273.146 161.564 272.778 159.709C272.409 157.854 272.598 155.932 273.322 154.184C274.045 152.437 275.271 150.944 276.844 149.893C278.416 148.842 280.265 148.281 282.156 148.281C284.692 148.281 287.125 149.289 288.918 151.082C290.711 152.875 291.719 155.308 291.719 157.844Z" fill="white" stroke="#00183C" stroke-width="4"/>
<defs>
<radialGradient id="paint0_radial_2482_1912" cx="0" cy="0" r="1" gradientUnits="userSpaceOnUse" gradientTransform="translate(220.25 224.5) scale(165.248 165.502)">
<stop stop-color="#00BCFF"/>
<stop offset="0.653855" stop-color="#00BCFF" stop-opacity="0.1"/>
<stop offset="1" stop-color="#00BCFF" stop-opacity="0"/>
</radialGradient>
</defs>
</svg>
