<svg width="24" height="22" viewBox="0 0 24 22" fill="none" xmlns="http://www.w3.org/2000/svg">
<path d="M23.5187 10.7313C23.5187 10.9302 23.4397 11.121 23.299 11.2616C23.1584 11.4023 22.9676 11.4813 22.7687 11.4813H11.7687C11.5698 11.4813 11.379 11.4023 11.2384 11.2616C11.0977 11.121 11.0187 10.9302 11.0187 10.7313C11.0187 10.5324 11.0977 10.3416 11.2384 10.201C11.379 10.0603 11.5698 9.98129 11.7687 9.98129H22.7687C22.9676 9.98129 23.1584 10.0603 23.299 10.201C23.4397 10.3416 23.5187 10.5324 23.5187 10.7313ZM11.7687 3.48129H22.7687C22.9676 3.48129 23.1584 3.40227 23.299 3.26162C23.4397 3.12097 23.5187 2.9302 23.5187 2.73129C23.5187 2.53238 23.4397 2.34161 23.299 2.20096C23.1584 2.06031 22.9676 1.98129 22.7687 1.98129H11.7687C11.5698 1.98129 11.379 2.06031 11.2384 2.20096C11.0977 2.34161 11.0187 2.53238 11.0187 2.73129C11.0187 2.9302 11.0977 3.12097 11.2384 3.26162C11.379 3.40227 11.5698 3.48129 11.7687 3.48129ZM22.7687 17.9813H11.7687C11.5698 17.9813 11.379 18.0603 11.2384 18.201C11.0977 18.3416 11.0187 18.5324 11.0187 18.7313C11.0187 18.9302 11.0977 19.121 11.2384 19.2616C11.379 19.4023 11.5698 19.4813 11.7687 19.4813H22.7687C22.9676 19.4813 23.1584 19.4023 23.299 19.2616C23.4397 19.121 23.5187 18.9302 23.5187 18.7313C23.5187 18.5324 23.4397 18.3416 23.299 18.201C23.1584 18.0603 22.9676 17.9813 22.7687 17.9813ZM6.23871 0.201292L2.76871 3.67004L1.29871 2.20129C1.15653 2.06881 0.968487 1.99669 0.774186 2.00012C0.579884 2.00355 0.394499 2.08226 0.257086 2.21967C0.119673 2.35708 0.0409614 2.54247 0.0375332 2.73677C0.034105 2.93107 0.106228 3.11912 0.238708 3.26129L2.23871 5.26129C2.37933 5.40174 2.56996 5.48063 2.76871 5.48063C2.96746 5.48063 3.15808 5.40174 3.29871 5.26129L7.29871 1.26129C7.43119 1.11912 7.50331 0.93107 7.49988 0.736769C7.49646 0.542468 7.41774 0.357083 7.28033 0.21967C7.14292 0.0822568 6.95753 0.00354506 6.76323 0.000116847C6.56893 -0.00331137 6.38088 0.0688116 6.23871 0.201292ZM6.23871 8.20129L2.76871 11.67L1.29871 10.2013C1.23005 10.1276 1.14725 10.0685 1.05525 10.0275C0.963247 9.98652 0.863934 9.96448 0.763231 9.9627C0.662528 9.96092 0.562499 9.97945 0.46911 10.0172C0.375722 10.0549 0.290888 10.111 0.21967 10.1823C0.148451 10.2535 0.0923064 10.3383 0.0545854 10.4317C0.0168643 10.5251 -0.00166006 10.6251 0.000116722 10.7258C0.00189351 10.8265 0.023935 10.9258 0.064927 11.0178C0.105919 11.1098 0.165021 11.1926 0.238708 11.2613L2.23871 13.2613C2.37933 13.4017 2.56996 13.4806 2.76871 13.4806C2.96746 13.4806 3.15808 13.4017 3.29871 13.2613L7.29871 9.26129C7.43119 9.11912 7.50331 8.93107 7.49988 8.73677C7.49646 8.54247 7.41774 8.35708 7.28033 8.21967C7.14292 8.08226 6.95753 8.00354 6.76323 8.00012C6.56893 7.99669 6.38088 8.06881 6.23871 8.20129ZM6.23871 16.2013L2.76871 19.67L1.29871 18.2013C1.15653 18.0688 0.968487 17.9967 0.774186 18.0001C0.579884 18.0035 0.394499 18.0823 0.257086 18.2197C0.119673 18.3571 0.0409614 18.5425 0.0375332 18.7368C0.034105 18.9311 0.106228 19.1191 0.238708 19.2613L2.23871 21.2613C2.37933 21.4017 2.56996 21.4806 2.76871 21.4806C2.96746 21.4806 3.15808 21.4017 3.29871 21.2613L7.29871 17.2613C7.43119 17.1191 7.50331 16.9311 7.49988 16.7368C7.49646 16.5425 7.41774 16.3571 7.28033 16.2197C7.14292 16.0823 6.95753 16.0035 6.76323 16.0001C6.56893 15.9967 6.38088 16.0688 6.23871 16.2013Z" fill="#A0A0A0"/>
</svg>
