<svg width="440" height="440" viewBox="0 0 440 440" fill="none" xmlns="http://www.w3.org/2000/svg">
<path opacity="0.3" d="M385.5 224.498C385.5 315.908 311.514 390 220.244 390C128.985 390 55 315.908 55 224.498C55 133.1 128.985 59 220.244 59C311.514 59 385.5 133.1 385.5 224.498Z" fill="url(#paint0_radial_2482_1896)"/>
<path d="M220.521 108.713C221.592 108.81 222.616 109.202 223.477 109.848L293.821 162.607C294.541 163.146 295.124 163.846 295.526 164.651C295.929 165.455 296.139 166.342 296.139 167.241C296.139 168.141 295.929 169.028 295.526 169.832C295.124 170.637 294.541 171.337 293.821 171.876L232.852 217.6L229.651 220L232.852 222.4L293.821 268.124C294.541 268.664 295.124 269.364 295.526 270.168C295.929 270.973 296.139 271.86 296.139 272.759C296.139 273.658 295.929 274.546 295.526 275.35C295.124 276.154 294.54 276.853 293.821 277.393L223.477 330.152C222.616 330.797 221.592 331.191 220.521 331.287C219.449 331.384 218.371 331.18 217.409 330.698C216.447 330.217 215.638 329.478 215.072 328.563C214.507 327.648 214.207 326.593 214.207 325.517V231.586L209.407 235.186L153.131 277.393C151.902 278.315 150.357 278.711 148.836 278.493C147.315 278.276 145.942 277.464 145.021 276.235C144.099 275.006 143.704 273.461 143.921 271.94C144.028 271.187 144.283 270.461 144.671 269.807C145.058 269.152 145.571 268.581 146.18 268.124L207.148 222.4L210.349 220L207.148 217.6L146.18 171.876C144.951 170.954 144.138 169.582 143.921 168.061C143.704 166.54 144.099 164.995 145.021 163.766C145.942 162.537 147.315 161.723 148.836 161.506C150.357 161.289 151.902 161.685 153.131 162.607L209.407 204.814L214.207 208.414V114.483C214.207 113.407 214.507 112.352 215.072 111.437C215.638 110.522 216.447 109.782 217.409 109.301C218.371 108.82 219.449 108.617 220.521 108.713ZM225.793 313.931L230.594 310.331L277.493 275.158L280.693 272.759L277.493 270.359L230.594 235.186L225.793 231.586V313.931ZM225.793 208.413L230.594 204.814L277.493 169.642L280.693 167.241L277.493 164.841L230.594 129.669L225.793 126.07V208.413Z" fill="white" stroke="#00183C" stroke-width="6"/>
<path d="M225.862 207.397V127.966L280.38 167.535L225.862 207.397Z" fill="#00183C"/>
<path d="M225.862 311.155V231.724L280.38 271.293L225.862 311.155Z" fill="#00183C"/>
<defs>
<radialGradient id="paint0_radial_2482_1896" cx="0" cy="0" r="1" gradientUnits="userSpaceOnUse" gradientTransform="translate(220.25 224.5) scale(165.248 165.502)">
<stop stop-color="#00BCFF"/>
<stop offset="0.653855" stop-color="#00BCFF" stop-opacity="0.1"/>
<stop offset="1" stop-color="#00BCFF" stop-opacity="0"/>
</radialGradient>
</defs>
</svg>
