<svg width="440" height="440" viewBox="0 0 440 440" fill="none" xmlns="http://www.w3.org/2000/svg">
<path opacity="0.5" d="M406 220.498C406 323.506 322.948 407 220.494 407C118.052 407 35 323.506 35 220.498C35 117.502 118.052 34 220.494 34C322.948 34 406 117.502 406 220.498Z" fill="url(#paint0_radial_2721_305)"/>
<rect x="126.5" y="129" width="184.5" height="184.5" fill="#00183C"/>
<path d="M248.688 91.9062C249.69 91.9062 250.652 92.3046 251.361 93.0137C252.07 93.7228 252.469 94.6847 252.469 95.6875V120.594H306.062C309.601 120.594 312.996 122 315.498 124.502C318 127.004 319.406 130.399 319.406 133.938V187.531H344.312C345.315 187.531 346.277 187.93 346.986 188.639C347.695 189.348 348.094 190.31 348.094 191.312C348.094 192.315 347.695 193.277 346.986 193.986C346.277 194.695 345.315 195.094 344.312 195.094H319.406V244.906H344.312C345.315 244.906 346.277 245.305 346.986 246.014C347.695 246.723 348.094 247.685 348.094 248.688C348.094 249.69 347.695 250.652 346.986 251.361C346.277 252.07 345.315 252.469 344.312 252.469H319.406V306.062C319.406 309.601 318 312.996 315.498 315.498C312.996 318 309.601 319.406 306.062 319.406H252.469V344.312C252.469 345.315 252.07 346.277 251.361 346.986C250.652 347.695 249.69 348.094 248.688 348.094C247.685 348.094 246.723 347.695 246.014 346.986C245.305 346.277 244.906 345.315 244.906 344.312V319.406H195.094V344.312C195.094 345.315 194.695 346.277 193.986 346.986C193.277 347.695 192.315 348.094 191.312 348.094C190.31 348.094 189.348 347.695 188.639 346.986C187.93 346.277 187.531 345.315 187.531 344.312V319.406H133.938C130.399 319.406 127.004 318 124.502 315.498C122 312.996 120.594 309.601 120.594 306.062V252.469H95.6875C94.6847 252.469 93.7228 252.07 93.0137 251.361C92.3046 250.652 91.9062 249.69 91.9062 248.688C91.9062 247.685 92.3046 246.723 93.0137 246.014C93.7228 245.305 94.6847 244.906 95.6875 244.906H120.594V195.094H95.6875C94.6846 195.094 93.7228 194.695 93.0137 193.986C92.3046 193.277 91.9062 192.315 91.9062 191.312C91.9062 190.31 92.3046 189.348 93.0137 188.639C93.7228 187.93 94.6846 187.531 95.6875 187.531H120.594V133.938C120.594 130.399 122 127.004 124.502 124.502C127.004 122 130.399 120.594 133.938 120.594H187.531V95.6875C187.531 94.6846 187.93 93.7228 188.639 93.0137C189.348 92.3046 190.31 91.9062 191.312 91.9062C192.315 91.9062 193.277 92.3046 193.986 93.0137C194.695 93.7228 195.094 94.6846 195.094 95.6875V120.594H244.906V95.6875C244.906 94.6847 245.305 93.7228 246.014 93.0137C246.723 92.3046 247.685 91.9062 248.688 91.9062ZM133.938 128.156C132.404 128.156 130.934 128.765 129.85 129.85C128.765 130.934 128.156 132.404 128.156 133.938V306.062C128.156 307.596 128.765 309.066 129.85 310.15C130.934 311.235 132.404 311.844 133.938 311.844H306.062C307.596 311.844 309.066 311.235 310.15 310.15C311.235 309.066 311.844 307.596 311.844 306.062V133.938C311.844 132.404 311.235 130.934 310.15 129.85C309.066 128.765 307.596 128.156 306.062 128.156H133.938ZM191.312 187.531H248.688C249.69 187.531 250.652 187.93 251.361 188.639C252.07 189.348 252.469 190.31 252.469 191.312V248.688C252.469 249.69 252.07 250.652 251.361 251.361C250.652 252.07 249.69 252.469 248.688 252.469H191.312C190.31 252.469 189.348 252.07 188.639 251.361C187.93 250.652 187.531 249.69 187.531 248.688V191.312C187.531 190.31 187.93 189.348 188.639 188.639C189.348 187.93 190.31 187.531 191.312 187.531ZM195.094 244.906H244.906V195.094H195.094V244.906Z" fill="white" stroke="#00183C" stroke-width="2"/>
<defs>
<radialGradient id="paint0_radial_2721_305" cx="0" cy="0" r="1" gradientUnits="userSpaceOnUse" gradientTransform="translate(220.5 220.5) scale(185.498 186.502)">
<stop stop-color="#00BCFF"/>
<stop offset="0.653855" stop-color="#00BCFF" stop-opacity="0.1"/>
<stop offset="1" stop-color="#00BCFF" stop-opacity="0"/>
</radialGradient>
</defs>
</svg>
