<svg width="444" height="440" viewBox="0 0 444 440" fill="none" xmlns="http://www.w3.org/2000/svg">
<path d="M343.643 312.241C357.121 312.241 369.699 309.265 376.327 306.219C379.739 304.889 383.241 302.549 385.909 299.625C388.579 296.699 390.515 293.069 390.515 289.183V287.923H389.255H357.817V129.163C357.817 122.005 351.735 116.5 345.155 116.5H110.291C103.169 116.5 97.6276 122.041 97.6276 129.163V287.923H66.6946H65.4346V289.183C65.4346 292.821 67.2464 296.211 69.7756 299.013C72.314 301.825 75.6722 304.157 79.0194 305.699L79.0496 305.713L79.0804 305.725C86.6222 308.729 99.1934 312.241 112.748 312.241H343.643ZM227.723 124.438C228.19 124.438 228.463 124.587 228.619 124.746C228.777 124.908 228.919 125.188 228.919 125.635C228.919 126.103 228.769 126.376 228.611 126.531C228.449 126.691 228.17 126.832 227.723 126.832C227.255 126.832 226.982 126.683 226.826 126.524C226.667 126.362 226.526 126.082 226.526 125.635C226.526 125.188 226.667 124.908 226.826 124.746C226.982 124.587 227.255 124.438 227.723 124.438ZM255.947 293.341H199.436C198.169 293.341 196.86 292.597 195.793 291.579C195.551 291.349 195.331 291.113 195.138 290.885H260.537C260.375 291.127 260.177 291.379 259.943 291.627C259.079 292.541 257.773 293.341 255.947 293.341Z" fill="#00183C" stroke="white" stroke-width="2.52"/>
<path d="M342.005 130.99H113.945C112.901 130.99 112.055 131.836 112.055 132.88V281.56C112.055 282.604 112.901 283.45 113.945 283.45H342.005C343.048 283.45 343.895 282.604 343.895 281.56V132.88C343.895 131.836 343.048 130.99 342.005 130.99Z" fill="#001F4E"/>
<path opacity="0.7" d="M50 124.375L76.145 192.73L112.46 282.777L345.156 283.207L443.436 124.375L50 124.375Z" fill="url(#paint0_linear_3242_1780)"/>
<mask id="mask0_3242_1780" style="mask-type:luminance" maskUnits="userSpaceOnUse" x="269" y="219" width="124" height="123">
<path d="M392.437 237.613L288.31 219.253L269.949 323.381L374.077 341.741L392.437 237.613Z" fill="white"/>
</mask>
<g mask="url(#mask0_3242_1780)">
<path d="M317.412 275.885C316.612 272.177 316.546 268.347 317.22 264.612C318.24 258.82 320.956 253.461 325.024 249.212C329.092 244.964 334.328 242.017 340.07 240.744C345.812 239.471 351.802 239.929 357.284 242.061C362.766 244.192 367.492 247.902 370.866 252.719C374.238 257.537 376.108 263.247 376.236 269.128C376.364 275.007 374.746 280.793 371.586 285.755C368.426 290.715 363.866 294.627 358.482 296.995C353.098 299.365 347.134 300.083 341.342 299.061C337.602 298.417 334.026 297.045 330.814 295.025L324.498 299.447L314.736 297.725L313.014 307.487L303.252 305.767L301.532 315.529L285.262 312.659L288.13 296.389L317.412 275.885Z" fill="#00183C" stroke="white" stroke-width="2.72266" stroke-linecap="round" stroke-linejoin="round"/>
<path d="M355.502 266.33C357.298 266.647 359.012 265.447 359.33 263.65C359.646 261.853 358.446 260.139 356.648 259.822C354.852 259.505 353.138 260.705 352.822 262.502C352.504 264.299 353.704 266.013 355.502 266.33Z" fill="white"/>
</g>
<path opacity="0.3" d="M432 287.999C432 331.357 396.854 366.5 353.497 366.5C310.146 366.5 275 331.357 275 287.999C275 244.647 310.146 209.5 353.497 209.5C396.854 209.5 432 244.647 432 287.999Z" fill="url(#paint1_radial_3242_1780)"/>
<mask id="mask1_3242_1780" style="mask-type:luminance" maskUnits="userSpaceOnUse" x="286" y="232" width="132" height="132">
<path d="M388.574 232.253L286.936 261.397L316.08 363.036L417.718 333.891L388.574 232.253Z" fill="white"/>
</mask>
<g mask="url(#mask1_3242_1780)">
<path d="M337.92 299.541C335.574 296.559 333.836 293.145 332.804 289.493C331.184 283.839 331.274 277.831 333.068 272.231C334.86 266.629 338.274 261.685 342.878 258.023C347.48 254.362 353.066 252.148 358.928 251.661C364.788 251.174 370.662 252.436 375.808 255.287C380.952 258.139 385.134 262.451 387.828 267.68C390.52 272.909 391.602 278.819 390.936 284.663C390.27 290.507 387.888 296.021 384.086 300.511C380.286 304.999 375.24 308.261 369.586 309.883C365.944 310.941 362.128 311.277 358.354 310.869L354.616 317.613L345.088 320.345L347.82 329.873L338.292 332.605L341.024 342.133L325.144 346.687L320.59 330.807L337.92 299.541Z" fill="#00183C" stroke="white" stroke-width="2.72266" stroke-linecap="round" stroke-linejoin="round"/>
<path d="M367.963 274.255C369.717 273.753 370.731 271.923 370.229 270.169C369.725 268.414 367.897 267.4 366.143 267.903C364.387 268.406 363.373 270.235 363.877 271.989C364.379 273.743 366.209 274.759 367.963 274.255Z" fill="white"/>
</g>
<defs>
<linearGradient id="paint0_linear_3242_1780" x1="136" y1="124.5" x2="137.509" y2="313.697" gradientUnits="userSpaceOnUse">
<stop stop-color="#0054D3" stop-opacity="0"/>
<stop offset="1" stop-color="#00183C"/>
</linearGradient>
<radialGradient id="paint1_radial_3242_1780" cx="0" cy="0" r="1" gradientUnits="userSpaceOnUse" gradientTransform="translate(353.5 288) scale(78.4992 78.5008)">
<stop stop-color="#00BCFF"/>
<stop offset="0.653855" stop-color="#00BCFF" stop-opacity="0.1"/>
<stop offset="1" stop-color="#00BCFF" stop-opacity="0"/>
</radialGradient>
</defs>
</svg>
