<svg width="440" height="440" viewBox="0 0 440 440" fill="none" xmlns="http://www.w3.org/2000/svg">
<path opacity="0.3" d="M385.5 224.498C385.5 315.908 311.514 390 220.244 390C128.985 390 55 315.908 55 224.498C55 133.1 128.985 59 220.244 59C311.514 59 385.5 133.1 385.5 224.498Z" fill="url(#paint0_radial_2740_22)"/>
<g filter="url(#filter0_f_2740_22)">
<circle cx="220.5" cy="219.5" r="77.5" fill="#3986FF"/>
</g>
<circle cx="220.5" cy="219.5" r="77.5" fill="#01183C"/>
<mask id="path-4-inside-1_2740_22" fill="white">
<path d="M329.969 114.812V157.843C329.969 159.111 329.465 160.327 328.568 161.224C327.672 162.121 326.456 162.625 325.188 162.625C323.919 162.625 322.703 162.121 321.807 161.224C320.91 160.327 320.406 159.111 320.406 157.843V119.593H282.156C280.888 119.593 279.672 119.09 278.775 118.193C277.879 117.296 277.375 116.08 277.375 114.812C277.375 113.544 277.879 112.328 278.775 111.431C279.672 110.535 280.888 110.031 282.156 110.031H325.188C326.456 110.031 327.672 110.535 328.568 111.431C329.465 112.328 329.969 113.544 329.969 114.812ZM325.188 277.375C323.919 277.375 322.703 277.878 321.807 278.775C320.91 279.672 320.406 280.888 320.406 282.156V320.406H282.156C280.888 320.406 279.672 320.91 278.775 321.806C277.879 322.703 277.375 323.919 277.375 325.187C277.375 326.455 277.879 327.671 278.775 328.568C279.672 329.465 280.888 329.968 282.156 329.968H325.188C326.456 329.968 327.672 329.465 328.568 328.568C329.465 327.671 329.969 326.455 329.969 325.187V282.156C329.969 280.888 329.465 279.672 328.568 278.775C327.672 277.878 326.456 277.375 325.188 277.375ZM157.844 320.406H119.594V282.156C119.594 280.888 119.09 279.672 118.193 278.775C117.297 277.878 116.081 277.375 114.812 277.375C113.544 277.375 112.328 277.878 111.432 278.775C110.535 279.672 110.031 280.888 110.031 282.156V325.187C110.031 326.455 110.535 327.671 111.432 328.568C112.328 329.465 113.544 329.968 114.812 329.968H157.844C159.112 329.968 160.328 329.465 161.225 328.568C162.121 327.671 162.625 326.455 162.625 325.187C162.625 323.919 162.121 322.703 161.225 321.806C160.328 320.91 159.112 320.406 157.844 320.406ZM114.812 162.625C116.081 162.625 117.297 162.121 118.193 161.224C119.09 160.327 119.594 159.111 119.594 157.843V119.593H157.844C159.112 119.593 160.328 119.09 161.225 118.193C162.121 117.296 162.625 116.08 162.625 114.812C162.625 113.544 162.121 112.328 161.225 111.431C160.328 110.535 159.112 110.031 157.844 110.031H114.812C113.544 110.031 112.328 110.535 111.432 111.431C110.535 112.328 110.031 113.544 110.031 114.812V157.843C110.031 159.111 110.535 160.327 111.432 161.224C112.328 162.121 113.544 162.625 114.812 162.625ZM220 301.281C203.924 301.281 188.209 296.514 174.843 287.582C161.476 278.651 151.058 265.957 144.906 251.105C138.754 236.252 137.144 219.909 140.281 204.142C143.417 188.375 151.158 173.892 162.525 162.525C173.893 151.158 188.376 143.416 204.143 140.28C219.91 137.144 236.253 138.753 251.105 144.905C265.957 151.057 278.652 161.475 287.583 174.842C296.514 188.209 301.281 203.924 301.281 220C301.259 241.55 292.688 262.211 277.45 277.45C262.212 292.688 241.55 301.259 220 301.281ZM291.719 220C291.719 205.815 287.513 191.949 279.632 180.155C271.751 168.361 260.55 159.168 247.446 153.74C234.341 148.312 219.92 146.892 206.008 149.659C192.096 152.426 179.317 159.257 169.287 169.287C159.257 179.317 152.427 192.096 149.659 206.008C146.892 219.92 148.312 234.34 153.741 247.445C159.169 260.55 168.361 271.751 180.155 279.631C191.949 287.512 205.815 291.718 220 291.718C239.014 291.696 257.243 284.133 270.688 270.688C284.133 257.243 291.697 239.014 291.719 220ZM200.875 205.656C200.875 203.764 200.314 201.916 199.263 200.343C198.213 198.771 196.719 197.545 194.972 196.821C193.225 196.097 191.302 195.908 189.447 196.277C187.592 196.646 185.888 197.557 184.551 198.894C183.213 200.231 182.303 201.935 181.934 203.79C181.565 205.645 181.754 207.568 182.478 209.315C183.202 211.062 184.427 212.556 186 213.607C187.572 214.657 189.421 215.218 191.312 215.218C193.849 215.218 196.281 214.211 198.074 212.417C199.868 210.624 200.875 208.192 200.875 205.656ZM248.688 196.093C246.796 196.093 244.947 196.654 243.375 197.705C241.802 198.756 240.577 200.249 239.853 201.996C239.129 203.744 238.94 205.666 239.309 207.521C239.678 209.376 240.588 211.08 241.926 212.417C243.263 213.755 244.967 214.666 246.822 215.035C248.677 215.403 250.6 215.214 252.347 214.49C254.094 213.767 255.588 212.541 256.638 210.968C257.689 209.396 258.25 207.547 258.25 205.656C258.25 203.12 257.243 200.687 255.449 198.894C253.656 197.101 251.224 196.093 248.688 196.093ZM245.52 245.101C240.117 249.882 229.144 253.468 220 253.468C210.856 253.468 199.883 249.882 194.48 245.101C193.529 244.261 192.283 243.833 191.017 243.912C189.75 243.99 188.567 244.568 187.727 245.519C186.886 246.47 186.459 247.716 186.537 248.983C186.616 250.249 187.194 251.433 188.145 252.273C195.317 258.608 208.465 263.031 220 263.031C231.535 263.031 244.671 258.608 251.855 252.273C252.326 251.857 252.71 251.352 252.986 250.788C253.262 250.223 253.424 249.61 253.463 248.983C253.502 248.356 253.417 247.727 253.213 247.133C253.009 246.539 252.689 245.99 252.273 245.519C251.857 245.049 251.353 244.664 250.788 244.388C250.224 244.112 249.61 243.95 248.983 243.912C248.356 243.873 247.728 243.958 247.133 244.162C246.539 244.366 245.991 244.685 245.52 245.101Z"/>
</mask>
<path d="M329.969 114.812V157.843C329.969 159.111 329.465 160.327 328.568 161.224C327.672 162.121 326.456 162.625 325.188 162.625C323.919 162.625 322.703 162.121 321.807 161.224C320.91 160.327 320.406 159.111 320.406 157.843V119.593H282.156C280.888 119.593 279.672 119.09 278.775 118.193C277.879 117.296 277.375 116.08 277.375 114.812C277.375 113.544 277.879 112.328 278.775 111.431C279.672 110.535 280.888 110.031 282.156 110.031H325.188C326.456 110.031 327.672 110.535 328.568 111.431C329.465 112.328 329.969 113.544 329.969 114.812ZM325.188 277.375C323.919 277.375 322.703 277.878 321.807 278.775C320.91 279.672 320.406 280.888 320.406 282.156V320.406H282.156C280.888 320.406 279.672 320.91 278.775 321.806C277.879 322.703 277.375 323.919 277.375 325.187C277.375 326.455 277.879 327.671 278.775 328.568C279.672 329.465 280.888 329.968 282.156 329.968H325.188C326.456 329.968 327.672 329.465 328.568 328.568C329.465 327.671 329.969 326.455 329.969 325.187V282.156C329.969 280.888 329.465 279.672 328.568 278.775C327.672 277.878 326.456 277.375 325.188 277.375ZM157.844 320.406H119.594V282.156C119.594 280.888 119.09 279.672 118.193 278.775C117.297 277.878 116.081 277.375 114.812 277.375C113.544 277.375 112.328 277.878 111.432 278.775C110.535 279.672 110.031 280.888 110.031 282.156V325.187C110.031 326.455 110.535 327.671 111.432 328.568C112.328 329.465 113.544 329.968 114.812 329.968H157.844C159.112 329.968 160.328 329.465 161.225 328.568C162.121 327.671 162.625 326.455 162.625 325.187C162.625 323.919 162.121 322.703 161.225 321.806C160.328 320.91 159.112 320.406 157.844 320.406ZM114.812 162.625C116.081 162.625 117.297 162.121 118.193 161.224C119.09 160.327 119.594 159.111 119.594 157.843V119.593H157.844C159.112 119.593 160.328 119.09 161.225 118.193C162.121 117.296 162.625 116.08 162.625 114.812C162.625 113.544 162.121 112.328 161.225 111.431C160.328 110.535 159.112 110.031 157.844 110.031H114.812C113.544 110.031 112.328 110.535 111.432 111.431C110.535 112.328 110.031 113.544 110.031 114.812V157.843C110.031 159.111 110.535 160.327 111.432 161.224C112.328 162.121 113.544 162.625 114.812 162.625ZM220 301.281C203.924 301.281 188.209 296.514 174.843 287.582C161.476 278.651 151.058 265.957 144.906 251.105C138.754 236.252 137.144 219.909 140.281 204.142C143.417 188.375 151.158 173.892 162.525 162.525C173.893 151.158 188.376 143.416 204.143 140.28C219.91 137.144 236.253 138.753 251.105 144.905C265.957 151.057 278.652 161.475 287.583 174.842C296.514 188.209 301.281 203.924 301.281 220C301.259 241.55 292.688 262.211 277.45 277.45C262.212 292.688 241.55 301.259 220 301.281ZM291.719 220C291.719 205.815 287.513 191.949 279.632 180.155C271.751 168.361 260.55 159.168 247.446 153.74C234.341 148.312 219.92 146.892 206.008 149.659C192.096 152.426 179.317 159.257 169.287 169.287C159.257 179.317 152.427 192.096 149.659 206.008C146.892 219.92 148.312 234.34 153.741 247.445C159.169 260.55 168.361 271.751 180.155 279.631C191.949 287.512 205.815 291.718 220 291.718C239.014 291.696 257.243 284.133 270.688 270.688C284.133 257.243 291.697 239.014 291.719 220ZM200.875 205.656C200.875 203.764 200.314 201.916 199.263 200.343C198.213 198.771 196.719 197.545 194.972 196.821C193.225 196.097 191.302 195.908 189.447 196.277C187.592 196.646 185.888 197.557 184.551 198.894C183.213 200.231 182.303 201.935 181.934 203.79C181.565 205.645 181.754 207.568 182.478 209.315C183.202 211.062 184.427 212.556 186 213.607C187.572 214.657 189.421 215.218 191.312 215.218C193.849 215.218 196.281 214.211 198.074 212.417C199.868 210.624 200.875 208.192 200.875 205.656ZM248.688 196.093C246.796 196.093 244.947 196.654 243.375 197.705C241.802 198.756 240.577 200.249 239.853 201.996C239.129 203.744 238.94 205.666 239.309 207.521C239.678 209.376 240.588 211.08 241.926 212.417C243.263 213.755 244.967 214.666 246.822 215.035C248.677 215.403 250.6 215.214 252.347 214.49C254.094 213.767 255.588 212.541 256.638 210.968C257.689 209.396 258.25 207.547 258.25 205.656C258.25 203.12 257.243 200.687 255.449 198.894C253.656 197.101 251.224 196.093 248.688 196.093ZM245.52 245.101C240.117 249.882 229.144 253.468 220 253.468C210.856 253.468 199.883 249.882 194.48 245.101C193.529 244.261 192.283 243.833 191.017 243.912C189.75 243.99 188.567 244.568 187.727 245.519C186.886 246.47 186.459 247.716 186.537 248.983C186.616 250.249 187.194 251.433 188.145 252.273C195.317 258.608 208.465 263.031 220 263.031C231.535 263.031 244.671 258.608 251.855 252.273C252.326 251.857 252.71 251.352 252.986 250.788C253.262 250.223 253.424 249.61 253.463 248.983C253.502 248.356 253.417 247.727 253.213 247.133C253.009 246.539 252.689 245.99 252.273 245.519C251.857 245.049 251.353 244.664 250.788 244.388C250.224 244.112 249.61 243.95 248.983 243.912C248.356 243.873 247.728 243.958 247.133 244.162C246.539 244.366 245.991 244.685 245.52 245.101Z" fill="white" stroke="#00183C" stroke-width="4" mask="url(#path-4-inside-1_2740_22)"/>
<defs>
<filter id="filter0_f_2740_22" x="119" y="118" width="203" height="203" filterUnits="userSpaceOnUse" color-interpolation-filters="sRGB">
<feFlood flood-opacity="0" result="BackgroundImageFix"/>
<feBlend mode="normal" in="SourceGraphic" in2="BackgroundImageFix" result="shape"/>
<feGaussianBlur stdDeviation="12" result="effect1_foregroundBlur_2740_22"/>
</filter>
<radialGradient id="paint0_radial_2740_22" cx="0" cy="0" r="1" gradientUnits="userSpaceOnUse" gradientTransform="translate(220.25 224.5) scale(165.248 165.502)">
<stop stop-color="#00BCFF"/>
<stop offset="0.653855" stop-color="#00BCFF" stop-opacity="0.1"/>
<stop offset="1" stop-color="#00BCFF" stop-opacity="0"/>
</radialGradient>
</defs>
</svg>
