<svg width="440" height="440" viewBox="0 0 440 440" fill="none" xmlns="http://www.w3.org/2000/svg">
<path opacity="0.3" d="M385.5 224.498C385.5 315.908 311.514 390 220.244 390C128.985 390 55 315.908 55 224.498C55 133.1 128.985 59 220.244 59C311.514 59 385.5 133.1 385.5 224.498Z" fill="url(#paint0_radial_2740_13)"/>
<g filter="url(#filter0_f_2740_13)">
<circle cx="219.834" cy="221.502" r="120.498" fill="#72A9FF"/>
</g>
<circle cx="219.834" cy="221.502" r="120.498" fill="#01183C"/>
<mask id="path-4-inside-1_2740_13" fill="white">
<path d="M174.242 220.256C174.286 235.381 170.795 250.307 164.046 263.844C163.801 264.339 163.421 264.755 162.952 265.046C162.482 265.338 161.941 265.492 161.388 265.492C160.929 265.494 160.476 265.388 160.066 265.181C159.362 264.83 158.825 264.213 158.574 263.467C158.324 262.721 158.38 261.906 158.73 261.2C165.069 248.485 168.347 234.464 168.301 220.256C168.288 212.684 169.983 205.208 173.262 198.383C176.541 191.558 181.317 185.562 187.237 180.841C187.852 180.348 188.638 180.121 189.421 180.208C190.204 180.295 190.921 180.689 191.413 181.305C191.906 181.92 192.133 182.706 192.046 183.489C191.959 184.273 191.565 184.989 190.949 185.482C185.726 189.646 181.51 194.936 178.617 200.957C175.724 206.979 174.229 213.576 174.242 220.256ZM218.795 217.286C218.007 217.286 217.252 217.598 216.695 218.156C216.138 218.713 215.825 219.468 215.825 220.256C215.824 243.892 209.825 267.142 198.39 287.829C198.008 288.518 197.915 289.331 198.132 290.088C198.35 290.846 198.859 291.486 199.548 291.868C200.237 292.25 201.05 292.343 201.808 292.125C202.565 291.908 203.206 291.399 203.588 290.71C215.508 269.14 221.762 244.9 221.765 220.256C221.765 219.468 221.453 218.713 220.896 218.156C220.338 217.598 219.583 217.286 218.795 217.286ZM218.795 193.524C211.705 193.524 204.906 196.34 199.893 201.353C194.88 206.367 192.063 213.166 192.063 220.256C192.063 221.044 192.376 221.799 192.933 222.356C193.49 222.913 194.246 223.226 195.033 223.226C195.821 223.226 196.577 222.913 197.134 222.356C197.691 221.799 198.004 221.044 198.004 220.256C198.004 214.742 200.194 209.453 204.093 205.554C207.993 201.655 213.281 199.464 218.795 199.464C224.31 199.464 229.598 201.655 233.497 205.554C237.396 209.453 239.587 214.742 239.587 220.256C239.648 244.313 234.346 268.082 224.067 289.833C223.732 290.546 223.693 291.363 223.959 292.105C224.226 292.847 224.776 293.452 225.489 293.788C226.202 294.123 227.019 294.162 227.761 293.896C228.503 293.629 229.108 293.079 229.444 292.366C240.095 269.822 245.589 245.189 245.527 220.256C245.527 213.166 242.711 206.367 237.698 201.353C232.684 196.34 225.885 193.524 218.795 193.524ZM218.795 146C199.108 146.022 180.233 153.852 166.312 167.773C152.391 181.694 144.561 200.569 144.539 220.256C144.55 228.013 143.234 235.716 140.648 243.03C140.503 243.401 140.434 243.798 140.446 244.196C140.457 244.594 140.548 244.986 140.714 245.349C140.88 245.711 141.117 246.036 141.411 246.305C141.705 246.574 142.051 246.781 142.426 246.913C142.802 247.046 143.201 247.101 143.599 247.077C143.996 247.052 144.385 246.947 144.741 246.769C145.098 246.591 145.415 246.344 145.674 246.04C145.932 245.737 146.128 245.385 146.247 245.005C149.058 237.057 150.489 228.686 150.48 220.256C150.48 202.137 157.677 184.761 170.489 171.95C183.301 159.138 200.677 151.94 218.795 151.94C236.914 151.94 254.29 159.138 267.101 171.95C279.913 184.761 287.111 202.137 287.111 220.256C287.112 234.023 285.777 247.758 283.123 261.267C282.972 262.039 283.134 262.839 283.573 263.492C284.011 264.145 284.691 264.597 285.462 264.75C285.653 264.788 285.847 264.808 286.041 264.809C286.729 264.808 287.395 264.569 287.926 264.131C288.457 263.694 288.82 263.086 288.952 262.411C291.68 248.525 293.053 234.407 293.051 220.256C293.029 200.569 285.199 181.694 271.278 167.773C257.357 153.852 238.482 146.022 218.795 146ZM193.251 241.114C192.48 240.959 191.679 241.115 191.024 241.55C190.368 241.984 189.911 242.661 189.754 243.431C187.281 255.607 182.852 267.303 176.64 278.064C176.246 278.746 176.14 279.557 176.344 280.318C176.548 281.079 177.046 281.728 177.728 282.122C178.41 282.516 179.221 282.623 179.982 282.419C180.743 282.215 181.392 281.717 181.786 281.034C188.313 269.728 192.97 257.441 195.575 244.649C195.658 244.264 195.663 243.867 195.59 243.48C195.518 243.093 195.369 242.724 195.153 242.395C194.936 242.066 194.657 241.784 194.331 241.564C194.004 241.344 193.637 241.191 193.251 241.114ZM218.795 169.762C216.685 169.763 214.577 169.894 212.484 170.155C211.728 170.283 211.052 170.698 210.595 171.313C210.138 171.928 209.937 172.696 210.033 173.456C210.129 174.215 210.514 174.909 211.109 175.391C211.704 175.874 212.463 176.107 213.226 176.044C215.074 175.819 216.934 175.705 218.795 175.702C230.607 175.716 241.932 180.415 250.284 188.767C258.637 197.119 263.335 208.444 263.349 220.256C263.347 228.075 262.864 235.887 261.901 243.646C261.852 244.034 261.88 244.427 261.983 244.803C262.086 245.179 262.262 245.532 262.501 245.84C262.741 246.148 263.038 246.406 263.377 246.599C263.716 246.793 264.09 246.917 264.477 246.966H264.849C265.577 246.971 266.282 246.709 266.83 246.228C267.378 245.747 267.73 245.082 267.819 244.359C268.803 236.363 269.294 228.313 269.289 220.256C269.273 206.869 263.949 194.035 254.482 184.569C245.016 175.103 232.182 169.778 218.795 169.762ZM261.069 264.898C260.691 264.801 260.298 264.78 259.912 264.834C259.525 264.889 259.154 265.02 258.818 265.219C258.482 265.417 258.189 265.68 257.954 265.992C257.72 266.304 257.55 266.659 257.453 267.037C256.346 271.329 255.069 275.636 253.666 279.831C253.525 280.205 253.46 280.603 253.477 281.003C253.493 281.402 253.59 281.794 253.761 282.155C253.932 282.515 254.175 282.838 254.473 283.103C254.772 283.368 255.122 283.57 255.501 283.697C255.879 283.824 256.28 283.874 256.678 283.842C257.077 283.811 257.464 283.699 257.819 283.514C258.173 283.329 258.486 283.075 258.74 282.766C258.993 282.457 259.182 282.101 259.294 281.717C260.779 277.388 262.064 272.948 263.208 268.522C263.404 267.76 263.29 266.951 262.89 266.273C262.491 265.595 261.838 265.103 261.076 264.906L261.069 264.898Z"/>
</mask>
<path d="M174.242 220.256C174.286 235.381 170.795 250.307 164.046 263.844C163.801 264.339 163.421 264.755 162.952 265.046C162.482 265.338 161.941 265.492 161.388 265.492C160.929 265.494 160.476 265.388 160.066 265.181C159.362 264.83 158.825 264.213 158.574 263.467C158.324 262.721 158.38 261.906 158.73 261.2C165.069 248.485 168.347 234.464 168.301 220.256C168.288 212.684 169.983 205.208 173.262 198.383C176.541 191.558 181.317 185.562 187.237 180.841C187.852 180.348 188.638 180.121 189.421 180.208C190.204 180.295 190.921 180.689 191.413 181.305C191.906 181.92 192.133 182.706 192.046 183.489C191.959 184.273 191.565 184.989 190.949 185.482C185.726 189.646 181.51 194.936 178.617 200.957C175.724 206.979 174.229 213.576 174.242 220.256ZM218.795 217.286C218.007 217.286 217.252 217.598 216.695 218.156C216.138 218.713 215.825 219.468 215.825 220.256C215.824 243.892 209.825 267.142 198.39 287.829C198.008 288.518 197.915 289.331 198.132 290.088C198.35 290.846 198.859 291.486 199.548 291.868C200.237 292.25 201.05 292.343 201.808 292.125C202.565 291.908 203.206 291.399 203.588 290.71C215.508 269.14 221.762 244.9 221.765 220.256C221.765 219.468 221.453 218.713 220.896 218.156C220.338 217.598 219.583 217.286 218.795 217.286ZM218.795 193.524C211.705 193.524 204.906 196.34 199.893 201.353C194.88 206.367 192.063 213.166 192.063 220.256C192.063 221.044 192.376 221.799 192.933 222.356C193.49 222.913 194.246 223.226 195.033 223.226C195.821 223.226 196.577 222.913 197.134 222.356C197.691 221.799 198.004 221.044 198.004 220.256C198.004 214.742 200.194 209.453 204.093 205.554C207.993 201.655 213.281 199.464 218.795 199.464C224.31 199.464 229.598 201.655 233.497 205.554C237.396 209.453 239.587 214.742 239.587 220.256C239.648 244.313 234.346 268.082 224.067 289.833C223.732 290.546 223.693 291.363 223.959 292.105C224.226 292.847 224.776 293.452 225.489 293.788C226.202 294.123 227.019 294.162 227.761 293.896C228.503 293.629 229.108 293.079 229.444 292.366C240.095 269.822 245.589 245.189 245.527 220.256C245.527 213.166 242.711 206.367 237.698 201.353C232.684 196.34 225.885 193.524 218.795 193.524ZM218.795 146C199.108 146.022 180.233 153.852 166.312 167.773C152.391 181.694 144.561 200.569 144.539 220.256C144.55 228.013 143.234 235.716 140.648 243.03C140.503 243.401 140.434 243.798 140.446 244.196C140.457 244.594 140.548 244.986 140.714 245.349C140.88 245.711 141.117 246.036 141.411 246.305C141.705 246.574 142.051 246.781 142.426 246.913C142.802 247.046 143.201 247.101 143.599 247.077C143.996 247.052 144.385 246.947 144.741 246.769C145.098 246.591 145.415 246.344 145.674 246.04C145.932 245.737 146.128 245.385 146.247 245.005C149.058 237.057 150.489 228.686 150.48 220.256C150.48 202.137 157.677 184.761 170.489 171.95C183.301 159.138 200.677 151.94 218.795 151.94C236.914 151.94 254.29 159.138 267.101 171.95C279.913 184.761 287.111 202.137 287.111 220.256C287.112 234.023 285.777 247.758 283.123 261.267C282.972 262.039 283.134 262.839 283.573 263.492C284.011 264.145 284.691 264.597 285.462 264.75C285.653 264.788 285.847 264.808 286.041 264.809C286.729 264.808 287.395 264.569 287.926 264.131C288.457 263.694 288.82 263.086 288.952 262.411C291.68 248.525 293.053 234.407 293.051 220.256C293.029 200.569 285.199 181.694 271.278 167.773C257.357 153.852 238.482 146.022 218.795 146ZM193.251 241.114C192.48 240.959 191.679 241.115 191.024 241.55C190.368 241.984 189.911 242.661 189.754 243.431C187.281 255.607 182.852 267.303 176.64 278.064C176.246 278.746 176.14 279.557 176.344 280.318C176.548 281.079 177.046 281.728 177.728 282.122C178.41 282.516 179.221 282.623 179.982 282.419C180.743 282.215 181.392 281.717 181.786 281.034C188.313 269.728 192.97 257.441 195.575 244.649C195.658 244.264 195.663 243.867 195.59 243.48C195.518 243.093 195.369 242.724 195.153 242.395C194.936 242.066 194.657 241.784 194.331 241.564C194.004 241.344 193.637 241.191 193.251 241.114ZM218.795 169.762C216.685 169.763 214.577 169.894 212.484 170.155C211.728 170.283 211.052 170.698 210.595 171.313C210.138 171.928 209.937 172.696 210.033 173.456C210.129 174.215 210.514 174.909 211.109 175.391C211.704 175.874 212.463 176.107 213.226 176.044C215.074 175.819 216.934 175.705 218.795 175.702C230.607 175.716 241.932 180.415 250.284 188.767C258.637 197.119 263.335 208.444 263.349 220.256C263.347 228.075 262.864 235.887 261.901 243.646C261.852 244.034 261.88 244.427 261.983 244.803C262.086 245.179 262.262 245.532 262.501 245.84C262.741 246.148 263.038 246.406 263.377 246.599C263.716 246.793 264.09 246.917 264.477 246.966H264.849C265.577 246.971 266.282 246.709 266.83 246.228C267.378 245.747 267.73 245.082 267.819 244.359C268.803 236.363 269.294 228.313 269.289 220.256C269.273 206.869 263.949 194.035 254.482 184.569C245.016 175.103 232.182 169.778 218.795 169.762ZM261.069 264.898C260.691 264.801 260.298 264.78 259.912 264.834C259.525 264.889 259.154 265.02 258.818 265.219C258.482 265.417 258.189 265.68 257.954 265.992C257.72 266.304 257.55 266.659 257.453 267.037C256.346 271.329 255.069 275.636 253.666 279.831C253.525 280.205 253.46 280.603 253.477 281.003C253.493 281.402 253.59 281.794 253.761 282.155C253.932 282.515 254.175 282.838 254.473 283.103C254.772 283.368 255.122 283.57 255.501 283.697C255.879 283.824 256.28 283.874 256.678 283.842C257.077 283.811 257.464 283.699 257.819 283.514C258.173 283.329 258.486 283.075 258.74 282.766C258.993 282.457 259.182 282.101 259.294 281.717C260.779 277.388 262.064 272.948 263.208 268.522C263.404 267.76 263.29 266.951 262.89 266.273C262.491 265.595 261.838 265.103 261.076 264.906L261.069 264.898Z" fill="white" stroke="#00183C" stroke-width="2.4849" mask="url(#path-4-inside-1_2740_13)"/>
<circle cx="219.5" cy="220.5" r="121" stroke="white" stroke-width="3"/>
<defs>
<filter id="filter0_f_2740_13" x="69.0854" y="70.7534" width="301.497" height="301.497" filterUnits="userSpaceOnUse" color-interpolation-filters="sRGB">
<feFlood flood-opacity="0" result="BackgroundImageFix"/>
<feBlend mode="normal" in="SourceGraphic" in2="BackgroundImageFix" result="shape"/>
<feGaussianBlur stdDeviation="15.1253" result="effect1_foregroundBlur_2740_13"/>
</filter>
<radialGradient id="paint0_radial_2740_13" cx="0" cy="0" r="1" gradientUnits="userSpaceOnUse" gradientTransform="translate(220.25 224.5) scale(165.248 165.502)">
<stop stop-color="#00BCFF"/>
<stop offset="0.653855" stop-color="#00BCFF" stop-opacity="0.1"/>
<stop offset="1" stop-color="#00BCFF" stop-opacity="0"/>
</radialGradient>
</defs>
</svg>
