<svg width="440" height="440" viewBox="0 0 440 440" fill="none" xmlns="http://www.w3.org/2000/svg">
<g clip-path="url(#clip0_2721_345)">
<g filter="url(#filter0_f_2721_345)">
<path d="M221.886 343.256C289.501 343.256 344.314 288.444 344.314 220.829C344.314 153.214 289.501 98.4009 221.886 98.4009C154.271 98.4009 99.458 153.214 99.458 220.829C99.458 288.444 154.271 343.256 221.886 343.256Z" fill="#5197FF"/>
</g>
<path d="M221.886 343.256C289.501 343.256 344.314 288.444 344.314 220.829C344.314 153.214 289.501 98.4009 221.886 98.4009C154.271 98.4009 99.458 153.214 99.458 220.829C99.458 288.444 154.271 343.256 221.886 343.256Z" fill="#00183C" stroke="white" stroke-width="6.24404" stroke-linecap="round" stroke-linejoin="round"/>
<path d="M331.815 274.901L262.567 232.306C261.375 231.54 260.022 231.06 258.614 230.904L229.41 226.95C227.231 226.637 225.01 227.056 223.094 228.141C221.179 229.225 219.677 230.915 218.825 232.944L201.353 272.095C200.532 273.916 200.263 275.939 200.581 277.911C200.898 279.883 201.788 281.719 203.139 283.19L227.114 309.079C228.198 310.27 228.992 311.695 229.434 313.244C229.877 314.792 229.956 316.422 229.665 318.006L224.691 343.257" stroke="white" stroke-width="1.78401" stroke-linecap="round" stroke-linejoin="round"/>
<path d="M141.542 128.498L130.065 155.534C129.065 157.934 129.019 160.625 129.937 163.058L144.603 202.082C145.176 203.708 146.157 205.16 147.452 206.299C148.747 207.438 150.313 208.225 152 208.586L179.291 214.452C180.806 214.758 182.228 215.414 183.446 216.365C184.663 217.317 185.642 218.54 186.305 219.936L191.151 230.011C192.012 231.714 193.323 233.149 194.941 234.161C196.56 235.173 198.425 235.722 200.333 235.749H217.549" stroke="white" stroke-width="1.78401" stroke-linecap="round" stroke-linejoin="round"/>
<path d="M253.131 102.354L264.991 123.779C266.086 125.793 266.48 128.115 266.11 130.377C265.741 132.64 264.629 134.716 262.95 136.277L228.645 167.266C228.071 167.815 227.428 168.286 226.732 168.669L211.046 177.341C209.551 178.135 207.892 178.571 206.2 178.617H178.909C176.898 178.627 174.934 179.223 173.258 180.333C171.582 181.443 170.266 183.018 169.472 184.865L158.887 209.989" stroke="white" stroke-width="1.78401" stroke-linecap="round" stroke-linejoin="round"/>
</g>
<line x1="125.432" y1="137.568" x2="304.932" y2="317.068" stroke="#00183C" stroke-width="9.70818"/>
<line x1="95.8915" y1="97.2434" x2="343.934" y2="345.286" stroke="white" stroke-width="6.62891" stroke-linecap="round"/>
<defs>
<filter id="filter0_f_2721_345" x="65.458" y="64.4009" width="312.855" height="312.855" filterUnits="userSpaceOnUse" color-interpolation-filters="sRGB">
<feFlood flood-opacity="0" result="BackgroundImageFix"/>
<feBlend mode="normal" in="SourceGraphic" in2="BackgroundImageFix" result="shape"/>
<feGaussianBlur stdDeviation="17" result="effect1_foregroundBlur_2721_345"/>
</filter>
<clipPath id="clip0_2721_345">
<rect width="326.474" height="326.474" fill="white" transform="translate(58.6484 57.5916)"/>
</clipPath>
</defs>
</svg>
