<svg width="32" height="32" viewBox="0 0 32 32" fill="none" xmlns="http://www.w3.org/2000/svg">
<path d="M29 6.25H2C1.80109 6.25 1.61032 6.32902 1.46967 6.46967C1.32902 6.61032 1.25 6.80109 1.25 7V26C1.25 26.1989 1.32902 26.3897 1.46967 26.5303C1.61032 26.671 1.80109 26.75 2 26.75C2.19891 26.75 2.38968 26.671 2.53033 26.5303C2.67098 26.3897 2.75 26.1989 2.75 26V23.75H5.25V26C5.25 26.1989 5.32902 26.3897 5.46967 26.5303C5.61032 26.671 5.80109 26.75 6 26.75C6.19891 26.75 6.38968 26.671 6.53033 26.5303C6.67098 26.3897 6.75 26.1989 6.75 26V23.75H9.25V26C9.25 26.1989 9.32902 26.3897 9.46967 26.5303C9.61032 26.671 9.80109 26.75 10 26.75C10.1989 26.75 10.3897 26.671 10.5303 26.5303C10.671 26.3897 10.75 26.1989 10.75 26V23.75H13.25V26C13.25 26.1989 13.329 26.3897 13.4697 26.5303C13.6103 26.671 13.8011 26.75 14 26.75C14.1989 26.75 14.3897 26.671 14.5303 26.5303C14.671 26.3897 14.75 26.1989 14.75 26V23.75H29C29.4641 23.75 29.9092 23.5656 30.2374 23.2374C30.5656 22.9092 30.75 22.4641 30.75 22V8C30.75 7.53587 30.5656 7.09075 30.2374 6.76256C29.9092 6.43437 29.4641 6.25 29 6.25ZM29.25 22C29.25 22.0663 29.2237 22.1299 29.1768 22.1768C29.1299 22.2237 29.0663 22.25 29 22.25H2.75V7.75H29C29.0663 7.75 29.1299 7.77634 29.1768 7.82322C29.2237 7.87011 29.25 7.9337 29.25 8V22ZM22 10.25C21.0605 10.25 20.1422 10.5286 19.361 11.0505C18.5799 11.5725 17.9711 12.3143 17.6116 13.1823C17.2521 14.0502 17.158 15.0053 17.3413 15.9267C17.5246 16.8481 17.9769 17.6945 18.6412 18.3588C19.3055 19.0231 20.1519 19.4754 21.0733 19.6587C21.9947 19.842 22.9498 19.7479 23.8177 19.3884C24.6857 19.0289 25.4275 18.4201 25.9495 17.639C26.4714 16.8578 26.75 15.9395 26.75 15C26.75 13.7402 26.2496 12.532 25.3588 11.6412C24.468 10.7504 23.2598 10.25 22 10.25ZM25.25 15C25.2507 15.6025 25.0827 16.1931 24.765 16.705L20.295 12.235C20.7873 11.9316 21.3516 11.7651 21.9297 11.7526C22.5078 11.7401 23.0787 11.8821 23.5837 12.1638C24.0886 12.4456 24.5092 12.857 24.8022 13.3555C25.0951 13.8541 25.2497 14.4218 25.25 15ZM18.75 15C18.7493 14.3975 18.9173 13.8069 19.235 13.295L23.705 17.765C23.2127 18.0684 22.6484 18.2349 22.0703 18.2474C21.4922 18.2599 20.9213 18.1179 20.4163 17.8362C19.9114 17.5544 19.4908 17.143 19.1978 16.6445C18.9049 16.1459 18.7503 15.5782 18.75 15ZM10 10.25C9.06054 10.25 8.14218 10.5286 7.36104 11.0505C6.57991 11.5725 5.97109 12.3143 5.61157 13.1823C5.25206 14.0502 5.15799 15.0053 5.34127 15.9267C5.52455 16.8481 5.97694 17.6945 6.64124 18.3588C7.30554 19.0231 8.15191 19.4754 9.07332 19.6587C9.99473 19.842 10.9498 19.7479 11.8177 19.3884C12.6857 19.0289 13.4275 18.4201 13.9495 17.639C14.4714 16.8578 14.75 15.9395 14.75 15C14.75 13.7402 14.2496 12.532 13.3588 11.6412C12.468 10.7504 11.2598 10.25 10 10.25ZM13.25 15C13.2507 15.6025 13.0827 16.1931 12.765 16.705L8.295 12.235C8.78728 11.9316 9.35157 11.7651 9.92967 11.7526C10.5078 11.7401 11.0787 11.8821 11.5837 12.1638C12.0886 12.4456 12.5092 12.857 12.8022 13.3555C13.0951 13.8541 13.2497 14.4218 13.25 15ZM6.75 15C6.7493 14.3975 6.91731 13.8069 7.235 13.295L11.705 17.765C11.2127 18.0684 10.6484 18.2349 10.0703 18.2474C9.49223 18.2599 8.92125 18.1179 8.41631 17.8362C7.91137 17.5544 7.49075 17.143 7.19784 16.6445C6.90493 16.1459 6.75033 15.5782 6.75 15Z" fill="#A0A0A0"/>
</svg>
