<svg width="82" height="113" viewBox="0 0 82 113" fill="none" xmlns="http://www.w3.org/2000/svg">
<path d="M62.3709 10.0198L39.8224 12.1648C37.6863 12.368 36.0625 14.1744 36.0872 16.3199L36.9754 93.5252C36.9935 95.1063 38.0877 96.4712 39.627 96.833L61.9652 102.083C63.8643 102.529 65.6833 101.088 65.6833 99.1371V13.0321C65.6833 11.2477 64.1472 9.85084 62.3709 10.0198Z" stroke="white" stroke-width="0.275079"/>
<path d="M62.795 102.2L63.1731 102.251C63.6048 102.308 64.0435 102.283 64.4659 102.177L73.553 99.8924C75.0738 99.5101 76.1432 98.1474 76.1531 96.5794L76.6675 14.9171C76.6784 13.1932 75.411 11.7277 73.7035 11.4899L62.8638 9.97986" stroke="white" stroke-width="0.275079"/>
<path d="M62.4016 9.54333C62.7142 9.51135 63.0297 9.51662 63.341 9.55994L73.7697 11.0131C75.7162 11.2842 77.161 12.955 77.1486 14.9203L76.6349 96.5824C76.6237 98.37 75.4037 99.9239 73.6701 100.36L64.5832 102.644C64.1017 102.765 63.6016 102.794 63.1096 102.728L62.7316 102.677L62.7092 102.674L62.6877 102.669L39.7375 97.4252C37.9763 97.0227 36.7185 95.4688 36.6916 93.6625L35.5402 15.889C35.5101 13.8566 37.0386 12.1379 39.0607 11.931L62.4016 9.54333Z" fill="url(#paint0_linear_4855_499)" stroke="white" stroke-width="0.962777"/>
<path d="M62.3709 10.0198L39.8224 12.1648C37.6863 12.368 36.0625 14.1744 36.0872 16.3199L36.9754 93.5252C36.9935 95.1063 38.0877 96.4712 39.627 96.833L61.9652 102.083C63.8643 102.529 65.6833 101.088 65.6833 99.1371V13.0321C65.6833 11.2477 64.1472 9.85084 62.3709 10.0198Z" fill="#1C1A1A" stroke="white" stroke-width="0.275079"/>
<path d="M70.2909 100.687C71.3498 100.402 72.0924 99.4509 72.112 98.3544L72.2008 93.3787C72.2098 92.8755 72.5852 92.4544 73.084 92.3879C73.709 92.3046 74.2586 92.8037 74.2357 93.4338L74.098 97.2201C74.0426 98.7454 72.9883 100.052 71.5091 100.428L69.9471 100.825" stroke="white" stroke-width="0.275079"/>
<path d="M66.2395 10.4343L65.9584 10.3925L73.6827 11.5358C75.3689 11.7854 76.6177 13.2327 76.6177 14.9372V39.3287C76.6177 41.1795 75.1527 42.6983 73.3031 42.7649L69.2711 42.9102C69.1147 42.9158 68.9851 42.79 68.9861 42.6335L69.1714 13.8574C69.1824 12.1457 67.9326 10.6865 66.2395 10.4343Z" fill="#1C1A1A" stroke="white" stroke-width="0.275079"/>
<path d="M74.0732 31.9923V25.2352C74.0732 24.3949 73.294 23.7714 72.4742 23.9558C71.1576 24.2518 70.2221 25.421 70.2221 26.7705V33.5382C70.2221 34.4188 71.0597 35.0584 71.9093 34.8264C73.187 34.4775 74.0732 33.3168 74.0732 31.9923Z" fill="#1C1A1A" stroke="white" stroke-width="0.275079"/>
<path d="M74.0732 84.8075V78.0504C74.0732 77.2101 73.294 76.5866 72.4742 76.771C71.1576 77.067 70.2221 78.2362 70.2221 79.5857V86.3533C70.2221 87.234 71.0597 87.8735 71.9093 87.6416C73.187 87.2927 74.0732 86.132 74.0732 84.8075Z" fill="#1C1A1A" stroke="white" stroke-width="0.275079"/>
<path d="M61.2014 14.1938L40.2267 15.9575C39.728 15.9994 39.3445 16.4164 39.3445 16.9169V73.2931C39.3445 73.7783 39.7055 74.1876 40.1868 74.2483L61.1616 76.8938C61.7366 76.9663 62.2449 76.5181 62.2449 75.9386V15.1532C62.2449 14.5897 61.763 14.1466 61.2014 14.1938Z" stroke="white" stroke-width="0.275079"/>
<path d="M44.1684 93.533V84.8195C44.1684 84.5828 44.3804 84.4024 44.6141 84.4404L57.2245 86.4919C57.4104 86.5221 57.5469 86.6827 57.5469 86.871V96.3085C57.5469 96.5539 57.3199 96.7363 57.0803 96.6836L44.4699 93.9081C44.2938 93.8693 44.1684 93.7133 44.1684 93.533Z" stroke="white" stroke-width="0.128024"/>
<defs>
<linearGradient id="paint0_linear_4855_499" x1="56.3306" y1="9.97986" x2="56.3306" y2="102.338" gradientUnits="userSpaceOnUse">
<stop stop-color="#A0A0A0"/>
<stop offset="1" stop-color="#737373"/>
</linearGradient>
</defs>
</svg>
