<svg width="40" height="40" viewBox="0 0 40 40" fill="none" xmlns="http://www.w3.org/2000/svg">
<rect width="40" height="40" rx="7.5" fill="#00BCFF"/>
<path d="M28.1703 11.8297C27.0018 10.6603 25.4716 9.92126 23.8291 9.73325C22.1867 9.54523 20.529 9.9193 19.1265 10.7944C17.724 11.6696 16.6594 12.9941 16.1063 14.552C15.5533 16.1099 15.5444 17.8092 16.0813 19.3728L10.8219 24.6322C10.6998 24.7539 10.6029 24.8986 10.5369 25.0578C10.471 25.2171 10.4372 25.3879 10.4375 25.5603V28.25C10.4375 28.5981 10.5758 28.9319 10.8219 29.1781C11.0681 29.4242 11.4019 29.5625 11.75 29.5625H14.75C14.8992 29.5625 15.0423 29.5032 15.1477 29.3978C15.2532 29.2923 15.3125 29.1492 15.3125 29V27.3125H17C17.1492 27.3125 17.2923 27.2532 17.3977 27.1478C17.5032 27.0423 17.5625 26.8992 17.5625 26.75V25.0625H19.25C19.3991 25.0624 19.5421 25.003 19.6475 24.8975L20.6272 23.9188C21.3908 24.1808 22.1927 24.3138 23 24.3125H23.0094C24.4547 24.3105 25.8671 23.8802 27.068 23.076C28.269 22.2717 29.2047 21.1296 29.7569 19.7939C30.3091 18.4582 30.4532 16.9888 30.1708 15.5713C29.8884 14.1538 29.1923 12.8518 28.1703 11.8297ZM29.1875 17.2025C29.0825 20.4988 26.3122 23.1838 23.0113 23.1875C22.2244 23.1892 21.4445 23.0406 20.7134 22.7497C20.6098 22.7046 20.495 22.6917 20.384 22.7128C20.2729 22.7338 20.1708 22.7879 20.0909 22.8678L19.0166 23.9375H17C16.8508 23.9375 16.7077 23.9968 16.6023 24.1023C16.4968 24.2077 16.4375 24.3508 16.4375 24.5V26.1875H14.75C14.6008 26.1875 14.4577 26.2468 14.3523 26.3523C14.2468 26.4577 14.1875 26.6008 14.1875 26.75V28.4375H11.75C11.7003 28.4375 11.6526 28.4177 11.6174 28.3826C11.5823 28.3474 11.5625 28.2997 11.5625 28.25V25.5603C11.5625 25.5108 11.582 25.4633 11.6169 25.4281L17.1322 19.9128C17.2121 19.8329 17.2662 19.7308 17.2872 19.6198C17.3083 19.5087 17.2954 19.3939 17.2503 19.2903C16.9587 18.5594 16.8101 17.7794 16.8125 16.9925C16.8125 13.6916 19.5013 10.9213 22.7966 10.8125C23.6434 10.7842 24.487 10.9301 25.2752 11.2412C26.0633 11.5523 26.7792 12.0219 27.3783 12.621C27.9775 13.2201 28.4473 13.9359 28.7585 14.724C29.0697 15.5121 29.2157 16.3557 29.1875 17.2025ZM25.8125 15.125C25.8125 15.3104 25.7575 15.4917 25.6545 15.6459C25.5515 15.8 25.4051 15.9202 25.2338 15.9911C25.0625 16.0621 24.874 16.0807 24.6921 16.0445C24.5103 16.0083 24.3432 15.919 24.2121 15.7879C24.081 15.6568 23.9917 15.4898 23.9555 15.3079C23.9193 15.126 23.9379 14.9375 24.0089 14.7662C24.0798 14.5949 24.2 14.4485 24.3542 14.3455C24.5083 14.2425 24.6896 14.1875 24.875 14.1875C25.1236 14.1875 25.3621 14.2863 25.5379 14.4621C25.7137 14.6379 25.8125 14.8764 25.8125 15.125Z" fill="#0A0A0A"/>
</svg>
