<svg width="440" height="440" viewBox="0 0 440 440" fill="none" xmlns="http://www.w3.org/2000/svg">
<path d="M268.163 77.6331H294.013C295.666 77.6331 297.006 78.9727 297.006 80.6252V287.931C297.006 288.358 297.097 288.781 297.274 289.169L300.583 296.45C300.691 296.687 300.768 296.938 300.81 297.196L302.949 310.028C302.976 310.191 302.99 310.355 302.99 310.52V329.622C302.99 330.176 302.836 330.719 302.546 331.191L297.449 339.473C297.159 339.944 297.006 340.487 297.006 341.041V357.771C297.006 359.271 295.895 360.539 294.409 360.737L274.891 363.339C274.674 363.368 274.454 363.373 274.236 363.354L240.441 360.416C240.251 360.399 240.062 360.364 239.878 360.312L226.265 356.422C225.154 356.105 224.325 355.176 224.135 354.037L222.294 342.993C222.233 342.626 222.104 342.274 221.914 341.954L147.398 216.768L137.59 199.253C137.168 198.499 137.092 197.6 137.382 196.787L156.189 143.983C156.312 143.637 156.497 143.318 156.736 143.039L164.335 134.173C164.972 133.43 165.931 133.046 166.905 133.143L193.897 135.842C194.77 135.93 195.56 136.395 196.059 137.116L216.986 167.343C218.633 169.723 222.363 168.61 222.437 165.717L224.386 89.6902C224.421 88.3189 225.384 87.1472 226.723 86.8472L267.509 77.7055C267.724 77.6574 267.943 77.6331 268.163 77.6331Z" fill="#00183C"/>
<path d="M222.95 356.651V352.91L296.258 352.162V362.635H268.58L223.698 357.399L222.95 356.651Z" fill="#00183C"/>
<path fill-rule="evenodd" clip-rule="evenodd" d="M268.027 78.7701C267.947 78.7701 267.867 78.7787 267.789 78.7958L226.077 87.9434C225.569 88.0548 225.207 88.5047 225.207 89.0248V178.618H223.322L222.202 177.122L221.437 175.626V156.22V133.821V89.0248C221.437 86.7337 223.031 84.7515 225.269 84.2608L266.982 75.1132C267.325 75.038 267.675 75 268.027 75H294.297C296.991 75 299.175 77.1836 299.175 79.8772V289.384C299.175 289.837 299.448 290.469 300.062 291.201C302.343 293.92 305.623 300.441 305.623 315.509C305.623 329.751 302.693 335.93 300.35 338.616C299.558 339.524 299.175 340.284 299.175 340.825V359.643C299.175 362.336 296.991 364.52 294.297 364.52H269.148L225.739 359.37C223.285 359.079 221.437 356.998 221.437 354.527V339.823L222.95 342.438L225.195 346.178L225.207 354.527C225.207 355.087 225.626 355.56 226.183 355.626L269.371 360.75H294.297C294.909 360.75 295.404 360.254 295.404 359.643V340.825C295.404 338.819 296.626 337.15 297.509 336.138C298.986 334.444 301.853 329.35 301.853 315.509C301.853 300.92 298.669 295.406 297.174 293.624C296.356 292.649 295.404 291.161 295.404 289.384V79.8772C295.404 79.2658 294.909 78.7701 294.297 78.7701H268.027Z" fill="white"/>
<path d="M250.557 123.493L238.901 125.033C236.668 125.328 235 127.231 235 129.483V239.798C235 242.277 237.009 244.286 239.488 244.286H251.145C253.624 244.286 255.633 242.277 255.633 239.798V127.943C255.633 125.231 253.246 123.138 250.557 123.493Z" stroke="white" stroke-width="0.77861"/>
<path d="M272 362.5V78" stroke="white"/>
<path d="M223.321 178.494L194.949 136.504C194.428 135.733 193.579 135.248 192.65 135.192L164.006 133.466C162.7 133.388 161.494 134.167 161.029 135.389L138.184 195.45C137.861 196.298 137.941 197.246 138.4 198.028L223.321 342.78C228.122 351.864 241.774 366.294 257.969 351.345C278.213 332.658 262.641 283.606 254.855 273.095C248.626 264.686 193.085 179.272 166.093 137.617C165.704 136.838 165.47 135.281 167.65 135.281C169.83 135.281 183.871 136.319 190.619 136.838C191.787 137.098 194.357 138.084 195.291 139.952C196.225 141.821 214.367 168.501 223.321 181.608" stroke="white" stroke-width="0.77861"/>
<path d="M298.067 292.56C300.922 301.255 304.919 322.537 298.067 338.109" stroke="white" stroke-width="0.77861"/>
<path d="M238.114 125.159V244.286" stroke="white" stroke-width="0.77861"/>
<rect x="283.274" y="108.419" width="6.22888" height="35.0375" rx="3.11444" stroke="white" stroke-width="0.77861"/>
<rect x="283.274" y="221.317" width="6.22888" height="35.0375" rx="3.11444" stroke="white" stroke-width="0.77861"/>
<path d="M282.884 106.472C281.164 106.472 279.77 107.867 279.77 109.587V142.288C279.77 144.008 281.164 145.403 282.884 145.403C284.191 145.403 285.31 144.598 285.772 143.456H286.599C286.103 145.036 284.627 146.181 282.884 146.181C280.734 146.181 278.991 144.438 278.991 142.288V109.587C278.991 107.437 280.734 105.694 282.884 105.694C284.617 105.694 286.086 106.826 286.59 108.391L285.816 108.534C285.385 107.332 284.235 106.472 282.884 106.472Z" fill="white"/>
<path d="M282.884 219.371C281.164 219.371 279.77 220.765 279.77 222.485V255.187C279.77 256.907 281.164 258.301 282.884 258.301C284.191 258.301 285.31 257.496 285.772 256.355H286.599C286.103 257.934 284.627 259.08 282.884 259.08C280.734 259.08 278.991 257.337 278.991 255.187V222.485C278.991 220.335 280.734 218.592 282.884 218.592C284.617 218.592 286.086 219.724 286.59 221.29L285.816 221.433C285.385 220.231 284.235 219.371 282.884 219.371Z" fill="white"/>
<path d="M242.397 289.835C245.611 289.835 248.625 292.45 250.858 296.917C253.08 301.361 254.466 307.528 254.466 314.361C254.466 321.193 253.08 327.361 250.858 331.805C248.625 336.272 245.611 338.887 242.397 338.887C239.184 338.887 236.17 336.272 233.937 331.805C231.714 327.361 230.329 321.193 230.329 314.361C230.329 307.528 231.714 301.361 233.937 296.917C236.17 292.45 239.184 289.835 242.397 289.835Z" stroke="white" stroke-width="0.77861"/>
<path d="M240.84 286.721C244.934 286.721 248.723 289.712 251.511 294.73C254.291 299.734 256.022 306.675 256.022 314.362C256.022 322.048 254.291 328.988 251.511 333.992C248.723 339.01 244.934 342.002 240.84 342.002C236.745 342.002 232.956 339.01 230.169 333.992C227.389 328.988 225.657 322.048 225.657 314.362C225.657 306.675 227.389 299.734 230.169 294.73C232.956 289.712 236.745 286.721 240.84 286.721Z" stroke="white" stroke-width="0.77861"/>
<path fill-rule="evenodd" clip-rule="evenodd" d="M158.276 136.582C159.813 132.601 163.767 130.088 168.023 130.385L190.282 131.938C193.75 132.18 196.909 134.015 198.837 136.908L212.575 157.514L222.202 171.886H224.446L225.194 178.618L222.95 181.61L195.103 139.397C193.946 137.662 192.05 136.561 189.97 136.416L167.711 134.863C165.419 134.703 163.29 136.056 162.462 138.199L139.538 197.531C139.456 197.743 139.476 197.982 139.591 198.178L182.987 272.36L204.685 309.45L215.534 327.996L220.958 337.268L223.671 341.905L225.194 345.43L224.446 347.674L222.509 348.807L135.717 200.444C134.912 199.068 134.777 197.4 135.352 195.913L158.276 136.582Z" fill="white"/>
</svg>
