<svg width="440" height="440" viewBox="0 0 440 440" fill="none" xmlns="http://www.w3.org/2000/svg">
<path opacity="0.3" d="M385.5 224.498C385.5 315.908 311.514 390 220.244 390C128.985 390 55 315.908 55 224.498C55 133.1 128.985 59 220.244 59C311.514 59 385.5 133.1 385.5 224.498Z" fill="url(#paint0_radial_2740_2)"/>
<g clip-path="url(#clip0_2740_2)">
<g filter="url(#filter0_f_2740_2)">
<path d="M226 89.9998C249.196 89.9998 268 108.804 268 132V174H323.001V324H118.001V174H173V132C173 108.804 191.804 90 215 89.9998H226Z" fill="#70A9FF"/>
</g>
<path d="M226 89.9998C249.196 89.9998 268 108.804 268 132V174H323.001V324H118.001V174H173V132C173 108.804 191.804 90 215 89.9998H226Z" fill="#00183C"/>
<path d="M220 82.3435C233.684 82.3435 246.807 87.7791 256.482 97.4548C266.158 107.131 271.594 120.254 271.594 133.937V168.406H315.625C319.164 168.406 322.558 169.812 325.061 172.314C327.563 174.817 328.969 178.211 328.969 181.75V315.625C328.969 319.164 327.563 322.558 325.061 325.06C322.558 327.563 319.164 328.969 315.625 328.969H124.375C120.836 328.969 117.442 327.563 114.939 325.06C112.437 322.558 111.031 319.164 111.031 315.625V181.75C111.031 178.211 112.437 174.817 114.939 172.314C117.442 169.812 120.836 168.406 124.375 168.406H168.406V133.937C168.406 120.254 173.842 107.131 183.518 97.4548C193.193 87.7791 206.316 82.3435 220 82.3435ZM124.375 175.969C122.842 175.969 121.371 176.578 120.287 177.662C119.203 178.746 118.594 180.216 118.594 181.75V315.625C118.594 317.158 119.203 318.628 120.287 319.713C121.371 320.797 122.842 321.406 124.375 321.406H315.625C317.158 321.406 318.629 320.797 319.713 319.713C320.797 318.628 321.406 317.158 321.406 315.625V181.75C321.406 180.216 320.797 178.746 319.713 177.662C318.629 176.578 317.158 175.969 315.625 175.969H124.375ZM220 240.125C222.271 240.125 224.449 241.027 226.055 242.633C227.66 244.238 228.562 246.416 228.562 248.687C228.562 250.381 228.06 252.036 227.119 253.444C226.178 254.852 224.841 255.95 223.276 256.598C221.712 257.246 219.99 257.416 218.329 257.086C216.668 256.755 215.143 255.939 213.945 254.742C212.748 253.545 211.932 252.019 211.602 250.358C211.271 248.697 211.441 246.975 212.089 245.411C212.737 243.846 213.835 242.509 215.243 241.568C216.651 240.627 218.307 240.125 220 240.125ZM220 89.906C208.322 89.906 197.123 94.545 188.865 102.802C180.608 111.06 175.969 122.259 175.969 133.937V168.406H264.031V133.937C264.031 122.259 259.392 111.06 251.135 102.802C242.877 94.545 231.678 89.906 220 89.906Z" fill="white" stroke="#00183C" stroke-width="2"/>
</g>
<defs>
<filter id="filter0_f_2740_2" x="87.001" y="58.9998" width="267" height="296" filterUnits="userSpaceOnUse" color-interpolation-filters="sRGB">
<feFlood flood-opacity="0" result="BackgroundImageFix"/>
<feBlend mode="normal" in="SourceGraphic" in2="BackgroundImageFix" result="shape"/>
<feGaussianBlur stdDeviation="15.5" result="effect1_foregroundBlur_2740_2"/>
</filter>
<radialGradient id="paint0_radial_2740_2" cx="0" cy="0" r="1" gradientUnits="userSpaceOnUse" gradientTransform="translate(220.25 224.5) scale(165.248 165.502)">
<stop stop-color="#00BCFF"/>
<stop offset="0.653855" stop-color="#00BCFF" stop-opacity="0.1"/>
<stop offset="1" stop-color="#00BCFF" stop-opacity="0"/>
</radialGradient>
<clipPath id="clip0_2740_2">
<rect width="306" height="306" fill="white" transform="translate(67 67)"/>
</clipPath>
</defs>
</svg>
