<svg width="440" height="440" viewBox="0 0 440 440" fill="none" xmlns="http://www.w3.org/2000/svg">
<path d="M328.001 293.8L324 305.5H116.5L109.5 298.5L131.801 247V189.4L151.601 148L193.001 117.4L236.201 112L284.801 142.6L302.801 180.4L311.801 247L328.001 293.8Z" fill="#00183C"/>
<path d="M179.86 341.131H259.86C260.921 341.131 261.938 341.553 262.688 342.303C263.439 343.053 263.86 344.07 263.86 345.131C263.86 346.192 263.439 347.21 262.688 347.96C261.938 348.71 260.921 349.131 259.86 349.131H179.86C178.799 349.131 177.781 348.71 177.031 347.96C176.281 347.21 175.86 346.192 175.86 345.131C175.86 344.07 176.281 343.053 177.031 342.303C177.781 341.553 178.799 341.131 179.86 341.131ZM219.86 111.131C244.791 111.131 268.7 121.035 286.328 138.663C303.956 156.291 313.86 180.201 313.86 205.131C313.86 239.434 319.913 267.365 331.944 288.132C333.171 290.257 333.818 292.668 333.819 295.122C333.821 297.576 333.177 299.988 331.953 302.115C330.729 304.242 328.967 306.01 326.844 307.241C324.721 308.473 322.312 309.124 319.857 309.131H119.862C117.408 309.124 114.999 308.473 112.876 307.241C110.753 306.01 108.991 304.242 107.767 302.115C106.542 299.988 105.899 297.576 105.9 295.122C105.902 292.668 106.549 290.258 107.775 288.133C119.807 267.378 125.86 239.447 125.86 205.131C125.86 180.201 135.763 156.291 153.392 138.663C171.02 121.035 194.93 111.131 219.86 111.131ZM219.86 119.131C197.052 119.131 175.177 128.192 159.049 144.32C142.921 160.448 133.86 182.322 133.86 205.131C133.86 241.023 127.39 270.257 114.695 292.129L114.694 292.131C114.168 293.043 113.89 294.078 113.89 295.131C113.89 296.179 114.165 297.208 114.687 298.116L114.686 298.117C115.198 299.04 115.951 299.806 116.863 300.337C117.773 300.866 118.808 301.139 119.86 301.13V301.131H319.86V301.13C320.91 301.137 321.943 300.862 322.851 300.333C323.755 299.806 324.5 299.045 325.012 298.132L325.013 298.133C325.541 297.222 325.821 296.189 325.823 295.136C325.826 294.083 325.552 293.046 325.027 292.133L325.024 292.129C312.33 270.257 305.86 241.011 305.86 205.131C305.86 182.322 296.799 160.448 280.671 144.32C264.543 128.192 242.669 119.131 219.86 119.131ZM147.702 91.7695C148.594 91.2718 149.642 91.1333 150.633 91.3838C151.628 91.6355 152.489 92.2612 153.036 93.1299C153.583 93.9985 153.776 95.0443 153.573 96.0508C153.371 97.0561 152.79 97.9447 151.951 98.5342C133.287 110.509 118.136 127.224 108.047 146.971C107.71 147.621 107.2 148.167 106.574 148.548C105.948 148.929 105.23 149.131 104.497 149.131H104.494C103.856 149.133 103.226 148.979 102.661 148.683L102.658 148.681L102.484 148.585C101.63 148.086 100.988 147.287 100.688 146.34C100.367 145.329 100.461 144.233 100.948 143.291L100.95 143.286C111.695 122.275 127.829 104.496 147.702 91.7695ZM288.863 91.0781C289.394 90.9713 289.942 90.974 290.472 91.085C291.002 91.1961 291.505 91.4136 291.948 91.7246L291.966 91.7373L291.983 91.748C311.872 104.476 328.019 122.263 338.77 143.286L338.772 143.291C339.26 144.232 339.354 145.329 339.033 146.34C338.713 147.351 338.003 148.192 337.062 148.681L337.059 148.683C336.493 148.979 335.864 149.133 335.226 149.131H335.223C334.49 149.131 333.771 148.929 333.146 148.548C332.52 148.167 332.01 147.621 331.673 146.971C321.578 127.213 306.416 110.491 287.737 98.5146L287.713 98.499L287.688 98.4854L287.515 98.3809C287.115 98.1281 286.763 97.8063 286.475 97.4297C286.146 96.9992 285.907 96.5058 285.774 95.9805C285.642 95.4552 285.616 94.9082 285.701 94.373C285.786 93.838 285.979 93.3255 286.268 92.8672C286.556 92.4089 286.936 92.0145 287.382 91.707C287.828 91.3995 288.332 91.185 288.863 91.0781Z" fill="white" stroke="#00183C" stroke-width="2"/>
</svg>
