<svg width="440" height="443" viewBox="0 0 440 443" fill="none" xmlns="http://www.w3.org/2000/svg">
<path d="M179.454 349.857L114.748 121.615C113.99 118.939 113.939 116.112 114.603 113.411L116.556 105.452L117.298 103.228C118.039 106.194 118.434 108.952 118.757 111.341C140.173 188.348 181.972 343.21 183.005 346.598C185.092 353.441 188.817 362.617 193.66 364.194C185.653 361.587 180.853 353.55 179.454 349.857Z" fill="white"/>
<path d="M218.994 86.2713L135.745 100.611C128.642 101.835 124.143 108.917 126.053 115.866L188.792 344.101C191.16 352.714 200.103 357.737 208.69 355.277L298.99 329.407C307.827 326.875 312.737 317.452 309.748 308.758L236.898 96.8706C234.338 89.4243 226.754 84.9346 218.994 86.2713Z" fill="#00183C" stroke="white" stroke-width="0.642036"/>
<path d="M220.975 80.4357L128.746 96.3854C121.316 97.6703 116.617 105.086 118.628 112.353L184.846 351.622C187.329 360.595 196.643 365.831 205.6 363.288L306.675 334.597C315.99 331.952 321.14 321.995 317.914 312.865L239.656 91.3798C236.93 83.6653 229.038 79.0415 220.975 80.4357Z" stroke="white" stroke-width="4.44828"/>
<path d="M200.582 106.161L171.405 111.354C169.169 111.752 167.013 110.327 166.502 108.114C165.951 105.727 167.519 103.367 169.933 102.951L199.138 97.916C201.195 97.5613 203.199 98.7767 203.835 100.765C204.607 103.177 203.076 105.717 200.582 106.161Z" stroke="white" stroke-width="0.642036"/>
<g clip-path="url(#clip0_2482_2022)">
<path d="M255.265 163.917C254.367 159.756 254.294 155.459 255.049 151.269C256.195 144.771 259.242 138.759 263.805 133.992C268.367 129.226 274.241 125.919 280.683 124.491C287.125 123.063 293.846 123.577 299.996 125.969C306.146 128.36 311.448 132.522 315.233 137.927C319.017 143.332 321.114 149.738 321.258 156.335C321.402 162.932 319.587 169.423 316.041 174.988C312.496 180.553 307.38 184.942 301.341 187.599C295.301 190.257 288.609 191.064 282.111 189.918C277.916 189.194 273.903 187.656 270.3 185.389L263.214 190.35L252.263 188.419L250.331 199.371L239.38 197.439L237.449 208.391L219.196 205.173L222.414 186.92L255.265 163.917Z" fill="#00183C" stroke="white" stroke-width="3.05448" stroke-linecap="round" stroke-linejoin="round"/>
<path d="M297.997 153.196C300.013 153.551 301.936 152.205 302.291 150.189C302.647 148.173 301.301 146.25 299.284 145.895C297.268 145.539 295.346 146.885 294.99 148.902C294.635 150.918 295.981 152.84 297.997 153.196Z" fill="white"/>
</g>
<g clip-path="url(#clip1_2482_2022)">
<path d="M278.272 190.455C275.64 187.109 273.69 183.279 272.532 179.182C270.714 172.839 270.817 166.1 272.828 159.816C274.84 153.531 278.67 147.985 283.834 143.877C288.998 139.769 295.264 137.285 301.84 136.739C308.415 136.193 315.005 137.608 320.776 140.807C326.547 144.006 331.24 148.845 334.262 154.711C337.283 160.577 338.497 167.207 337.75 173.763C337.003 180.319 334.329 186.506 330.065 191.542C325.802 196.579 320.141 200.237 313.798 202.056C309.71 203.245 305.429 203.621 301.197 203.163L297.003 210.728L286.313 213.793L289.379 224.483L278.689 227.549L281.754 238.239L263.938 243.347L258.829 225.531L278.272 190.455Z" fill="#00183C" stroke="white" stroke-width="3.05448" stroke-linecap="round" stroke-linejoin="round"/>
<path d="M311.978 162.087C313.946 161.523 315.084 159.47 314.519 157.502C313.955 155.534 311.902 154.396 309.934 154.961C307.966 155.525 306.829 157.578 307.393 159.546C307.957 161.514 310.01 162.652 311.978 162.087Z" fill="white"/>
</g>
<path opacity="0.3" d="M81.7113 0.176853L122.603 111.304L192.177 358.263L302.046 134.971L380.487 0.176847L81.7113 0.176853Z" fill="url(#paint0_linear_2482_2022)"/>
<defs>
<linearGradient id="paint0_linear_2482_2022" x1="201.423" y1="2.15808" x2="172.858" y2="205.412" gradientUnits="userSpaceOnUse">
<stop stop-color="#00BCFF" stop-opacity="0"/>
<stop offset="0.269342" stop-color="#00BCFF" stop-opacity="0.2"/>
<stop offset="1" stop-color="#00BCFF" stop-opacity="0.5"/>
</linearGradient>
<clipPath id="clip0_2482_2022">
<rect width="118.621" height="118.621" fill="white" transform="translate(222.617 100.382) rotate(10)"/>
</clipPath>
<clipPath id="clip1_2482_2022">
<rect width="118.621" height="118.621" fill="white" transform="translate(221.075 147.662) rotate(-16)"/>
</clipPath>
</defs>
</svg>
