<svg width="32" height="32" viewBox="0 0 32 32" fill="none" xmlns="http://www.w3.org/2000/svg">
<path d="M5.75 7V25C5.75 25.1989 5.67098 25.3897 5.53033 25.5303C5.38968 25.671 5.19891 25.75 5 25.75C4.80109 25.75 4.61032 25.671 4.46967 25.5303C4.32902 25.3897 4.25 25.1989 4.25 25V7C4.25 6.80109 4.32902 6.61032 4.46967 6.46967C4.61032 6.32902 4.80109 6.25 5 6.25C5.19891 6.25 5.38968 6.32902 5.53033 6.46967C5.67098 6.61032 5.75 6.80109 5.75 7ZM17.5725 14.0513L14.75 14.9675V12C14.75 11.8011 14.671 11.6103 14.5303 11.4697C14.3897 11.329 14.1989 11.25 14 11.25C13.8011 11.25 13.6103 11.329 13.4697 11.4697C13.329 11.6103 13.25 11.8011 13.25 12V14.9675L10.4275 14.0513C10.3333 14.0187 10.2336 14.0053 10.1342 14.0117C10.0347 14.0182 9.93758 14.0443 9.84838 14.0887C9.75918 14.1332 9.67973 14.1949 9.61465 14.2704C9.54958 14.3458 9.5002 14.4335 9.46939 14.5282C9.43858 14.623 9.42696 14.7229 9.4352 14.8222C9.44345 14.9215 9.47141 15.0182 9.51743 15.1066C9.56346 15.195 9.62663 15.2733 9.70326 15.337C9.77989 15.4006 9.86845 15.4484 9.96375 15.4775L12.7863 16.3937L11.0363 18.795C10.9758 18.8744 10.9318 18.9652 10.9068 19.0618C10.8819 19.1585 10.8765 19.2592 10.8909 19.358C10.9054 19.4568 10.9395 19.5517 10.9911 19.6372C11.0428 19.7226 11.1109 19.7969 11.1917 19.8557C11.2724 19.9144 11.364 19.9565 11.4612 19.9793C11.5584 20.0022 11.6592 20.0054 11.7577 19.9888C11.8561 19.9722 11.9503 19.9362 12.0346 19.8827C12.1189 19.8292 12.1917 19.7595 12.2487 19.6775L13.9987 17.2763L15.7487 19.6775C15.8675 19.8336 16.0427 19.9369 16.2368 19.9653C16.4308 19.9937 16.6283 19.945 16.7869 19.8296C16.9454 19.7142 17.0525 19.5413 17.0851 19.3479C17.1177 19.1545 17.0732 18.956 16.9613 18.795L15.2113 16.3937L18.0338 15.4775C18.1291 15.4484 18.2176 15.4006 18.2942 15.337C18.3709 15.2733 18.434 15.195 18.4801 15.1066C18.5261 15.0182 18.554 14.9215 18.5623 14.8222C18.5705 14.7229 18.5589 14.623 18.5281 14.5282C18.4973 14.4335 18.4479 14.3458 18.3828 14.2704C18.3178 14.1949 18.2383 14.1332 18.1491 14.0887C18.0599 14.0443 17.9628 14.0182 17.8633 14.0117C17.7639 14.0053 17.6642 14.0187 17.57 14.0513H17.5725ZM30.5175 14.5325C30.456 14.3434 30.3219 14.1865 30.1446 14.0962C29.9674 14.006 29.7616 13.9898 29.5725 14.0513L26.75 14.9675V12C26.75 11.8011 26.671 11.6103 26.5303 11.4697C26.3897 11.329 26.1989 11.25 26 11.25C25.8011 11.25 25.6103 11.329 25.4697 11.4697C25.329 11.6103 25.25 11.8011 25.25 12V14.9675L22.4275 14.0513C22.3333 14.0187 22.2336 14.0053 22.1342 14.0117C22.0347 14.0182 21.9376 14.0443 21.8484 14.0887C21.7592 14.1332 21.6797 14.1949 21.6147 14.2704C21.5496 14.3458 21.5002 14.4335 21.4694 14.5282C21.4386 14.623 21.427 14.7229 21.4352 14.8222C21.4435 14.9215 21.4714 15.0182 21.5174 15.1066C21.5635 15.195 21.6266 15.2733 21.7033 15.337C21.7799 15.4006 21.8684 15.4484 21.9638 15.4775L24.7862 16.3937L23.0425 18.795C22.982 18.8744 22.938 18.9652 22.9131 19.0618C22.8881 19.1585 22.8827 19.2592 22.8972 19.358C22.9117 19.4568 22.9457 19.5517 22.9974 19.6372C23.049 19.7226 23.1172 19.7969 23.1979 19.8557C23.2787 19.9144 23.3703 19.9565 23.4675 19.9793C23.5647 20.0022 23.6655 20.0054 23.7639 19.9888C23.8624 19.9722 23.9565 19.9362 24.0409 19.8827C24.1252 19.8292 24.198 19.7595 24.255 19.6775L26.005 17.2763L27.755 19.6775C27.8738 19.8336 28.049 19.9369 28.243 19.9653C28.4371 19.9937 28.6346 19.945 28.7931 19.8296C28.9517 19.7142 29.0587 19.5413 29.0913 19.3479C29.1239 19.1545 29.0795 18.956 28.9675 18.795L27.2237 16.3937L30.0462 15.4775C30.2335 15.4139 30.3881 15.279 30.4764 15.102C30.5646 14.925 30.5794 14.7203 30.5175 14.5325Z" fill="#A0A0A0"/>
</svg>
