<svg width="440" height="440" viewBox="0 0 440 440" fill="none" xmlns="http://www.w3.org/2000/svg">
<path opacity="0.3" d="M385.5 224.498C385.5 315.908 311.514 390 220.244 390C128.985 390 55 315.908 55 224.498C55 133.1 128.985 59 220.244 59C311.514 59 385.5 133.1 385.5 224.498Z" fill="url(#paint0_radial_2740_7)"/>
<rect x="127" y="124" width="71" height="76" fill="#00183C"/>
<rect x="127" y="240" width="71" height="76" fill="#00183C"/>
<rect x="239" y="124" width="71" height="76" fill="#00183C"/>
<mask id="path-5-inside-1_2740_7" fill="white">
<path d="M191.312 119.594H133.938C130.133 119.594 126.485 121.105 123.795 123.795C121.105 126.485 119.594 130.133 119.594 133.937V191.312C119.594 195.116 121.105 198.765 123.795 201.455C126.485 204.145 130.133 205.656 133.938 205.656H191.312C195.117 205.656 198.765 204.145 201.455 201.455C204.145 198.765 205.656 195.116 205.656 191.312V133.937C205.656 130.133 204.145 126.485 201.455 123.795C198.765 121.105 195.117 119.594 191.312 119.594ZM196.094 191.312C196.094 192.58 195.59 193.796 194.693 194.693C193.797 195.59 192.581 196.094 191.312 196.094H133.938C132.669 196.094 131.453 195.59 130.557 194.693C129.66 193.796 129.156 192.58 129.156 191.312V133.937C129.156 132.669 129.66 131.453 130.557 130.556C131.453 129.66 132.669 129.156 133.938 129.156H191.312C192.581 129.156 193.797 129.66 194.693 130.556C195.59 131.453 196.094 132.669 196.094 133.937V191.312ZM191.312 234.344H133.938C130.133 234.344 126.485 235.855 123.795 238.545C121.105 241.235 119.594 244.883 119.594 248.687V306.062C119.594 309.866 121.105 313.515 123.795 316.205C126.485 318.895 130.133 320.406 133.938 320.406H191.312C195.117 320.406 198.765 318.895 201.455 316.205C204.145 313.515 205.656 309.866 205.656 306.062V248.687C205.656 244.883 204.145 241.235 201.455 238.545C198.765 235.855 195.117 234.344 191.312 234.344ZM196.094 306.062C196.094 307.33 195.59 308.546 194.693 309.443C193.797 310.34 192.581 310.844 191.312 310.844H133.938C132.669 310.844 131.453 310.34 130.557 309.443C129.66 308.546 129.156 307.33 129.156 306.062V248.687C129.156 247.419 129.66 246.203 130.557 245.306C131.453 244.41 132.669 243.906 133.938 243.906H191.312C192.581 243.906 193.797 244.41 194.693 245.306C195.59 246.203 196.094 247.419 196.094 248.687V306.062ZM306.062 119.594H248.688C244.883 119.594 241.235 121.105 238.545 123.795C235.855 126.485 234.344 130.133 234.344 133.937V191.312C234.344 195.116 235.855 198.765 238.545 201.455C241.235 204.145 244.883 205.656 248.688 205.656H306.062C309.867 205.656 313.515 204.145 316.205 201.455C318.895 198.765 320.406 195.116 320.406 191.312V133.937C320.406 130.133 318.895 126.485 316.205 123.795C313.515 121.105 309.867 119.594 306.062 119.594ZM310.844 191.312C310.844 192.58 310.34 193.796 309.443 194.693C308.547 195.59 307.331 196.094 306.062 196.094H248.688C247.419 196.094 246.203 195.59 245.307 194.693C244.41 193.796 243.906 192.58 243.906 191.312V133.937C243.906 132.669 244.41 131.453 245.307 130.556C246.203 129.66 247.419 129.156 248.688 129.156H306.062C307.331 129.156 308.547 129.66 309.443 130.556C310.34 131.453 310.844 132.669 310.844 133.937V191.312ZM234.344 277.375V239.125C234.344 237.857 234.847 236.641 235.744 235.744C236.641 234.847 237.857 234.344 239.125 234.344C240.393 234.344 241.609 234.847 242.506 235.744C243.403 236.641 243.906 237.857 243.906 239.125V277.375C243.906 278.643 243.403 279.859 242.506 280.756C241.609 281.652 240.393 282.156 239.125 282.156C237.857 282.156 236.641 281.652 235.744 280.756C234.847 279.859 234.344 278.643 234.344 277.375ZM320.406 258.25C320.406 259.518 319.903 260.734 319.006 261.631C318.109 262.527 316.893 263.031 315.625 263.031H282.156V315.625C282.156 316.893 281.653 318.109 280.756 319.006C279.859 319.902 278.643 320.406 277.375 320.406H239.125C237.857 320.406 236.641 319.902 235.744 319.006C234.847 318.109 234.344 316.893 234.344 315.625C234.344 314.357 234.847 313.141 235.744 312.244C236.641 311.347 237.857 310.844 239.125 310.844H272.594V239.125C272.594 237.857 273.097 236.641 273.994 235.744C274.891 234.847 276.107 234.344 277.375 234.344C278.643 234.344 279.859 234.847 280.756 235.744C281.653 236.641 282.156 237.857 282.156 239.125V253.469H315.625C316.893 253.469 318.109 253.972 319.006 254.869C319.903 255.766 320.406 256.982 320.406 258.25ZM320.406 296.5V315.625C320.406 316.893 319.903 318.109 319.006 319.006C318.109 319.902 316.893 320.406 315.625 320.406C314.357 320.406 313.141 319.902 312.244 319.006C311.347 318.109 310.844 316.893 310.844 315.625V296.5C310.844 295.232 311.347 294.016 312.244 293.119C313.141 292.222 314.357 291.719 315.625 291.719C316.893 291.719 318.109 292.222 319.006 293.119C319.903 294.016 320.406 295.232 320.406 296.5Z"/>
</mask>
<path d="M191.312 119.594H133.938C130.133 119.594 126.485 121.105 123.795 123.795C121.105 126.485 119.594 130.133 119.594 133.937V191.312C119.594 195.116 121.105 198.765 123.795 201.455C126.485 204.145 130.133 205.656 133.938 205.656H191.312C195.117 205.656 198.765 204.145 201.455 201.455C204.145 198.765 205.656 195.116 205.656 191.312V133.937C205.656 130.133 204.145 126.485 201.455 123.795C198.765 121.105 195.117 119.594 191.312 119.594ZM196.094 191.312C196.094 192.58 195.59 193.796 194.693 194.693C193.797 195.59 192.581 196.094 191.312 196.094H133.938C132.669 196.094 131.453 195.59 130.557 194.693C129.66 193.796 129.156 192.58 129.156 191.312V133.937C129.156 132.669 129.66 131.453 130.557 130.556C131.453 129.66 132.669 129.156 133.938 129.156H191.312C192.581 129.156 193.797 129.66 194.693 130.556C195.59 131.453 196.094 132.669 196.094 133.937V191.312ZM191.312 234.344H133.938C130.133 234.344 126.485 235.855 123.795 238.545C121.105 241.235 119.594 244.883 119.594 248.687V306.062C119.594 309.866 121.105 313.515 123.795 316.205C126.485 318.895 130.133 320.406 133.938 320.406H191.312C195.117 320.406 198.765 318.895 201.455 316.205C204.145 313.515 205.656 309.866 205.656 306.062V248.687C205.656 244.883 204.145 241.235 201.455 238.545C198.765 235.855 195.117 234.344 191.312 234.344ZM196.094 306.062C196.094 307.33 195.59 308.546 194.693 309.443C193.797 310.34 192.581 310.844 191.312 310.844H133.938C132.669 310.844 131.453 310.34 130.557 309.443C129.66 308.546 129.156 307.33 129.156 306.062V248.687C129.156 247.419 129.66 246.203 130.557 245.306C131.453 244.41 132.669 243.906 133.938 243.906H191.312C192.581 243.906 193.797 244.41 194.693 245.306C195.59 246.203 196.094 247.419 196.094 248.687V306.062ZM306.062 119.594H248.688C244.883 119.594 241.235 121.105 238.545 123.795C235.855 126.485 234.344 130.133 234.344 133.937V191.312C234.344 195.116 235.855 198.765 238.545 201.455C241.235 204.145 244.883 205.656 248.688 205.656H306.062C309.867 205.656 313.515 204.145 316.205 201.455C318.895 198.765 320.406 195.116 320.406 191.312V133.937C320.406 130.133 318.895 126.485 316.205 123.795C313.515 121.105 309.867 119.594 306.062 119.594ZM310.844 191.312C310.844 192.58 310.34 193.796 309.443 194.693C308.547 195.59 307.331 196.094 306.062 196.094H248.688C247.419 196.094 246.203 195.59 245.307 194.693C244.41 193.796 243.906 192.58 243.906 191.312V133.937C243.906 132.669 244.41 131.453 245.307 130.556C246.203 129.66 247.419 129.156 248.688 129.156H306.062C307.331 129.156 308.547 129.66 309.443 130.556C310.34 131.453 310.844 132.669 310.844 133.937V191.312ZM234.344 277.375V239.125C234.344 237.857 234.847 236.641 235.744 235.744C236.641 234.847 237.857 234.344 239.125 234.344C240.393 234.344 241.609 234.847 242.506 235.744C243.403 236.641 243.906 237.857 243.906 239.125V277.375C243.906 278.643 243.403 279.859 242.506 280.756C241.609 281.652 240.393 282.156 239.125 282.156C237.857 282.156 236.641 281.652 235.744 280.756C234.847 279.859 234.344 278.643 234.344 277.375ZM320.406 258.25C320.406 259.518 319.903 260.734 319.006 261.631C318.109 262.527 316.893 263.031 315.625 263.031H282.156V315.625C282.156 316.893 281.653 318.109 280.756 319.006C279.859 319.902 278.643 320.406 277.375 320.406H239.125C237.857 320.406 236.641 319.902 235.744 319.006C234.847 318.109 234.344 316.893 234.344 315.625C234.344 314.357 234.847 313.141 235.744 312.244C236.641 311.347 237.857 310.844 239.125 310.844H272.594V239.125C272.594 237.857 273.097 236.641 273.994 235.744C274.891 234.847 276.107 234.344 277.375 234.344C278.643 234.344 279.859 234.847 280.756 235.744C281.653 236.641 282.156 237.857 282.156 239.125V253.469H315.625C316.893 253.469 318.109 253.972 319.006 254.869C319.903 255.766 320.406 256.982 320.406 258.25ZM320.406 296.5V315.625C320.406 316.893 319.903 318.109 319.006 319.006C318.109 319.902 316.893 320.406 315.625 320.406C314.357 320.406 313.141 319.902 312.244 319.006C311.347 318.109 310.844 316.893 310.844 315.625V296.5C310.844 295.232 311.347 294.016 312.244 293.119C313.141 292.222 314.357 291.719 315.625 291.719C316.893 291.719 318.109 292.222 319.006 293.119C319.903 294.016 320.406 295.232 320.406 296.5Z" fill="white" stroke="#00183C" stroke-width="4" mask="url(#path-5-inside-1_2740_7)"/>
<defs>
<radialGradient id="paint0_radial_2740_7" cx="0" cy="0" r="1" gradientUnits="userSpaceOnUse" gradientTransform="translate(220.25 224.5) scale(165.248 165.502)">
<stop stop-color="#00BCFF"/>
<stop offset="0.653855" stop-color="#00BCFF" stop-opacity="0.1"/>
<stop offset="1" stop-color="#00BCFF" stop-opacity="0"/>
</radialGradient>
</defs>
</svg>
