<svg width="40" height="40" viewBox="0 0 40 40" fill="none" xmlns="http://www.w3.org/2000/svg">
<rect width="40" height="40" rx="7.5" fill="#00BCFF"/>
<path d="M20.9375 24.875C20.9375 25.0604 20.8825 25.2417 20.7795 25.3958C20.6765 25.55 20.5301 25.6702 20.3588 25.7411C20.1875 25.8121 19.999 25.8307 19.8171 25.7945C19.6353 25.7583 19.4682 25.669 19.3371 25.5379C19.206 25.4068 19.1167 25.2398 19.0805 25.0579C19.0443 24.876 19.0629 24.6875 19.1339 24.5162C19.2048 24.3449 19.325 24.1985 19.4792 24.0955C19.6333 23.9925 19.8146 23.9375 20 23.9375C20.2486 23.9375 20.4871 24.0363 20.6629 24.2121C20.8387 24.3879 20.9375 24.6264 20.9375 24.875ZM20 14.9375C18.0313 14.9375 16.4375 16.3672 16.4375 18.125V18.5C16.4375 18.6492 16.4968 18.7923 16.6023 18.8977C16.7077 19.0032 16.8508 19.0625 17 19.0625C17.1492 19.0625 17.2923 19.0032 17.3978 18.8977C17.5032 18.7923 17.5625 18.6492 17.5625 18.5V18.125C17.5625 16.9878 18.6556 16.0625 20 16.0625C21.3444 16.0625 22.4375 16.9878 22.4375 18.125C22.4375 19.2622 21.3444 20.1875 20 20.1875C19.8508 20.1875 19.7077 20.2468 19.6023 20.3523C19.4968 20.4577 19.4375 20.6008 19.4375 20.75V21.5C19.4375 21.6492 19.4968 21.7923 19.6023 21.8977C19.7077 22.0032 19.8508 22.0625 20 22.0625C20.1492 22.0625 20.2923 22.0032 20.3978 21.8977C20.5032 21.7923 20.5625 21.6492 20.5625 21.5V21.2731C22.2603 21.0312 23.5625 19.7113 23.5625 18.125C23.5625 16.3672 21.9688 14.9375 20 14.9375ZM29.5625 20C29.5625 21.8913 29.0017 23.7401 27.9509 25.3126C26.9002 26.8852 25.4067 28.1108 23.6594 28.8346C21.9121 29.5584 19.9894 29.7477 18.1345 29.3788C16.2795 29.0098 14.5756 28.099 13.2383 26.7617C11.901 25.4244 10.9902 23.7205 10.6212 21.8656C10.2523 20.0106 10.4416 18.0879 11.1654 16.3406C11.8892 14.5933 13.1148 13.0998 14.6874 12.0491C16.2599 10.9983 18.1087 10.4375 20 10.4375C22.5352 10.4405 24.9658 11.4489 26.7584 13.2416C28.5511 15.0343 29.5595 17.4648 29.5625 20ZM28.4375 20C28.4375 18.3312 27.9427 16.6999 27.0155 15.3124C26.0884 13.9248 24.7706 12.8434 23.2289 12.2048C21.6871 11.5662 19.9906 11.3991 18.3539 11.7246C16.7172 12.0502 15.2138 12.8538 14.0338 14.0338C12.8538 15.2138 12.0502 16.7172 11.7246 18.3539C11.3991 19.9906 11.5662 21.6871 12.2048 23.2289C12.8434 24.7706 13.9248 26.0884 15.3124 27.0155C16.6999 27.9426 18.3312 28.4375 20 28.4375C22.237 28.435 24.3817 27.5453 25.9635 25.9635C27.5453 24.3817 28.435 22.237 28.4375 20Z" fill="#0A0A0A"/>
</svg>
