<svg width="440" height="440" viewBox="0 0 440 440" fill="none" xmlns="http://www.w3.org/2000/svg">
<path opacity="0.6" d="M421 367.284L292.883 255.308L275.734 261.361L282.795 292.633L272.707 294.651L216.215 264.387L166.784 294.651L155.687 290.616L159.722 261.361L144.59 256.317L19.5 367.284L421 367.284Z" fill="url(#paint0_linear_2482_1994)"/>
<path d="M149.428 256.72L186.009 271.807C190.724 273.735 195.243 268.833 193.14 264.156L177.004 228.369C176.563 227.376 176.412 226.279 176.567 225.203C176.723 224.128 177.179 223.119 177.884 222.291L203.048 192.481C206.336 188.603 203.238 182.486 198.154 183.046L159.205 187.357C158.144 187.481 157.069 187.293 156.112 186.816C155.156 186.339 154.359 185.594 153.819 184.672L133.082 151.042C132.518 150.064 131.666 149.284 130.643 148.806C129.62 148.329 128.474 148.178 127.362 148.374C126.25 148.57 125.226 149.104 124.427 149.903C123.629 150.701 123.096 151.726 122.9 152.838L114.916 191.532C114.724 192.583 114.23 193.556 113.494 194.331C112.758 195.106 111.812 195.65 110.772 195.897L72.6981 205.168C67.7296 206.38 66.9108 213.188 71.3259 215.707L105.169 235.113C106.114 235.649 106.888 236.442 107.402 237.399C107.916 238.356 108.149 239.439 108.075 240.523L105.386 276.803C104.92 282.942 112.027 286.602 116.489 282.517L143.684 257.733C144.446 257.036 145.391 256.57 146.409 256.391C147.426 256.212 148.473 256.326 149.428 256.72Z" fill="#00183C" stroke="white" stroke-width="5" stroke-linecap="round" stroke-linejoin="round"/>
<path d="M295.477 257.733L324.692 284.421C328.462 287.846 334.386 284.785 334.009 279.671L331.086 240.523C331.011 239.439 331.245 238.356 331.759 237.399C332.273 236.442 333.047 235.649 333.992 235.113L367.835 215.707C372.25 213.188 371.431 206.38 366.462 205.168L328.388 195.897C327.348 195.65 326.403 195.106 325.667 194.331C324.931 193.556 324.437 192.583 324.245 191.532L316.261 152.838C316.065 151.726 315.532 150.701 314.733 149.902C313.935 149.104 312.91 148.57 311.798 148.374C310.686 148.178 309.541 148.329 308.517 148.806C307.494 149.284 306.642 150.064 306.078 151.042L285.342 184.672C284.802 185.594 284.005 186.339 283.048 186.816C282.091 187.293 281.017 187.481 279.955 187.356L241.006 183.046C235.923 182.486 232.825 188.603 236.112 192.481L261.277 222.291C261.981 223.118 262.438 224.128 262.593 225.203C262.749 226.279 262.598 227.376 262.157 228.369L247.222 261.541C244.685 267.151 250.111 273.021 255.701 270.709L289.733 256.72C290.687 256.326 291.735 256.211 292.752 256.391C293.769 256.57 294.714 257.036 295.477 257.733Z" fill="#00183C" stroke="white" stroke-width="5" stroke-linecap="round" stroke-linejoin="round"/>
<path opacity="0.8" d="M352.402 204.867C352.402 277.857 293.235 337.02 220.245 337.02C147.265 337.02 88.0979 277.857 88.0979 204.867C88.0979 131.885 147.265 72.716 220.245 72.716C293.235 72.716 352.402 131.885 352.402 204.867Z" fill="url(#paint1_radial_2482_1994)"/>
<path d="M223.07 264.983L270.812 295.296C276.969 299.18 284.547 293.401 282.748 286.297L268.918 231.924C268.544 230.417 268.603 228.835 269.089 227.36C269.575 225.885 270.468 224.577 271.665 223.588L314.481 187.876C320.07 183.235 317.228 173.857 309.934 173.383L254.046 169.783C252.521 169.695 251.055 169.164 249.827 168.255C248.599 167.347 247.662 166.1 247.131 164.668L226.291 112.19C225.739 110.673 224.734 109.363 223.412 108.437C222.091 107.512 220.516 107.015 218.902 107.015C217.288 107.015 215.714 107.512 214.392 108.437C213.07 109.363 212.065 110.673 211.513 112.19L190.674 164.668C190.143 166.1 189.206 167.347 187.978 168.255C186.75 169.164 185.284 169.695 183.759 169.783L127.87 173.383C120.576 173.857 117.734 183.235 123.323 187.876L166.14 223.588C167.336 224.577 168.229 225.885 168.715 227.36C169.201 228.835 169.261 230.417 168.887 231.924L156.099 282.318C153.92 290.844 163.014 297.759 170.308 293.117L214.734 264.983C215.98 264.191 217.426 263.77 218.902 263.77C220.378 263.77 221.824 264.191 223.07 264.983Z" fill="#00183C" stroke="white" stroke-width="5" stroke-linecap="round" stroke-linejoin="round"/>
<defs>
<linearGradient id="paint0_linear_2482_1994" x1="220.25" y1="366.236" x2="220.25" y2="177.776" gradientUnits="userSpaceOnUse">
<stop stop-color="#00BCFF" stop-opacity="0"/>
<stop offset="0.269342" stop-color="#00BCFF" stop-opacity="0.2"/>
<stop offset="1" stop-color="#00BCFF" stop-opacity="0.5"/>
</linearGradient>
<radialGradient id="paint1_radial_2482_1994" cx="0" cy="0" r="1" gradientUnits="userSpaceOnUse" gradientTransform="translate(220.25 204.868) scale(132.151 132.153)">
<stop stop-color="#00BCFF"/>
<stop offset="0.653855" stop-color="#00BCFF" stop-opacity="0.1"/>
<stop offset="1" stop-color="#00BCFF" stop-opacity="0"/>
</radialGradient>
</defs>
</svg>
