<svg width="440" height="440" viewBox="0 0 440 440" fill="none" xmlns="http://www.w3.org/2000/svg">
<path d="M385.5 224.498C385.5 315.908 311.514 390 220.244 390C128.985 390 55 315.908 55 224.498C55 133.1 128.985 59 220.244 59C311.514 59 385.5 133.1 385.5 224.498Z" fill="url(#paint0_radial_2482_1890)"/>
<path d="M127.562 141.836V157.469V220L136.738 253.984L159.848 296.125L217.281 330.449L232.574 323.652L274.035 300.203L303.941 259.422L312.098 223.398V146.594L307 136.398L261.801 134.699H138.438L127.562 141.836Z" fill="#00183C"/>
<path d="M301.562 130.281H138.438C134.111 130.281 129.962 132 126.903 135.059C123.844 138.118 122.125 142.267 122.125 146.594V206.522C122.125 297.882 199.426 328.193 214.902 333.341C218.208 334.465 221.792 334.465 225.098 333.341C240.595 328.193 317.875 297.882 317.875 206.522V146.594C317.875 142.267 316.156 138.118 313.097 135.059C310.038 132 305.889 130.281 301.562 130.281ZM308.359 206.532C308.359 286.484 233.917 319.992 220 324.641C206.206 320.043 131.641 286.555 131.641 206.532V146.594C131.641 142.84 134.684 139.797 138.438 139.797H301.562C305.316 139.797 308.359 142.84 308.359 146.594V206.532Z" fill="white" stroke="#00183C" stroke-width="5.5"/>
<path d="M190.094 226.571C190.094 227.893 190.619 229.162 191.554 230.097L206.506 245.049C206.969 245.512 207.519 245.88 208.124 246.13C208.729 246.381 209.377 246.51 210.032 246.51C210.687 246.51 211.336 246.381 211.941 246.13C212.546 245.88 213.096 245.512 213.558 245.049L248.446 210.161C248.909 209.698 249.276 209.148 249.527 208.543C249.777 207.938 249.906 207.29 249.906 206.635C249.906 205.98 249.777 205.332 249.527 204.727C249.276 204.122 248.909 203.572 248.446 203.109C247.983 202.646 247.433 202.278 246.828 202.028C246.223 201.777 245.575 201.648 244.92 201.648C244.265 201.648 243.616 201.777 243.011 202.028C242.406 202.278 241.857 202.646 241.394 203.109L210.032 234.47L198.607 223.044C197.671 222.109 196.403 221.584 195.08 221.584C193.758 221.584 192.49 222.109 191.554 223.044C190.619 223.98 190.094 225.248 190.094 226.571Z" fill="white"/>
<defs>
<radialGradient id="paint0_radial_2482_1890" cx="0" cy="0" r="1" gradientUnits="userSpaceOnUse" gradientTransform="translate(220.25 224.5) scale(165.248 165.502)">
<stop stop-color="#00BCFF"/>
<stop offset="0.653855" stop-color="#00BCFF" stop-opacity="0.1"/>
<stop offset="1" stop-color="#00BCFF" stop-opacity="0"/>
</radialGradient>
</defs>
</svg>
