<svg width="32" height="32" viewBox="0 0 32 32" fill="none" xmlns="http://www.w3.org/2000/svg">
<path d="M27.75 28C27.75 28.1989 27.671 28.3897 27.5303 28.5303C27.3897 28.671 27.1989 28.75 27 28.75H5C4.80109 28.75 4.61032 28.671 4.46967 28.5303C4.32902 28.3897 4.25 28.1989 4.25 28C4.25 27.8011 4.32902 27.6103 4.46967 27.4697C4.61032 27.329 4.80109 27.25 5 27.25H27C27.1989 27.25 27.3897 27.329 27.5303 27.4697C27.671 27.6103 27.75 27.8011 27.75 28ZM27.75 18V23C27.75 23.4641 27.5656 23.9092 27.2374 24.2374C26.9092 24.5656 26.4641 24.75 26 24.75H6C5.53587 24.75 5.09075 24.5656 4.76256 24.2374C4.43437 23.9092 4.25 23.4641 4.25 23V18C4.25 17.5359 4.43437 17.0908 4.76256 16.7626C5.09075 16.4344 5.53587 16.25 6 16.25H13.3625L11.335 6.78625C11.2178 6.23962 11.2243 5.67369 11.354 5.12989C11.4837 4.58609 11.7334 4.07817 12.0847 3.64331C12.4361 3.20844 12.8802 2.85764 13.3846 2.61656C13.889 2.37549 14.4409 2.25025 15 2.25H17C17.5592 2.25006 18.1112 2.37517 18.6158 2.61616C19.1204 2.85715 19.5647 3.20793 19.9161 3.64282C20.2676 4.07771 20.5174 4.58569 20.6472 5.12959C20.777 5.67348 20.7835 6.23951 20.6663 6.78625L18.6375 16.25H26C26.4641 16.25 26.9092 16.4344 27.2374 16.7626C27.5656 17.0908 27.75 17.5359 27.75 18ZM14.8962 16.25H17.1038L19.1987 6.47125C19.269 6.14333 19.265 5.80385 19.1872 5.47765C19.1093 5.15145 18.9595 4.84678 18.7488 4.58592C18.538 4.32507 18.2716 4.11463 17.969 3.97C17.6664 3.82537 17.3354 3.7502 17 3.75H15C14.6645 3.75001 14.3333 3.82504 14.0306 3.96959C13.7279 4.11415 13.4613 4.32456 13.2504 4.58544C13.0395 4.84631 12.8896 5.15105 12.8116 5.47734C12.7337 5.80364 12.7297 6.14322 12.8 6.47125L14.8962 16.25ZM26.25 18C26.25 17.9337 26.2237 17.8701 26.1768 17.8232C26.1299 17.7763 26.0663 17.75 26 17.75H6C5.9337 17.75 5.87011 17.7763 5.82322 17.8232C5.77634 17.8701 5.75 17.9337 5.75 18V23C5.75 23.0663 5.77634 23.1299 5.82322 23.1768C5.87011 23.2237 5.9337 23.25 6 23.25H26C26.0663 23.25 26.1299 23.2237 26.1768 23.1768C26.2237 23.1299 26.25 23.0663 26.25 23V18Z" fill="#A0A0A0"/>
</svg>
