<svg width="440" height="440" viewBox="0 0 440 440" fill="none" xmlns="http://www.w3.org/2000/svg">
<path d="M341 219.999C341 286.278 286.714 340 219.746 340C152.786 340 98.5 286.278 98.5 219.999C98.5 153.728 152.786 100 219.746 100C286.714 100 341 153.728 341 219.999Z" fill="url(#paint0_radial_2482_1880)"/>
<path d="M209.681 298.16L147.841 360.001L86.0001 298.16H116.92L116.92 146.994C116.92 145.628 117.463 144.317 118.43 143.35C119.396 142.384 120.707 141.841 122.074 141.841H173.608C174.974 141.841 176.285 142.384 177.252 143.35C178.218 144.317 178.761 145.628 178.761 146.994L178.761 298.16H209.681Z" fill="#00183C" stroke="white" stroke-width="5" stroke-linecap="round" stroke-linejoin="round"/>
<path d="M230.218 141.841L292.059 80L353.899 141.841H322.979V293.006C322.979 294.373 322.436 295.684 321.47 296.65C320.503 297.617 319.192 298.16 317.826 298.16H266.292C264.925 298.16 263.614 297.617 262.648 296.65C261.681 295.684 261.138 294.373 261.138 293.006V141.841H230.218Z" fill="#00183C" stroke="white" stroke-width="5" stroke-linecap="round" stroke-linejoin="round"/>
<circle cx="220.264" cy="219.264" r="56.7639" fill="#00183C" stroke="#D9D9D9" stroke-width="5"/>
<path d="M220.327 255.027C218.398 255.027 216.72 253.978 216.72 251.462V248.149C210.891 247.604 205.649 245.716 202.294 242.655C199.735 240.432 198.309 237.874 198.309 235.399C198.309 232.59 200.239 230.954 202.797 230.954C204.391 230.954 205.565 231.415 207.704 233.554C211.478 237.622 215.63 239.509 220.621 239.509C227.289 239.509 231.021 236.49 231.021 231.709C231.021 228.018 228.463 225.838 222.256 224.37L213.743 222.399C204.181 220.26 199.19 214.85 199.19 206.714C199.19 197.403 206.11 190.903 216.972 189.896V186.541C216.972 184.025 218.65 183.019 220.537 183.019C222.466 183.019 224.143 184.067 224.143 186.541V190.022C229.386 190.693 234.041 192.622 237.144 195.558C239.493 197.865 240.877 200.423 240.877 202.771C240.877 205.204 239.074 206.839 236.725 206.839C234.796 206.839 233.37 206.127 231.525 204.197C227.876 200.129 224.605 198.536 219.908 198.536C214.12 198.536 210.43 201.639 210.43 205.917C210.43 209.482 213.03 211.914 218.356 213.088L226.869 215.017C237.228 217.282 242.219 222.315 242.219 230.619C242.219 240.264 235.173 246.891 223.892 248.107V251.462C223.892 253.978 222.214 255.027 220.327 255.027Z" fill="white"/>
<defs>
<radialGradient id="paint0_radial_2482_1880" cx="0" cy="0" r="1" gradientUnits="userSpaceOnUse" gradientTransform="translate(219.75 220) scale(121.249 120.001)">
<stop stop-color="#00BCFF"/>
<stop offset="0.653855" stop-color="#00BCFF" stop-opacity="0.1"/>
<stop offset="1" stop-color="#00BCFF" stop-opacity="0"/>
</radialGradient>
</defs>
</svg>
