<svg width="440" height="440" viewBox="0 0 440 440" fill="none" xmlns="http://www.w3.org/2000/svg">
<path d="M379.812 224.392C379.812 312.546 308.354 384 220.201 384C132.059 384 60.6006 312.546 60.6006 224.392C60.6006 136.249 132.059 64.7877 220.201 64.7877C308.354 64.7877 379.812 136.249 379.812 224.392Z" fill="url(#paint0_radial_2482_1985)"/>
<path d="M113.764 165.971H320.138C326.013 165.971 330.776 170.733 330.776 176.609V312.773C330.776 317.473 326.966 321.284 322.266 321.284H128.657C120.431 321.284 113.764 314.616 113.764 306.391V165.971Z" fill="#00183C"/>
<path fill-rule="evenodd" clip-rule="evenodd" d="M124.209 170.512L115.698 167.503V301.361C115.698 305.568 117.369 309.602 120.343 312.576C123.318 315.551 127.352 317.222 131.558 317.222H327.488V171.773H131.558C129.03 171.773 126.547 171.339 124.209 170.512ZM131.558 133.863C127.352 133.863 123.318 135.534 120.343 138.509C117.369 141.483 115.698 145.517 115.698 149.723C115.698 153.93 117.369 157.964 120.343 160.938C123.318 163.913 127.352 165.584 131.558 165.584H321.106C324.44 165.584 327.638 166.908 329.995 169.266C332.353 171.624 333.678 174.821 333.678 178.156V310.839C333.678 314.173 332.353 317.371 329.995 319.729C327.638 322.086 324.44 323.411 321.106 323.411H131.558C125.71 323.411 120.102 321.088 115.967 316.953C111.832 312.818 109.509 307.209 109.509 301.361V149.723C109.509 143.876 111.832 138.267 115.967 134.132C120.102 129.997 125.71 127.674 131.558 127.674H292.674C294.383 127.674 295.768 129.06 295.768 130.769C295.768 132.478 294.383 133.863 292.674 133.863H131.558Z" fill="white"/>
<path opacity="0.6" d="M25 27.5L119.115 159.298C122.119 163.504 126.968 166 132.136 166H317.009L416.5 27.5H25Z" fill="url(#paint1_linear_2482_1985)"/>
<g filter="url(#filter0_dd_2482_1985)">
<path d="M278.458 253.011C283.16 253.011 286.972 249.199 286.972 244.497C286.972 239.795 283.16 235.983 278.458 235.983C273.755 235.983 269.943 239.795 269.943 244.497C269.943 249.199 273.755 253.011 278.458 253.011Z" fill="white"/>
</g>
<path fill-rule="evenodd" clip-rule="evenodd" d="M277.455 163.203C278.263 162.395 279.36 161.94 280.504 161.94H310.687C311.83 161.94 312.927 162.395 313.735 163.203C314.544 164.012 314.998 165.109 314.998 166.252V213.682C314.998 214.466 314.573 215.188 313.888 215.568C313.202 215.948 312.364 215.926 311.7 215.511L295.595 205.445L279.49 215.511C278.826 215.926 277.988 215.948 277.303 215.568C276.617 215.188 276.192 214.466 276.192 213.682V166.252C276.192 165.109 276.646 164.012 277.455 163.203Z" fill="white"/>
<defs>
<filter id="filter0_dd_2482_1985" x="226.825" y="192.864" width="103.265" height="103.265" filterUnits="userSpaceOnUse" color-interpolation-filters="sRGB">
<feFlood flood-opacity="0" result="BackgroundImageFix"/>
<feColorMatrix in="SourceAlpha" type="matrix" values="0 0 0 0 0 0 0 0 0 0 0 0 0 0 0 0 0 0 127 0" result="hardAlpha"/>
<feOffset/>
<feGaussianBlur stdDeviation="21.5591"/>
<feComposite in2="hardAlpha" operator="out"/>
<feColorMatrix type="matrix" values="0 0 0 0 0.141176 0 0 0 0 0.780392 0 0 0 0 0.462745 0 0 0 0.5 0"/>
<feBlend mode="normal" in2="BackgroundImageFix" result="effect1_dropShadow_2482_1985"/>
<feColorMatrix in="SourceAlpha" type="matrix" values="0 0 0 0 0 0 0 0 0 0 0 0 0 0 0 0 0 0 127 0" result="hardAlpha"/>
<feOffset dy="8.62365"/>
<feGaussianBlur stdDeviation="4.31183"/>
<feComposite in2="hardAlpha" operator="out"/>
<feColorMatrix type="matrix" values="0 0 0 0 0 0 0 0 0 0 0 0 0 0 0 0 0 0 0.25 0"/>
<feBlend mode="normal" in2="effect1_dropShadow_2482_1985" result="effect2_dropShadow_2482_1985"/>
<feBlend mode="normal" in="SourceGraphic" in2="effect2_dropShadow_2482_1985" result="shape"/>
</filter>
<radialGradient id="paint0_radial_2482_1985" cx="0" cy="0" r="1" gradientUnits="userSpaceOnUse" gradientTransform="translate(220.207 224.394) scale(159.604 159.607)">
<stop stop-color="#00BCFF"/>
<stop offset="0.653855" stop-color="#00BCFF" stop-opacity="0.1"/>
<stop offset="1" stop-color="#00BCFF" stop-opacity="0"/>
</radialGradient>
<linearGradient id="paint1_linear_2482_1985" x1="223.75" y1="28.8319" x2="223.75" y2="268.408" gradientUnits="userSpaceOnUse">
<stop stop-color="#00BCFF" stop-opacity="0"/>
<stop offset="0.269342" stop-color="#00BCFF" stop-opacity="0.2"/>
<stop offset="1" stop-color="#00BCFF" stop-opacity="0.5"/>
</linearGradient>
</defs>
</svg>
