<svg width="21" height="19" viewBox="0 0 21 19" fill="none" xmlns="http://www.w3.org/2000/svg">
<path d="M20.701 15.3835L12.5026 1.14569C12.2977 0.796866 12.0052 0.507642 11.6541 0.306681C11.303 0.10572 10.9055 0 10.501 0C10.0965 0 9.69896 0.10572 9.34787 0.306681C8.99679 0.507642 8.70431 0.796866 8.49944 1.14569L0.301006 15.3835C0.103883 15.7209 0 16.1046 0 16.4954C0 16.8861 0.103883 17.2699 0.301006 17.6072C0.503253 17.9582 0.795228 18.249 1.14697 18.4498C1.49871 18.6506 1.89755 18.7543 2.30257 18.7501H18.6994C19.1041 18.7539 19.5026 18.6501 19.854 18.4493C20.2054 18.2485 20.497 17.9579 20.6991 17.6072C20.8965 17.27 21.0007 16.8864 21.0011 16.4956C21.0014 16.1049 20.8978 15.7211 20.701 15.3835ZM9.75101 7.50006C9.75101 7.30115 9.83002 7.11038 9.97068 6.96973C10.1113 6.82908 10.3021 6.75006 10.501 6.75006C10.6999 6.75006 10.8907 6.82908 11.0313 6.96973C11.172 7.11038 11.251 7.30115 11.251 7.50006V11.2501C11.251 11.449 11.172 11.6397 11.0313 11.7804C10.8907 11.921 10.6999 12.0001 10.501 12.0001C10.3021 12.0001 10.1113 11.921 9.97068 11.7804C9.83002 11.6397 9.75101 11.449 9.75101 11.2501V7.50006ZM10.501 15.7501C10.2785 15.7501 10.061 15.6841 9.87599 15.5605C9.69098 15.4368 9.54679 15.2611 9.46164 15.0556C9.37649 14.85 9.35421 14.6238 9.39762 14.4056C9.44103 14.1874 9.54818 13.9869 9.70551 13.8296C9.86284 13.6722 10.0633 13.5651 10.2815 13.5217C10.4998 13.4783 10.726 13.5005 10.9315 13.5857C11.1371 13.6708 11.3128 13.815 11.4364 14C11.56 14.1851 11.626 14.4026 11.626 14.6251C11.626 14.9234 11.5075 15.2096 11.2965 15.4206C11.0855 15.6315 10.7994 15.7501 10.501 15.7501Z" fill="#FDC700"/>
</svg>
