<svg width="33" height="33" viewBox="0 0 33 33" fill="none" xmlns="http://www.w3.org/2000/svg">
<circle cx="16.7568" cy="16.7568" r="16" fill="#006C7F"/>
<path fill-rule="evenodd" clip-rule="evenodd" d="M11.8257 11.2024C11.0165 12.5896 10.4937 14.5518 10.4937 16.7568C10.4937 18.9619 11.0165 20.9241 11.8257 22.3113C12.6449 23.7156 13.6743 24.412 14.6692 24.412C15.6642 24.412 16.6936 23.7156 17.5128 22.3113C18.322 20.9241 18.8448 18.9619 18.8448 16.7568C18.8448 14.5518 18.322 12.5896 17.5128 11.2024C16.6936 9.79807 15.6642 9.10163 14.6692 9.10163C13.6743 9.10163 12.6449 9.79807 11.8257 11.2024ZM10.6234 10.501C11.5674 8.88281 12.9737 7.70978 14.6692 7.70978C16.3647 7.70978 17.7711 8.88281 18.715 10.501C19.669 12.1364 20.2367 14.3497 20.2367 16.7568C20.2367 19.164 19.669 21.3773 18.715 23.0126C17.7711 24.6309 16.3647 25.8039 14.6692 25.8039C12.9737 25.8039 11.5674 24.6309 10.6234 23.0126C9.6695 21.3773 9.10181 19.164 9.10181 16.7568C9.10181 14.3497 9.6695 12.1364 10.6234 10.501Z" fill="white"/>
<path fill-rule="evenodd" clip-rule="evenodd" d="M13.9733 8.40571C13.9733 8.02136 14.2849 7.70978 14.6692 7.70978H18.8448C20.5393 7.70978 21.9456 8.88351 22.8897 10.5016C23.8438 12.137 24.4122 14.3503 24.4122 16.7568C24.4122 19.1634 23.8438 21.3766 22.8897 23.0121C21.9456 24.6302 20.5393 25.8039 18.8448 25.8039H14.6692C14.2849 25.8039 13.9733 25.4923 13.9733 25.108C13.9733 24.7236 14.2849 24.412 14.6692 24.412H18.8448C19.8383 24.412 20.8678 23.7155 21.6875 22.3106C22.497 20.9231 23.0204 18.9609 23.0204 16.7568C23.0204 14.5528 22.497 12.5906 21.6875 11.203C20.8678 9.79821 19.8383 9.10163 18.8448 9.10163H14.6692C14.2849 9.10163 13.9733 8.79006 13.9733 8.40571Z" fill="white"/>
<path fill-rule="evenodd" clip-rule="evenodd" d="M17.6008 11.1894C17.6008 10.8051 17.9123 10.4935 18.2967 10.4935H22.4723C22.8566 10.4935 23.1682 10.8051 23.1682 11.1894C23.1682 11.5738 22.8566 11.8853 22.4723 11.8853H18.2967C17.9123 11.8853 17.6008 11.5738 17.6008 11.1894Z" fill="white"/>
<path fill-rule="evenodd" clip-rule="evenodd" d="M18.8448 16.7568C18.8448 16.3725 19.1564 16.0609 19.5407 16.0609H23.7163C24.1006 16.0609 24.4122 16.3725 24.4122 16.7568C24.4122 17.1412 24.1006 17.4528 23.7163 17.4528H19.5407C19.1564 17.4528 18.8448 17.1412 18.8448 16.7568Z" fill="white"/>
<path fill-rule="evenodd" clip-rule="evenodd" d="M17.6008 22.3243C17.6008 21.9399 17.9123 21.6283 18.2967 21.6283H22.4723C22.8566 21.6283 23.1682 21.9399 23.1682 22.3243C23.1682 22.7086 22.8566 23.0202 22.4723 23.0202H18.2967C17.9123 23.0202 17.6008 22.7086 17.6008 22.3243Z" fill="white"/>
</svg>
