<svg width="50" height="50" viewBox="0 0 50 50" fill="none" xmlns="http://www.w3.org/2000/svg">
<path d="M0 0L50 50V25L25 0H0Z" fill="white"/>
<path d="M19.8202 13.1842L25.4757 7.52874L27.9823 10.0354C29.0223 11.0753 29.2046 12.2934 28.3345 13.1635C27.6136 13.8844 26.7435 13.8264 26.0889 13.3872L26.0267 13.4494C26.6109 14.1247 26.8305 15.2061 25.9397 16.0969C24.9122 17.1244 23.4704 16.8344 22.3683 15.7323L19.8202 13.1842ZM25.861 9.85307L24.531 11.183L25.1898 11.8418C25.8154 12.4674 26.3582 12.4633 26.7601 12.0614C27.1578 11.6637 27.1413 11.1333 26.6648 10.6569L25.861 9.85307ZM23.6527 12.0614L22.1445 13.5695L22.8779 14.3029C23.6112 15.0362 24.1996 15.0528 24.6595 14.5929C25.1194 14.133 25.1194 13.5281 24.5227 12.9315L23.6527 12.0614ZM30.0166 21.2096L28.9311 22.2951L25.1318 18.4958L30.7873 12.8403L34.5866 16.6396L33.5011 17.7252L31.0566 15.2807L29.8343 16.5029L32.1255 18.7941L31.1229 19.7968L28.8317 17.5056L27.5721 18.7651L30.0166 21.2096ZM32.283 25.647L30.9157 24.2797L35.4525 19.7429L33.9154 18.2058L35.0341 17.0871L39.4797 21.5328L38.361 22.6514L36.8198 21.1102L32.283 25.647ZM34.86 28.224L33.4928 26.8568L40.9713 23.0243L42.6451 24.6982L38.8002 32.1642L37.3418 30.7058L38.274 29.0444L36.5256 27.296L34.86 28.224ZM40.5735 25.0793L40.5114 25.0172L37.7686 26.5585L39.0198 27.8097L40.5735 25.0793Z" fill="#232327"/>
</svg>
