<svg width="150" height="59" viewBox="0 0 150 59" fill="none" xmlns="http://www.w3.org/2000/svg">
<g id="green 1" clip-path="url(#clip0_15_1965)">
<g id="Daniel">
<g id="iPhone-13-mini">
<g id="Group">
<path id="Shape" d="M65.5085 17.4494C65.9888 17.8736 66.2332 18.5197 66.2332 19.3848C66.2332 20.5833 65.8109 21.4354 64.9663 21.941C64.1217 22.4466 62.9392 22.7004 61.4186 22.7022H57.9551V11.1854H60.9691C64.1433 11.1854 65.735 12.162 65.7444 14.1152C65.7698 14.7277 65.5482 15.3249 65.1292 15.7725C64.7229 16.2034 64.1929 16.4978 63.6124 16.6152C64.3079 16.7179 64.9629 17.0061 65.5085 17.4494ZM60.1489 15.9213H61.4972C62.013 15.9494 62.5235 15.8062 62.9495 15.514C63.3138 15.2214 63.513 14.7697 63.4832 14.3034C63.5281 13.8412 63.3114 13.3925 62.9214 13.1405C62.3784 12.884 61.779 12.7699 61.1798 12.809H60.1461L60.1489 15.9213ZM63.2922 20.6966C63.7191 20.4522 63.9354 19.9916 63.9326 19.3118C63.9783 18.771 63.7493 18.2433 63.3231 17.9073C62.8297 17.5927 62.2499 17.4413 61.6658 17.4747H60.1489V21.0674H61.4326C62.0736 21.104 62.7134 20.9774 63.2922 20.6994V20.6966Z" fill="#EDEDED"/>
<path id="Shape_2" d="M70.2611 21.0677C70.3562 21.1798 70.4993 21.2393 70.6459 21.2278C70.8161 21.2277 70.9851 21.1993 71.1459 21.1436L71.5953 22.6436C71.1144 22.8425 70.5989 22.9446 70.0785 22.9441C69.5114 22.9839 68.9543 22.7795 68.5476 22.3823C68.1603 21.9098 67.9701 21.3061 68.0167 20.6969V10.357L70.1487 10.1211V20.5509C70.1358 20.7304 70.1748 20.9098 70.2611 21.0677Z" fill="#EDEDED"/>
<path id="Shape_3" d="M79.4944 14.888C80.2247 15.7119 80.588 16.8468 80.5843 18.2925C80.6042 19.1329 80.4353 19.967 80.0899 20.7335C79.7794 21.405 79.2796 21.9713 78.6517 22.3627C77.9849 22.7647 77.2165 22.9665 76.4382 22.9441C75.1377 22.9441 74.1208 22.534 73.3877 21.7054C72.6545 20.8767 72.2837 19.7391 72.2837 18.2812C72.2643 17.4439 72.4352 16.6131 72.7837 15.8514C73.0903 15.1775 73.5898 14.6095 74.2191 14.2194C74.8913 13.8177 75.6638 13.615 76.4466 13.6352C77.7388 13.6352 78.7528 14.0453 79.4944 14.888ZM74.5141 18.2812C74.5141 19.3262 74.6714 20.0958 74.986 20.6014C75.2911 21.0864 75.832 21.3713 76.4045 21.3486C76.975 21.3728 77.5133 21.0842 77.809 20.5958C78.1292 20.0958 78.2865 19.3318 78.2865 18.2981C78.2865 17.2644 78.1292 16.5003 77.809 16.0059C77.5097 15.5229 76.9721 15.2401 76.4045 15.2672C75.1348 15.2672 74.5019 16.2737 74.5056 18.2868L74.5141 18.2812Z" fill="#EDEDED"/>
<path id="Shape_4" d="M87.6737 13.8792C88.1542 14.0583 88.5979 14.3239 88.9827 14.6629L88.0164 15.9635C87.7605 15.7601 87.4767 15.5945 87.1737 15.4719C86.8794 15.3648 86.5683 15.3115 86.2551 15.3146C84.9312 15.3146 84.2692 16.3202 84.2692 18.3315C84.2692 19.3502 84.4415 20.0852 84.786 20.5365C85.1326 20.9801 85.6733 21.2274 86.2355 21.1994C86.5348 21.2045 86.8323 21.1521 87.1119 21.0449C87.422 20.9039 87.7143 20.7267 87.9827 20.5169L88.9742 21.9213C88.1753 22.5871 87.1659 22.9475 86.1259 22.9382C85.3554 22.954 84.5951 22.7598 83.9265 22.3764C83.3014 22.0007 82.8027 21.4472 82.4939 20.7865C82.144 20.0234 81.973 19.1904 81.9939 18.3511C81.9774 17.5005 82.1481 16.6566 82.4939 15.8792C82.7974 15.1991 83.2947 14.6236 83.9237 14.2247C84.5787 13.8206 85.3368 13.6147 86.1063 13.632C86.6391 13.6224 87.1696 13.706 87.6737 13.8792Z" fill="#EDEDED"/>
<path id="Shape_5" d="M90.5361 22.6938V10.3483L92.6682 10.1124V22.6966L90.5361 22.6938ZM98.23 22.6938H95.7861L92.7524 17.882L95.6991 13.8792H97.9463L95.0165 17.7612L98.23 22.6938Z" fill="#EDEDED"/>
<path id="Shape_6" d="M105.337 14.6742L104.508 15.9579C103.879 15.4917 103.122 15.2299 102.34 15.2079C101.983 15.1886 101.628 15.2725 101.317 15.4494C101.093 15.586 100.958 15.8304 100.961 16.0927C100.954 16.2711 101.007 16.4468 101.109 16.5927C101.256 16.7602 101.443 16.8886 101.652 16.9663C102.027 17.1245 102.414 17.255 102.809 17.3567C103.587 17.5258 104.314 17.8729 104.935 18.3708C105.408 18.8342 105.657 19.4796 105.618 20.1404C105.647 20.9613 105.247 21.7382 104.562 22.191C103.778 22.7087 102.852 22.969 101.913 22.9354C101.236 22.9468 100.563 22.8344 99.9269 22.6039C99.36 22.3994 98.8368 22.0896 98.3848 21.691L99.4662 20.4747C100.129 21.0337 100.967 21.3428 101.834 21.3483C102.236 21.366 102.635 21.2685 102.983 21.0674C103.251 20.9129 103.415 20.6265 103.413 20.3174C103.424 20.0988 103.371 19.8818 103.258 19.6938C103.111 19.5098 102.917 19.3683 102.697 19.2837C102.276 19.1146 101.844 18.9738 101.404 18.8624C100.67 18.6993 99.9913 18.3446 99.4381 17.8343C99.0121 17.3911 98.784 16.7941 98.8061 16.1798C98.7973 15.7031 98.9465 15.237 99.2303 14.8539C99.5379 14.4444 99.9517 14.1267 100.427 13.9354C100.989 13.7063 101.592 13.5935 102.199 13.6039C103.337 13.5896 104.445 13.9675 105.337 14.6742Z" fill="#EDEDED"/>
<path id="Shape_7" d="M111.351 22.7699C110.97 22.8798 110.576 22.9356 110.179 22.9357C109.442 22.9806 108.72 22.71 108.193 22.1913C107.738 21.711 107.53 20.9947 107.53 20.0508V15.416H106.148V13.8626H107.53V11.916L109.662 11.666V13.8626H111.71L111.497 15.402H109.662V19.9975C109.633 20.3233 109.711 20.6497 109.884 20.9273C110.062 21.1282 110.325 21.2326 110.592 21.2081C110.966 21.1969 111.33 21.0821 111.643 20.8767L112.396 22.2615C112.078 22.4877 111.725 22.6595 111.351 22.7699Z" fill="#EDEDED"/>
<path id="Shape_8" d="M118.836 13.764L118.468 15.8258C118.216 15.7627 117.956 15.7307 117.696 15.7303C117.22 15.7116 116.763 15.9201 116.466 16.2921C116.097 16.7998 115.845 17.3832 115.73 18V22.6826H113.595V13.8624H115.449L115.648 15.5983C115.813 15.0363 116.13 14.5307 116.564 14.1376C116.947 13.8062 117.439 13.6264 117.946 13.632C118.248 13.6312 118.548 13.6757 118.836 13.764Z" fill="#EDEDED"/>
<path id="Shape_9" d="M127.182 18.9302H121.651C121.727 19.7729 121.957 20.3965 122.314 20.7617C122.713 21.1455 123.252 21.3486 123.806 21.3235C124.18 21.3249 124.552 21.2602 124.904 21.1324C125.294 20.9804 125.664 20.7814 126.005 20.5398L126.884 21.7532C125.971 22.5197 124.816 22.9385 123.623 22.9358C122.277 22.9358 121.241 22.5266 120.516 21.7083C119.792 20.8899 119.427 19.7663 119.424 18.3375C119.41 17.5059 119.569 16.6806 119.89 15.9133C120.167 15.2333 120.636 14.648 121.238 14.228C121.856 13.8121 122.589 13.599 123.334 13.6184C124.57 13.6184 125.526 14.0089 126.202 14.7898C126.878 15.5706 127.217 16.6615 127.219 18.0622C127.234 18.3521 127.222 18.6427 127.182 18.9302ZM125.117 17.4499C125.117 15.9049 124.545 15.1324 123.401 15.1324C122.926 15.1095 122.469 15.319 122.176 15.6942C121.881 16.0791 121.707 16.6886 121.651 17.5369H125.117V17.4499Z" fill="#EDEDED"/>
<path id="Shape_10" d="M135.859 21.1015C135.984 21.2786 136.162 21.4106 136.368 21.4779L135.915 22.8965C135.486 22.8703 135.068 22.7474 134.693 22.5369C134.355 22.3172 134.1 21.991 133.969 21.61C133.691 22.0367 133.302 22.3803 132.845 22.6044C132.374 22.8272 131.858 22.9406 131.337 22.9358C130.57 22.9781 129.819 22.7098 129.252 22.1914C128.733 21.6725 128.455 20.9588 128.488 20.2251C128.44 19.3664 128.832 18.5421 129.528 18.0369C130.224 17.5285 131.213 17.2785 132.508 17.2729H133.609V16.7729C133.654 16.3371 133.511 15.9029 133.216 15.5791C132.848 15.324 132.403 15.2067 131.957 15.2476C131.159 15.2827 130.37 15.4458 129.623 15.7308L129.126 14.2785C130.144 13.8732 131.227 13.6589 132.323 13.6465C134.57 13.6465 135.698 14.6568 135.707 16.6774V20.3628C135.69 20.6183 135.742 20.8737 135.859 21.1015ZM133.612 20.2954V18.5004H132.727C131.356 18.5004 130.669 19.0117 130.665 20.0341C130.64 20.3935 130.753 20.749 130.98 21.0285C131.225 21.2759 131.565 21.4041 131.913 21.3796C132.645 21.3806 133.312 20.958 133.623 20.2954H133.612Z" fill="#EDEDED"/>
<path id="Shape_11" d="M149.334 14.3258C149.781 14.8804 150.007 15.5808 149.969 16.2921V22.6713H147.837V16.6264C147.837 15.6798 147.514 15.2219 146.871 15.2219C146.542 15.219 146.224 15.3369 145.977 15.5534C145.668 15.8422 145.407 16.1777 145.202 16.5477V22.6742H143.07V16.6264C143.07 15.6798 142.747 15.2219 142.101 15.2219C141.768 15.2157 141.444 15.3339 141.194 15.5534C140.886 15.8428 140.626 16.1783 140.421 16.5477V22.6742H138.289V13.8624H140.137L140.3 15.014C140.854 14.1402 141.816 13.6104 142.851 13.6095C143.322 13.5955 143.786 13.7302 144.177 13.9944C144.563 14.2626 144.852 14.6476 145.003 15.0927C145.304 14.6455 145.696 14.2673 146.154 13.9831C146.605 13.7263 147.116 13.5962 147.635 13.6067C148.28 13.5782 148.905 13.8424 149.334 14.3258Z" fill="#EDEDED"/>
<path id="Shape_12" d="M121.536 42.2272V39.0952H128.289V36.4829H121.536V33.4688H129.157V30.8564H118.665V44.8368H129.263V42.2272H121.536Z" fill="#00B45A"/>
<path id="Shape_13" d="M63.764 39.3009H67.205V41.4498C66.3189 42.0505 65.2699 42.3652 64.1994 42.3515C61.6488 42.3515 59.8679 40.4666 59.8679 37.7672C59.8679 35.2391 61.6769 33.2419 63.9943 33.2419C65.3301 33.1982 66.6271 33.6943 67.5927 34.6183L67.7809 34.7981L69.6067 32.6211L69.4185 32.4638C67.8342 31.1239 66.2865 30.5762 64.0814 30.5762H63.8764C59.9527 30.6469 56.8266 33.8799 56.8876 37.8037C56.8876 42.0397 59.8595 44.9975 64.1179 44.9975C66.2415 44.9979 68.2936 44.2308 69.896 42.8374L69.9803 42.7644V36.7503H63.764V39.3009Z" fill="#00B45A"/>
<path id="Shape_14" d="M90.4496 35.3596C90.4496 32.5815 88.4468 30.8652 85.2192 30.8652H78.9805V44.7753H81.8288V40.0899H84.4215L87.7164 44.7669H91.0872L87.3821 39.5758C89.326 38.9214 90.4496 37.3989 90.4496 35.3596ZM81.8569 33.4972H85.0282C86.1827 33.4972 87.5563 33.8427 87.5563 35.4944C87.5563 36.736 86.5928 37.5084 85.0282 37.5084H81.8428L81.8569 33.4972Z" fill="#00B45A"/>
<path id="Shape_15" d="M102.284 39.0365H109.031V36.4326H102.284V33.427H109.899V30.8202H99.4297V44.7781H110.003V42.1713H102.284V39.0365Z" fill="#00B45A"/>
<path id="Shape_16" d="M147.202 30.949L147.224 38.9378L137.848 30.626V44.8367H140.645V37.1147L149.999 45.2074V30.949H147.202Z" fill="#00B45A"/>
<g id="Branding/Logo/Green/On-Dark">
<g id="green_logo_ondark">
<path id="Path" d="M5.6083 31.9202V5.48497H36.1596V0H0.140625V26.4918C0.140625 31.8071 3.88908 36.1329 8.73671 40.0911C6.82021 37.6031 5.6083 34.9454 5.6083 31.9202Z" fill="#00B45A"/>
<path id="Shape_17" d="M29.086 10.8564H10.9355V37.3483C10.9355 45.8584 20.5181 51.7958 28.9451 57.8179C37.4002 51.7958 46.9546 45.8584 46.9546 37.3483V10.8564H29.086ZM41.5714 37.3483C41.5714 42.0981 35.3146 46.7066 28.9732 51.202C22.6319 46.7066 16.375 42.0981 16.375 37.3483V16.2566H41.5714V37.3483Z" fill="white"/>
</g>
</g>
</g>
</g>
</g>
</g>
<defs>
<clipPath id="clip0_15_1965">
<rect width="150" height="59" fill="white"/>
</clipPath>
</defs>
</svg>
