<svg width="309" height="69" viewBox="0 0 309 69" fill="none" xmlns="http://www.w3.org/2000/svg">
<path d="M102.346 40.658C102.346 46.844 97.4181 48.7588 90.5776 48.7588H82.168V20.6268H89.5233C96.7561 20.6268 101.169 22.6643 101.169 27.7948C101.169 31.3052 98.644 33.2936 95.9715 33.8582C99.1343 34.4719 102.346 36.0184 102.346 40.658ZM87.5129 32.2135H90.8228C93.7404 32.2135 95.6528 30.9124 95.6528 28.2612C95.6528 25.4137 93.6914 24.6036 90.0382 24.6036H87.5129V32.2135ZM96.7316 40.4616C96.7316 37.0739 94.3288 35.9202 91.2151 35.9202H87.5129V44.7329H90.6266C94.1817 44.7575 96.7561 44.021 96.7316 40.4616Z" fill="white"/>
<path d="M113.083 45.1747C113.5 45.1747 113.917 45.101 114.309 44.9783L115.388 48.636C114.211 49.1269 112.96 49.3724 111.686 49.3724C108.474 49.3724 106.61 47.4576 106.61 43.8736V18.5893L111.808 18.0001V43.5054C111.857 44.6837 112.225 45.1747 113.083 45.1747Z" fill="white"/>
<path d="M137.971 37.9821C137.971 44.7573 134.195 49.3968 127.82 49.3968C121.446 49.3968 117.67 45.0764 117.67 37.9821C117.67 31.2068 121.446 26.6164 127.82 26.6164C134.195 26.6164 137.971 30.9368 137.971 37.9821ZM123.211 37.9821C123.211 43.1617 124.805 45.4201 127.845 45.4201C130.885 45.4201 132.479 43.088 132.479 37.9821C132.479 32.8761 130.885 30.5686 127.869 30.5686C124.854 30.5686 123.162 32.9006 123.162 37.9821H123.211Z" fill="white"/>
<path d="M157.732 29.145L155.379 32.3116C154.177 31.2806 152.657 30.716 151.063 30.716C148.048 30.716 146.209 32.9254 146.209 38.0804C146.209 43.2355 148.121 45.1257 151.063 45.1257C152.633 45.1011 154.153 44.4874 155.33 43.4319L157.732 46.8195C155.771 48.4396 153.319 49.3234 150.769 49.2988C144.542 49.2988 140.692 44.9784 140.692 38.105C140.692 31.2315 144.566 26.592 150.745 26.592C153.319 26.5183 155.82 27.4266 157.732 29.145Z" fill="white"/>
<path d="M161.312 48.7587V18.5893L166.509 18.0001V48.7587H161.312ZM180.117 48.7587H174.134L166.705 36.9757L173.914 27.2056H179.381L172.222 36.7056L180.117 48.7587Z" fill="white"/>
<path d="M198.43 29.1695L196.395 32.3116C194.851 31.1824 193.012 30.5196 191.1 30.4705C188.893 30.4705 187.716 31.3297 187.716 32.6308C187.716 33.9318 188.55 34.7173 192.227 35.7238C196.616 36.9021 199.092 38.6941 199.092 42.499C199.092 46.9668 194.949 49.3479 190.021 49.3479C186.882 49.4461 183.818 48.3414 181.439 46.304L184.087 43.3336C185.706 44.6838 187.741 45.4448 189.874 45.4939C192.227 45.4939 193.747 44.4874 193.747 42.9654C193.747 41.0752 192.914 40.5106 188.868 39.3814C184.431 38.154 182.469 36.0429 182.469 32.8762C182.469 29.2922 185.755 26.6165 190.781 26.6165C193.551 26.5183 196.273 27.4511 198.43 29.1695Z" fill="white"/>
<path d="M210.984 49.3725C206.767 49.3234 204.511 46.9422 204.511 42.3272V30.937H201.128V27.2303H204.511V22.4679L209.709 21.8542V27.2303H214.711L214.196 30.937H209.709V42.1799C209.709 44.3156 210.396 45.1502 211.989 45.1502C212.897 45.1012 213.779 44.8311 214.515 44.2911L216.329 47.6787C214.784 48.7833 212.897 49.3725 210.984 49.3725Z" fill="white"/>
<path d="M232.289 26.9356L231.382 32.017C230.769 31.8452 230.107 31.7715 229.47 31.7715C226.871 31.7715 225.523 33.6863 224.713 37.2948V48.7833H219.516V27.2302H224.027L224.517 31.4524C225.523 28.3594 227.607 26.641 230.132 26.641C230.867 26.641 231.578 26.7392 232.289 26.9356Z" fill="white"/>
<path d="M252.885 39.6022H239.4C239.768 43.9963 241.852 45.4201 244.696 45.4201C246.658 45.3955 248.521 44.7082 250.066 43.5053L252.223 46.4756C249.992 48.3413 247.173 49.3723 244.23 49.3723C237.562 49.3723 233.982 44.9291 233.982 38.1293C233.982 31.575 237.439 26.6164 243.544 26.6164C249.649 26.6164 253.032 30.6913 253.032 37.4911C253.008 38.1784 252.934 39.0376 252.885 39.6022ZM247.859 36.0182C247.859 32.4833 246.609 30.3476 243.642 30.3476C241.19 30.3476 239.67 31.9678 239.425 36.2637H247.884V36.0182H247.859Z" fill="white"/>
<path d="M275.246 45.8374L274.142 49.2987C271.789 49.1023 270.244 48.2431 269.386 46.1565C267.939 48.2676 265.512 49.495 262.962 49.3723C258.647 49.3723 255.999 46.6475 255.999 42.7444C255.999 38.0557 259.53 35.5273 265.806 35.5273H268.503V34.3244C268.503 31.5014 267.228 30.5686 264.482 30.5686C262.545 30.6668 260.608 31.035 258.794 31.7223L257.568 28.1629C260.069 27.181 262.717 26.6655 265.389 26.6164C271.127 26.6164 273.652 29.2675 273.652 34.0298V43.088C273.627 44.8064 274.191 45.4201 275.246 45.8374ZM268.479 42.9407V38.5467H266.321C262.938 38.5467 261.246 39.774 261.246 42.3025C261.246 44.3891 262.3 45.5674 264.286 45.5674C266.076 45.5674 267.719 44.5609 268.479 42.9407Z" fill="white"/>
<path d="M308.05 33.1709V48.7588H302.827V33.9809C302.827 31.3052 301.773 30.5197 300.474 30.5197C298.684 30.5197 297.58 31.7716 296.404 33.7846V48.7834H291.181V34.0055C291.181 31.3298 290.078 30.5442 288.828 30.5442C286.989 30.5442 285.885 31.7962 284.709 33.8091V48.8079H279.511V27.2548H284.022L284.439 30.0778C285.787 27.9421 288.141 26.6657 290.666 26.6902C293.02 26.592 295.153 28.0649 295.864 30.3233C297.507 28.0894 299.493 26.6902 302.337 26.6902C305.745 26.6166 308.05 29.0959 308.05 33.1709Z" fill="white"/>
<path d="M54.5981 18.8365C55.9698 20.7619 57.0725 22.8623 57.8929 25.0839L60.8245 24.1279C59.8966 21.5832 58.619 19.1731 57.0456 16.9784L54.5981 18.8365Z" fill="#00C3FF"/>
<path d="M34.5472 4.95486C33.7672 4.92793 32.9738 4.92793 32.1938 4.95486L32.409 8.02471C33.5924 7.98432 34.7758 8.01125 35.9458 8.11896C37.1157 8.22668 38.2857 8.41517 39.4422 8.68446L40.2222 5.70885C38.9043 5.39918 37.573 5.18375 36.2282 5.06257C35.6768 5.00871 35.0986 4.96832 34.5472 4.95486Z" fill="#00C3FF"/>
<path d="M5.83634 47.5424C4.61259 45.038 3.72504 42.3856 3.21402 39.6523L0 40.164C0.564807 43.2607 1.55995 46.2633 2.95852 49.0773L5.83634 47.5424Z" fill="#00C3FF"/>
<path d="M4.18115 16.588L7.03208 18.1768C8.45755 15.7802 10.1923 13.599 12.2095 11.6736L10.0309 9.25C7.74482 11.4177 5.78144 13.8817 4.18115 16.588Z" fill="#00C3FF"/>
<path d="M0.147949 27.0767L3.34852 27.6422C3.91333 24.9089 4.85467 22.2699 6.13221 19.7925L3.28128 18.2172C1.82892 21.0177 0.779995 23.9933 0.147949 27.0767Z" fill="#00C3FF"/>
<path d="M21.0054 2.20814L22.2829 5.19721C24.8783 4.17393 27.5948 3.51418 30.365 3.24489L30.1364 0C27.0031 0.296214 23.937 1.03675 21.0054 2.20814Z" fill="#00C3FF"/>
<path d="M11.4038 7.99771L13.5824 10.4213C15.7071 8.61707 18.0605 7.10907 20.5886 5.92422L19.3111 2.93515C16.4467 4.24118 13.7841 5.95114 11.4038 7.99771Z" fill="#00C3FF"/>
<path d="M59.628 55.9037L57.0864 53.8706C55.2844 55.9979 53.2 57.8695 50.9004 59.4448L52.6486 62.205C55.2575 60.4411 57.6108 58.3272 59.628 55.9037Z" fill="#00C3FF"/>
<path d="M20.0109 61.7068C17.5096 60.4815 15.1832 58.9197 13.0988 57.0616L10.8799 59.4448C13.2198 61.5452 15.8556 63.2956 18.6796 64.6689L20.0109 61.7068Z" fill="#00C3FF"/>
<path d="M67.4673 37.1345C67.8841 32.7452 67.4404 28.3154 66.1628 24.1011L63.0698 25.1244C64.8449 31.1025 64.7777 37.4711 62.895 43.4089L65.9611 44.4995C66.7276 42.1163 67.2387 39.6389 67.4673 37.1345Z" fill="#00C3FF"/>
<path d="M48.4787 58.8119L46.8381 56.2268C44.8074 57.4386 42.6289 58.3811 40.3428 59.0139L41.0689 62.003C43.6778 61.2759 46.1657 60.2122 48.4787 58.8119Z" fill="#00C3FF"/>
<path d="M8.17558 37.2153C7.94697 35.3034 7.92008 33.3645 8.10834 31.4391C8.14869 30.9679 8.20248 30.5639 8.26972 30.1465L5.24397 29.608C5.17673 30.1196 5.10949 30.6313 5.0557 31.1564C4.85398 33.3241 4.88088 35.5188 5.14983 37.6865L8.17558 37.2153Z" fill="#00C3FF"/>
<path d="M42.2935 4.34892C44.9696 5.12985 47.5246 6.28777 49.878 7.76884L51.6935 5.04906C49.0308 3.36602 46.153 2.07346 43.1272 1.18481L42.2935 4.34892Z" fill="#00C3FF"/>
<path d="M29.0608 67.7791L29.3701 64.5342C26.7478 64.1841 24.1793 63.484 21.7318 62.4742L20.3735 65.4632C23.1438 66.6077 26.0754 67.3886 29.0608 67.7791Z" fill="#00C3FF"/>
<path d="M13.1255 54.5705L15.2368 52.3355C13.5692 50.6524 12.1303 48.7674 10.9604 46.7074L8.23047 48.1481C9.5618 50.4909 11.2159 52.6586 13.1255 54.5705Z" fill="#00C3FF"/>
<path d="M53.2264 6.09927L51.3975 8.81906C53.6701 10.4348 55.7007 12.3602 57.4624 14.5279L60.0713 12.5352C58.0945 10.0712 55.7949 7.91695 53.2264 6.09927Z" fill="#00C3FF"/>
<path d="M56.3466 51.2721C57.9603 49.1043 59.2782 46.7346 60.2599 44.2033L57.3686 43.1666C56.508 45.3747 55.3515 47.4617 53.9395 49.3602L56.3466 51.2721Z" fill="#00C3FF"/>
<path d="M58.7533 26.5515L55.8486 27.5209C56.6554 30.308 56.9244 33.2298 56.6554 36.1111C56.5075 37.7134 56.1982 39.3022 55.7275 40.8506L58.6188 41.8739C59.1702 40.0966 59.5467 38.252 59.7215 36.3939C60.0308 33.0817 59.6946 29.7425 58.7533 26.5515Z" fill="#7EE0FF"/>
<path d="M29.7861 59.9969L30.0685 56.9405C28.28 56.6712 26.5183 56.1999 24.8373 55.5267L23.5732 58.3138C25.5635 59.1217 27.6479 59.6872 29.7861 59.9969Z" fill="#7EE0FF"/>
<path d="M50.8467 27.4402L53.5901 26.5111C52.9311 24.7743 52.057 23.1181 50.9812 21.5832L48.6816 23.3336C49.5692 24.6127 50.2954 25.986 50.8467 27.4402Z" fill="#7EE0FF"/>
<path d="M34.2518 12.5622H32.7456L32.9473 15.4436C34.4938 15.4032 36.0269 15.5378 37.5465 15.8744L38.2861 13.0873C37.3716 12.8854 36.4572 12.7373 35.5293 12.6565C35.1124 12.6161 34.6821 12.5892 34.2518 12.5622Z" fill="#7EE0FF"/>
<path d="M11 20.3848L13.6896 21.8794C14.6981 20.2098 15.9084 18.6883 17.307 17.3284L15.2361 15.0395C13.5954 16.6283 12.17 18.4191 11 20.3848Z" fill="#7EE0FF"/>
<path d="M40.3569 11.7275C42.2127 12.293 44.0013 13.1009 45.6554 14.1107L47.3632 11.5525C45.4268 10.3542 43.3289 9.42513 41.1504 8.76538L40.3569 11.7275Z" fill="#7EE0FF"/>
<path d="M51.3977 19.1328L53.8317 17.2747C52.3928 15.4974 50.7118 13.9221 48.8695 12.5891L47.1616 15.1474C48.7485 16.2918 50.1605 17.6248 51.3977 19.1328Z" fill="#7EE0FF"/>
<path d="M48.1172 44.7283L50.3764 46.5325C51.4791 45.0245 52.3801 43.3953 53.0794 41.6585L50.363 40.689C49.7713 42.1162 49.0182 43.4761 48.1172 44.7283Z" fill="#7EE0FF"/>
<path d="M18.3156 51.528L16.2178 53.7631C17.9391 55.2711 19.8352 56.5502 21.8927 57.56L23.1568 54.7729C21.4086 53.9112 19.7814 52.8071 18.3156 51.528Z" fill="#7EE0FF"/>
<path d="M15.5319 36.0574C15.3974 34.7513 15.384 33.4318 15.505 32.1258C15.5319 31.8969 15.5588 31.6546 15.5857 31.4391L12.7482 30.9275C12.7079 31.2372 12.6675 31.5468 12.6406 31.8565C12.4927 33.4049 12.5196 34.9533 12.681 36.5017L15.5319 36.0574Z" fill="#7EE0FF"/>
<path d="M10.7448 38.4539L7.70557 38.9252C8.1359 41.1737 8.86208 43.3684 9.85721 45.4284L12.5737 43.9878C11.7265 42.2239 11.1213 40.3659 10.7448 38.4539Z" fill="#7EE0FF"/>
<path d="M46.7983 53.0358L48.4524 55.6209C50.3351 54.3283 52.043 52.7934 53.5222 51.07L51.1151 49.1581C49.851 50.6257 48.3986 51.9317 46.7983 53.0358Z" fill="#7EE0FF"/>
<path d="M12.7889 23.4952L10.1128 22.0142C9.06386 24.0473 8.29733 26.215 7.82666 28.4501L10.8524 28.9887C11.2558 27.0767 11.9013 25.2321 12.7889 23.4952Z" fill="#7EE0FF"/>
<path d="M38.5815 51.7702L39.2539 54.5573C41.0425 54.0456 42.7638 53.3186 44.3775 52.3761L42.8176 49.939C41.4863 50.7065 40.0608 51.3259 38.5815 51.7702Z" fill="#7EE0FF"/>
<path d="M17.5229 43.2338L14.9678 44.5668C15.8957 46.1825 17.0387 47.6636 18.3432 48.9965L20.3334 46.8826C19.2576 45.7786 18.3163 44.5533 17.5229 43.2338Z" fill="#7EE0FF"/>
<path d="M32.6783 57.1828C32.4228 57.1828 32.1673 57.1558 31.9118 57.1289L31.6294 60.1853C34.0365 60.3603 36.4571 60.1988 38.8105 59.714L38.0978 56.725C36.3227 57.102 34.4938 57.2501 32.6783 57.1828Z" fill="#7EE0FF"/>
<path d="M16.6206 13.8009L18.6781 16.0764C20.1708 14.8242 21.8115 13.774 23.5731 12.9392L22.3628 10.1117C20.2919 11.0811 18.3688 12.3198 16.6206 13.8009Z" fill="#7EE0FF"/>
<path d="M24.0713 9.38461L25.2816 12.2121C27.097 11.512 28.9932 11.0407 30.9297 10.8253L30.701 7.75543C28.4284 8.01125 26.196 8.54983 24.0713 9.38461Z" fill="#7EE0FF"/>
<path d="M31.8166 68.0081C34.7078 68.1024 37.5991 67.86 40.45 67.308L39.7777 64.1708C37.3167 64.6824 34.802 64.8844 32.2738 64.7902C31.8704 64.7902 31.5745 64.7363 31.1711 64.7094L30.8887 67.9947C31.198 68.0081 31.5073 68.0081 31.8166 68.0081Z" fill="#00C3FF"/>
</svg>
