<svg width="64" height="64" viewBox="0 0 64 64" fill="none" xmlns="http://www.w3.org/2000/svg">
<g id="check-light (11) 1">
<path id="Vector" d="M57.0602 19.06L25.0602 51.06C24.7789 51.3409 24.3977 51.4987 24.0002 51.4987C23.6027 51.4987 23.2214 51.3409 22.9402 51.06L8.94018 37.06C8.67522 36.7757 8.53097 36.3996 8.53783 36.011C8.54469 35.6224 8.70211 35.2516 8.97694 34.9768C9.25176 34.7019 9.62253 34.5445 10.0111 34.5377C10.3997 34.5308 10.7758 34.675 11.0602 34.94L24.0002 47.8775L54.9402 16.94C55.2245 16.675 55.6006 16.5308 55.9892 16.5376C56.3778 16.5445 56.7486 16.7019 57.0234 16.9768C57.2983 17.2516 57.4557 17.6224 57.4625 18.011C57.4694 18.3996 57.3251 18.7756 57.0602 19.06Z" fill="#00B45A"/>
</g>
</svg>
