<svg width="24" height="24" viewBox="0 0 24 24" fill="none" xmlns="http://www.w3.org/2000/svg">
<g id="coin-vertical-light (3) 1">
<path id="Vector" d="M18.4481 5.35219C17.3512 3.46875 15.8606 2.4375 14.25 2.4375H9.75C8.13937 2.4375 6.64875 3.46875 5.55188 5.35219C4.51125 7.13719 3.9375 9.49781 3.9375 12C3.9375 14.5022 4.51125 16.8628 5.55188 18.6478C6.64875 20.5312 8.13937 21.5625 9.75 21.5625H14.25C15.8606 21.5625 17.3512 20.5312 18.4481 18.6478C19.4887 16.8666 20.0625 14.5022 20.0625 12C20.0625 9.49781 19.4887 7.13719 18.4481 5.35219ZM18.9263 11.4375H15.5513C15.4903 9.67125 15.1416 7.99406 14.5444 6.5625H17.8125C18.4744 7.94438 18.8588 9.63469 18.9263 11.4375ZM14.25 3.5625C15.3103 3.5625 16.3331 4.22438 17.1694 5.4375H13.995L13.9481 5.35219C13.569 4.68288 13.085 4.07866 12.5147 3.5625H14.25ZM6.52313 18.0806C5.58188 16.4653 5.0625 14.3062 5.0625 12C5.0625 9.69375 5.58188 7.53469 6.52313 5.91937C7.40625 4.39969 8.55562 3.5625 9.75 3.5625C10.9444 3.5625 12.0938 4.39969 12.9769 5.91937C13.9181 7.53469 14.4375 9.69375 14.4375 12C14.4375 14.3062 13.9181 16.4653 12.9769 18.0806C12.0938 19.6003 10.9444 20.4375 9.75 20.4375C8.55562 20.4375 7.40625 19.6003 6.52313 18.0806ZM14.25 20.4375H12.5147C13.085 19.9213 13.569 19.3171 13.9481 18.6478L13.995 18.5625H17.1694C16.3331 19.7756 15.3103 20.4375 14.25 20.4375ZM17.8125 17.4375H14.5444C15.1416 16.0059 15.4903 14.3287 15.5513 12.5625H18.9263C18.8588 14.3653 18.4744 16.0556 17.8125 17.4375Z" fill="white"/>
</g>
</svg>
