<svg width="36" height="36" viewBox="0 0 36 36" fill="none" xmlns="http://www.w3.org/2000/svg">
<path d="M25.4894 10H14.5957C14.4603 10 14.3304 10.0538 14.2347 10.1496C14.1389 10.2453 14.0851 10.3752 14.0851 10.5106V14.0851H10.5106C10.3752 14.0851 10.2453 14.1389 10.1496 14.2347C10.0538 14.3304 10 14.4603 10 14.5957V25.4894C10 25.6248 10.0538 25.7547 10.1496 25.8504C10.2453 25.9462 10.3752 26 10.5106 26H21.4043C21.5397 26 21.6696 25.9462 21.7653 25.8504C21.8611 25.7547 21.9149 25.6248 21.9149 25.4894V21.9149H25.4894C25.6248 21.9149 25.7547 21.8611 25.8504 21.7653C25.9462 21.6696 26 21.5397 26 21.4043V10.5106C26 10.3752 25.9462 10.2453 25.8504 10.1496C25.7547 10.0538 25.6248 10 25.4894 10ZM20.8936 24.9787H11.0213V15.1064H20.8936V24.9787ZM24.9787 20.8936H21.9149V14.5957C21.9149 14.4603 21.8611 14.3304 21.7653 14.2347C21.6696 14.1389 21.5397 14.0851 21.4043 14.0851H15.1064V11.0213H24.9787V20.8936Z" fill="white"/>
</svg>
