<svg width="18" height="18" viewBox="0 0 18 18" fill="none" xmlns="http://www.w3.org/2000/svg">
<g id="Vector">
<path d="M17.267 6.58961C17.7992 6.04876 17.7923 5.176 17.2558 4.64805L13.4088 0.801919C13.1474 0.543962 12.7992 0.401226 12.4337 0.406385C12.0666 0.408965 11.7218 0.55514 11.4672 0.813097L1.14812 11.1331C0.89016 11.3919 0.749144 11.7358 0.750004 12.0996V15.9431C0.750004 16.7015 1.36738 17.3189 2.12577 17.3189H16.5713C16.9514 17.3189 17.2592 17.0111 17.2592 16.631C17.2592 16.2509 16.9514 15.9431 16.5713 15.9431H7.91346L17.267 6.58961ZM12.4483 1.78559L16.2833 5.62829L14.5086 7.40303L10.6693 3.56377L12.4483 1.78559ZM2.12233 12.1047L9.69508 4.53627L13.5343 8.37553L5.96847 15.9431H2.12577L2.12233 12.1047Z" fill="white"/>
</g>
</svg>
