<svg width="32" height="34" viewBox="0 0 32 34" fill="none" xmlns="http://www.w3.org/2000/svg">
<g id="Frame 513689">
<g id="Group">
<path id="Vector" fill-rule="evenodd" clip-rule="evenodd" d="M24.1778 19.1333C26.3378 19.1333 28.0889 20.8844 28.0889 23.0444C28.0889 23.3742 27.8544 23.6575 27.5303 23.719L27.4257 23.7388C27.0824 23.804 26.7512 23.5785 26.6861 23.2351C26.6835 23.2217 26.6814 23.2083 26.6797 23.1948L26.6142 22.6645C26.6142 21.3186 25.5983 20.6021 24.2633 20.557L24.1778 20.5555C22.8318 20.5555 21.7354 21.6239 21.6903 22.9588L21.6889 23.0444V24.8222H28.0889C29.2671 24.8222 30.2222 25.7773 30.2222 26.9555V30.8666C30.2222 32.0448 29.2671 33 28.0889 33H19.9111C18.7329 33 17.7778 32.0448 17.7778 30.8666V26.9555C17.7778 25.7773 18.7329 24.8222 19.9111 24.8222H20.2667V23.0444C20.2667 20.8844 22.0177 19.1333 24.1778 19.1333ZM27.7333 26.2444H20.2667C19.6986 26.2444 19.2342 26.6885 19.2018 27.2484L19.2 27.3111V30.5111C19.2 31.0791 19.6441 31.5435 20.204 31.5759L20.2667 31.5777H27.7333C28.3014 31.5777 28.7657 31.1337 28.7982 30.5738L28.8 30.5111V27.3111C28.8 26.722 28.3224 26.2444 27.7333 26.2444Z" fill="white" stroke="white" stroke-width="0.48"/>
<path id="Vector_2" fill-rule="evenodd" clip-rule="evenodd" d="M20.9778 0.999969C23.3342 0.999969 25.2444 2.91022 25.2444 5.26664V17C25.2444 17.3927 24.926 17.7111 24.5333 17.7111C24.1406 17.7111 23.8222 17.3927 23.8222 17V5.62219C23.8222 3.85488 22.3895 2.42219 20.6222 2.42219H7.46664C5.73089 2.42219 4.31792 3.80417 4.26801 5.52784L4.26664 5.62219V27.3111C4.26664 29.0468 5.64862 30.4598 7.37229 30.5097L7.46664 30.5111H15.2889C15.6816 30.5111 16 30.8295 16 31.2222C16 31.6149 15.6816 31.9333 15.2889 31.9333H7.11109C4.75467 31.9333 2.84442 30.0231 2.84442 27.6666V5.26664C2.84442 2.91022 4.75467 0.999969 7.11109 0.999969H20.9778Z" fill="white" stroke="white" stroke-width="0.48"/>
<path id="Vector_3" d="M14.2222 26.2444C15.0077 26.2444 15.6444 25.6076 15.6444 24.8222C15.6444 24.0367 15.0077 23.3999 14.2222 23.3999C13.4367 23.3999 12.8 24.0367 12.8 24.8222C12.8 25.6076 13.4367 26.2444 14.2222 26.2444Z" fill="white"/>
<path id="Vector_4" fill-rule="evenodd" clip-rule="evenodd" d="M24.1778 27.6666C24.5705 27.6666 24.8889 27.985 24.8889 28.3777C24.8889 28.6408 24.746 28.8705 24.5337 28.9935L24.5333 29.7999C24.5333 29.9963 24.3741 30.1555 24.1778 30.1555C23.9814 30.1555 23.8222 29.9963 23.8222 29.7999L23.8222 28.9937C23.6096 28.8707 23.4666 28.6409 23.4666 28.3777C23.4666 27.985 23.785 27.6666 24.1778 27.6666Z" fill="white"/>
</g>
</g>
</svg>
