<svg width="28" height="28" viewBox="0 0 28 28" fill="none" xmlns="http://www.w3.org/2000/svg">
<path fill-rule="evenodd" clip-rule="evenodd" d="M3.97503 9.44378C6.06088 7.35793 9.33399 5.25 14 5.25C18.666 5.25 21.9391 7.35793 24.025 9.44378C25.0654 10.4842 25.8156 11.5231 26.3069 12.3033C26.5529 12.6941 26.7353 13.022 26.8576 13.2556C26.9188 13.3725 26.9651 13.4659 26.9969 13.532C27.0128 13.565 27.0252 13.5913 27.0339 13.6102L27.0444 13.6331L27.0476 13.6403L27.0488 13.6428L27.0492 13.6438C27.0492 13.6438 27.0496 13.6446 26.25 14C27.0496 14.3554 27.0492 14.3562 27.0492 14.3562L27.0488 14.3572L27.0476 14.3597L27.0444 14.3669L27.0339 14.3898C27.0252 14.4087 27.0128 14.435 26.9969 14.468C26.9651 14.5341 26.9188 14.6275 26.8576 14.7444C26.7353 14.978 26.5529 15.3059 26.3069 15.6967C25.8156 16.4769 25.0654 17.5158 24.025 18.5562C21.9391 20.6421 18.666 22.75 14 22.75C9.33399 22.75 6.06088 20.6421 3.97503 18.5562C2.93463 17.5158 2.18441 16.4769 1.69314 15.6967C1.44707 15.3059 1.26472 14.978 1.14238 14.7444C1.08117 14.6275 1.03489 14.5341 1.00307 14.468C0.987153 14.435 0.974847 14.4087 0.966093 14.3898L0.955615 14.3669L0.952358 14.3597L0.951223 14.3572L0.950778 14.3562C0.950778 14.3562 0.950415 14.3554 1.75 14C0.950415 13.6446 0.950778 13.6438 0.950778 13.6438L0.951223 13.6428L0.952358 13.6403L0.955615 13.6331L0.966093 13.6102C0.974847 13.5913 0.987153 13.565 1.00307 13.532C1.03489 13.4659 1.08117 13.3725 1.14238 13.2556C1.26472 13.022 1.44707 12.6941 1.69314 12.3033C2.18441 11.5231 2.93463 10.4842 3.97503 9.44378ZM1.75 14L0.950415 13.6446C0.849862 13.8709 0.849862 14.1291 0.950415 14.3554L1.75 14ZM2.72835 14C2.83129 14.1928 2.97912 14.4547 3.17405 14.7643C3.61246 15.4606 4.28412 16.3904 5.21247 17.3188C7.06412 19.1704 9.91601 21 14 21C18.084 21 20.9359 19.1704 22.7875 17.3188C23.7159 16.3904 24.3875 15.4606 24.826 14.7643C25.0209 14.4547 25.1687 14.1928 25.2717 14C25.1687 13.8072 25.0209 13.5453 24.826 13.2357C24.3875 12.5394 23.7159 11.6096 22.7875 10.6812C20.9359 8.82957 18.084 7 14 7C9.91601 7 7.06412 8.82957 5.21247 10.6812C4.28412 11.6096 3.61246 12.5394 3.17405 13.2357C2.97912 13.5453 2.83129 13.8072 2.72835 14ZM26.25 14L27.0496 14.3554C27.1501 14.1291 27.1501 13.8709 27.0496 13.6446L26.25 14Z" fill="white"/>
<path fill-rule="evenodd" clip-rule="evenodd" d="M14 10.5C12.067 10.5 10.5 12.067 10.5 14C10.5 15.933 12.067 17.5 14 17.5C15.933 17.5 17.5 15.933 17.5 14C17.5 12.067 15.933 10.5 14 10.5ZM8.75 14C8.75 11.1005 11.1005 8.75 14 8.75C16.8995 8.75 19.25 11.1005 19.25 14C19.25 16.8995 16.8995 19.25 14 19.25C11.1005 19.25 8.75 16.8995 8.75 14Z" fill="white"/>
</svg>
