<svg width="28" height="28" viewBox="0 0 28 28" fill="none" xmlns="http://www.w3.org/2000/svg">
<path fill-rule="evenodd" clip-rule="evenodd" d="M21.5564 13.1665C21.9745 12.9241 22.5099 13.0665 22.7523 13.4846L25.257 17.8049C25.4993 18.223 25.3569 18.7584 24.9388 19.0008C24.5208 19.2431 23.9854 19.1007 23.743 18.6826L21.2383 14.3623C20.9959 13.9443 21.1384 13.4089 21.5564 13.1665Z" fill="white"/>
<path fill-rule="evenodd" clip-rule="evenodd" d="M16.7137 15.468C17.1897 15.3841 17.6434 15.702 17.7273 16.1779L18.5039 20.5857C18.5877 21.0616 18.2699 21.5154 17.7939 21.5993C17.318 21.6831 16.8642 21.3653 16.7804 20.8894L16.0038 16.4815C15.92 16.0056 16.2378 15.5518 16.7137 15.468Z" fill="white"/>
<path fill-rule="evenodd" clip-rule="evenodd" d="M11.2749 15.4569C11.7508 15.5406 12.0689 15.9942 11.9852 16.4702L11.2086 20.8889C11.125 21.3649 10.6714 21.6829 10.1954 21.5993C9.71945 21.5156 9.40142 21.062 9.48506 20.586L10.2616 16.1673C10.3453 15.6913 10.7989 15.3733 11.2749 15.4569Z" fill="white"/>
<path fill-rule="evenodd" clip-rule="evenodd" d="M6.43081 13.1655C6.84941 13.407 6.99301 13.9421 6.75155 14.3607L4.24686 18.7029C4.0054 19.1215 3.47031 19.2651 3.05171 19.0236C2.63311 18.7821 2.48951 18.2471 2.73097 17.8285L5.23566 13.4863C5.47712 13.0677 6.0122 12.9241 6.43081 13.1655Z" fill="white"/>
<path fill-rule="evenodd" clip-rule="evenodd" d="M2.95011 10.7927C3.32605 10.4891 3.87696 10.5477 4.18061 10.9236C5.92145 13.0789 9.06418 15.75 13.9999 15.75C18.9356 15.75 22.0784 13.0789 23.8192 10.9236C24.1229 10.5477 24.6738 10.4891 25.0497 10.7927C25.4256 11.0964 25.4842 11.6473 25.1806 12.0232C23.2464 14.4179 19.6517 17.5 13.9999 17.5C8.34814 17.5 4.75337 14.4179 2.81921 12.0232C2.51557 11.6473 2.57417 11.0964 2.95011 10.7927Z" fill="white"/>
</svg>
