<svg width="64" height="64" viewBox="0 0 64 64" fill="none" xmlns="http://www.w3.org/2000/svg">
<g id="x (8) 1">
<path id="Vector" d="M51.415 48.585C51.6008 48.7708 51.7482 48.9914 51.8488 49.2342C51.9494 49.477 52.0011 49.7372 52.0011 50C52.0011 50.2628 51.9494 50.523 51.8488 50.7658C51.7482 51.0086 51.6008 51.2292 51.415 51.415C51.2292 51.6008 51.0086 51.7482 50.7658 51.8488C50.523 51.9494 50.2628 52.0011 50 52.0011C49.7372 52.0011 49.477 51.9494 49.2342 51.8488C48.9914 51.7482 48.7708 51.6008 48.585 51.415L32 34.8275L15.415 51.415C15.0397 51.7903 14.5307 52.0011 14 52.0011C13.4693 52.0011 12.9603 51.7903 12.585 51.415C12.2097 51.0397 11.9989 50.5307 11.9989 50C11.9989 49.4693 12.2097 48.9603 12.585 48.585L29.1725 32L12.585 15.415C12.2097 15.0397 11.9989 14.5307 11.9989 14C11.9989 13.4693 12.2097 12.9603 12.585 12.585C12.9603 12.2097 13.4693 11.9989 14 11.9989C14.5307 11.9989 15.0397 12.2097 15.415 12.585L32 29.1725L48.585 12.585C48.9603 12.2097 49.4693 11.9989 50 11.9989C50.5307 11.9989 51.0397 12.2097 51.415 12.585C51.7903 12.9603 52.0011 13.4693 52.0011 14C52.0011 14.5307 51.7903 15.0397 51.415 15.415L34.8275 32L51.415 48.585Z" fill="#FF0000"/>
</g>
</svg>
