<svg width="224" height="185" viewBox="0 0 224 185" fill="none" xmlns="http://www.w3.org/2000/svg">
<path d="M157.686 121.276C164.425 121.276 170.714 119.788 174.028 118.265C175.734 117.6 177.485 116.43 178.819 114.968C180.154 113.505 181.122 111.69 181.122 109.747V109.117H180.492H164.773V29.7371C164.773 26.1583 161.732 23.4056 158.442 23.4056H41.0096C37.4487 23.4056 34.6781 26.1762 34.6781 29.7371V109.117H19.2116H18.5816V109.747C18.5816 111.566 19.4875 113.261 20.7521 114.662C22.0213 116.068 23.7004 117.234 25.374 118.005L25.3891 118.012L25.4045 118.018C29.1754 119.52 35.461 121.276 42.2381 121.276H157.686ZM99.7256 27.3746C99.9593 27.3746 100.096 27.4493 100.174 27.5286C100.253 27.6097 100.324 27.7495 100.324 27.9731C100.324 28.2069 100.249 28.3435 100.17 28.4213C100.089 28.501 99.9493 28.5716 99.7256 28.5716C99.4919 28.5716 99.3553 28.497 99.2774 28.4177C99.1978 28.3366 99.1271 28.1968 99.1271 27.9731C99.1271 27.7495 99.1978 27.6097 99.2774 27.5286C99.3553 27.4493 99.4919 27.3746 99.7256 27.3746ZM113.838 111.826H85.5821C84.9489 111.826 84.2945 111.454 83.7606 110.945C83.6396 110.83 83.5299 110.712 83.4334 110.598H116.133C116.052 110.719 115.953 110.845 115.836 110.969C115.404 111.426 114.751 111.826 113.838 111.826Z" fill="#141414" stroke="white" stroke-width="1.26"/>
<rect x="41.8916" y="30.6506" width="115.92" height="76.23" rx="0.945" fill="#13241B"/>
<path opacity="0.2" d="M10.8641 27.3428L23.9366 61.5205L42.0941 106.544L158.442 106.759L207.582 27.3427L10.8641 27.3428Z" fill="url(#paint0_linear_2741_2007)"/>
<path d="M190.257 105.62C190.257 121.627 177.141 134.601 160.961 134.601C144.783 134.601 131.667 121.627 131.667 105.62C131.667 89.6159 144.783 76.6406 160.961 76.6406C177.141 76.6406 190.257 89.6159 190.257 105.62Z" fill="url(#paint1_radial_2741_2007)"/>
<g clip-path="url(#clip0_2741_2007)">
<path d="M144.57 103.098C144.17 101.244 144.137 99.3288 144.474 97.4615C144.984 94.5654 146.342 91.8858 148.376 89.7615C150.41 87.6371 153.028 86.1636 155.899 85.5271C158.77 84.8906 161.765 85.1197 164.506 86.1856C167.247 87.2514 169.61 89.1061 171.297 91.515C172.983 93.924 173.918 96.779 173.982 99.7191C174.046 102.659 173.237 105.552 171.657 108.033C170.077 110.513 167.797 112.469 165.105 113.653C162.413 114.838 159.431 115.197 156.535 114.686C154.665 114.364 152.877 113.678 151.271 112.668L148.113 114.879L143.232 114.018L142.371 118.899L137.49 118.039L136.63 122.92L128.495 121.485L129.929 113.35L144.57 103.098Z" fill="#0C1C17" stroke="white" stroke-width="1.36133" stroke-linecap="round" stroke-linejoin="round"/>
<path d="M163.615 98.3202C164.513 98.4787 165.37 97.8787 165.529 96.9801C165.687 96.0816 165.087 95.2247 164.188 95.0662C163.29 94.9078 162.433 95.5078 162.275 96.4064C162.116 97.3049 162.716 98.1618 163.615 98.3202Z" fill="white"/>
</g>
<g clip-path="url(#clip1_2741_2007)">
<path d="M154.824 114.926C153.651 113.435 152.782 111.728 152.266 109.902C151.456 107.075 151.501 104.071 152.398 101.271C153.294 98.4699 155.001 95.9979 157.303 94.1672C159.604 92.3365 162.397 91.2294 165.328 90.9859C168.258 90.7424 171.195 91.3734 173.768 92.7991C176.34 94.2248 178.431 96.3812 179.778 98.9956C181.124 101.61 181.665 104.565 181.332 107.487C180.999 110.409 179.808 113.166 177.907 115.411C176.007 117.655 173.484 119.286 170.657 120.097C168.836 120.626 166.928 120.794 165.041 120.59L163.172 123.962L158.408 125.328L159.774 130.092L155.01 131.458L156.376 136.222L148.436 138.499L146.159 130.559L154.824 114.926Z" fill="#0C1C17" stroke="white" stroke-width="1.36133" stroke-linecap="round" stroke-linejoin="round"/>
<path d="M169.846 102.283C170.723 102.032 171.23 101.117 170.979 100.24C170.727 99.3625 169.813 98.8554 168.936 99.1069C168.058 99.3584 167.551 100.273 167.803 101.15C168.054 102.027 168.969 102.535 169.846 102.283Z" fill="white"/>
</g>
<defs>
<linearGradient id="paint0_linear_2741_2007" x1="64.9855" y1="48.2393" x2="54.6186" y2="122.004" gradientUnits="userSpaceOnUse">
<stop stop-color="#00B35A" stop-opacity="0"/>
<stop offset="0.269342" stop-color="#00B35A" stop-opacity="0.2"/>
<stop offset="1" stop-color="#00B35A" stop-opacity="0.5"/>
</linearGradient>
<radialGradient id="paint1_radial_2741_2007" cx="0" cy="0" r="1" gradientUnits="userSpaceOnUse" gradientTransform="translate(160.962 105.621) scale(29.2947 28.9803)">
<stop stop-color="#00B35A"/>
<stop offset="0.653855" stop-color="#00B35A" stop-opacity="0.1"/>
<stop offset="1" stop-color="#00B35A" stop-opacity="0"/>
</radialGradient>
<clipPath id="clip0_2741_2007">
<rect width="52.8671" height="52.8671" fill="white" transform="translate(130.019 74.7819) rotate(10)"/>
</clipPath>
<clipPath id="clip1_2741_2007">
<rect width="52.8671" height="52.8671" fill="white" transform="translate(129.332 95.8541) rotate(-16)"/>
</clipPath>
</defs>
</svg>
