<svg width="122" height="166" viewBox="0 0 122 166" fill="none" xmlns="http://www.w3.org/2000/svg">
<path d="M16.5172 51.7382L44.2789 46.2544C44.8443 46.1427 45.4205 46.387 45.7334 46.8709L102.495 134.657C102.883 135.258 102.759 136.054 102.207 136.508L80.9803 153.969C80.8976 154.037 80.8073 154.095 80.7113 154.143L61.3024 163.763C60.6522 164.085 59.8635 163.86 59.4812 163.243L1.48861 69.6442C1.16003 69.1139 1.21983 68.4305 1.63554 67.9653L15.7406 52.1811C15.9444 51.953 16.2171 51.7975 16.5172 51.7382Z" fill="#232327"/>
<path d="M16.5173 51.7382L44.279 46.2544C44.8443 46.1427 45.4206 46.387 45.7335 46.8709L102.495 134.657C102.883 135.258 102.759 136.054 102.207 136.508L80.9804 153.969C80.8976 154.037 80.8074 154.095 80.7114 154.143L61.3025 163.763C60.6522 164.085 59.8635 163.86 59.4813 163.243L1.48867 69.6442C1.16009 69.1139 1.21989 68.4305 1.6356 67.9653L15.7407 52.1811C15.9445 51.953 16.2171 51.7975 16.5173 51.7382Z" stroke="white" stroke-width="1.12"/>
<path d="M43.5888 50.688L24.6094 55.089C24.2281 55.1774 24.0469 55.6146 24.2539 55.9468L52.1494 100.724C52.3014 100.968 52.6113 101.061 52.8725 100.94L70.2191 92.9555C70.5335 92.8108 70.6478 92.422 70.4617 92.1302L44.199 50.9371C44.069 50.7332 43.8245 50.6333 43.5888 50.688Z" stroke="white" stroke-width="0.362447"/>
<path opacity="0.5" d="M64.4814 0.360845C64.3272 0.178953 64.0424 0.192883 63.9068 0.388958L25.4735 55.9377C25.3916 56.0561 25.3875 56.2119 25.4633 56.3344L52.476 100.039C52.5727 100.195 52.7711 100.254 52.9376 100.177L121.397 68.2292C121.613 68.1281 121.674 67.8487 121.52 67.6664L64.4814 0.360845Z" fill="url(#paint0_linear_2327_20362)"/>
<path d="M16.2348 51.6498L80.6759 153.891" stroke="white" stroke-width="0.217468"/>
<path d="M70.2325 121.623L63.4336 110.615C63.2187 110.268 63.3445 109.811 63.707 109.622L75.239 103.612C75.5647 103.442 75.9662 103.552 76.1609 103.863L82.6348 114.221C82.844 114.556 82.7369 114.997 82.3975 115.199L71.1906 121.858C70.8605 122.054 70.4342 121.95 70.2325 121.623Z" stroke="white" stroke-width="0.362447"/>
<path d="M62.6591 110.348L63.5758 109.431L63.5579 110.79C63.557 110.856 63.5744 110.92 63.608 110.976L67.4717 117.415L70.3489 121.707C70.4407 121.844 70.6153 121.899 70.7689 121.839L73.4567 120.791C72.531 121.356 70.7451 122.422 70.5959 122.571C70.4159 122.751 69.7603 122.687 69.4067 121.961L62.6073 110.779C62.523 110.641 62.5444 110.463 62.6591 110.348Z" fill="white"/>
<g filter="url(#filter0_i_2327_20362)">
<path d="M60.1693 152.221L57.8104 148.197C57.6142 147.863 57.7259 147.432 58.06 147.235L63.8741 143.806C64.207 143.61 64.636 143.719 64.8349 144.051L67.3398 148.225C67.545 148.567 67.4251 149.012 67.0755 149.204L61.1154 152.482C60.7815 152.666 60.362 152.55 60.1693 152.221Z" stroke="white" stroke-width="0.724894"/>
</g>
<g clip-path="url(#clip0_2327_20362)">
<path d="M61.0325 69.8164C60.6686 68.1298 60.6387 66.3882 60.9447 64.6901C61.4091 62.0563 62.6441 59.6194 64.4935 57.6875C66.3429 55.7556 68.7236 54.4155 71.3346 53.8367C73.9456 53.2578 76.6696 53.4663 79.1622 54.4356C81.6548 55.4049 83.8039 57.0915 85.3379 59.2823C86.8719 61.473 87.7218 64.0694 87.7801 66.7432C87.8384 69.4169 87.1026 72.048 85.6656 74.3035C84.2287 76.5591 82.1552 78.3379 79.7073 79.415C77.2593 80.4921 74.547 80.8191 71.9132 80.3547C70.2129 80.0615 68.5865 79.4378 67.1261 78.519L64.2543 80.5299L59.8154 79.7472L59.0327 84.186L54.5939 83.4033L53.8112 87.8422L46.4131 86.5377L47.7176 79.1396L61.0325 69.8164Z" fill="#0B3321" stroke="white" stroke-linecap="round" stroke-linejoin="round"/>
<path d="M78.3516 65.4711C79.1687 65.6152 79.948 65.0696 80.0921 64.2524C80.2362 63.4352 79.6905 62.656 78.8734 62.5119C78.0562 62.3678 77.2769 62.9134 77.1328 63.7306C76.9888 64.5478 77.5344 65.327 78.3516 65.4711Z" fill="white"/>
</g>
<g clip-path="url(#clip1_2327_20362)">
<path d="M70.357 80.5717C69.2906 79.2154 68.5003 77.6631 68.031 76.0027C67.2938 73.4319 67.3355 70.7003 68.1508 68.1532C68.9662 65.6061 70.5185 63.358 72.6115 61.6931C74.7045 60.0283 77.2442 59.0215 79.9094 58.8C82.5746 58.5785 85.2456 59.1524 87.5847 60.4489C89.9238 61.7455 91.8259 63.7066 93.0504 66.0842C94.275 68.4618 94.767 71.1491 94.4642 73.8063C94.1615 76.4635 93.0776 78.9713 91.3496 81.0124C89.6216 83.0536 87.3271 84.5366 84.7563 85.2737C83.0995 85.7556 81.3643 85.908 79.6489 85.7223L77.9492 88.7886L73.6165 90.031L74.8589 94.3637L70.5262 95.6061L71.7685 99.9389L64.5473 102.01L62.4767 94.7883L70.357 80.5717Z" fill="#0B3321" stroke="white" stroke-linecap="round" stroke-linejoin="round"/>
<path d="M84.0186 69.0746C84.8162 68.8459 85.2774 68.0138 85.0487 67.2162C84.82 66.4186 83.988 65.9574 83.1903 66.1861C82.3927 66.4148 81.9315 67.2468 82.1602 68.0445C82.3889 68.8421 83.221 69.3033 84.0186 69.0746Z" fill="white"/>
</g>
<defs>
<filter id="filter0_i_2327_20362" x="57.3512" y="143.346" width="10.4515" height="12.4849" filterUnits="userSpaceOnUse" color-interpolation-filters="sRGB">
<feFlood flood-opacity="0" result="BackgroundImageFix"/>
<feBlend mode="normal" in="SourceGraphic" in2="BackgroundImageFix" result="shape"/>
<feColorMatrix in="SourceAlpha" type="matrix" values="0 0 0 0 0 0 0 0 0 0 0 0 0 0 0 0 0 0 127 0" result="hardAlpha"/>
<feOffset dy="2.89958"/>
<feGaussianBlur stdDeviation="2.89958"/>
<feComposite in2="hardAlpha" operator="arithmetic" k2="-1" k3="1"/>
<feColorMatrix type="matrix" values="0 0 0 0 0 0 0 0 0 0 0 0 0 0 0 0 0 0 0.25 0"/>
<feBlend mode="normal" in2="shape" result="effect1_innerShadow_2327_20362"/>
</filter>
<linearGradient id="paint0_linear_2327_20362" x1="64.0722" y1="43.6832" x2="20.4219" y2="87.3334" gradientUnits="userSpaceOnUse">
<stop stop-color="#00B35A" stop-opacity="0"/>
<stop offset="0.307292" stop-color="#00B35A" stop-opacity="0.2"/>
<stop offset="1" stop-color="#00B35A" stop-opacity="0.64"/>
</linearGradient>
<clipPath id="clip0_2327_20362">
<rect width="48.0782" height="48.0782" fill="white" transform="translate(47.7996 44.0647) rotate(10)"/>
</clipPath>
<clipPath id="clip1_2327_20362">
<rect width="48.0782" height="48.0782" fill="white" transform="translate(47.1748 63.2273) rotate(-16)"/>
</clipPath>
</defs>
</svg>
