<svg width="24" height="25" viewBox="0 0 24 25" fill="none" xmlns="http://www.w3.org/2000/svg">
<g id="GearSix">
<path id="Vector" fill-rule="evenodd" clip-rule="evenodd" d="M8.78825 2.02205C8.99424 1.95555 9.21892 1.9813 9.40453 2.09266L11.5969 3.40806C11.8656 3.39605 12.1347 3.39606 12.4034 3.40808L14.5867 2.10159C14.7707 1.99143 14.9932 1.96537 15.1977 2.03C16.6304 2.48264 17.9477 3.24126 19.0582 4.25332C19.2174 4.3984 19.3065 4.60492 19.3029 4.82028L19.26 7.36862C19.4081 7.59597 19.5439 7.83103 19.667 8.07281L21.8894 9.30841C22.0765 9.41245 22.2102 9.59151 22.2569 9.80048C22.5839 11.2649 22.5873 12.7831 22.267 14.249C22.2209 14.4598 22.0864 14.6405 21.8977 14.745L19.6667 15.9806C19.5437 16.2222 19.4079 16.457 19.26 16.6842L19.3029 19.2325C19.3065 19.4479 19.2174 19.6544 19.0582 19.7995C17.95 20.8094 16.6384 21.5702 15.2116 22.0308C15.0056 22.0973 14.7809 22.0715 14.5953 21.9602L12.403 20.6448C12.1342 20.6568 11.8651 20.6568 11.5964 20.6447L9.41316 21.9512C9.22908 22.0614 9.00664 22.0874 8.80209 22.0228C7.36937 21.5702 6.05214 20.8116 4.9416 19.7995C4.78239 19.6544 4.69325 19.4479 4.69689 19.2325L4.73984 16.6899C4.59266 16.4602 4.45696 16.2234 4.33323 15.9802L2.11046 14.7444C1.92333 14.6404 1.78958 14.4613 1.74293 14.2523C1.41596 12.7879 1.41251 11.2697 1.73282 9.80381C1.77887 9.59305 1.91344 9.41233 2.10216 9.30781L4.33314 8.07219C4.45613 7.83063 4.59187 7.59578 4.73979 7.36862L4.69689 4.82028C4.69326 4.60491 4.78241 4.39838 4.94162 4.2533C6.04982 3.24344 7.36145 2.48263 8.78825 2.02205ZM6.20252 5.14203L6.24355 7.57941C6.24621 7.73731 6.19895 7.89203 6.10852 8.0215C5.90735 8.30951 5.73123 8.61422 5.58209 8.9323C5.51504 9.0753 5.40456 9.19348 5.2664 9.27L3.13316 10.4515C2.94657 11.4932 2.94916 12.5602 3.14081 13.601L5.26748 14.7834C5.40459 14.8596 5.51435 14.977 5.5813 15.1188C5.73371 15.4418 5.91148 15.7522 6.11294 16.0471C6.20053 16.1753 6.24617 16.3276 6.24355 16.4828L6.20254 18.9107C7.01319 19.5955 7.94022 20.1293 8.93946 20.4866L11.0242 19.2391C11.1562 19.1601 11.3093 19.1236 11.4628 19.1346C11.8204 19.1601 12.1794 19.1601 12.537 19.1346C12.6908 19.1236 12.8442 19.1602 12.9764 19.2395L15.0678 20.4944C16.0638 20.1314 16.9878 19.5953 17.7973 18.9108L17.7563 16.4734C17.7536 16.3155 17.8009 16.1608 17.8913 16.0313C18.0925 15.7433 18.2686 15.4386 18.4177 15.1205C18.4848 14.9775 18.5952 14.8593 18.7334 14.7828L20.8666 13.6013C21.0532 12.5596 21.0507 11.4927 20.859 10.4518L18.7323 9.2694C18.5947 9.19286 18.4846 9.07492 18.4177 8.9323C18.2686 8.61422 18.0925 8.30951 17.8913 8.0215C17.8009 7.89203 17.7536 7.73731 17.7563 7.57941L17.7973 5.14213C16.9866 4.45731 16.0596 3.92352 15.0603 3.56619L12.9757 4.81372C12.8436 4.89273 12.6905 4.92922 12.537 4.91824C12.1794 4.89266 11.8204 4.89266 11.4628 4.91824C11.309 4.92924 11.1556 4.89259 11.0234 4.81328L8.93199 3.55843C7.93602 3.92142 7.01197 4.45754 6.20252 5.14203ZM11.9999 8.27641C9.92884 8.27641 8.2499 9.95534 8.2499 12.0264C8.2499 14.0975 9.92884 15.7764 11.9999 15.7764C14.071 15.7764 15.7499 14.0975 15.7499 12.0264C15.7499 9.95534 14.071 8.27641 11.9999 8.27641ZM6.7499 12.0264C6.7499 9.12691 9.10041 6.77641 11.9999 6.77641C14.8994 6.77641 17.2499 9.12691 17.2499 12.0264C17.2499 14.9259 14.8994 17.2764 11.9999 17.2764C9.10041 17.2764 6.7499 14.9259 6.7499 12.0264Z" fill="white"/>
</g>
</svg>
