<svg width="142" height="55" viewBox="0 0 142 55" fill="none" xmlns="http://www.w3.org/2000/svg">
<path d="M5.92904 30.0019V5.15532H34.6443V0H0.789963V24.8997C0.789963 29.8956 4.31314 33.9614 8.86943 37.6817C7.06811 35.3432 5.92904 32.8453 5.92904 30.0019Z" fill="#00B45A"/>
<path d="M27.9953 10.2044H10.9357V35.1041C10.9357 43.1028 19.9423 48.6833 27.8628 54.3435C35.8098 48.6833 44.79 43.1028 44.79 35.1041V10.2044H27.9953ZM39.7304 35.1041C39.7304 39.5685 33.8496 43.9 27.8893 48.1252C21.929 43.9 16.0482 39.5685 16.0482 35.1041V15.28H39.7304V35.1041Z" fill="white"/>
<path d="M131.739 16.1273C132.767 17.5714 133.594 19.1467 134.21 20.8129L136.408 20.0959C135.712 18.1874 134.754 16.3798 133.574 14.7338L131.739 16.1273Z" fill="#00C3FF"/>
<path d="M116.7 5.71614C116.115 5.69594 115.52 5.69594 114.935 5.71614L115.097 8.01853C115.984 7.98823 116.872 8.00843 117.749 8.08921C118.627 8.17 119.504 8.31137 120.372 8.51334L120.956 6.28163C119.968 6.04937 118.97 5.8878 117.961 5.79692C117.547 5.75653 117.114 5.72623 116.7 5.71614Z" fill="#00C3FF"/>
<path d="M95.1672 37.6568C94.2494 35.7785 93.5837 33.7892 93.2005 31.7392L90.7899 32.123C91.2136 34.4455 91.9599 36.6974 93.0088 38.808L95.1672 37.6568Z" fill="#00C3FF"/>
<path d="M93.9258 14.441L96.064 15.6326C97.1331 13.8351 98.4342 12.1992 99.9471 10.7552L98.3132 8.9375C96.5986 10.5633 95.126 12.4113 93.9258 14.441Z" fill="#00C3FF"/>
<path d="M90.9008 22.3075L93.3012 22.7316C93.7249 20.6817 94.4309 18.7024 95.389 16.8444L93.2508 15.6629C92.1615 17.7633 91.3749 19.995 90.9008 22.3075Z" fill="#00C3FF"/>
<path d="M106.544 3.65611L107.502 5.89791C109.449 5.13044 111.486 4.63563 113.564 4.43367L113.392 2C111.042 2.22216 108.743 2.77756 106.544 3.65611Z" fill="#00C3FF"/>
<path d="M99.3427 7.99828L100.977 9.81595C102.57 8.4628 104.335 7.3318 106.231 6.44315L105.273 4.20135C103.125 5.18088 101.128 6.46335 99.3427 7.99828Z" fill="#00C3FF"/>
<path d="M135.511 43.9278L133.605 42.4029C132.253 43.9984 130.69 45.4021 128.965 46.5836L130.276 48.6537C132.233 47.3309 133.998 45.7454 135.511 43.9278Z" fill="#00C3FF"/>
<path d="M105.798 48.2801C103.922 47.3611 102.177 46.1898 100.614 44.7962L98.9498 46.5836C100.705 48.1589 102.682 49.4717 104.8 50.5017L105.798 48.2801Z" fill="#00C3FF"/>
<path d="M141.39 29.8509C141.703 26.5589 141.37 23.2366 140.412 20.0759L138.092 20.8433C139.424 25.3269 139.373 30.1034 137.961 34.5567L140.261 35.3747C140.836 33.5873 141.219 31.7292 141.39 29.8509Z" fill="#00C3FF"/>
<path d="M127.149 46.109L125.919 44.1701C124.396 45.0789 122.762 45.7858 121.047 46.2604L121.592 48.5022C123.548 47.9569 125.414 47.1592 127.149 46.109Z" fill="#00C3FF"/>
<path d="M96.9218 29.9115C96.7504 28.4775 96.7302 27.0234 96.8714 25.5794C96.9016 25.2259 96.942 24.923 96.9924 24.6099L94.7231 24.206C94.6727 24.5897 94.6222 24.9735 94.5819 25.3673C94.4306 26.9931 94.4508 28.6391 94.6525 30.2649L96.9218 29.9115Z" fill="#00C3FF"/>
<path d="M122.51 5.26169C124.517 5.84739 126.434 6.71583 128.199 7.82663L129.56 5.78679C127.563 4.52452 125.405 3.55509 123.135 2.88861L122.51 5.26169Z" fill="#00C3FF"/>
<path d="M112.585 52.8343L112.817 50.4007C110.851 50.1381 108.924 49.613 107.089 48.8557L106.07 51.0974C108.148 51.9558 110.346 52.5415 112.585 52.8343Z" fill="#00C3FF"/>
<path d="M100.634 42.9279L102.218 41.2516C100.967 39.9893 99.8878 38.5756 99.0103 37.0305L96.9629 38.1111C97.9614 39.8681 99.2019 41.494 100.634 42.9279Z" fill="#00C3FF"/>
<path d="M130.71 6.57443L129.338 8.61427C131.042 9.82605 132.565 11.2701 133.887 12.8959L135.843 11.4014C134.361 9.5534 132.636 7.93769 130.71 6.57443Z" fill="#00C3FF"/>
<path d="M133.05 40.4541C134.26 38.8282 135.249 37.051 135.985 35.1525L133.816 34.3749C133.171 36.031 132.303 37.5963 131.244 39.0201L133.05 40.4541Z" fill="#00C3FF"/>
<path d="M134.855 21.9136L132.676 22.6407C133.281 24.731 133.483 26.9223 133.281 29.0834C133.17 30.285 132.938 31.4766 132.585 32.6379L134.754 33.4054C135.167 32.0724 135.45 30.689 135.581 29.2954C135.813 26.8113 135.561 24.3069 134.855 21.9136Z" fill="#7EE0FF"/>
<path d="M113.13 46.9977L113.341 44.7054C112 44.5034 110.679 44.15 109.418 43.6451L108.47 45.7354C109.963 46.3413 111.526 46.7654 113.13 46.9977Z" fill="#7EE0FF"/>
<path d="M128.925 22.5802L130.983 21.8834C130.488 20.5807 129.833 19.3386 129.026 18.1874L127.301 19.5002C127.967 20.4595 128.511 21.4896 128.925 22.5802Z" fill="#7EE0FF"/>
<path d="M116.479 11.4217H115.349L115.5 13.5827C116.66 13.5524 117.81 13.6534 118.95 13.9058L119.504 11.8155C118.819 11.664 118.133 11.5529 117.437 11.4923C117.124 11.4621 116.801 11.4419 116.479 11.4217Z" fill="#7EE0FF"/>
<path d="M99.0398 17.2886L101.057 18.4096C101.813 17.1574 102.721 16.0163 103.77 14.9964L102.217 13.2797C100.986 14.4713 99.9172 15.8143 99.0398 17.2886Z" fill="#7EE0FF"/>
<path d="M121.058 10.7956C122.449 11.2198 123.791 11.8257 125.031 12.583L126.312 10.6644C124.86 9.76563 123.287 9.06885 121.653 8.57404L121.058 10.7956Z" fill="#7EE0FF"/>
<path d="M129.338 16.3496L131.164 14.956C130.084 13.623 128.824 12.4416 127.442 11.4418L126.161 13.3605C127.351 14.2188 128.41 15.2186 129.338 16.3496Z" fill="#7EE0FF"/>
<path d="M126.878 35.5462L128.572 36.8994C129.399 35.7684 130.075 34.5465 130.599 33.2439L128.562 32.5168C128.118 33.5872 127.553 34.6071 126.878 35.5462Z" fill="#7EE0FF"/>
<path d="M104.527 40.646L102.953 42.3223C104.244 43.4533 105.666 44.4126 107.21 45.17L108.158 43.0796C106.847 42.4334 105.626 41.6053 104.527 40.646Z" fill="#7EE0FF"/>
<path d="M102.439 29.043C102.338 28.0635 102.328 27.0739 102.419 26.0944C102.439 25.9227 102.459 25.7409 102.479 25.5793L100.351 25.1956C100.321 25.4279 100.291 25.6601 100.27 25.8924C100.159 27.0537 100.18 28.215 100.301 29.3763L102.439 29.043Z" fill="#7EE0FF"/>
<path d="M98.8485 30.8405L96.5691 31.1939C96.8919 32.8803 97.4365 34.5263 98.1829 36.0714L100.22 34.9908C99.5848 33.668 99.1309 32.2744 98.8485 30.8405Z" fill="#7EE0FF"/>
<path d="M125.889 41.7768L127.129 43.7157C128.541 42.7463 129.822 41.5951 130.932 40.3025L129.126 38.8686C128.178 39.9693 127.089 40.9488 125.889 41.7768Z" fill="#7EE0FF"/>
<path d="M100.382 19.6214L98.3745 18.5106C97.5878 20.0354 97.0129 21.6613 96.6599 23.3376L98.9293 23.7415C99.2318 22.3075 99.716 20.9241 100.382 19.6214Z" fill="#7EE0FF"/>
<path d="M119.726 40.8276L120.23 42.918C121.572 42.5342 122.863 41.9889 124.073 41.2821L122.903 39.4543C121.905 40.0299 120.836 40.4944 119.726 40.8276Z" fill="#7EE0FF"/>
<path d="M103.932 34.4254L102.016 35.4251C102.712 36.6369 103.569 37.7477 104.547 38.7474L106.04 37.162C105.233 36.3339 104.527 35.415 103.932 34.4254Z" fill="#7EE0FF"/>
<path d="M115.299 44.8871C115.107 44.8871 114.915 44.8669 114.724 44.8467L114.512 47.139C116.317 47.2702 118.133 47.1491 119.898 46.7855L119.363 44.5437C118.032 44.8265 116.66 44.9376 115.299 44.8871Z" fill="#7EE0FF"/>
<path d="M103.255 12.3507L104.799 14.0573C105.918 13.1181 107.149 12.3305 108.47 11.7044L107.562 9.58377C106.009 10.3108 104.567 11.2399 103.255 12.3507Z" fill="#7EE0FF"/>
<path d="M108.844 9.03847L109.751 11.1591C111.113 10.634 112.535 10.2806 113.987 10.119L113.816 7.81659C112.111 8.00846 110.437 8.41238 108.844 9.03847Z" fill="#7EE0FF"/>
<path d="M114.653 53.0061C116.821 53.0768 118.989 52.8951 121.128 52.481L120.623 50.1281C118.778 50.5119 116.892 50.6633 114.995 50.5927C114.693 50.5927 114.471 50.5523 114.168 50.5321L113.957 52.996C114.189 53.0061 114.421 53.0061 114.653 53.0061Z" fill="#00C3FF"/>
<path d="M79.6435 27.3536C79.8388 27.1583 79.8388 26.8417 79.6435 26.6464L76.4615 23.4645C76.2663 23.2692 75.9497 23.2692 75.7544 23.4645C75.5592 23.6597 75.5592 23.9763 75.7544 24.1716L78.5829 27L75.7544 29.8284C75.5592 30.0237 75.5592 30.3403 75.7544 30.5355C75.9497 30.7308 76.2663 30.7308 76.4615 30.5355L79.6435 27.3536ZM56.79 27V27.5H57.7275V27V26.5H56.79V27ZM59.6025 27V27.5H61.4775V27V26.5H59.6025V27ZM63.3525 27V27.5H65.2275V27V26.5H63.3525V27ZM67.1025 27V27.5H68.9775V27V26.5H67.1025V27ZM70.8525 27V27.5H72.7275V27V26.5H70.8525V27ZM74.6025 27V27.5H76.4775V27V26.5H74.6025V27ZM78.3525 27V27.5H79.29V27V26.5H78.3525V27Z" fill="white"/>
</svg>
