<svg width="24" height="24" viewBox="0 0 24 24" fill="none" xmlns="http://www.w3.org/2000/svg">
<g id="hand-pointing-light 1" clip-path="url(#clip0_226_3269)">
<path id="Vector" d="M15.75 10.5V9.375C15.75 8.87772 15.5525 8.40081 15.2008 8.04917C14.8492 7.69754 14.3723 7.5 13.875 7.5C13.3777 7.5 12.9008 7.69754 12.5492 8.04917C12.1975 8.40081 12 8.87772 12 9.375V3.375C12 2.87772 11.8025 2.40081 11.4508 2.04917C11.0992 1.69754 10.6223 1.5 10.125 1.5C9.62772 1.5 9.15081 1.69754 8.79917 2.04917C8.44754 2.40081 8.25 2.87772 8.25 3.375V14.7469L6.19687 11.1844C5.94823 10.753 5.53841 10.438 5.05755 10.3088C4.5767 10.1796 4.0642 10.2467 3.63281 10.4953C3.20142 10.744 2.88647 11.1538 2.75725 11.6346C2.62802 12.1155 2.69511 12.628 2.94375 13.0594C6 19.5 7.85625 21.75 12 21.75C12.9849 21.75 13.9602 21.556 14.8701 21.1791C15.7801 20.8022 16.6069 20.2497 17.3033 19.5533C17.9997 18.8569 18.5522 18.0301 18.9291 17.1201C19.306 16.2102 19.5 15.2349 19.5 14.25V10.5C19.5 10.0027 19.3025 9.52581 18.9508 9.17417C18.5992 8.82254 18.1223 8.625 17.625 8.625C17.1277 8.625 16.6508 8.82254 16.2992 9.17417C15.9475 9.52581 15.75 10.0027 15.75 10.5Z" stroke="#00BCFF" stroke-width="1.5" stroke-linecap="round" stroke-linejoin="round"/>
</g>
<defs>
<clipPath id="clip0_226_3269">
<rect width="24" height="24" fill="#00BCFF"/>
</clipPath>
</defs>
</svg>
