<svg width="24" height="25" viewBox="0 0 24 25" fill="none" xmlns="http://www.w3.org/2000/svg">
<path fill-rule="evenodd" clip-rule="evenodd" d="M10.9886 3.40502C11.265 3.15268 11.6257 3.01276 12 3.01276C12.3743 3.01276 12.735 3.15268 13.0114 3.40502L13.0125 3.40603L20.5107 10.22L20.5212 10.2298C20.6694 10.3697 20.7881 10.5379 20.8703 10.7245C20.9526 10.9111 20.9966 11.1122 20.9999 11.316L21 11.3281V20C21 20.3978 20.842 20.7794 20.5607 21.0607C20.2794 21.342 19.8978 21.5 19.5 21.5H15C14.6022 21.5 14.2206 21.342 13.9393 21.0607C13.658 20.7794 13.5 20.3978 13.5 20V15.5H10.5V20C10.5 20.3978 10.342 20.7794 10.0607 21.0607C9.77936 21.342 9.39782 21.5 9 21.5H4.5C4.10218 21.5 3.72065 21.342 3.43934 21.0607C3.15804 20.7794 3 20.3978 3 20V11.3281L3.0001 11.316C3.0034 11.1122 3.04745 10.9111 3.12966 10.7245C3.21187 10.5379 3.33057 10.3697 3.47879 10.2298L3.48935 10.22L10.9875 3.40603L10.9886 3.40502ZM4.50711 11.3219L11.9982 4.51444L12 4.51276L12.0018 4.51444L19.4929 11.3219C19.4949 11.3241 19.4965 11.3267 19.4977 11.3294C19.499 11.3322 19.4997 11.3353 19.5 11.3383V20H15V15.5C15 15.1022 14.842 14.7207 14.5607 14.4394C14.2794 14.1581 13.8978 14 13.5 14H10.5C10.1022 14 9.72065 14.1581 9.43934 14.4394C9.15804 14.7207 9 15.1022 9 15.5V20H4.5V11.3383C4.50026 11.3353 4.50103 11.3322 4.50229 11.3294C4.50349 11.3267 4.50512 11.3241 4.50711 11.3219Z" fill="white"/>
</svg>
