<svg width="45" height="46" viewBox="0 0 45 46" fill="none" xmlns="http://www.w3.org/2000/svg">
<circle cx="22.5" cy="23" r="22.5" fill="#0A9252"/>
<path fill-rule="evenodd" clip-rule="evenodd" d="M23 28.5C22.5858 28.5 22.25 28.1642 22.25 27.75V13.5C22.25 13.0858 22.5858 12.75 23 12.75C23.4142 12.75 23.75 13.0858 23.75 13.5V27.75C23.75 28.1642 23.4142 28.5 23 28.5Z" fill="white"/>
<path fill-rule="evenodd" clip-rule="evenodd" d="M23.5303 28.2803C23.2374 28.5732 22.7626 28.5732 22.4697 28.2803L15.7197 21.5303C15.4268 21.2374 15.4268 20.7626 15.7197 20.4697C16.0126 20.1768 16.4874 20.1768 16.7803 20.4697L23 26.6893L29.2197 20.4697C29.5126 20.1768 29.9874 20.1768 30.2803 20.4697C30.5732 20.7626 30.5732 21.2374 30.2803 21.5303L23.5303 28.2803Z" fill="white"/>
<path fill-rule="evenodd" clip-rule="evenodd" d="M32 30.75C32 31.1642 31.6642 31.5 31.25 31.5L14.75 31.5C14.3358 31.5 14 31.1642 14 30.75C14 30.3358 14.3358 30 14.75 30L31.25 30C31.6642 30 32 30.3358 32 30.75Z" fill="white"/>
</svg>
