<svg width="29" height="28" viewBox="0 0 29 28" fill="none" xmlns="http://www.w3.org/2000/svg">
<g id="list-bullets-light 1" clip-path="url(#clip0_213_2866)">
<path id="Vector" d="M9.80908 7H23.8091" stroke="white" stroke-width="1.3125" stroke-linecap="round" stroke-linejoin="round"/>
<path id="Vector_2" d="M9.80908 14H23.8091" stroke="white" stroke-width="1.3125" stroke-linecap="round" stroke-linejoin="round"/>
<path id="Vector_3" d="M9.80908 21H23.8091" stroke="white" stroke-width="1.3125" stroke-linecap="round" stroke-linejoin="round"/>
<path id="Vector_4" d="M4.99658 8.09375C5.60064 8.09375 6.09033 7.60406 6.09033 7C6.09033 6.39594 5.60064 5.90625 4.99658 5.90625C4.39252 5.90625 3.90283 6.39594 3.90283 7C3.90283 7.60406 4.39252 8.09375 4.99658 8.09375Z" fill="white"/>
<path id="Vector_5" d="M4.99658 22.0938C5.60064 22.0938 6.09033 21.6041 6.09033 21C6.09033 20.3959 5.60064 19.9062 4.99658 19.9062C4.39252 19.9062 3.90283 20.3959 3.90283 21C3.90283 21.6041 4.39252 22.0938 4.99658 22.0938Z" fill="white"/>
<path id="Vector_6" d="M4.99658 15.0938C5.60064 15.0938 6.09033 14.6041 6.09033 14C6.09033 13.3959 5.60064 12.9062 4.99658 12.9062C4.39252 12.9062 3.90283 13.3959 3.90283 14C3.90283 14.6041 4.39252 15.0938 4.99658 15.0938Z" fill="white"/>
</g>
<defs>
<clipPath id="clip0_213_2866">
<rect width="28" height="28" fill="white" transform="translate(0.184082)"/>
</clipPath>
</defs>
</svg>
