<svg width="15" height="11" viewBox="0 0 15 11" fill="none" xmlns="http://www.w3.org/2000/svg">
<path fill-rule="evenodd" clip-rule="evenodd" d="M6.96737 0.346675C7.24034 -0.0290323 7.7662 -0.11232 8.1419 0.160647L8.88197 0.698346L9.0574 0.825793L9.46251 1.12013L8.31134 2.76417L7.87789 2.44924L7.45272 3.03444L7.89639 3.35678L7.78563 3.51495C5.62998 3.52366 3.85104 5.12911 3.57024 7.20986C3.39562 7.0264 3.14905 6.91204 2.87577 6.91204C2.34636 6.91204 1.91718 7.34122 1.91718 7.87063C1.91718 8.40005 2.34636 8.82922 2.87577 8.82922C3.16073 8.82922 3.41665 8.70488 3.59223 8.5075C3.70676 9.18129 3.97909 9.80135 4.36984 10.3283C3.93441 10.5936 3.42294 10.7464 2.87577 10.7464C1.28753 10.7464 0 9.45887 0 7.87062C0 6.28238 1.28753 4.99485 2.87577 4.99485C3.10265 4.99485 3.32338 5.02112 3.53511 5.07079L6.96737 0.346675Z" fill="#C4C4C4"/>
<path fill-rule="evenodd" clip-rule="evenodd" d="M13.0863 0.160643C12.7106 -0.112324 12.1847 -0.0290365 11.9118 0.34667L8.47949 5.0708C8.26774 5.02113 8.04698 4.99485 7.82008 4.99485C6.23183 4.99485 4.94431 6.28237 4.94431 7.87062C4.94431 9.45887 6.23183 10.7464 7.82008 10.7464C9.40832 10.7464 10.6959 9.45887 10.6959 7.87062C10.6959 7.22813 10.4852 6.63485 10.1291 6.15611L11.2176 4.65788L11.8304 5.10306C12.2787 5.42878 12.9061 5.32939 13.2318 4.88109C13.5575 4.43279 13.4582 3.80533 13.0099 3.47962L12.3971 3.03443L12.8223 2.44924L13.4069 2.87396C13.8552 3.19967 14.4826 3.10029 14.8083 2.65199C15.134 2.20368 15.0347 1.57622 14.5864 1.25051L14.0018 0.825789L13.8264 0.698342L13.0863 0.160643ZM8.77864 7.87063C8.77864 8.40004 8.34946 8.82922 7.82005 8.82922C7.29063 8.82922 6.86146 8.40004 6.86146 7.87063C6.86146 7.34121 7.29063 6.91204 7.82005 6.91204C8.34946 6.91204 8.77864 7.34121 8.77864 7.87063Z" fill="#FDFDFD"/>
</svg>
