<svg width="40" height="40" viewBox="0 0 40 40" fill="none" xmlns="http://www.w3.org/2000/svg">
<g id="CTA Next Arrow">
<rect id="Rectangle 2261" width="40" height="40" rx="4" fill="#00BCFF"/>
<path id="Vector 175" d="M13 19C12.4477 19 12 19.4477 12 20C12 20.5523 12.4477 21 13 21V19ZM27.7071 20.7071C28.0976 20.3166 28.0976 19.6834 27.7071 19.2929L21.3431 12.9289C20.9526 12.5384 20.3195 12.5384 19.9289 12.9289C19.5384 13.3195 19.5384 13.9526 19.9289 14.3431L25.5858 20L19.9289 25.6569C19.5384 26.0474 19.5384 26.6805 19.9289 27.0711C20.3195 27.4616 20.9526 27.4616 21.3431 27.0711L27.7071 20.7071ZM13 21H27V19H13V21Z" fill="#000000"/>
</g>
</svg>
