<svg xmlns="http://www.w3.org/2000/svg" width="88" height="88" viewBox="0 0 88 88" fill="none">
  <path d="M64.5 64.5H15L19.5 51.5V35.5L25 24L36.5 15.5L48.5 14L62 22.5L67 33L69.5 51.5L74 64.5H64.5Z" fill="#00183D"/>
  <path d="M77 24.4406C76.3526 24.7758 75.5987 24.8403 74.9038 24.6199C74.209 24.3994 73.6301 23.9121 73.2944 23.265C70.6695 18.0795 66.6964 13.6967 61.7925 10.5772C61.4869 10.3844 61.2222 10.1334 61.0136 9.83832C60.8051 9.54329 60.6566 9.21006 60.5768 8.85766C60.497 8.50526 60.4874 8.14059 60.5486 7.78448C60.6097 7.42837 60.7404 7.08779 60.9331 6.78218C61.1259 6.47657 61.3769 6.21191 61.672 6.00333C61.967 5.79475 62.3002 5.64632 62.6526 5.56652C63.005 5.48672 63.3697 5.47711 63.7258 5.53824C64.0819 5.59937 64.4225 5.73005 64.7281 5.9228C70.4433 9.58214 75.084 14.6938 78.1756 20.735C78.5108 21.3823 78.5753 22.1363 78.3549 22.8312C78.1344 23.526 77.6471 24.1049 77 24.4406ZM12.2753 24.75C12.7791 24.7498 13.2732 24.6112 13.7036 24.3493C14.134 24.0874 14.4842 23.7123 14.7159 23.265C17.3408 18.0795 21.3139 13.6967 26.2178 10.5772C26.835 10.1879 27.2723 9.56936 27.4335 8.85766C27.5946 8.14596 27.4665 7.39938 27.0772 6.78218C26.6879 6.16497 26.0694 5.72768 25.3577 5.56652C24.646 5.40535 23.8994 5.53351 23.2822 5.9228C17.567 9.58214 12.9263 14.6938 9.83468 20.735C9.61756 21.1541 9.51197 21.622 9.52806 22.0937C9.54415 22.5655 9.68138 23.0251 9.92656 23.4284C10.1717 23.8318 10.5166 24.1652 10.9279 24.3967C11.3393 24.6281 11.8033 24.7498 12.2753 24.75ZM76.2472 60.4794C76.7344 61.3148 76.9927 62.264 76.996 63.2311C76.9993 64.1982 76.7475 65.1491 76.2661 65.9879C75.7847 66.8267 75.0905 67.5237 74.2538 68.0086C73.417 68.4936 72.4671 68.7493 71.5 68.75H57.475C56.8438 71.8583 55.1575 74.6528 52.7017 76.66C50.2459 78.6673 47.1717 79.7638 44 79.7638C40.8283 79.7638 37.7541 78.6673 35.2983 76.66C32.8425 74.6528 31.1562 71.8583 30.525 68.75H16.5C15.5334 68.7481 14.5845 68.4915 13.7486 68.0061C12.9128 67.5206 12.2197 66.8235 11.7391 65.985C11.2584 65.1464 11.0073 64.1959 11.0109 63.2294C11.0145 62.2628 11.2728 61.3143 11.7597 60.4794C14.8569 55.134 16.5 47.5337 16.5 38.5C16.5 31.2065 19.3973 24.2118 24.5546 19.0546C29.7118 13.8973 36.7065 11 44 11C51.2934 11 58.2882 13.8973 63.4454 19.0546C68.6027 24.2118 71.5 31.2065 71.5 38.5C71.5 47.5303 73.1431 55.1306 76.2472 60.4794ZM51.7756 68.75H36.2244C36.7941 70.3567 37.8476 71.7475 39.24 72.7311C40.6324 73.7147 42.2952 74.2428 44 74.2428C45.7047 74.2428 47.3676 73.7147 48.76 72.7311C50.1524 71.7475 51.2059 70.3567 51.7756 68.75ZM71.5 63.25C67.8425 56.9697 66 48.6441 66 38.5C66 32.6652 63.6821 27.0694 59.5563 22.9436C55.4305 18.8178 49.8348 16.5 44 16.5C38.1652 16.5 32.5694 18.8178 28.4436 22.9436C24.3178 27.0694 22 32.6652 22 38.5C22 48.6475 20.1506 56.9731 16.5 63.25H71.5Z" fill="white"/>
</svg>
