<svg width="1128" height="532" viewBox="0 0 1128 532" fill="none" xmlns="http://www.w3.org/2000/svg">
<g opacity="0.56" clip-path="url(#clip0_15_1909)">
<path d="M-142.187 280.444C-123.968 292.657 -105.683 304.073 -87.3978 314.826C-18.299 355.513 53.3834 387.24 125.53 409.144C192.972 429.587 263.396 442.264 334.946 446.778C401.527 450.959 469.102 448.437 541.447 439.145C605.908 430.782 672.688 417.175 745.696 397.528C875.281 362.615 1005.73 313.167 1132.33 264.647" stroke="url(#paint0_linear_15_1909)" stroke-width="0.671369"/>
<path d="M-142.187 248.452C-137.417 251.97 -132.647 255.487 -127.81 258.873C-63.8128 304.604 3.49719 341.641 72.2647 368.987C136.527 394.541 204.5 412.595 274.261 422.618C339.252 431.976 405.767 434.764 477.715 431.114C541.778 427.861 608.625 419.565 682.162 405.759C818.637 380.138 957.696 338.787 1092.12 298.896C1105.7 294.847 1119.41 290.799 1133.06 286.75" stroke="url(#paint1_linear_15_1909)" stroke-width="0.671369"/>
<path d="M-141.524 217.588C-89.0544 260.266 -33.5369 296.307 23.7031 324.981C84.3218 355.314 149.379 378.479 216.888 393.878C279.759 408.214 344.817 416.113 415.771 418.104C478.973 419.896 545.356 416.843 618.827 408.878C755.236 394.077 895.619 363.943 1031.37 334.871C1064.49 327.769 1097.95 320.6 1131.47 313.631" stroke="url(#paint2_linear_15_1909)" stroke-width="0.671369"/>
<path d="M-140.597 187.387C-102.238 221.57 -61.7592 251.77 -19.7567 277.457C36.8871 312.304 98.4996 340.38 163.358 360.89C223.712 380.005 286.848 392.948 356.278 400.449C418.156 407.152 483.611 409.343 556.486 407.152C691.835 403.104 832.483 384.187 968.495 365.934C1022.55 358.699 1077.28 351.332 1132.13 344.827" stroke="url(#paint3_linear_15_1909)" stroke-width="0.671369"/>
<path d="M-142.187 154.731C-115.289 181.148 -87.1328 205.374 -57.8503 227.145C-5.51277 266.04 52.3235 298.63 114.068 323.985C171.507 347.614 232.258 365.336 299.767 378.213C359.723 389.695 423.787 396.997 495.536 400.514C628.765 407.019 768.619 399.253 903.901 391.753C979.36 387.571 1056.14 383.257 1132.4 381.465" stroke="url(#paint4_linear_15_1909)" stroke-width="0.671369"/>
<path d="M-141.325 124.465C-125.028 141.988 -108.134 158.648 -90.6439 174.246C-42.944 216.858 10.7185 253.696 68.9523 283.631C123.145 311.508 181.047 333.876 246.105 351.863C304.007 367.859 366.216 380.072 436.309 389.166C566.49 406.025 704.488 409.211 837.982 412.264C935.303 414.52 1034.88 416.777 1132 424.41" stroke="url(#paint5_linear_15_1909)" stroke-width="0.671369"/>
<path d="M-142.187 91.6093C-134.237 101.101 -126.022 110.327 -117.674 119.287C-74.8765 165.285 -25.6528 205.906 28.606 240.155C79.1547 272.014 133.943 298.631 196.02 321.53C251.338 341.907 311.228 358.832 379.201 373.302C505.341 400.117 640.557 414.055 771.335 427.463C891.579 439.809 1015.2 452.552 1132.13 475.385" stroke="url(#paint6_linear_15_1909)" stroke-width="0.671369"/>
<path d="M-140.53 60.7455C-140.067 61.3429 -139.603 61.9403 -139.139 62.604C-101.509 111.522 -57.0553 155.661 -6.97028 193.826C39.6035 229.336 90.881 260.001 149.645 287.546C202.048 312.038 259.222 333.544 324.545 353.124C445.848 389.563 577.288 413.856 704.356 437.353C843.348 463.04 987.111 489.656 1117.16 532.135C1122.33 533.795 1127.43 535.52 1132.46 537.246" stroke="url(#paint7_linear_15_1909)" stroke-width="0.671369"/>
<path d="M-142.319 23.9068C-112.507 67.9129 -77.3281 108.667 -37.4456 145.173C4.95439 184.001 52.3231 218.383 107.443 250.309C156.534 278.717 210.661 304.404 272.936 328.963C388.542 374.496 515.278 408.877 637.774 442.064C771.798 478.371 910.393 515.939 1034.08 568.176C1069.59 583.242 1102.45 598.774 1133.13 615.168" stroke="url(#paint8_linear_15_1909)" stroke-width="0.671369"/>
<path d="M-135.429 -1.5137C-135.097 -1.04908 -134.832 -0.584463 -134.501 -0.119844C-113.632 33.3328 -89.65 65.0596 -62.8187 94.5962C-24.9237 136.412 18.4038 174.179 69.4825 210.087C114.996 242.08 165.678 271.749 224.508 300.954C333.688 355.115 454.859 398.988 571.989 441.402C700.116 487.863 832.616 535.852 949.017 597.248C1011.69 630.303 1064.89 664.485 1111.66 701.788C1118.22 707.031 1124.65 712.275 1130.94 717.651" stroke="url(#paint9_linear_15_1909)" stroke-width="0.671369"/>
<path d="M-112.109 0.0798798C-102.967 14.5495 -93.2281 28.6872 -82.8931 42.493C-49.6356 86.8974 -10.7469 127.718 36.0256 167.277C77.6969 202.521 124.602 235.907 179.589 269.426C281.681 331.619 396.426 384.586 507.394 435.76C628.764 491.78 754.308 549.658 862.759 619.617C912.844 651.941 956.039 684.531 994.067 718.78" stroke="url(#paint10_linear_15_1909)" stroke-width="0.671369"/>
<path d="M-91.8369 -1.38075C-64.5419 41.6961 -32.0132 82.2508 7.27308 122.208C44.8368 160.373 87.7668 197.145 138.514 234.646C232.854 304.273 340.444 365.669 444.523 425.074C558.407 490.054 676.133 557.225 775.972 635.015C811.349 662.627 842.818 690.04 870.908 718.049" stroke="url(#paint11_linear_15_1909)" stroke-width="0.671369"/>
<path d="M-71.498 -0.65094C-55.3993 24.9695 -37.1806 50.1253 -16.6431 75.2812C16.6144 116.035 55.2382 155.793 101.547 196.945C187.539 273.276 287.378 342.57 383.904 409.542C489.507 482.819 598.753 558.552 689.383 643.445C716.413 668.733 740.727 693.756 762.589 718.846" stroke="url(#paint12_linear_15_1909)" stroke-width="0.671369"/>
<path d="M-53.2793 -0.51799C-47.7143 8.64165 -41.818 17.7349 -35.723 26.8946C-6.97055 69.9051 27.2145 112.318 68.8194 156.656C146.001 239.027 237.426 315.423 325.869 389.364C422.594 470.208 522.632 553.773 603.589 644.971C625.916 670.127 645.989 694.818 663.943 719.443" stroke="url(#paint13_linear_15_1909)" stroke-width="0.671369"/>
<path d="M-37.6436 -0.584473C-15.9136 36.9833 9.79144 74.7503 40.3989 114.243C108.371 201.923 190.919 284.758 270.75 364.938C358.068 452.619 448.3 543.286 519.188 639.927C538.93 666.875 556.42 693.159 571.856 719.178" stroke="url(#paint14_linear_15_1909)" stroke-width="0.671369"/>
<path d="M-24.5928 -0.25264C-12.3365 22.7128 1.31098 46.0102 16.5485 70.0377C74.981 162.165 148.187 250.775 218.942 336.397C296.322 430.118 376.352 526.958 436.772 628.311C455.388 659.574 471.421 689.84 485.002 719.709" stroke="url(#paint15_linear_15_1909)" stroke-width="0.671369"/>
<path d="M-14.7217 -0.451523C-10.8129 7.71251 -6.77168 15.9429 -2.53168 24.3061C46.0296 120.217 109.431 213.672 170.778 304.073C237.89 402.971 307.253 505.254 357.007 610.39C374.696 647.826 389.006 683.601 400.335 718.713" stroke="url(#paint16_linear_15_1909)" stroke-width="0.671369"/>
<path d="M-8.16309 -0.0534515C29.5332 91.1447 78.8232 181.215 126.656 268.497C183.167 371.775 241.599 478.505 280.422 586.628C296.984 632.758 309.042 676.234 316.992 718.58" stroke="url(#paint17_linear_15_1909)" stroke-width="0.671369"/>
<path d="M233.65 723.492C231.464 670.525 223.05 615.899 208.077 556.561C180.186 446.313 132.95 335.933 87.2373 229.137C55.1723 154.2 22.2461 77.3389 -4.25391 -0.0534515" stroke="url(#paint18_linear_15_1909)" stroke-width="0.671369"/>
<path d="M147.392 727.806C150.241 675.105 148.386 581.451 139.244 521.449C122.35 410.073 86.4424 296.905 51.6611 187.52C32.1174 125.925 12.1099 63.0021 -4.65137 -0.186172" stroke="url(#paint19_linear_15_1909)" stroke-width="0.671369"/>
<path d="M-9.35547 -0.318802C-0.411718 48.068 9.92329 96.2557 20.0595 143.647C43.8433 254.757 68.3558 369.651 74.4508 481.425C77.6971 541.56 75.5108 596.054 67.7595 648.025C64.1158 672.384 59.2795 695.947 53.1845 718.979" stroke="url(#paint20_linear_15_1909)" stroke-width="0.671369"/>
<path d="M-16.974 -0.65094C-13.5952 32.2707 -9.88524 65.0595 -6.17524 97.5165C6.61101 209.49 19.861 325.313 15.2235 436.556C12.706 496.426 5.41851 550.255 -7.10274 601.164C-17.3715 642.714 -30.8865 681.61 -48.1777 718.912" stroke="url(#paint21_linear_15_1909)" stroke-width="0.671369"/>
</g>
<defs>
<linearGradient id="paint0_linear_15_1909" x1="338.859" y1="1.86357" x2="651.976" y2="543.184" gradientUnits="userSpaceOnUse">
<stop stop-color="#00C3FF" stop-opacity="0"/>
<stop offset="0.165" stop-color="#04C1FC" stop-opacity="0.314"/>
<stop offset="0.329" stop-color="#10BAF4" stop-opacity="0.624"/>
<stop offset="0.491" stop-color="#24AEE6" stop-opacity="0.933"/>
<stop offset="0.526" stop-color="#29ABE2"/>
<stop offset="0.542" stop-color="#2195C7"/>
<stop offset="0.564" stop-color="#187CA8"/>
<stop offset="0.589" stop-color="#11668C"/>
<stop offset="0.617" stop-color="#0B5476"/>
<stop offset="0.65" stop-color="#064765"/>
<stop offset="0.691" stop-color="#023D5A"/>
<stop offset="0.748" stop-color="#013853"/>
<stop offset="0.906" stop-color="#003651"/>
</linearGradient>
<linearGradient id="paint1_linear_15_1909" x1="327.486" y1="-23.4848" x2="664.186" y2="558.608" gradientUnits="userSpaceOnUse">
<stop stop-color="#00C3FF" stop-opacity="0"/>
<stop offset="0.165" stop-color="#04C1FC" stop-opacity="0.314"/>
<stop offset="0.329" stop-color="#10BAF4" stop-opacity="0.624"/>
<stop offset="0.491" stop-color="#24AEE6" stop-opacity="0.933"/>
<stop offset="0.526" stop-color="#29ABE2"/>
<stop offset="0.542" stop-color="#2195C7"/>
<stop offset="0.564" stop-color="#187CA8"/>
<stop offset="0.589" stop-color="#11668C"/>
<stop offset="0.617" stop-color="#0B5476"/>
<stop offset="0.65" stop-color="#064765"/>
<stop offset="0.691" stop-color="#023D5A"/>
<stop offset="0.748" stop-color="#013853"/>
<stop offset="0.906" stop-color="#003651"/>
</linearGradient>
<linearGradient id="paint2_linear_15_1909" x1="314.849" y1="-46.597" x2="675.967" y2="577.712" gradientUnits="userSpaceOnUse">
<stop stop-color="#00C3FF" stop-opacity="0"/>
<stop offset="0.165" stop-color="#04C1FC" stop-opacity="0.314"/>
<stop offset="0.329" stop-color="#10BAF4" stop-opacity="0.624"/>
<stop offset="0.491" stop-color="#24AEE6" stop-opacity="0.933"/>
<stop offset="0.526" stop-color="#29ABE2"/>
<stop offset="0.542" stop-color="#2195C7"/>
<stop offset="0.564" stop-color="#187CA8"/>
<stop offset="0.589" stop-color="#11668C"/>
<stop offset="0.617" stop-color="#0B5476"/>
<stop offset="0.65" stop-color="#064765"/>
<stop offset="0.691" stop-color="#023D5A"/>
<stop offset="0.748" stop-color="#013853"/>
<stop offset="0.906" stop-color="#003651"/>
</linearGradient>
<linearGradient id="paint3_linear_15_1909" x1="302.427" y1="-69.07" x2="690.093" y2="601.125" gradientUnits="userSpaceOnUse">
<stop stop-color="#00C3FF" stop-opacity="0"/>
<stop offset="0.165" stop-color="#04C1FC" stop-opacity="0.314"/>
<stop offset="0.329" stop-color="#10BAF4" stop-opacity="0.624"/>
<stop offset="0.491" stop-color="#24AEE6" stop-opacity="0.933"/>
<stop offset="0.526" stop-color="#29ABE2"/>
<stop offset="0.542" stop-color="#2195C7"/>
<stop offset="0.564" stop-color="#187CA8"/>
<stop offset="0.589" stop-color="#11668C"/>
<stop offset="0.617" stop-color="#0B5476"/>
<stop offset="0.65" stop-color="#064765"/>
<stop offset="0.691" stop-color="#023D5A"/>
<stop offset="0.748" stop-color="#013853"/>
<stop offset="0.906" stop-color="#003651"/>
</linearGradient>
<linearGradient id="paint4_linear_15_1909" x1="286.604" y1="-93.4433" x2="704.734" y2="629.42" gradientUnits="userSpaceOnUse">
<stop stop-color="#00C3FF" stop-opacity="0"/>
<stop offset="0.165" stop-color="#04C1FC" stop-opacity="0.314"/>
<stop offset="0.329" stop-color="#10BAF4" stop-opacity="0.624"/>
<stop offset="0.491" stop-color="#24AEE6" stop-opacity="0.933"/>
<stop offset="0.526" stop-color="#29ABE2"/>
<stop offset="0.542" stop-color="#2195C7"/>
<stop offset="0.564" stop-color="#187CA8"/>
<stop offset="0.589" stop-color="#11668C"/>
<stop offset="0.617" stop-color="#0B5476"/>
<stop offset="0.65" stop-color="#064765"/>
<stop offset="0.691" stop-color="#023D5A"/>
<stop offset="0.748" stop-color="#013853"/>
<stop offset="0.906" stop-color="#003651"/>
</linearGradient>
<linearGradient id="paint5_linear_15_1909" x1="271.201" y1="-114.261" x2="720.715" y2="662.867" gradientUnits="userSpaceOnUse">
<stop stop-color="#00C3FF" stop-opacity="0"/>
<stop offset="0.165" stop-color="#04C1FC" stop-opacity="0.314"/>
<stop offset="0.329" stop-color="#10BAF4" stop-opacity="0.624"/>
<stop offset="0.491" stop-color="#24AEE6" stop-opacity="0.933"/>
<stop offset="0.526" stop-color="#29ABE2"/>
<stop offset="0.542" stop-color="#2195C7"/>
<stop offset="0.564" stop-color="#187CA8"/>
<stop offset="0.589" stop-color="#11668C"/>
<stop offset="0.617" stop-color="#0B5476"/>
<stop offset="0.65" stop-color="#064765"/>
<stop offset="0.691" stop-color="#023D5A"/>
<stop offset="0.748" stop-color="#013853"/>
<stop offset="0.906" stop-color="#003651"/>
</linearGradient>
<linearGradient id="paint6_linear_15_1909" x1="252.618" y1="-136.883" x2="738.712" y2="703.475" gradientUnits="userSpaceOnUse">
<stop stop-color="#00C3FF" stop-opacity="0"/>
<stop offset="0.165" stop-color="#04C1FC" stop-opacity="0.314"/>
<stop offset="0.329" stop-color="#10BAF4" stop-opacity="0.624"/>
<stop offset="0.491" stop-color="#24AEE6" stop-opacity="0.933"/>
<stop offset="0.526" stop-color="#29ABE2"/>
<stop offset="0.542" stop-color="#2195C7"/>
<stop offset="0.564" stop-color="#187CA8"/>
<stop offset="0.589" stop-color="#11668C"/>
<stop offset="0.617" stop-color="#0B5476"/>
<stop offset="0.65" stop-color="#064765"/>
<stop offset="0.691" stop-color="#023D5A"/>
<stop offset="0.748" stop-color="#013853"/>
<stop offset="0.906" stop-color="#003651"/>
</linearGradient>
<linearGradient id="paint7_linear_15_1909" x1="495.822" y1="537.765" x2="495.822" y2="60.4176" gradientUnits="userSpaceOnUse">
<stop offset="0.138" stop-color="#014F73" stop-opacity="0.7"/>
<stop offset="0.315" stop-color="#014565" stop-opacity="0.781"/>
<stop offset="0.578" stop-color="#003A56" stop-opacity="0.901"/>
<stop offset="0.795" stop-color="#003651"/>
</linearGradient>
<linearGradient id="paint8_linear_15_1909" x1="495.31" y1="615.658" x2="495.31" y2="23.6062" gradientUnits="userSpaceOnUse">
<stop offset="0.057" stop-color="#5B798C" stop-opacity="0"/>
<stop offset="0.198" stop-color="#014F73" stop-opacity="0.7"/>
<stop offset="0.329" stop-color="#014768" stop-opacity="0.766"/>
<stop offset="0.596" stop-color="#003A57" stop-opacity="0.9"/>
<stop offset="0.795" stop-color="#003651"/>
</linearGradient>
<linearGradient id="paint9_linear_15_1909" x1="497.688" y1="718.063" x2="497.688" y2="-1.81904" gradientUnits="userSpaceOnUse">
<stop offset="0.182" stop-color="#5B798C" stop-opacity="0"/>
<stop offset="0.309" stop-color="#014F73" stop-opacity="0.7"/>
<stop offset="0.795" stop-color="#003651"/>
</linearGradient>
<linearGradient id="paint10_linear_15_1909" x1="440.931" y1="719.205" x2="440.931" y2="-0.21085" gradientUnits="userSpaceOnUse">
<stop offset="0.163" stop-color="#5B798C" stop-opacity="0"/>
<stop offset="0.309" stop-color="#014F73" stop-opacity="0.7"/>
<stop offset="0.795" stop-color="#003651"/>
</linearGradient>
<linearGradient id="paint11_linear_15_1909" x1="389.492" y1="718.428" x2="389.492" y2="-1.66283" gradientUnits="userSpaceOnUse">
<stop offset="0.164" stop-color="#5B798C" stop-opacity="0"/>
<stop offset="0.309" stop-color="#014F73" stop-opacity="0.7"/>
<stop offset="0.795" stop-color="#003651"/>
</linearGradient>
<linearGradient id="paint12_linear_15_1909" x1="345.515" y1="719.211" x2="345.515" y2="-0.92638" gradientUnits="userSpaceOnUse">
<stop offset="0.168" stop-color="#5B798C" stop-opacity="0"/>
<stop offset="0.309" stop-color="#014F73" stop-opacity="0.7"/>
<stop offset="0.795" stop-color="#003651"/>
</linearGradient>
<linearGradient id="paint13_linear_15_1909" x1="305.307" y1="719.749" x2="305.307" y2="-0.827314" gradientUnits="userSpaceOnUse">
<stop offset="0.18" stop-color="#5B798C" stop-opacity="0"/>
<stop offset="0.309" stop-color="#014F73" stop-opacity="0.7"/>
<stop offset="0.795" stop-color="#003651"/>
</linearGradient>
<linearGradient id="paint14_linear_15_1909" x1="267.11" y1="719.483" x2="267.11" y2="-0.861237" gradientUnits="userSpaceOnUse">
<stop offset="0.164" stop-color="#5B798C" stop-opacity="0"/>
<stop offset="0.309" stop-color="#014F73" stop-opacity="0.7"/>
<stop offset="0.795" stop-color="#003651"/>
</linearGradient>
<linearGradient id="paint15_linear_15_1909" x1="230.188" y1="719.921" x2="230.188" y2="-0.542677" gradientUnits="userSpaceOnUse">
<stop offset="0.164" stop-color="#5B798C" stop-opacity="0"/>
<stop offset="0.309" stop-color="#014F73" stop-opacity="0.7"/>
<stop offset="0.795" stop-color="#003651"/>
</linearGradient>
<linearGradient id="paint16_linear_15_1909" x1="192.817" y1="718.866" x2="192.817" y2="-0.697107" gradientUnits="userSpaceOnUse">
<stop offset="0.188" stop-color="#5B798C" stop-opacity="0"/>
<stop offset="0.309" stop-color="#014F73" stop-opacity="0.7"/>
<stop offset="0.795" stop-color="#003651"/>
</linearGradient>
<linearGradient id="paint17_linear_15_1909" x1="154.45" y1="718.68" x2="154.45" y2="-0.287733" gradientUnits="userSpaceOnUse">
<stop offset="0.164" stop-color="#5B798C" stop-opacity="0"/>
<stop offset="0.309" stop-color="#014F73" stop-opacity="0.7"/>
<stop offset="0.795" stop-color="#003651"/>
</linearGradient>
<linearGradient id="paint18_linear_15_1909" x1="114.724" y1="723.512" x2="114.724" y2="-0.21539" gradientUnits="userSpaceOnUse">
<stop offset="0.178" stop-color="#5B798C" stop-opacity="0"/>
<stop offset="0.309" stop-color="#014F73" stop-opacity="0.7"/>
<stop offset="0.795" stop-color="#003651"/>
</linearGradient>
<linearGradient id="paint19_linear_15_1909" x1="71.9986" y1="727.859" x2="71.9986" y2="-0.304313" gradientUnits="userSpaceOnUse">
<stop offset="0.171" stop-color="#5B798C" stop-opacity="0"/>
<stop offset="0.309" stop-color="#014F73" stop-opacity="0.7"/>
<stop offset="0.795" stop-color="#003651"/>
</linearGradient>
<linearGradient id="paint20_linear_15_1909" x1="33.2758" y1="719.125" x2="33.2758" y2="-0.439621" gradientUnits="userSpaceOnUse">
<stop offset="0.166" stop-color="#5B798C" stop-opacity="0"/>
<stop offset="0.309" stop-color="#014F73" stop-opacity="0.7"/>
<stop offset="0.795" stop-color="#003651"/>
</linearGradient>
<linearGradient id="paint21_linear_15_1909" x1="-15.9617" y1="719.138" x2="-15.9617" y2="-0.686766" gradientUnits="userSpaceOnUse">
<stop offset="0.158" stop-color="#5B798C" stop-opacity="0"/>
<stop offset="0.309" stop-color="#014F73" stop-opacity="0.7"/>
<stop offset="0.795" stop-color="#003651"/>
</linearGradient>
<clipPath id="clip0_15_1909">
<rect width="1272" height="717" fill="white" transform="translate(-140)"/>
</clipPath>
</defs>
</svg>
