<svg width="32" height="33" viewBox="0 0 32 33" fill="none" xmlns="http://www.w3.org/2000/svg">
<path fill-rule="evenodd" clip-rule="evenodd" d="M7 5.25C7 4.69772 7.44772 4.25 8 4.25H24C24.5523 4.25 25 4.69772 25 5.25V10.25C25 10.8023 24.5523 11.25 24 11.25C23.4477 11.25 23 10.8023 23 10.25V6.25H9V10.25C9 10.8023 8.55228 11.25 8 11.25C7.44772 11.25 7 10.8023 7 10.25V5.25Z" fill="white"/>
<path fill-rule="evenodd" clip-rule="evenodd" d="M7 19.25C7 18.6977 7.44772 18.25 8 18.25H24C24.5523 18.25 25 18.6977 25 19.25V27.75C25 28.3023 24.5523 28.75 24 28.75H8C7.44772 28.75 7 28.3023 7 27.75V19.25ZM9 20.25V26.75H23V20.25H9Z" fill="white"/>
<path fill-rule="evenodd" clip-rule="evenodd" d="M5.6625 11.25C4.95171 11.25 4.5 11.7749 4.5 12.25V21.25H8C8.55228 21.25 9 21.6977 9 22.25C9 22.8023 8.55228 23.25 8 23.25H3.5C2.94772 23.25 2.5 22.8023 2.5 22.25V12.25C2.5 10.5251 3.99829 9.25 5.6625 9.25H26.3375C28.0017 9.25 29.5 10.5251 29.5 12.25V22.25C29.5 22.8023 29.0523 23.25 28.5 23.25H24C23.4477 23.25 23 22.8023 23 22.25C23 21.6977 23.4477 21.25 24 21.25H27.5V12.25C27.5 11.7749 27.0483 11.25 26.3375 11.25H5.6625Z" fill="white"/>
<path d="M23.5 16.25C24.3284 16.25 25 15.5784 25 14.75C25 13.9216 24.3284 13.25 23.5 13.25C22.6716 13.25 22 13.9216 22 14.75C22 15.5784 22.6716 16.25 23.5 16.25Z" fill="white"/>
</svg>
