<svg width="22" height="22" viewBox="0 0 22 22" fill="none" xmlns="http://www.w3.org/2000/svg">
<g id="ArrowsCounterClockwise">
<g id="Vector">
<path fill-rule="evenodd" clip-rule="evenodd" d="M2.73288 3.75549C3.11258 3.75549 3.42038 4.06329 3.42038 4.44299V7.88049H6.85788C7.23758 7.88049 7.54538 8.18829 7.54538 8.56799C7.54538 8.94768 7.23758 9.25549 6.85788 9.25549H2.73288C2.35318 9.25549 2.04538 8.94768 2.04538 8.56799V4.44299C2.04538 4.06329 2.35318 3.75549 2.73288 3.75549Z" fill="white"/>
<path fill-rule="evenodd" clip-rule="evenodd" d="M7.84344 3.37933C8.84412 2.96441 9.91678 2.75084 11.0001 2.75084C12.0834 2.75084 13.156 2.96441 14.1567 3.37933C15.1574 3.79425 16.0664 4.40238 16.8319 5.16894C17.1002 5.43762 17.0998 5.87293 16.8312 6.14121C16.5625 6.4095 16.1272 6.40919 15.8589 6.14051C15.2212 5.50184 14.4638 4.99517 13.63 4.64947C12.7963 4.30378 11.9026 4.12584 11.0001 4.12584C10.0975 4.12584 9.20382 4.30378 8.37009 4.64947C7.53637 4.99517 6.77898 5.50184 6.14125 6.14051L6.14017 6.14158L3.2183 9.05486C2.94942 9.32295 2.51412 9.3223 2.24603 9.05342C1.97794 8.78454 1.97858 8.34924 2.24746 8.08115L5.16826 5.16894L5.16881 5.1684C5.93413 4.4021 6.843 3.79415 7.84344 3.37933Z" fill="white"/>
<path fill-rule="evenodd" clip-rule="evenodd" d="M14.4546 13.432C14.4546 13.0523 14.7624 12.7445 15.1421 12.7445H19.2671C19.6468 12.7445 19.9546 13.0523 19.9546 13.432V17.557C19.9546 17.9367 19.6468 18.2445 19.2671 18.2445C18.8874 18.2445 18.5796 17.9367 18.5796 17.557V14.1195H15.1421C14.7624 14.1195 14.4546 13.8117 14.4546 13.432Z" fill="white"/>
<path fill-rule="evenodd" clip-rule="evenodd" d="M19.7541 12.9466C20.0222 13.2155 20.0216 13.6508 19.7527 13.9189L16.8319 16.8311L16.8314 16.8316C16.066 17.5979 15.1572 18.2059 14.1567 18.6207C13.156 19.0356 12.0834 19.2492 11.0001 19.2492C9.91678 19.2492 8.84412 19.0356 7.84344 18.6207C6.84276 18.2058 5.93371 17.5976 5.16826 16.8311C4.89997 16.5624 4.90029 16.1271 5.16897 15.8588C5.43765 15.5905 5.87296 15.5908 6.14124 15.8595C6.77898 16.4982 7.53637 17.0049 8.37009 17.3505C9.20382 17.6962 10.0975 17.8742 11.0001 17.8742C11.9026 17.8742 12.7963 17.6962 13.63 17.3505C14.4638 17.0049 15.2212 16.4982 15.8589 15.8595L18.7818 12.9452C19.0507 12.6771 19.486 12.6777 19.7541 12.9466Z" fill="white"/>
</g>
</g>
</svg>
