<svg width="8" height="12" viewBox="0 0 8 12" fill="none" xmlns="http://www.w3.org/2000/svg">
<path id="Vector" d="M7.61914 5.64377C7.61914 5.97114 7.47884 6.25173 7.24501 6.4388L2.05398 11.0686C1.67985 11.3492 1.11866 11.3025 0.838059 10.9283C0.557462 10.5542 0.557462 10.0398 0.931591 9.75919L5.51467 5.73731C5.56143 5.69054 5.56143 5.64377 5.51467 5.55024L0.931591 1.52836C0.557462 1.201 0.510696 0.68657 0.838059 0.312441C1.16542 -0.0616879 1.67985 -0.108454 2.05398 0.218909C2.05398 0.218909 2.05398 0.218909 2.10074 0.265674L7.29178 4.84875C7.47884 5.03582 7.61914 5.36318 7.61914 5.64377Z" fill="#000000"/>
</svg>
