<svg width="20" height="21" viewBox="0 0 20 21" fill="none" xmlns="http://www.w3.org/2000/svg">
<g id="MagnifyingGlass">
<g id="Vector">
<path fill-rule="evenodd" clip-rule="evenodd" d="M9.0625 3.83813C5.78331 3.83813 3.125 6.49644 3.125 9.77563C3.125 13.0548 5.78331 15.7131 9.0625 15.7131C12.3417 15.7131 15 13.0548 15 9.77563C15 6.49644 12.3417 3.83813 9.0625 3.83813ZM1.875 9.77563C1.875 5.80609 5.09295 2.58813 9.0625 2.58813C13.032 2.58813 16.25 5.80609 16.25 9.77563C16.25 13.7452 13.032 16.9631 9.0625 16.9631C5.09295 16.9631 1.875 13.7452 1.875 9.77563Z" fill="white"/>
<path fill-rule="evenodd" clip-rule="evenodd" d="M13.2611 13.9743C13.5051 13.7303 13.9009 13.7303 14.1449 13.9743L17.9418 17.7712C18.1859 18.0153 18.1859 18.411 17.9418 18.6551C17.6977 18.8992 17.302 18.8992 17.0579 18.6551L13.2611 14.8582C13.017 14.6142 13.017 14.2184 13.2611 13.9743Z" fill="white"/>
</g>
</g>
</svg>
