<svg width="20" height="21" viewBox="0 0 20 21" fill="none" xmlns="http://www.w3.org/2000/svg">
<g id="ShieldWarning">
<g id="Vector">
<path fill-rule="evenodd" clip-rule="evenodd" d="M2.86612 3.70425C3.10054 3.46983 3.41848 3.33813 3.75 3.33813H16.25C16.5815 3.33813 16.8995 3.46983 17.1339 3.70425C17.3683 3.93867 17.5 4.25662 17.5 4.58813V9.17407C17.5 16.1653 11.5643 18.4791 10.4004 18.8661C10.1415 18.9588 9.85848 18.9588 9.59963 18.8661C8.43567 18.4791 2.5 16.1653 2.5 9.17407V4.58813C2.5 4.25661 2.6317 3.93867 2.86612 3.70425ZM16.25 4.58813L3.75 4.58813L3.75 9.17407C3.75 15.2882 8.92168 17.3248 10 17.6819C11.0783 17.3248 16.25 15.2882 16.25 9.17407V4.58813Z" fill="#00B45A"/>
<path fill-rule="evenodd" clip-rule="evenodd" d="M10 7.08813C10.3452 7.08813 10.625 7.36796 10.625 7.71313V10.8381C10.625 11.1833 10.3452 11.4631 10 11.4631C9.65482 11.4631 9.375 11.1833 9.375 10.8381V7.71313C9.375 7.36796 9.65482 7.08813 10 7.08813Z" fill="#00B45A"/>
<path d="M10 14.5881C10.5178 14.5881 10.9375 14.1684 10.9375 13.6506C10.9375 13.1329 10.5178 12.7131 10 12.7131C9.48223 12.7131 9.0625 13.1329 9.0625 13.6506C9.0625 14.1684 9.48223 14.5881 10 14.5881Z" fill="#00B45A"/>
</g>
</g>
</svg>
