<svg width="24" height="25" viewBox="0 0 24 25" fill="none" xmlns="http://www.w3.org/2000/svg">
<path fill-rule="evenodd" clip-rule="evenodd" d="M3.43934 4.68934C3.72064 4.40804 4.10217 4.25 4.5 4.25H19.5C19.8978 4.25 20.2794 4.40804 20.5607 4.68934C20.842 4.97065 21 5.35218 21 5.75V11.2531C21 19.6427 13.8772 22.4192 12.4804 22.8836C12.1698 22.9948 11.8302 22.9948 11.5196 22.8836C10.1228 22.4192 3 19.6427 3 11.2531V5.75C3 5.35217 3.15804 4.97064 3.43934 4.68934ZM19.5 5.75L4.5 5.75L4.5 11.2531C4.5 18.5901 10.706 21.034 12 21.4626C13.294 21.034 19.5 18.5901 19.5 11.2531V5.75Z" fill="white"/>
<path fill-rule="evenodd" clip-rule="evenodd" d="M16.6677 9.7323C16.9536 10.032 16.9424 10.5067 16.6427 10.7927L11.1396 16.0427C10.8496 16.3193 10.3934 16.3191 10.1037 16.0422L7.35684 13.4172C7.05738 13.131 7.0466 12.6563 7.33278 12.3568C7.61895 12.0574 8.0937 12.0466 8.39317 12.3328L10.6223 14.463L15.6073 9.70734C15.907 9.42142 16.3817 9.43259 16.6677 9.7323Z" fill="white"/>
</svg>
