<svg width="17" height="16" viewBox="0 0 17 16" fill="none" xmlns="http://www.w3.org/2000/svg">
<g id="signature-light 1">
<path id="Vector" d="M15.3066 10.625H4.59414C4.80289 10.2163 5.01477 9.79063 5.2229 9.35688C6.16665 9.515 7.31102 8.82625 8.63727 7.30188C8.89352 8.07312 9.4104 9.18437 10.3016 9.35312C10.9316 9.4725 11.5629 9.12312 12.2223 8.29062C12.5898 8.80125 13.4216 9.375 15.3066 9.375C15.4061 9.375 15.5015 9.33549 15.5718 9.26517C15.6421 9.19484 15.6816 9.09946 15.6816 9C15.6816 8.90054 15.6421 8.80516 15.5718 8.73483C15.5015 8.66451 15.4061 8.625 15.3066 8.625C12.7866 8.625 12.6854 7.55375 12.6816 7.4925C12.6799 7.40396 12.6468 7.31891 12.5884 7.2524C12.5299 7.18589 12.4498 7.14222 12.3622 7.12912C12.2746 7.11602 12.1852 7.13433 12.1098 7.18082C12.0345 7.22732 11.978 7.29898 11.9504 7.38312C11.3716 8.25375 10.8373 8.69125 10.4416 8.61625C10.1291 8.5575 9.80352 8.17063 9.52727 7.5275C9.3773 7.17091 9.25913 6.80177 9.17415 6.42438C9.15848 6.34828 9.11958 6.27893 9.0628 6.2259C9.00602 6.17288 8.93417 6.1388 8.85719 6.12837C8.7802 6.11794 8.70188 6.13168 8.63304 6.16768C8.5642 6.20369 8.50824 6.26019 8.4729 6.32937C7.32227 7.76062 6.29852 8.56187 5.56789 8.62C7.05664 5.365 7.50852 3.29375 6.94602 2.29875C6.7729 1.9925 6.41352 1.625 5.68164 1.625H5.66852C4.73102 1.63125 3.98789 2.545 3.62539 4.13375C3.20227 6 3.44164 8.25 4.53289 9.0625C4.27352 9.60313 4.00789 10.1306 3.75039 10.625H2.30664C2.20719 10.625 2.11181 10.6645 2.04148 10.7348C1.97115 10.8052 1.93164 10.9005 1.93164 11C1.93164 11.0995 1.97115 11.1948 2.04148 11.2652C2.11181 11.3355 2.20719 11.375 2.30664 11.375H3.35414C2.59727 12.7863 1.99414 13.7913 1.98539 13.8069C1.95826 13.8491 1.93987 13.8963 1.93133 13.9458C1.92279 13.9953 1.92426 14.0459 1.93566 14.0948C1.94706 14.1437 1.96816 14.1898 1.9977 14.2304C2.02724 14.2709 2.06463 14.3052 2.10765 14.331C2.15066 14.3569 2.19843 14.3738 2.24812 14.3809C2.29782 14.388 2.34842 14.385 2.39694 14.3721C2.44545 14.3593 2.49089 14.3368 2.53057 14.306C2.57024 14.2753 2.60333 14.2369 2.62789 14.1931C2.63789 14.1769 3.35039 12.9888 4.20352 11.375H15.3066C15.4061 11.375 15.5015 11.3355 15.5718 11.2652C15.6421 11.1948 15.6816 11.0995 15.6816 11C15.6816 10.9005 15.6421 10.8052 15.5718 10.7348C15.5015 10.6645 15.4061 10.625 15.3066 10.625ZM4.35914 4.30125C4.62539 3.1325 5.14352 2.375 5.68164 2.375C6.07914 2.375 6.21852 2.53187 6.29539 2.66812C6.54539 3.10562 6.67039 4.4275 4.86602 8.35563C4.22102 7.71063 3.98102 5.9575 4.35914 4.30125Z" fill="white"/>
</g>
</svg>
