<svg width="11" height="11" viewBox="0 0 11 11" fill="none" xmlns="http://www.w3.org/2000/svg">
<path fill-rule="evenodd" clip-rule="evenodd" d="M8.14197 0.160651C7.76626 -0.112316 7.24041 -0.0290283 6.96744 0.346679L3.53516 5.0708C3.32342 5.02113 3.10267 4.99485 2.87577 4.99485C1.28753 4.99485 0 6.28238 0 7.87062C0 9.45887 1.28753 10.7464 2.87577 10.7464C4.46402 10.7464 5.75155 9.45887 5.75155 7.87062C5.75155 7.22813 5.54085 6.63484 5.18477 6.15609L6.27328 4.65789L6.88602 5.10307C7.33433 5.42878 7.96179 5.3294 8.2875 4.8811C8.61321 4.4328 8.51383 3.80534 8.06553 3.47963L7.45279 3.03444L7.87795 2.44925L8.46253 2.87397C8.91083 3.19968 9.53829 3.1003 9.864 2.65199C10.1897 2.20369 10.0903 1.57623 9.64203 1.25052L9.05746 0.825797L8.88204 0.69835L8.14197 0.160651ZM3.83433 7.87063C3.83433 8.40005 3.40516 8.82922 2.87574 8.82922C2.34633 8.82922 1.91715 8.40005 1.91715 7.87063C1.91715 7.34122 2.34633 6.91204 2.87574 6.91204C3.40516 6.91204 3.83433 7.34122 3.83433 7.87063Z" fill="#FDFDFD"/>
</svg>
