<svg width="16" height="16" viewBox="0 0 16 16" fill="none" xmlns="http://www.w3.org/2000/svg">
<path id="Vector" opacity="0.6" d="M11.2806 12.5807C11.5794 13.5044 10.5192 14.2692 9.73695 13.6943L8.14915 12.5273C7.7968 12.2683 7.31706 12.2683 6.96471 12.5273L5.3769 13.6943C4.59461 14.2692 3.53442 13.5044 3.83322 12.5807L4.45256 10.6661C4.58544 10.2553 4.43968 9.80561 4.09107 9.55089L2.47366 8.3691C1.69259 7.7984 2.09627 6.56167 3.06362 6.56167H5.04283C5.4774 6.56167 5.86222 6.28101 5.99501 5.86723L6.60475 3.96715C6.90189 3.04122 8.21197 3.04122 8.5091 3.96714L9.11885 5.86723C9.25163 6.28101 9.63646 6.56167 10.071 6.56167H12.0499C13.0173 6.56167 13.421 7.79833 12.64 8.36906L11.0227 9.55089C10.6741 9.80561 10.5284 10.2553 10.6613 10.6661L11.2806 12.5807Z" fill="white"/>
</svg>
