<svg width="300" height="182" viewBox="0 0 300 182" fill="none" xmlns="http://www.w3.org/2000/svg">
<g clip-path="url(#clip0_2776_1184)">
<path d="M236.928 152.567C247.038 152.567 256.47 150.335 261.442 148.051C264 147.053 266.627 145.298 268.628 143.105C270.631 140.91 272.082 138.189 272.082 135.274V134.329H271.137H247.56V15.2588C247.56 9.8906 242.998 5.76154 238.062 5.76154H61.9143C56.5729 5.76154 52.417 9.91739 52.417 15.2588V134.329H29.2173H28.2723V135.274C28.2723 138.001 29.6311 140.545 31.528 142.646C33.4318 144.755 35.9505 146.504 38.4608 147.661L38.4834 147.671L38.5066 147.681C44.1629 149.934 53.5914 152.567 63.757 152.567H236.928ZM149.988 11.715C150.339 11.715 150.544 11.827 150.661 11.9459C150.78 12.0676 150.886 12.2773 150.886 12.6128C150.886 12.9634 150.774 13.1683 150.655 13.2851C150.533 13.4045 150.324 13.5105 149.988 13.5105C149.638 13.5105 149.433 13.3986 149.316 13.2796C149.197 13.158 149.091 12.9483 149.091 12.6128C149.091 12.2773 149.197 12.0676 149.316 11.9459C149.433 11.827 149.638 11.715 149.988 11.715ZM171.156 138.392H128.773C127.823 138.392 126.842 137.834 126.041 137.07C125.859 136.897 125.695 136.721 125.55 136.55H174.6C174.477 136.732 174.329 136.921 174.154 137.106C173.506 137.793 172.526 138.392 171.156 138.392Z" fill="#141414" stroke="white" stroke-width="1.89"/>
<rect x="63.2373" y="16.629" width="173.88" height="114.345" rx="1.4175" fill="#13241B"/>
<path opacity="0.2" d="M16.6962 11.6673L36.3048 62.9338L63.5411 130.469L238.063 130.792L311.772 11.6671L16.6962 11.6673Z" fill="url(#paint0_linear_2776_1184)"/>
<path d="M286.785 129.084C286.785 153.093 267.111 172.554 242.841 172.554C218.573 172.554 198.9 153.093 198.9 129.084C198.9 105.077 218.573 85.6141 242.841 85.6141C267.111 85.6141 286.785 105.077 286.785 129.084Z" fill="url(#paint1_radial_2776_1184)"/>
<g clip-path="url(#clip1_2776_1184)">
<path d="M218.255 125.301C217.655 122.519 217.606 119.646 218.11 116.845C218.876 112.501 220.913 108.482 223.964 105.295C227.014 102.109 230.941 99.8985 235.248 98.9438C239.554 97.989 244.047 98.3328 248.158 99.9315C252.27 101.53 255.815 104.312 258.345 107.926C260.875 111.539 262.277 115.822 262.373 120.232C262.469 124.642 261.255 128.982 258.885 132.702C256.515 136.422 253.095 139.356 249.057 141.133C245.02 142.909 240.546 143.449 236.202 142.683C233.397 142.199 230.715 141.17 228.306 139.655L223.569 142.972L216.248 141.681L214.957 149.002L207.635 147.711L206.344 155.033L194.142 152.881L196.293 140.679L218.255 125.301Z" fill="#0C1C17" stroke="white" stroke-width="2.04199" stroke-linecap="round" stroke-linejoin="round"/>
<path d="M246.822 118.133C248.17 118.371 249.455 117.471 249.693 116.123C249.93 114.775 249.03 113.49 247.682 113.252C246.335 113.015 245.049 113.915 244.812 115.263C244.574 116.61 245.474 117.896 246.822 118.133Z" fill="white"/>
</g>
<g clip-path="url(#clip2_2776_1184)">
<path d="M233.636 143.043C231.877 140.805 230.573 138.245 229.799 135.506C228.583 131.266 228.652 126.76 229.997 122.559C231.342 118.358 233.902 114.65 237.354 111.904C240.806 109.158 244.995 107.497 249.391 107.132C253.787 106.767 258.193 107.713 262.051 109.852C265.909 111.99 269.047 115.225 271.066 119.147C273.086 123.068 273.898 127.501 273.398 131.884C272.899 136.266 271.111 140.403 268.261 143.769C265.411 147.136 261.626 149.582 257.386 150.798C254.653 151.593 251.791 151.844 248.962 151.538L246.158 156.596L239.012 158.645L241.061 165.791L233.915 167.84L235.964 174.987L224.053 178.402L220.638 166.491L233.636 143.043Z" fill="#0C1C17" stroke="white" stroke-width="2.04199" stroke-linecap="round" stroke-linejoin="round"/>
<path d="M256.169 124.078C257.485 123.701 258.246 122.328 257.868 121.013C257.491 119.697 256.119 118.936 254.803 119.314C253.487 119.691 252.727 121.063 253.104 122.379C253.481 123.694 254.854 124.455 256.169 124.078Z" fill="white"/>
</g>
</g>
<defs>
<linearGradient id="paint0_linear_2776_1184" x1="97.8782" y1="43.0119" x2="82.3279" y2="153.658" gradientUnits="userSpaceOnUse">
<stop stop-color="#00B35A" stop-opacity="0"/>
<stop offset="0.269342" stop-color="#00B35A" stop-opacity="0.2"/>
<stop offset="1" stop-color="#00B35A" stop-opacity="0.5"/>
</linearGradient>
<radialGradient id="paint1_radial_2776_1184" cx="0" cy="0" r="1" gradientUnits="userSpaceOnUse" gradientTransform="translate(242.842 129.084) scale(43.9421 43.4704)">
<stop stop-color="#00B35A"/>
<stop offset="0.653855" stop-color="#00B35A" stop-opacity="0.1"/>
<stop offset="1" stop-color="#00B35A" stop-opacity="0"/>
</radialGradient>
<clipPath id="clip0_2776_1184">
<rect width="300" height="182" fill="white"/>
</clipPath>
<clipPath id="clip1_2776_1184">
<rect width="79.3006" height="79.3006" fill="white" transform="translate(196.429 82.8259) rotate(10)"/>
</clipPath>
<clipPath id="clip2_2776_1184">
<rect width="79.3006" height="79.3006" fill="white" transform="translate(195.398 114.434) rotate(-16)"/>
</clipPath>
</defs>
</svg>
