<svg width="24" height="24" viewBox="0 0 24 24" fill="none" xmlns="http://www.w3.org/2000/svg">
<g id="ArrowsDownUp">
<g id="Vector">
<path fill-rule="evenodd" clip-rule="evenodd" d="M3.96967 15.9697C4.26256 15.6768 4.73744 15.6768 5.03033 15.9697L7.5 18.4393L9.96967 15.9697C10.2626 15.6768 10.7374 15.6768 11.0303 15.9697C11.3232 16.2626 11.3232 16.7374 11.0303 17.0303L8.03033 20.0303C7.73744 20.3232 7.26256 20.3232 6.96967 20.0303L3.96967 17.0303C3.67678 16.7374 3.67678 16.2626 3.96967 15.9697Z" fill="white"/>
<path fill-rule="evenodd" clip-rule="evenodd" d="M7.5 3.75C7.91421 3.75 8.25 4.08579 8.25 4.5V19.5C8.25 19.9142 7.91421 20.25 7.5 20.25C7.08579 20.25 6.75 19.9142 6.75 19.5V4.5C6.75 4.08579 7.08579 3.75 7.5 3.75Z" fill="white"/>
<path fill-rule="evenodd" clip-rule="evenodd" d="M15.9697 3.96967C16.2626 3.67678 16.7374 3.67678 17.0303 3.96967L20.0303 6.96967C20.3232 7.26256 20.3232 7.73744 20.0303 8.03033C19.7374 8.32322 19.2626 8.32322 18.9697 8.03033L16.5 5.56066L14.0303 8.03033C13.7374 8.32322 13.2626 8.32322 12.9697 8.03033C12.6768 7.73744 12.6768 7.26256 12.9697 6.96967L15.9697 3.96967Z" fill="white"/>
<path fill-rule="evenodd" clip-rule="evenodd" d="M16.5 3.75C16.9142 3.75 17.25 4.08579 17.25 4.5V19.5C17.25 19.9142 16.9142 20.25 16.5 20.25C16.0858 20.25 15.75 19.9142 15.75 19.5V4.5C15.75 4.08579 16.0858 3.75 16.5 3.75Z" fill="white"/>
</g>
</g>
</svg>
