<svg width="24" height="24" viewBox="0 0 24 24" fill="none" xmlns="http://www.w3.org/2000/svg">
<g id="arrow-u-right-up 1">
<path id="Vector" d="M3.21938 15.9695C3.28903 15.8998 3.37175 15.8445 3.4628 15.8067C3.55384 15.769 3.65144 15.7496 3.75 15.7496C3.84856 15.7496 3.94616 15.769 4.0372 15.8067C4.12825 15.8445 4.21097 15.8998 4.28063 15.9695L7.5 19.1898L7.5 8.25014C7.5 6.65884 8.13214 5.13272 9.25736 4.0075C10.3826 2.88228 11.9087 2.25014 13.5 2.25014C15.0913 2.25014 16.6174 2.88228 17.7426 4.0075C18.8679 5.13272 19.5 6.65884 19.5 8.25014L19.5 16.5001C19.5 16.6991 19.421 16.8898 19.2803 17.0305C19.1397 17.1711 18.9489 17.2501 18.75 17.2501C18.5511 17.2501 18.3603 17.1711 18.2197 17.0305C18.079 16.8898 18 16.6991 18 16.5001V8.25014C18 7.05667 17.5259 5.91208 16.682 5.06816C15.8381 4.22425 14.6935 3.75014 13.5 3.75014C12.3065 3.75014 11.1619 4.22425 10.318 5.06816C9.4741 5.91208 9 7.05667 9 8.25014L9 19.1898L12.2194 15.9695C12.3601 15.8288 12.551 15.7497 12.75 15.7497C12.949 15.7497 13.1399 15.8288 13.2806 15.9695C13.4214 16.1102 13.5004 16.3011 13.5004 16.5001C13.5004 16.6992 13.4214 16.89 13.2806 17.0308L8.78063 21.5308C8.71097 21.6005 8.62825 21.6558 8.5372 21.6936C8.44616 21.7313 8.34856 21.7507 8.25 21.7507C8.15144 21.7507 8.05384 21.7313 7.9628 21.6936C7.87175 21.6558 7.78903 21.6005 7.71937 21.5308L3.21938 17.0308C3.14964 16.9611 3.09432 16.8784 3.05658 16.7873C3.01884 16.6963 2.99941 16.5987 2.99941 16.5001C2.99941 16.4016 3.01884 16.304 3.05658 16.2129C3.09432 16.1219 3.14964 16.0392 3.21938 15.9695Z" fill="white"/>
</g>
</svg>
