<svg width="24" height="24" viewBox="0 0 24 24" fill="none" xmlns="http://www.w3.org/2000/svg">
<g id="Wallet">
<g id="Vector">
<path fill-rule="evenodd" clip-rule="evenodd" d="M5.25 5.25C5.05109 5.25 4.86032 5.32902 4.71967 5.46967C4.57902 5.61032 4.5 5.80109 4.5 6C4.5 6.19891 4.57902 6.38968 4.71967 6.53033C4.86032 6.67098 5.05109 6.75 5.25 6.75H20.25C20.6478 6.75 21.0294 6.90804 21.3107 7.18934C21.592 7.47065 21.75 7.85218 21.75 8.25V18.75C21.75 19.1478 21.592 19.5294 21.3107 19.8107C21.0294 20.092 20.6478 20.25 20.25 20.25H5.25C4.65326 20.25 4.08097 20.0129 3.65901 19.591C3.23705 19.169 3 18.5967 3 18V6C3 5.40326 3.23705 4.83097 3.65901 4.40901C4.08097 3.98705 4.65326 3.75 5.25 3.75H18C18.4142 3.75 18.75 4.08579 18.75 4.5C18.75 4.91421 18.4142 5.25 18 5.25H5.25ZM4.5 8.12132V18C4.5 18.1989 4.57902 18.3897 4.71967 18.5303C4.86032 18.671 5.05109 18.75 5.25 18.75H20.25V8.25H5.25C4.99204 8.25 4.73865 8.2057 4.5 8.12132Z" fill="white"/>
<path d="M16.875 14.625C17.4963 14.625 18 14.1213 18 13.5C18 12.8787 17.4963 12.375 16.875 12.375C16.2537 12.375 15.75 12.8787 15.75 13.5C15.75 14.1213 16.2537 14.625 16.875 14.625Z" fill="white"/>
</g>
</g>
</svg>
