<svg width="64" height="64" viewBox="0 0 64 64" fill="none" xmlns="http://www.w3.org/2000/svg">
<g id="warning (2) 1">
<path id="Vector" d="M59.2 47.0225L37.3375 9.05504C36.7912 8.12485 36.0112 7.35359 35.075 6.81769C34.1388 6.2818 33.0788 5.99988 32 5.99988C30.9212 5.99988 29.8612 6.2818 28.925 6.81769C27.9887 7.35359 27.2088 8.12485 26.6625 9.05504L4.8 47.0225C4.27434 47.9222 3.99731 48.9455 3.99731 49.9875C3.99731 51.0296 4.27434 52.0528 4.8 52.9525C5.33932 53.8884 6.11792 54.6638 7.0559 55.1994C7.99388 55.7349 9.05746 56.0113 10.1375 56H53.8625C54.9417 56.0104 56.0042 55.7336 56.9413 55.1981C57.8783 54.6626 58.6561 53.8876 59.195 52.9525C59.7214 52.0533 59.9993 51.0302 60.0002 49.9882C60.0011 48.9462 59.7249 47.9227 59.2 47.0225ZM55.7325 50.95C55.5419 51.2752 55.2683 51.5437 54.9397 51.7283C54.6111 51.9128 54.2393 52.0066 53.8625 52H10.1375C9.76069 52.0066 9.38893 51.9128 9.06032 51.7283C8.73171 51.5437 8.45809 51.2752 8.2675 50.95C8.09486 50.6578 8.00379 50.3245 8.00379 49.985C8.00379 49.6456 8.09486 49.3123 8.2675 49.02L30.13 11.0525C30.3244 10.729 30.5993 10.4612 30.9279 10.2753C31.2564 10.0895 31.6275 9.99178 32.005 9.99178C32.3825 9.99178 32.7536 10.0895 33.0821 10.2753C33.4107 10.4612 33.6856 10.729 33.88 11.0525L55.7425 49.02C55.9136 49.3132 56.003 49.6469 56.0012 49.9864C55.9994 50.3259 55.9067 50.6586 55.7325 50.95ZM30 36V26C30 25.4696 30.2107 24.9609 30.5858 24.5858C30.9609 24.2108 31.4696 24 32 24C32.5304 24 33.0391 24.2108 33.4142 24.5858C33.7893 24.9609 34 25.4696 34 26V36C34 36.5305 33.7893 37.0392 33.4142 37.4143C33.0391 37.7893 32.5304 38 32 38C31.4696 38 30.9609 37.7893 30.5858 37.4143C30.2107 37.0392 30 36.5305 30 36ZM35 45C35 45.5934 34.824 46.1734 34.4944 46.6668C34.1648 47.1601 33.6962 47.5446 33.148 47.7717C32.5999 47.9987 31.9967 48.0582 31.4147 47.9424C30.8328 47.8266 30.2982 47.5409 29.8787 47.1214C29.4591 46.7018 29.1734 46.1673 29.0576 45.5853C28.9419 45.0034 29.0013 44.4002 29.2284 43.852C29.4554 43.3038 29.8399 42.8353 30.3333 42.5056C30.8266 42.176 31.4067 42 32 42C32.7956 42 33.5587 42.3161 34.1213 42.8787C34.6839 43.4413 35 44.2044 35 45Z" fill="#FF7700"/>
</g>
</svg>
