<svg width="24" height="25" viewBox="0 0 24 25" fill="none" xmlns="http://www.w3.org/2000/svg">
<path fill-rule="evenodd" clip-rule="evenodd" d="M12 9.5C12.4142 9.5 12.75 9.83579 12.75 10.25V14C12.75 14.4142 12.4142 14.75 12 14.75C11.5858 14.75 11.25 14.4142 11.25 14V10.25C11.25 9.83579 11.5858 9.5 12 9.5Z" fill="white"/>
<path fill-rule="evenodd" clip-rule="evenodd" d="M10.8758 3.05205C11.2173 2.85402 11.6051 2.74973 11.9998 2.74973C12.3946 2.74973 12.7824 2.85402 13.1239 3.05205C13.4648 3.24975 13.7475 3.53386 13.9435 3.8757L13.9445 3.87744L22.1931 18.125C22.3903 18.4664 22.4942 18.8537 22.4946 19.248C22.4949 19.6423 22.3916 20.0297 22.1951 20.3715C21.9986 20.7133 21.7157 20.9975 21.3747 21.1955C21.0338 21.3936 20.6468 21.4986 20.2525 21.5L20.2498 21.5H3.74984L3.7472 21.5C3.35292 21.4986 2.96592 21.3936 2.62498 21.1955C2.28404 20.9975 2.00113 20.7133 1.80459 20.3715C1.60805 20.0297 1.50478 19.6423 1.50513 19.248C1.50548 18.8537 1.60943 18.4664 1.80658 18.125L10.0552 3.87744L10.0561 3.8757C10.2522 3.53385 10.5349 3.24975 10.8758 3.05205ZM10.7061 4.24996L11.3552 4.62574L3.10561 18.875C3.04 18.9887 3.00524 19.118 3.00513 19.2493C3.00501 19.3807 3.03943 19.5099 3.10495 19.6238C3.17046 19.7378 3.26477 19.8325 3.37841 19.8985C3.49176 19.9643 3.62039 19.9993 3.75146 20H20.2482C20.3793 19.9993 20.5079 19.9643 20.6213 19.8985C20.7349 19.8325 20.8292 19.7378 20.8947 19.6238C20.9603 19.5099 20.9947 19.3807 20.9946 19.2493C20.9944 19.118 20.9599 18.9891 20.8943 18.8754L12.6426 4.62249C12.5778 4.50924 12.4843 4.41511 12.3714 4.34966C12.2585 4.2842 12.1303 4.24973 11.9998 4.24973C11.8694 4.24973 11.7412 4.2842 11.6283 4.34966C11.5154 4.41512 11.4218 4.50923 11.357 4.62248L10.7061 4.24996Z" fill="white"/>
<path d="M12 18.5C12.6213 18.5 13.125 17.9963 13.125 17.375C13.125 16.7537 12.6213 16.25 12 16.25C11.3787 16.25 10.875 16.7537 10.875 17.375C10.875 17.9963 11.3787 18.5 12 18.5Z" fill="white"/>
</svg>
