<svg width="116" height="108" viewBox="0 0 116 108" fill="none" xmlns="http://www.w3.org/2000/svg">
<g>
<path fill-rule="evenodd" clip-rule="evenodd" d="M23.1161 67.472C20.9218 67.472 18.8356 66.1908 17.9227 64.0565C14.8209 56.8059 13.2505 49.1023 13.2505 41.1608C13.2505 11.6261 35.4508 -13.3616 64.8916 -16.9587C67.9881 -17.3305 70.7975 -15.1522 71.1786 -12.0767C71.5597 -9.00308 69.36 -6.20435 66.2688 -5.82719C42.4733 -2.91743 24.5305 17.2817 24.5305 41.1608C24.5305 47.5866 25.8014 53.8133 28.3041 59.6663C29.5236 62.5161 28.1872 65.8118 25.3211 67.0226C24.5997 67.3275 23.8517 67.472 23.1161 67.472Z" fill="white"/>
<path fill-rule="evenodd" clip-rule="evenodd" d="M35.3029 36.8302C34.9878 36.8302 34.6656 36.7911 34.347 36.7076C32.2977 36.1765 31.0653 34.0697 31.5917 32.0037C36.4649 12.9003 53.5349 -0.43689 73.1067 -0.43689C83.0924 -0.43689 92.814 3.1017 100.481 9.53049C102.108 10.8912 102.331 13.3284 100.979 14.968C99.6307 16.6094 97.2153 16.835 95.5886 15.4725C89.2929 10.1949 81.309 7.2869 73.1067 7.2869C57.0296 7.2869 43.0087 18.2419 39.0071 33.9276C38.5634 35.6738 37.0071 36.8302 35.3029 36.8302Z" fill="#B1EDE2"/>
<path fill-rule="evenodd" clip-rule="evenodd" d="M70.2959 82.2782C65.7438 81.9692 61.3041 80.9493 57.1013 79.2404C55.1122 78.4314 54.1426 76.1317 54.934 74.1029C55.7289 72.0759 57.9818 71.087 59.9709 71.8941C63.4197 73.2976 67.0663 74.1356 70.811 74.3902C75.9816 74.741 81.038 73.9738 85.8414 72.1068C87.843 71.3324 90.0816 72.3559 90.8426 74.3956C91.6037 76.4353 90.6002 78.7205 88.6005 79.4986C82.7455 81.771 76.5893 82.7054 70.2959 82.2782Z" fill="#B1EDE2"/>
<path fill-rule="evenodd" clip-rule="evenodd" d="M48.981 107.224C48.61 107.224 48.2319 107.169 47.8591 107.055C19.6814 98.4611 0 70.8912 0 40.362C0 27.2899 3.71544 14.5906 10.7453 3.63687C11.8884 1.8507 14.2646 1.33128 16.0526 2.47966C17.8387 3.62451 18.3582 6.00253 17.2115 7.7887C10.9785 17.5004 7.68353 28.7652 7.68353 40.362C7.68353 67.5415 25.1265 92.0903 50.1011 99.7049C52.1311 100.325 53.2741 102.472 52.654 104.502C52.1487 106.157 50.6276 107.224 48.981 107.224Z" fill="#B1EDE2"/>
<path fill-rule="evenodd" clip-rule="evenodd" d="M72.4971 97.2858C55.7248 97.2858 40.4086 90.9853 30.1335 79.7688C28.4934 77.9776 28.6266 75.2091 30.4296 73.5796C32.2326 71.9537 35.0239 72.0841 36.6658 73.8753C45.7406 83.7789 59.7006 89.1124 74.9064 88.4742C77.3508 88.3595 79.3974 90.2532 79.499 92.6704C79.6007 95.0859 77.7083 97.1293 75.2709 97.2301C74.344 97.2666 73.4153 97.2858 72.4971 97.2858Z" fill="white"/>
</g>
</svg>
