<svg width="154" height="189" viewBox="0 0 154 189" fill="none" xmlns="http://www.w3.org/2000/svg">
<path fill-rule="evenodd" clip-rule="evenodd" d="M80.0197 3.80747C102.293 -3.80164 122.22 -4.48763 133.883 15.7139C142.292 30.4859 140.617 42.3896 133.203 52.1159C151.058 49.0398 165.423 54.6857 173.919 78.1135C184.641 107.442 168.715 123.787 141.786 138.23L155.4 167.322L139.127 174.941L125.512 145.849C123.72 146.651 121.873 147.548 119.978 148.468C117.447 149.697 114.83 150.967 112.146 152.106L125.761 181.199L109.517 188.804L95.9022 159.711L63.0096 174.199L55.8354 151.642C55.8354 151.642 68.2728 146.201 67.9727 146.153C72.4886 144.015 72.2001 139.887 71.4621 137.43L49.6259 90.8L34.2697 57.5251C32.1557 54.2962 28.0593 51.1495 21.3437 54.1285C21.541 53.6049 9.42874 59.7068 9.42874 59.7068L0.294735 40.2208L33.6441 24.6079L20.3081 -3.88851L37.1089 -11.7539L50.4451 16.7423C53.6447 15.1305 56.86 13.6647 60.11 12.1835L60.1115 12.1828C61.1779 11.6968 62.2485 11.2086 63.3236 10.7131L49.9873 -17.7832L66.3345 -25.4363L80.0197 3.80747ZM73.7897 72.039C74.0525 71.9308 74.3343 71.8153 74.6333 71.6927C84.7502 67.5475 114.748 55.2563 105.744 35.828C97.1076 17.4244 72.4099 29.6667 60.9343 35.355C59.5788 36.0268 58.4079 36.6073 57.4696 37.035L73.7897 72.039ZM101.827 128.556C101.296 128.774 100.807 128.977 100.365 129.161L84.0449 94.1576C85.0836 93.6855 86.3755 93.0616 87.8694 92.3398C101.497 85.757 131.935 71.0546 140.45 89.6983C149.563 108.839 114.266 123.419 101.827 128.556Z" fill="white"/>
</svg>
