<svg xmlns="http://www.w3.org/2000/svg" viewBox="0 0 342 342"><path fill="#FFF" d="M0 0h342v342H0z"/><path d="m236.609 225.747 16.546-16.546 11.03 11.03-16.546 16.547zM209.085 253.283l16.546-16.547 11.031 11.031-16.546 16.546zM269.682 258.784l16.546-16.546 11.031 11.03-16.546 16.546zM242.108 286.352l16.547-16.546 11.03 11.03-16.546 16.547zM253.09 242.25l16.546-16.546 11.03 11.03-16.546 16.547zM225.632 269.853l16.546-16.546 11.031 11.03-16.546 16.547zM225.689 71.531l11.03-11.03 44.053 44.052-11.031 11.03zM209.141 88.028l11.03-11.03 16.547 16.546-11.03 11.03zM236.605 115.522l11.03-11.03 16.547 16.546-11.031 11.03zM242.108 54.926l11.03-11.03 16.547 16.546-11.031 11.03zM269.604 82.571l11.03-11.03 16.546 16.546-11.03 11.03zM43.751 253.362l11.031-11.03 44.052 44.052-11.03 11.03zM87.81 264.359l11.03-11.03 16.547 16.545-11.031 11.031zM60.303 236.722l11.031-11.03 16.546 16.546-11.03 11.03zM76.848 220.221l11.031-11.03 44.053 44.052-11.031 11.03zM43.819 88.013 87.87 43.96l11.03 11.031L54.85 99.043zM60.3 104.502 104.35 60.45l11.031 11.03-44.052 44.053zM76.816 121.143l44.053-44.052 11.03 11.03-44.052 44.053z"/><circle fill="#D80027" cx="170.3" cy="170.7" r="62.3"/><path fill="#0052B4" d="M232.2 178.3c-9.6-25.4-44.3-25-61.8 1.3-17.6 26.3-43.8 16.9-61.6.7 4.6 29.9 30.4 52.7 61.6 52.7 31.8 0 58-23.9 61.8-54.7z"/></svg>