<svg xmlns="http://www.w3.org/2000/svg" viewBox="0 0 112 97.99"><defs><style>.cls-1{fill:#526168;}.cls-2{fill:#00b45a;}.cls-3{fill:gray;}.cls-4{fill:#313b45;}.cls-5{fill:#3a464f;}.cls-6{fill:#526268;}</style></defs><title>2fa_google</title><g id="Text"><circle id="_Path_" data-name="&lt;Path&gt;" class="cls-1" cx="57.59" cy="48.07" r="40.47"/><circle class="cls-2" cx="57.59" cy="16.03" r="3.37"/><circle class="cls-2" cx="57.59" cy="80.1" r="3.37"/><circle class="cls-2" cx="25.56" cy="48.07" r="3.37"/><circle class="cls-2" cx="34.94" cy="70.72" r="3.37"/><circle class="cls-2" cx="80.24" cy="70.72" r="3.37"/><circle class="cls-2" cx="34.94" cy="25.41" r="3.37"/><circle class="cls-2" cx="80.24" cy="25.41" r="3.37"/><circle id="_Path_2" data-name="&lt;Path&gt;" class="cls-3" cx="57.59" cy="48.07" r="20.23"/><circle id="_Path_3" data-name="&lt;Path&gt;" class="cls-4" cx="57.59" cy="48.07" r="23.6"/><path class="cls-5" d="M97.57,52.58H58.16a3.95,3.95,0,0,1,0-7.89H97.57a3.95,3.95,0,0,1,0,7.89Z"/><path class="cls-6" d="M58,45.68H97.77A4.12,4.12,0,0,1,101.46,48a4,4,0,0,0-3.89-3.32H58.16a3.81,3.81,0,0,0-3.86,3.16A3.91,3.91,0,0,1,58,45.68Z"/></g></svg>