<svg id="Layer_1" data-name="Layer 1" xmlns="http://www.w3.org/2000/svg" xmlns:xlink="http://www.w3.org/1999/xlink" viewBox="0 0 24 24"><defs><style>.cls-1{fill:none;}.cls-2{fill:#00b45a;}.cls-3{clip-path:url(#clip-path);}</style><clipPath id="clip-path"><path class="cls-1" d="M-108.81,58.75a4.68,4.68,0,0,1-4.68,4.68,4.67,4.67,0,0,1-4.67-4.68,4.67,4.67,0,0,1,4.67-4.67A4.68,4.68,0,0,1-108.81,58.75Zm5.9-2-3.09-.48a7.87,7.87,0,0,0-1.55-2.71l1.17-2.91-3.37-2-2,2.42a7.62,7.62,0,0,0-3.49,0l-2-2.42-3.37,2,1.17,2.9a7.92,7.92,0,0,0-1.55,2.7l-3.09.5v3.93l3.09.48a7.87,7.87,0,0,0,1.55,2.71l-1.17,2.9,3.37,2,2-2.42a7.62,7.62,0,0,0,3.49,0l2,2.42,3.37-2-1.17-2.9A7.87,7.87,0,0,0-106,61.21l3.09-.49Z"/></clipPath></defs><title>about</title><path class="cls-1" d="M0,0H24V24H0Z"/><path class="cls-2" d="M12,2A10,10,0,1,0,22,12,10,10,0,0,0,12,2Zm1,15H11V11h2Zm0-8H11V7h2Z"/></svg>