<svg id="Layer_1" data-name="Layer 1" xmlns="http://www.w3.org/2000/svg" xmlns:xlink="http://www.w3.org/1999/xlink" viewBox="0 0 24 24"><defs><style>.cls-1{fill:none;}.cls-2{clip-path:url(#clip-path);}.cls-3{clip-path:url(#clip-path-2);}.cls-4{fill:#00b45a;}</style><clipPath id="clip-path"><rect class="cls-1" x="95.59" y="3.29" width="21.97" height="17.42"/></clipPath><clipPath id="clip-path-2"><path class="cls-1" d="M48.37,96.79a4.68,4.68,0,1,1-4.67-4.67A4.68,4.68,0,0,1,48.37,96.79Zm5.91-2-3.1-.47a7.72,7.72,0,0,0-1.55-2.71l1.18-2.91-3.38-2-2,2.43a7.62,7.62,0,0,0-3.49,0L40,86.7l-3.38,2,1.18,2.9a7.74,7.74,0,0,0-1.55,2.7l-3.09.49v3.94l3.09.48a7.92,7.92,0,0,0,1.55,2.7l-1.18,2.91,3.38,2,2-2.42a7.91,7.91,0,0,0,3.49,0l2,2.42,3.38-2L49.63,102a7.72,7.72,0,0,0,1.55-2.71l3.1-.49Z"/></clipPath></defs><title>ic_done</title><g id="fee_check" data-name="fee check"><path id="Shape" class="cls-4" d="M19.2,5.67,9.8,15.06,4.65,10.69,3.1,12.52l6,5.09.84.72.79-.79c3.19-3.19,7-7,10.18-10.18Z"/></g></svg>