<svg xmlns="http://www.w3.org/2000/svg" viewBox="0 0 120 104.99"><defs><style>.cls-1{fill:#313b45;}.cls-2{fill:#526168;}.cls-3{fill:#fff;}.cls-4{fill:#00b45a;}</style></defs><title>ledger</title><g id="Design"><rect class="cls-1" x="59.89" y="51.28" width="10.92" height="0.88"/><rect class="cls-1" x="18.7" y="52.16" width="85.19" height="27.01"/><path class="cls-2" d="M98.64,56.42,49,6.75l-19.1,19.1L79.54,75.52a13.51,13.51,0,0,0,19.1-19.1Z"/><circle class="cls-1" cx="88.58" cy="65.89" r="7.57"/><path class="cls-3" d="M82.81,71.67a8.17,8.17,0,1,1,11.55,0A8.17,8.17,0,0,1,82.81,71.67ZM93.51,61a7,7,0,1,0,0,9.86A7,7,0,0,0,93.51,61Z"/><rect class="cls-1" x="30.71" y="51.28" width="10.8" height="0.88"/><rect class="cls-1" x="30.71" y="60.28" width="31.87" height="11.14"/><path class="cls-4" d="M61.87,61v9.7H31.43V61H61.87m.72-.72H30.71V71.42H62.59V60.28Z"/></g></svg>