<svg id="Layer_1" data-name="Layer 1" xmlns="http://www.w3.org/2000/svg" viewBox="0 0 208.11 79.77"><defs><style>.cls-1{fill:#00b35a;}.cls-2{fill:#fff;}.cls-3{fill:none;}</style></defs><title>logo_big</title><path class="cls-1" d="M7.57,44V7.58H49.85V0H0V36.55C0,43.89,5.17,49.84,11.9,55.3,9.24,51.88,7.57,48.2,7.57,44Z"/><path class="cls-2" d="M40.08,15H15V51.51c0,11.75,13.26,19.94,24.92,28.26,11.7-8.32,24.93-16.51,24.93-28.26V15ZM57.35,51.51c0,6.54-8.66,12.92-17.45,19.12-8.78-6.19-17.44-12.57-17.44-19.12V22.45H57.35Z"/><path class="cls-2" d="M90.77,24.23a3.4,3.4,0,0,1,1,2.69A3.81,3.81,0,0,1,90,30.47a9.72,9.72,0,0,1-4.92,1.06H80.29v-16h4.18q6.61,0,6.63,4.07a3.15,3.15,0,0,1-.85,2.3,4,4,0,0,1-2.11,1.17A5.5,5.5,0,0,1,90.77,24.23Zm-7.44-2.12H85.2a3.22,3.22,0,0,0,2-.57A2,2,0,0,0,88,19.86a1.73,1.73,0,0,0-.78-1.61,4.79,4.79,0,0,0-2.42-.46H83.33Zm4.37,6.63a2,2,0,0,0,.89-1.92,2.25,2.25,0,0,0-.85-1.95,3.81,3.81,0,0,0-2.3-.6H83.33v5h1.78a5.26,5.26,0,0,0,2.59-.52Z"/><path class="cls-2" d="M97.38,29.26a.66.66,0,0,0,.53.22,2,2,0,0,0,.69-.12l.63,2.08a5.48,5.48,0,0,1-2.11.42A2.73,2.73,0,0,1,95,31.08a3.25,3.25,0,0,1-.74-2.34V14.38l3-.33V28.54A1.29,1.29,0,0,0,97.38,29.26Z"/><path class="cls-2" d="M110.2,20.67a6.86,6.86,0,0,1,1.51,4.73,7.74,7.74,0,0,1-.69,3.39,5.25,5.25,0,0,1-2,2.26,5.67,5.67,0,0,1-3.08.81,5.34,5.34,0,0,1-4.23-1.72,6.91,6.91,0,0,1-1.54-4.75,7.71,7.71,0,0,1,.7-3.38,5.19,5.19,0,0,1,2-2.26,5.8,5.8,0,0,1,3.09-.82A5.34,5.34,0,0,1,110.2,20.67Zm-6.92,4.72a6.17,6.17,0,0,0,.66,3.22,2.23,2.23,0,0,0,2,1,2.18,2.18,0,0,0,2-1,6,6,0,0,0,.66-3.19,6,6,0,0,0-.66-3.18,2.19,2.19,0,0,0-2-1q-2.66,0-2.64,4.19Z"/><path class="cls-2" d="M121.56,19.27a5.87,5.87,0,0,1,1.81,1.09L122,22.17a4.71,4.71,0,0,0-1.17-.68,3.47,3.47,0,0,0-1.27-.22c-1.84,0-2.76,1.39-2.76,4.19a5.1,5.1,0,0,0,.72,3.06,2.41,2.41,0,0,0,2,.92,3.21,3.21,0,0,0,1.22-.22,6,6,0,0,0,1.21-.73l1.37,2a6,6,0,0,1-4,1.41,5.77,5.77,0,0,1-3.06-.78,5.1,5.1,0,0,1-2-2.2,7.74,7.74,0,0,1-.69-3.39,8.1,8.1,0,0,1,.69-3.43,5.35,5.35,0,0,1,2-2.3,5.57,5.57,0,0,1,3-.82A6.46,6.46,0,0,1,121.56,19.27Z"/><path class="cls-2" d="M125.53,31.51V14.37l3-.33V31.52Zm10.69,0h-3.4l-4.21-6.68,4.09-5.56h3.12l-4.07,5.39Z"/><path class="cls-2" d="M146.08,20.38l-1.15,1.78a5.26,5.26,0,0,0-3-1,2.61,2.61,0,0,0-1.42.33,1,1,0,0,0-.49.9,1.12,1.12,0,0,0,.2.69,2,2,0,0,0,.76.52,11.58,11.58,0,0,0,1.6.54,7.31,7.31,0,0,1,3,1.41,3.17,3.17,0,0,1,.94,2.46A3.28,3.28,0,0,1,145,30.82a6.25,6.25,0,0,1-3.68,1,7.62,7.62,0,0,1-2.76-.46,6.46,6.46,0,0,1-2.14-1.27l1.5-1.69a5.16,5.16,0,0,0,3.29,1.22,3,3,0,0,0,1.6-.39,1.22,1.22,0,0,0,.59-1.05,1.53,1.53,0,0,0-.21-.86,1.9,1.9,0,0,0-.78-.57,14.56,14.56,0,0,0-1.8-.59,5.93,5.93,0,0,1-2.73-1.42,3.18,3.18,0,0,1-.88-2.3,3,3,0,0,1,.59-1.84,4,4,0,0,1,1.67-1.28,6.25,6.25,0,0,1,2.46-.46A6.85,6.85,0,0,1,146.08,20.38Z"/><path class="cls-2" d="M154.44,31.62a6,6,0,0,1-1.63.23,3.62,3.62,0,0,1-2.76-1,4.21,4.21,0,0,1-.92-3V21.41h-1.92V19.25h1.92v-2.7l3-.35v3.05h2.84l-.29,2.14h-2.55v6.38a2.09,2.09,0,0,0,.31,1.29,1.18,1.18,0,0,0,1,.39,2.71,2.71,0,0,0,1.46-.46l1,1.92A4.66,4.66,0,0,1,154.44,31.62Z"/><path class="cls-2" d="M164.83,19.11,164.32,22a4.3,4.3,0,0,0-1.07-.14,2.12,2.12,0,0,0-1.71.78,5.94,5.94,0,0,0-1,2.38v6.5h-3V19.25h2.58l.27,2.41a4.41,4.41,0,0,1,1.28-2,2.85,2.85,0,0,1,1.91-.7A4.33,4.33,0,0,1,164.83,19.11Z"/><path class="cls-2" d="M176.42,26.29h-7.68a4.15,4.15,0,0,0,.92,2.54,2.78,2.78,0,0,0,2.07.78,4.68,4.68,0,0,0,1.53-.26,7.56,7.56,0,0,0,1.53-.83L176,30.21a7.08,7.08,0,0,1-4.53,1.64,5.5,5.5,0,0,1-4.32-1.7,6.87,6.87,0,0,1-1.51-4.69,8.41,8.41,0,0,1,.64-3.36,5.26,5.26,0,0,1,1.88-2.34,4.92,4.92,0,0,1,2.91-.85,5,5,0,0,1,4,1.63,6.71,6.71,0,0,1,1.41,4.54A6.13,6.13,0,0,1,176.42,26.29Zm-2.87-2.06c0-2.14-.79-3.22-2.38-3.22a2,2,0,0,0-1.7.78,4.78,4.78,0,0,0-.73,2.56h4.81Z"/><path class="cls-2" d="M188.47,29.3a1.4,1.4,0,0,0,.71.53l-.63,2a4,4,0,0,1-1.7-.5,2.58,2.58,0,0,1-1-1.29,3.86,3.86,0,0,1-1.56,1.38,4.72,4.72,0,0,1-2.09.46,3.94,3.94,0,0,1-2.89-1,3.64,3.64,0,0,1-1.07-2.73,3.52,3.52,0,0,1,1.45-3A6.88,6.88,0,0,1,183.82,24h1.53v-.7a2.16,2.16,0,0,0-.55-1.66,2.71,2.71,0,0,0-1.75-.46,10.58,10.58,0,0,0-3.24.67l-.69-2a12.28,12.28,0,0,1,4.44-.88q4.68,0,4.7,4.21v5.12A1.9,1.9,0,0,0,188.47,29.3Zm-3.12-1.12V25.69h-1.23c-1.9,0-2.86.71-2.86,2.13a2,2,0,0,0,.43,1.38,1.7,1.7,0,0,0,1.3.49,2.61,2.61,0,0,0,2.37-1.51Z"/><path class="cls-2" d="M207.18,19.89a4,4,0,0,1,.88,2.73v8.86h-3V23.09c0-1.32-.45-1.95-1.34-1.95a1.82,1.82,0,0,0-1.24.46A5.78,5.78,0,0,0,201.44,23v8.51h-3v-8.4c0-1.32-.45-1.95-1.34-1.95a1.82,1.82,0,0,0-1.26.46A5.78,5.78,0,0,0,194.8,23v8.51h-3V19.25h2.57l.23,1.6a4.2,4.2,0,0,1,3.54-2,3.16,3.16,0,0,1,1.84.53A3.07,3.07,0,0,1,201.17,21a5.12,5.12,0,0,1,1.6-1.54,3.87,3.87,0,0,1,2-.52A3,3,0,0,1,207.18,19.89Z"/><polygon class="cls-1" points="168.58 58.64 168.58 54.29 177.96 54.29 177.96 50.66 168.58 50.66 168.58 46.48 179.16 46.48 179.16 42.85 164.59 42.85 164.59 62.26 179.31 62.26 179.31 58.64 168.58 58.64"/><path class="cls-3" d="M121.4,49.29c0-2.29-1.92-2.77-3.51-2.77h-4.43v5.57h4.45C120.06,52.09,121.4,51,121.4,49.29Z"/><path class="cls-1" d="M88.35,54.58h4.78v3A7.3,7.3,0,0,1,89,58.81c-3.54,0-6-2.62-6-6.36,0-3.51,2.51-6.29,5.73-6.29a6.91,6.91,0,0,1,5,1.91l.26.25,2.54-3-.27-.22a10.46,10.46,0,0,0-7.41-2.62h-.28a9.89,9.89,0,0,0-9.71,10c0,5.88,4.13,10,10,10a12.28,12.28,0,0,0,8-3l.11-.1V51H88.35Z"/><path class="cls-1" d="M125.41,49.1c0-3.85-2.78-6.24-7.26-6.24h-8.67V62.18h4V55.67H117l4.57,6.5h4.69L121.15,55A5.9,5.9,0,0,0,125.41,49.1Zm-11.93-2.58h4.4c1.6,0,3.51.48,3.51,2.77,0,1.72-1.34,2.8-3.51,2.8h-4.42Z"/><polygon class="cls-1" points="141.84 54.21 151.21 54.21 151.21 50.59 141.84 50.59 141.84 46.42 152.42 46.42 152.42 42.8 137.88 42.8 137.88 62.18 152.56 62.18 152.56 58.56 141.84 58.56 141.84 54.21"/><polygon class="cls-1" points="204.22 42.98 204.25 54.07 191.23 42.53 191.23 62.26 195.12 62.26 195.12 51.54 208.11 62.78 208.11 42.98 204.22 42.98"/></svg>