<svg id="Layer_1" data-name="Layer 1" xmlns="http://www.w3.org/2000/svg" xmlns:xlink="http://www.w3.org/1999/xlink" viewBox="0 0 24 24"><defs><style>.cls-1{fill:none;}.cls-2{clip-path:url(#clip-path);}.cls-3{fill:#00b45a;}.cls-4{clip-path:url(#clip-path-2);}</style><clipPath id="clip-path"><rect class="cls-1" x="95.59" y="-34.75" width="21.97" height="17.42"/></clipPath><clipPath id="clip-path-2"><path class="cls-1" d="M48.37,58.75a4.68,4.68,0,1,1-4.67-4.67A4.67,4.67,0,0,1,48.37,58.75Zm5.91-2-3.1-.48a7.72,7.72,0,0,0-1.55-2.71l1.18-2.91-3.38-2-2,2.42a7.62,7.62,0,0,0-3.49,0l-2-2.42-3.38,2,1.18,2.9a7.92,7.92,0,0,0-1.55,2.7l-3.09.5v3.93l3.09.48a7.87,7.87,0,0,0,1.55,2.71l-1.18,2.9,3.38,2,2-2.42a7.62,7.62,0,0,0,3.49,0l2,2.42,3.38-2-1.18-2.9a7.72,7.72,0,0,0,1.55-2.71l3.1-.49Z"/></clipPath></defs><title>network</title><path class="cls-1" d="M0,0H24V24H0Z"/><path class="cls-3" d="M12,2A10,10,0,1,0,22,12,10,10,0,0,0,12,2Zm6.93,6H16a15.65,15.65,0,0,0-1.38-3.56A8,8,0,0,1,18.92,8ZM12,4a14.09,14.09,0,0,1,1.91,4H10.09A14.09,14.09,0,0,1,12,4ZM4.26,14a7.82,7.82,0,0,1,0-4H7.64a16.52,16.52,0,0,0-.14,2,16.52,16.52,0,0,0,.14,2Zm.82,2H8a15.65,15.65,0,0,0,1.38,3.56A8,8,0,0,1,5.08,16ZM8,8H5.08A8,8,0,0,1,9.41,4.44,15.65,15.65,0,0,0,8,8Zm4,12a14.09,14.09,0,0,1-1.91-4h3.82A14.09,14.09,0,0,1,12,20Zm2.34-6H9.66a14.71,14.71,0,0,1-.16-2,14.58,14.58,0,0,1,.16-2h4.68a14.58,14.58,0,0,1,.16,2A14.71,14.71,0,0,1,14.34,14Zm.25,5.56A15.65,15.65,0,0,0,16,16h3A8,8,0,0,1,14.59,19.56ZM16.36,14a16.52,16.52,0,0,0,.14-2,16.52,16.52,0,0,0-.14-2h3.38a7.82,7.82,0,0,1,0,4Z"/></svg>