<svg id="Layer_1" data-name="Layer 1" xmlns="http://www.w3.org/2000/svg" xmlns:xlink="http://www.w3.org/1999/xlink" viewBox="0 0 24 24"><defs><style>.cls-1{fill:none;}.cls-2{clip-path:url(#clip-path);}.cls-3{clip-path:url(#clip-path-2);}.cls-4{fill:#fff;}</style><clipPath id="clip-path"><rect class="cls-1" x="32.77" y="-81.52" width="21.97" height="17.42"/></clipPath><clipPath id="clip-path-2"><path class="cls-1" d="M-14.46,12a4.67,4.67,0,0,1-4.67,4.68A4.67,4.67,0,0,1-23.8,12a4.67,4.67,0,0,1,4.67-4.67A4.67,4.67,0,0,1-14.46,12Zm5.91-2-3.09-.48a7.87,7.87,0,0,0-1.55-2.71L-12,3.92l-3.37-2-2,2.42a7.58,7.58,0,0,0-3.48,0l-2-2.42-3.37,2,1.17,2.9a7.92,7.92,0,0,0-1.55,2.7l-3.09.5V14l3.09.48a7.87,7.87,0,0,0,1.55,2.71L-26.24,20l3.37,2,2-2.42a7.58,7.58,0,0,0,3.48,0l2,2.42,3.37-2-1.17-2.9a7.87,7.87,0,0,0,1.55-2.71L-8.55,14Z"/></clipPath></defs><title>notifications</title><path class="cls-4" d="M19.67,15.38V6.51L12,.9,4.32,6.51v8.87L2.08,19.81H8.46V21l3.59,2.07L15.64,21V19.81h6.27Zm-5.8,4.43V20L12.05,21,10.23,20v-.17ZM19,18H5L6.09,15.8V7.41L12,3.09l5.9,4.32V15.8Z"/></svg>