<svg xmlns="http://www.w3.org/2000/svg" viewBox="0 0 48 42"><defs><style>.cls-1{fill:#2d404e;}.cls-2{fill:#647277;}.cls-3{fill:#253744;opacity:0.6;isolation:isolate;}.cls-4{fill:#ea5262;}</style></defs><title>onboarding_noonline</title><g id="Text"><circle class="cls-1" cx="24.81" cy="21.63" r="12.18"/><path class="cls-2" d="M37,21.63A12.12,12.12,0,0,0,35,15a3,3,0,0,0-.56,1.67c.13.65.89.7.82,1.18s-.65-.14-1.35,1.12-.34,3,.66,3.13A5.54,5.54,0,0,0,37,21.63Z"/><path class="cls-2" d="M28,9.87a12.13,12.13,0,0,1,3.89,1.85S30.49,11.49,30,12,28.64,13.58,28,12,28,9.87,28,9.87Z"/><path class="cls-2" d="M15.65,13.59a12.15,12.15,0,0,1,9.16-4.15s-.83.5.74,1.35.84,1.24.52,1.5-.89-.52-1.26-1a3.32,3.32,0,0,0-3.18-.89c-1.22.43-2.26.75-2.09,1.16s2.26-.38,3.05-.34.52.52-.22,1.09-.83,1.26,0,1.7,1.74.48,2,.22-.39-2,1.09-1.22,2.7,1.17,1.48,2.26-2.61,2.31-2.65,3,.43,1.26.17,1.31-.5-.28-.67-.52a1.6,1.6,0,0,0-1.37-.18c-.4.15-1.13.74-.72,1.31s1,.3,1.54.56,1.1,1.26,1,1.48-.59-.06-1-.82S22,21.1,21.5,21a1.86,1.86,0,0,1-1.44-1.13c-.52-.91-1.6-1.17-2-1.69A7.46,7.46,0,0,1,16.58,15,11.49,11.49,0,0,0,15.65,13.59Z"/><path class="cls-2" d="M26,21.8a4.23,4.23,0,0,1,2,.7,2.94,2.94,0,0,0,1.74,1c1,.21,1.44.78.78,1.87a21.09,21.09,0,0,1-2.39,3.35,4.17,4.17,0,0,0-1.52,1.83c-.26.87-.35,1.39.21,1.74,0,0-.3.74-1-.22s-.13-2.09,0-2.74A9.62,9.62,0,0,0,26,26.24c-.21-.48-1.21-.78-1.47-1.79S24.74,21.51,26,21.8Z"/><path class="cls-3" d="M16.19,13A12.18,12.18,0,0,1,33.42,30.24s5.53-7.31-2.3-15.13S16.19,13,16.19,13Z"/><path class="cls-4" d="M24.81,4.91A16.72,16.72,0,1,0,41.52,21.63,16.74,16.74,0,0,0,24.81,4.91Zm0,1.84a14.79,14.79,0,0,1,10.62,4.49L13,30.62A14.84,14.84,0,0,1,24.81,6.75Zm0,29.75A14.86,14.86,0,0,1,14.18,32L36.63,12.63A14.85,14.85,0,0,1,24.81,36.5Z"/></g></svg>