<svg xmlns="http://www.w3.org/2000/svg" xmlns:xlink="http://www.w3.org/1999/xlink" viewBox="0 0 505.74 416.25"><defs><style>.cls-1{isolation:isolate;}.cls-2,.cls-29,.cls-30{opacity:0.4;}.cls-2{mix-blend-mode:soft-light;}.cls-3{fill:url(#New_Gradient_Swatch_copy_2);}.cls-12,.cls-17,.cls-21,.cls-25,.cls-4{mix-blend-mode:screen;}.cls-4{fill:url(#New_Gradient_Swatch);}.cls-5{fill:url(#New_Gradient_Swatch_copy);}.cls-6{fill:#5b5b72;}.cls-14,.cls-32,.cls-6{opacity:0.3;}.cls-14,.cls-6{mix-blend-mode:multiply;}.cls-14,.cls-7{fill:#00b45a;}.cls-10,.cls-8{fill:#fcfcfc;}.cls-8,.cls-9{opacity:0.2;}.cls-11{fill:url(#New_Gradient_Swatch_copy_2-2);}.cls-12{fill:url(#New_Gradient_Swatch_copy-2);}.cls-13{fill:url(#New_Gradient_Swatch_copy-3);}.cls-15{fill:#373f45;}.cls-16{fill:url(#New_Gradient_Swatch_copy_2-3);}.cls-17{fill:url(#New_Gradient_Swatch_copy-4);}.cls-18{fill:url(#New_Gradient_Swatch_copy-5);}.cls-19{fill:#00e6b4;}.cls-20{fill:url(#New_Gradient_Swatch_copy_2-4);}.cls-21{fill:url(#New_Gradient_Swatch_copy-6);}.cls-22{fill:url(#New_Gradient_Swatch_copy-7);}.cls-23{fill:#ea5262;}.cls-24{fill:url(#New_Gradient_Swatch_copy_2-5);}.cls-25{fill:url(#New_Gradient_Swatch_copy-8);}.cls-26{fill:url(#New_Gradient_Swatch_copy-9);}.cls-27{opacity:0.7;}.cls-28{fill:url(#linear-gradient);}.cls-29{fill:url(#linear-gradient-2);}.cls-30{fill:url(#linear-gradient-3);}.cls-31{fill:#63fcd7;}.cls-33{fill:url(#New_Gradient_Swatch_copy_3);}.cls-34{fill:url(#New_Gradient_Swatch_copy_3-2);}.cls-35{fill:url(#New_Gradient_Swatch_copy_3-3);}.cls-36{fill:url(#New_Gradient_Swatch_copy_3-4);}.cls-37{fill:url(#New_Gradient_Swatch_copy_3-5);}.cls-38{fill:url(#linear-gradient-4);}.cls-39{fill:url(#New_Gradient_Swatch_copy_3-6);}.cls-40{fill:url(#New_Gradient_Swatch_copy_3-7);}.cls-41{fill:url(#New_Gradient_Swatch_copy_3-8);}.cls-42{fill:url(#linear-gradient-5);}.cls-43{fill:url(#linear-gradient-6);}.cls-44{fill:url(#linear-gradient-7);}.cls-45{fill:url(#linear-gradient-8);}.cls-46{fill:url(#linear-gradient-9);}.cls-47{fill:url(#linear-gradient-10);}.cls-48{fill:url(#New_Gradient_Swatch_copy_3-9);}.cls-49{fill:url(#linear-gradient-11);}</style><linearGradient id="New_Gradient_Swatch_copy_2" x1="120.69" y1="170.51" x2="586.54" y2="171.1" gradientUnits="userSpaceOnUse"><stop offset="0.02" stop-color="#1e3f52"/><stop offset="0.14" stop-color="#373f45"/><stop offset="0.5" stop-color="#00b45a"/><stop offset="0.62" stop-color="#00b45a"/><stop offset="0.85" stop-color="#007771"/></linearGradient><linearGradient id="New_Gradient_Swatch" x1="-88.1" y1="1474.03" x2="85.53" y2="1743.96" gradientTransform="matrix(1, -0.58, 0.87, 0.5, -1064.6, -644.01)" gradientUnits="userSpaceOnUse"><stop offset="0.14" stop-color="#2f3f45"/><stop offset="0.54" stop-color="#2d504f"/><stop offset="0.83" stop-color="#00b45a"/><stop offset="1" stop-color="#00a47d"/></linearGradient><linearGradient id="New_Gradient_Swatch_copy" x1="210.84" y1="119.01" x2="496.38" y2="233.58" gradientUnits="userSpaceOnUse"><stop offset="0.14" stop-color="#293f45"/><stop offset="0.54" stop-color="#305955"/><stop offset="0.83" stop-color="#00b45a"/><stop offset="1" stop-color="#00997c"/></linearGradient><linearGradient id="New_Gradient_Swatch_copy_2-2" x1="-0.8" y1="227.32" x2="185" y2="227.32" xlink:href="#New_Gradient_Swatch_copy_2"/><linearGradient id="New_Gradient_Swatch_copy-2" x1="14.95" y1="213.98" x2="142.54" y2="213.98" xlink:href="#New_Gradient_Swatch_copy"/><linearGradient id="New_Gradient_Swatch_copy-3" x1="22.31" y1="213.03" x2="152.81" y2="213.03" xlink:href="#New_Gradient_Swatch_copy"/><linearGradient id="New_Gradient_Swatch_copy_2-3" x1="84.74" y1="279.97" x2="270.53" y2="279.97" xlink:href="#New_Gradient_Swatch_copy_2"/><linearGradient id="New_Gradient_Swatch_copy-4" x1="100.48" y1="266.63" x2="228.08" y2="266.63" xlink:href="#New_Gradient_Swatch_copy"/><linearGradient id="New_Gradient_Swatch_copy-5" x1="122.42" y1="240.51" x2="219.21" y2="298.72" xlink:href="#New_Gradient_Swatch_copy"/><linearGradient id="New_Gradient_Swatch_copy_2-4" x1="84.74" y1="259.84" x2="270.53" y2="259.84" xlink:href="#New_Gradient_Swatch_copy_2"/><linearGradient id="New_Gradient_Swatch_copy-6" x1="100.48" y1="242.18" x2="228.08" y2="242.18" xlink:href="#New_Gradient_Swatch_copy"/><linearGradient id="New_Gradient_Swatch_copy-7" x1="122.42" y1="216.06" x2="219.21" y2="274.27" xlink:href="#New_Gradient_Swatch_copy"/><linearGradient id="New_Gradient_Swatch_copy_2-5" x1="169.46" y1="328.06" x2="355.25" y2="328.06" xlink:href="#New_Gradient_Swatch_copy_2"/><linearGradient id="New_Gradient_Swatch_copy-8" x1="185.2" y1="314.72" x2="312.8" y2="314.72" xlink:href="#New_Gradient_Swatch_copy"/><linearGradient id="New_Gradient_Swatch_copy-9" x1="207.15" y1="288.6" x2="303.93" y2="346.81" xlink:href="#New_Gradient_Swatch_copy"/><linearGradient id="linear-gradient" x1="123.57" y1="240.39" x2="204.64" y2="240.39" gradientUnits="userSpaceOnUse"><stop offset="0.01" stop-color="#00e6b4"/><stop offset="0.47" stop-color="#51fac9"/><stop offset="1" stop-color="#00e6b4"/></linearGradient><linearGradient id="linear-gradient-2" x1="164.36" y1="259.1" x2="164.36" y2="92.6" gradientUnits="userSpaceOnUse"><stop offset="0" stop-color="#00e6b4"/><stop offset="0.31" stop-color="#00e6b4" stop-opacity="0.66"/><stop offset="0.64" stop-color="#00e6b4" stop-opacity="0.31"/><stop offset="0.88" stop-color="#00e6b4" stop-opacity="0.09"/><stop offset="1" stop-color="#00e6b4" stop-opacity="0"/></linearGradient><linearGradient id="linear-gradient-3" x1="164.94" y1="246.59" x2="164.94" y2="148.22" xlink:href="#linear-gradient-2"/><linearGradient id="New_Gradient_Swatch_copy_3" x1="195.46" y1="148.66" x2="162.42" y2="191.67" gradientUnits="userSpaceOnUse"><stop offset="0" stop-color="#00e6b4"/><stop offset="1" stop-color="#00b45a"/></linearGradient><linearGradient id="New_Gradient_Swatch_copy_3-2" x1="166.14" y1="187.38" x2="171.09" y2="171.86" xlink:href="#New_Gradient_Swatch_copy_3"/><linearGradient id="New_Gradient_Swatch_copy_3-3" x1="188.87" y1="143.59" x2="155.83" y2="186.61" xlink:href="#New_Gradient_Swatch_copy_3"/><linearGradient id="New_Gradient_Swatch_copy_3-4" x1="192.76" y1="146.58" x2="159.71" y2="189.6" xlink:href="#New_Gradient_Swatch_copy_3"/><linearGradient id="New_Gradient_Swatch_copy_3-5" x1="162.96" y1="186.37" x2="167.91" y2="170.85" xlink:href="#New_Gradient_Swatch_copy_3"/><linearGradient id="linear-gradient-4" x1="186.6" y1="141.85" x2="153.55" y2="184.86" xlink:href="#New_Gradient_Swatch_copy_3"/><linearGradient id="New_Gradient_Swatch_copy_3-6" x1="166.28" y1="174.12" x2="165.68" y2="158.94" xlink:href="#New_Gradient_Swatch_copy_3"/><linearGradient id="New_Gradient_Swatch_copy_3-7" x1="179.53" y1="136.42" x2="146.48" y2="179.43" xlink:href="#New_Gradient_Swatch_copy_3"/><linearGradient id="New_Gradient_Swatch_copy_3-8" x1="175.07" y1="132.99" x2="142.02" y2="176" xlink:href="#New_Gradient_Swatch_copy_3"/><linearGradient id="linear-gradient-5" x1="180.67" y1="137.29" x2="147.62" y2="180.31" xlink:href="#New_Gradient_Swatch_copy_3"/><linearGradient id="linear-gradient-6" x1="172.7" y1="131.17" x2="139.65" y2="174.19" xlink:href="#New_Gradient_Swatch_copy_3"/><linearGradient id="linear-gradient-7" x1="173.81" y1="132.02" x2="140.76" y2="175.04" xlink:href="#New_Gradient_Swatch_copy_3"/><linearGradient id="linear-gradient-8" x1="171.23" y1="130.04" x2="138.18" y2="173.05" xlink:href="#New_Gradient_Swatch_copy_3"/><linearGradient id="linear-gradient-9" x1="170.03" y1="129.12" x2="136.99" y2="172.14" xlink:href="#New_Gradient_Swatch_copy_3"/><linearGradient id="linear-gradient-10" x1="171.45" y1="130.21" x2="138.4" y2="173.22" xlink:href="#New_Gradient_Swatch_copy_3"/><linearGradient id="New_Gradient_Swatch_copy_3-9" x1="171.31" y1="195.6" x2="154.9" y2="127.23" xlink:href="#New_Gradient_Swatch_copy_3"/><linearGradient id="linear-gradient-11" x1="171.67" y1="130.38" x2="138.63" y2="173.4" xlink:href="#New_Gradient_Swatch_copy_3"/></defs><title>qr_scan copy</title><g class="cls-1"><g id="_5" data-name="5"><g id="Layer_33_copy" data-name="Layer 33 copy"><path class="cls-3" d="M475.56,197.57h0V184.4l-20.06-3.19L275.1,77.06c-7.73-4.46-20.38-4.46-28.12,0l-96.44,55.68L139.43,131v13h0c0,2.94,1.94,5.88,5.8,8.11L339.88,264.43c7.73,4.46,20.39,4.46,28.12,0l101.76-58.75c3.59-2.08,5.49-4.77,5.75-7.5l.05,0Z"/><path class="cls-4" d="M469.76,178.22c7.73,4.46,7.73,11.77,0,16.23L368,253.2c-7.73,4.47-20.39,4.47-28.12,0L145.23,140.82c-7.73-4.46-7.73-11.77,0-16.23L247,65.84c7.74-4.47,20.39-4.47,28.12,0Z"/><path class="cls-5" d="M469.76,176.49c7.73,4.47,7.73,11.77,0,16.24L368,251.48c-7.73,4.46-20.39,4.46-28.12,0L145.23,139.09c-7.73-4.46-7.73-11.77,0-16.23L247,64.11c7.74-4.46,20.39-4.46,28.12,0Z"/><path class="cls-6" d="M303.31,156.73l-50,28.85-50-28.85,50-28.85Zm2.34-59-50,28.85,50,28.85,50-28.85Zm0,60.4-50,28.85,50,28.85,50-28.85Zm52.3-30.2-50,28.85,50,28.85,50-28.85Z"/><path class="cls-7" d="M310.7,127.14,304.07,131a4.62,4.62,0,0,1-3.35.27l-4.5-1.44c-.55-.18-.91-.47-1-.79s.13-.66.58-.91l6.67-3.86.88.51-6.68,3.85c-.17.1-.25.21-.22.31s.15.2.36.26l4.5,1.45a2.7,2.7,0,0,0,1.87-.15l6.63-3.83a.62.62,0,0,0,.19-1l-6-5.33a1,1,0,0,1,.12-1.8l1.39-.8.88.51L305,119c-.28.16-.32.58,0,.9l6,5.33C311.7,125.8,311.55,126.65,310.7,127.14Z"/><polygon class="cls-7" points="314.15 127.93 305.1 133.16 304.22 132.65 312.56 127.84 308.73 124.47 309.76 124.08 314.15 127.93"/><path class="cls-7" d="M307.42,134.44a3.49,3.49,0,0,1-3.15,0,1,1,0,0,1,0-1.82,3.43,3.43,0,0,1,3.15,0A1,1,0,0,1,307.42,134.44Zm-2.28-1.32a.43.43,0,0,0,0,.81,1.57,1.57,0,0,0,1.4,0,.43.43,0,0,0,0-.81A1.57,1.57,0,0,0,305.14,133.12Z"/><path class="cls-7" d="M315,130.05a3.5,3.5,0,0,1-3.15,0,1,1,0,0,1,0-1.82,3.49,3.49,0,0,1,3.15,0A1,1,0,0,1,315,130.05Zm-2.27-1.32c-.39.23-.39.59,0,.81a1.57,1.57,0,0,0,1.4,0,.43.43,0,0,0,0-.81A1.57,1.57,0,0,0,312.75,128.73Z"/><polygon class="cls-7" points="305.25 123.74 304.38 124.25 303.5 123.74 304.38 123.23 305.25 123.74"/><path class="cls-7" d="M368,156.43l-12.46,7.19a3.56,3.56,0,0,1-3.21,0l-8.2-4.73a1,1,0,0,1,0-1.86l12.46-7.19a3.56,3.56,0,0,1,3.21,0l8.2,4.74A1,1,0,0,1,368,156.43Zm-23,1.11a.44.44,0,0,0,0,.84l8.2,4.73a1.6,1.6,0,0,0,1.46,0l12.45-7.19a.45.45,0,0,0,0-.85l-8.2-4.73a1.63,1.63,0,0,0-1.46,0Z"/><path class="cls-7" d="M371.82,156.43l-12.45,7.19a3.56,3.56,0,0,1-3.21,0l-1.2-.69,12.13-7a.45.45,0,0,0,0-.85l-7.88-4.55,1.2-.69a3.58,3.58,0,0,1,3.22,0l8.2,4.74A1,1,0,0,1,371.82,156.43Zm-15.11,6.5.32.18a1.57,1.57,0,0,0,1.46,0L371,155.93a.45.45,0,0,0,0-.85l-8.2-4.73a1.63,1.63,0,0,0-1.46,0l-.32.18,7,4.05a1,1,0,0,1,0,1.85Z"/><path class="cls-7" d="M349.67,156.54a1.17,1.17,0,0,0-.44.41,2.24,2.24,0,0,0-.7.25.8.8,0,0,0,0,1.51,2.9,2.9,0,0,0,2.63,0,1.1,1.1,0,0,0,.42-.41,2.36,2.36,0,0,0,.72-.25.8.8,0,0,0,0-1.51A2.88,2.88,0,0,0,349.67,156.54Zm-.56,1.83a.44.44,0,0,1,0-.83l.06,0a1.07,1.07,0,0,0,.5.54,2.54,2.54,0,0,0,.93.29l0,0A1.61,1.61,0,0,1,349.11,158.37Zm2.59-.66a1.59,1.59,0,0,1-1.44,0,.44.44,0,0,1,0-.83,1.59,1.59,0,0,1,1.44,0A.44.44,0,0,1,351.7,157.71Z"/><polygon class="cls-7" points="364.49 155.36 358.57 158.78 357.69 158.27 363.61 154.85 364.49 155.36"/><polygon class="cls-7" points="362.95 154.47 360.45 155.91 359.57 155.4 362.07 153.96 362.95 154.47"/><polygon class="cls-7" points="359.48 152.47 358.52 153.01 357.65 152.51 358.6 151.96 359.48 152.47"/><polygon class="cls-7" points="357.93 153.36 356.98 153.9 356.1 153.4 357.06 152.85 357.93 153.36"/><polygon class="cls-7" points="357.88 159.18 356.93 159.73 356.05 159.22 357 158.67 357.88 159.18"/><path class="cls-7" d="M300.4,187.44l.87-.51-.87-.5-3.51-2-.88-.5-.87.5-3.51,2-.88.5.88.51,3.51,2,.88.51.87-.51Zm-7.89-.51,3.51-2,3.5,2L296,189Z"/><polygon class="cls-7" points="310.9 182.39 310.03 182.89 310.03 182.89 310.9 183.4 309.16 184.4 308.29 183.9 307.38 184.42 306.53 184.91 307.41 185.41 306.53 185.92 305.66 185.41 304.78 185.92 304.78 185.92 303.9 186.43 303.02 185.92 304.8 184.89 303.93 184.39 302.15 185.41 300.4 184.4 301.27 183.9 300.4 183.39 299.52 183.9 298.64 183.39 297.77 183.9 298.64 184.4 299.52 184.91 301.27 185.92 302.15 186.43 303.02 186.93 302.14 187.44 303.01 187.95 303.9 187.44 304.48 187.77 304.48 187.77 304.78 187.94 303.9 188.45 304.78 188.96 305.66 188.45 306.53 188.96 307.41 188.45 304.78 186.93 305.66 186.43 307.41 187.44 308.29 186.93 307.41 186.43 308.31 185.91 307.43 185.4 308.26 184.92 309.14 185.43 309.16 185.41 309.16 185.41 311.78 183.9 312.66 184.41 310.91 185.42 311.79 185.92 313.53 184.91 314.41 185.42 315.29 184.92 311.78 182.89 312.66 182.39 311.78 181.88 310.9 182.39 310.9 182.39"/><polygon class="cls-7" points="300.42 182.36 299.52 182.88 300.4 183.39 301.3 182.87 300.42 182.36"/><polygon class="cls-7" points="312.67 191.49 314.43 190.47 313.56 189.96 311.79 190.98 312.67 191.49"/><polygon class="cls-7" points="311 186.45 310.98 186.46 310.92 186.43 307.41 188.45 308.28 188.96 310.91 187.44 311.79 187.94 312.69 187.43 311 186.45"/><polygon class="cls-7" points="312.68 188.45 312.67 188.45 311.79 187.94 310.04 188.96 310.92 189.46 309.16 190.48 310.03 190.99 312.68 189.46 313.55 189.97 314.43 189.46 314.43 189.46 315.33 188.94 314.45 188.43 313.55 188.96 312.68 188.45"/><polygon class="cls-7" points="314.39 186.45 315.29 185.93 314.41 185.42 313.51 185.94 314.39 186.45"/><polygon class="cls-7" points="300.4 191.49 300.4 191.49 301.3 190.97 301.3 190.97 303.05 189.96 302.17 189.45 303.89 188.46 303.01 187.95 302.14 188.46 301.26 187.95 300.38 188.46 301.26 188.96 302.14 189.47 302.14 189.47 300.42 190.46 299.55 189.96 299.52 189.97 299.52 189.97 297.77 190.98 298.64 191.49 299.52 190.98 300.4 191.49"/><polygon class="cls-7" points="308.3 188.95 307.4 189.47 308.27 189.98 309.18 189.46 308.3 188.95"/><polygon class="cls-7" points="294.25 186.94 296 187.95 297.77 186.93 296.01 185.92 294.25 186.94"/><path class="cls-7" d="M301.27,192l-.87.51.87.5,3.51,2,.88.5.87-.5,3.51-2,.88-.5L310,192l-3.51-2-.87-.51-.88.51Zm7.89.51-3.5,2-3.51-2,3.51-2Z"/><polygon class="cls-7" points="307.41 192.5 305.66 191.49 303.89 192.51 305.64 193.52 307.41 192.5"/><path class="cls-7" d="M304.78,178.83l-3.51,2-.87.5.87.51,3.51,2,.88.5.87-.5,3.51-2,.88-.5-.88-.51-3.51-2-.87-.5Zm4.38,2.53-3.5,2-3.51-2,3.51-2Z"/><polygon class="cls-7" points="307.41 181.36 305.65 180.35 303.89 181.37 305.64 182.38 307.41 181.36"/><polygon class="cls-7" points="316.16 188.46 317.93 187.44 316.17 186.43 314.41 187.44 316.16 188.46"/><path class="cls-8" d="M226,98.58l-15.37,8.88a5.16,5.16,0,0,1-4.61.2c-1.18-.68-1-1.87.35-2.66l15.37-8.88a5.13,5.13,0,0,1,4.61-.2C227.5,96.6,227.34,97.79,226,98.58Zm-18.92,6.83c-1,.56-1.14,1.39-.35,1.84a3.6,3.6,0,0,0,3.19-.2l15.37-8.88c1-.56,1.14-1.39.35-1.84a3.6,3.6,0,0,0-3.19.2Zm-2.47,5.52a4.7,4.7,0,0,1-4.26,0,1.3,1.3,0,0,1,0-2.46,4.7,4.7,0,0,1,4.26,0A1.3,1.3,0,0,1,204.58,110.93ZM201,108.88a.87.87,0,0,0,0,1.64,3.16,3.16,0,0,0,2.84,0,.87.87,0,0,0,0-1.64A3.16,3.16,0,0,0,201,108.88Z"/><g class="cls-9"><path class="cls-10" d="M412.39,212.35l-10.41,6a10.27,10.27,0,0,1-9.23,0l-1.87-1.09c-2.55-1.47-2.55-3.86,0-5.33l10.4-6a10.27,10.27,0,0,1,9.23,0l1.88,1.09C414.93,208.49,414.93,210.88,412.39,212.35Zm-20.8,0c-2.16,1.25-2.16,3.27,0,4.51l1.89,1.09a8.64,8.64,0,0,0,7.8,0l10.41-6c2.15-1.25,2.15-3.27,0-4.51l-1.88-1.09a8.64,8.64,0,0,0-7.8,0Z"/></g><path class="cls-11" d="M142.54,213H109.81L86.4,199.51a16.93,16.93,0,0,0-15.31,0L47.68,213H15v7.62h0a5.7,5.7,0,0,0,3.13,3.89l53,30.59a17,17,0,0,0,15.32,0l53-30.58a5.74,5.74,0,0,0,3.13-3.9h0Z"/><path class="cls-12" d="M86.41,249a17,17,0,0,1-15.32,0l-53-30.58c-4.23-2.44-4.23-6.4,0-8.84l53-30.58a16.93,16.93,0,0,1,15.31,0l53,30.58c4.23,2.44,4.23,6.4,0,8.84Z"/><path class="cls-13" d="M86.41,248a17,17,0,0,1-15.32,0l-53-30.58c-4.23-2.44-4.23-6.4,0-8.84l53-30.58a16.93,16.93,0,0,1,15.31,0l53,30.58c4.23,2.44,4.23,6.4,0,8.84Z"/><path class="cls-14" d="M86.41,248a17,17,0,0,1-15.32,0l-53-30.58c-4.23-2.44-4.23-6.4,0-8.84l53-30.58a16.93,16.93,0,0,1,15.31,0l53,30.58c4.23,2.44,4.23,6.4,0,8.84Z"/><path class="cls-7" d="M78.75,250.3a16,16,0,0,1-7.88-1.89l-53-30.58c-2.18-1.26-3.39-3-3.39-4.8s1.21-3.54,3.39-4.8l53-30.58a17.35,17.35,0,0,1,15.75,0l53,30.58c2.19,1.26,3.39,3,3.39,4.8s-1.2,3.54-3.39,4.8l-53,30.58A16,16,0,0,1,78.75,250.3Zm0-73.67a15.08,15.08,0,0,0-7.44,1.78L18.34,209c-1.91,1.09-3,2.53-3,4s1,2.94,3,4l53,30.59a16.52,16.52,0,0,0,14.88,0l53-30.59c1.91-1.1,3-2.53,3-4s-1.05-2.94-3-4l-53-30.58A15.12,15.12,0,0,0,78.74,176.63Z"/><path class="cls-7" d="M88.75,211.92,76.3,219.11a3.58,3.58,0,0,1-3.22,0l-8.2-4.73a1,1,0,0,1,0-1.86l12.45-7.19a3.56,3.56,0,0,1,3.21,0l8.2,4.73A1,1,0,0,1,88.75,211.92Zm-23,1.11a.44.44,0,0,0,0,.84L74,218.6a1.57,1.57,0,0,0,1.46,0l12.46-7.19a.44.44,0,0,0,0-.84l-8.2-4.73a1.57,1.57,0,0,0-1.46,0Z"/><path class="cls-7" d="M92.61,211.92l-12.45,7.19a3.58,3.58,0,0,1-3.22,0l-1.2-.69,12.14-7a.44.44,0,0,0,0-.84L80,206l1.2-.69a3.56,3.56,0,0,1,3.21,0l8.2,4.73A1,1,0,0,1,92.61,211.92Zm-15.11,6.5.32.18a1.57,1.57,0,0,0,1.46,0l12.45-7.19a.44.44,0,0,0,0-.84l-8.2-4.73a1.57,1.57,0,0,0-1.46,0l-.32.18,7,4a1,1,0,0,1,0,1.86Z"/><path class="cls-7" d="M70.46,212a1.28,1.28,0,0,0-.44.42,2.3,2.3,0,0,0-.71.25.8.8,0,0,0,0,1.51,2.88,2.88,0,0,0,2.62,0,1.22,1.22,0,0,0,.43-.41,2.21,2.21,0,0,0,.71-.25c.73-.42.73-1.1,0-1.51A2.89,2.89,0,0,0,70.46,212Zm-.56,1.84a.44.44,0,0,1,0-.84l.06,0a1.06,1.06,0,0,0,.5.54,2.47,2.47,0,0,0,.93.28l0,0A1.59,1.59,0,0,1,69.9,213.86Zm2.59-.66a1.61,1.61,0,0,1-1.45,0,.44.44,0,0,1,0-.84,1.61,1.61,0,0,1,1.45,0A.44.44,0,0,1,72.49,213.2Z"/><polygon class="cls-7" points="85.27 210.85 79.36 214.26 78.48 213.76 84.4 210.34 85.27 210.85"/><polygon class="cls-7" points="83.73 209.96 81.24 211.4 80.36 210.89 82.85 209.45 83.73 209.96"/><polygon class="cls-7" points="80.26 207.95 79.31 208.5 78.43 208 79.38 207.45 80.26 207.95"/><polygon class="cls-7" points="78.72 208.84 77.77 209.39 76.89 208.89 77.84 208.34 78.72 208.84"/><polygon class="cls-7" points="78.66 214.67 77.71 215.21 76.83 214.71 77.78 214.16 78.66 214.67"/><path class="cls-15" d="M247.76,203.83a4.66,4.66,0,0,1,2.27,3.51c0,1.21-1,1.61-2.27.89l-21-12.1a4.66,4.66,0,0,1-2.27-3.51c0-1.21,1-1.61,2.27-.89Z"/><polygon class="cls-7" points="282.82 293.75 282.4 292.98 309.6 278.12 230.63 233.06 230.63 213.34 245.95 204.4 246.39 205.15 231.5 213.84 231.5 232.55 311.39 278.14 282.82 293.75"/><polygon class="cls-7" points="194.68 243.51 194.26 242.75 221.91 227.63 221.91 208.43 237.23 199.48 237.67 200.24 222.78 208.93 222.78 228.15 194.68 243.51"/><polygon class="cls-7" points="214.71 224.03 214.05 223.66 141.45 182.27 117.23 195.59 116.81 194.82 141.46 181.27 213.83 222.53 213.83 203.82 229.15 194.87 229.59 195.62 214.71 204.32 214.71 224.03"/><path class="cls-16" d="M228.08,265.68H195.35l-23.41-13.51a17,17,0,0,0-15.32,0l-23.41,13.51H100.48v7.62h0a5.69,5.69,0,0,0,3.12,3.9l53,30.58a17,17,0,0,0,15.32,0l53-30.58a5.69,5.69,0,0,0,3.12-3.9h.05Z"/><path class="cls-17" d="M171.94,301.64a17,17,0,0,1-15.32,0l-53-30.59c-4.23-2.44-4.23-6.4,0-8.84l53-30.58a17,17,0,0,1,15.32,0l53,30.58c4.22,2.44,4.22,6.4,0,8.84Z"/><path class="cls-18" d="M171.94,300.69a17,17,0,0,1-15.32,0l-53-30.59c-4.23-2.44-4.23-6.4,0-8.84l53-30.58a17,17,0,0,1,15.32,0l53,30.58c4.22,2.44,4.22,6.4,0,8.84Z"/><path class="cls-19" d="M222.77,248.86h-30L171.3,236.47a15.54,15.54,0,0,0-14,0l-21.47,12.4h-30v15.95h0a5.23,5.23,0,0,0,2.87,3.57l48.56,28a15.51,15.51,0,0,0,14,0l48.56-28a5.23,5.23,0,0,0,2.87-3.57h0Z"/><path class="cls-20" d="M228.08,241.23H195.35l-23.41-13.51a17,17,0,0,0-15.32,0l-23.41,13.51H100.48v16.26h0a5.66,5.66,0,0,0,3.12,3.89l53,30.58a16.88,16.88,0,0,0,15.32,0l53-30.58a5.66,5.66,0,0,0,3.12-3.89h.05Z"/><path class="cls-21" d="M171.94,277.18a16.88,16.88,0,0,1-15.32,0l-53-30.58c-4.23-2.44-4.23-6.4,0-8.84l53-30.58a17,17,0,0,1,15.32,0l53,30.58c4.22,2.44,4.22,6.4,0,8.84Z"/><path class="cls-22" d="M171.94,276.24a17,17,0,0,1-15.32,0l-53-30.59c-4.23-2.44-4.23-6.4,0-8.84l53-30.58a17,17,0,0,1,15.32,0l53,30.58c4.22,2.44,4.22,6.4,0,8.85Z"/><path class="cls-23" d="M127.51,268.81c0,1-.68,1.37-1.53.89a3.41,3.41,0,0,1-1.53-2.65c0-1,.69-1.38,1.53-.89A3.38,3.38,0,0,1,127.51,268.81Z"/><path class="cls-19" d="M132.46,271.67c0,1-.69,1.37-1.53.88a3.38,3.38,0,0,1-1.53-2.65c0-1,.68-1.37,1.53-.88A3.38,3.38,0,0,1,132.46,271.67Z"/><path class="cls-19" d="M137.4,274.52c0,1-.68,1.37-1.53.88a3.35,3.35,0,0,1-1.53-2.65c0-1,.68-1.37,1.53-.88A3.38,3.38,0,0,1,137.4,274.52Z"/><path class="cls-24" d="M312.8,313.77H280.07l-23.41-13.51a16.92,16.92,0,0,0-15.32,0l-23.41,13.51H185.2v7.62h.05a5.68,5.68,0,0,0,3.13,3.9l53,30.58a17,17,0,0,0,15.32,0l53-30.58a5.69,5.69,0,0,0,3.12-3.9h.05Z"/><path class="cls-25" d="M256.66,349.72a16.88,16.88,0,0,1-15.32,0l-53-30.58c-4.23-2.44-4.23-6.4,0-8.84l53-30.58a17,17,0,0,1,15.32,0l53,30.58c4.22,2.44,4.22,6.4,0,8.84Z"/><path class="cls-26" d="M256.66,348.78a17,17,0,0,1-15.32,0l-53-30.59c-4.23-2.44-4.23-6.4,0-8.84l53-30.58a17,17,0,0,1,15.32,0l53,30.58c4.22,2.44,4.22,6.4,0,8.84Z"/><path class="cls-14" d="M256.66,348.78a17,17,0,0,1-15.32,0l-53-30.59c-4.23-2.44-4.23-6.4,0-8.84l53-30.58a17,17,0,0,1,15.32,0l53,30.58c4.22,2.44,4.22,6.4,0,8.84Z"/><path class="cls-7" d="M249,351a16,16,0,0,1-7.87-1.89l-53-30.58c-2.19-1.26-3.39-3-3.39-4.8s1.2-3.54,3.39-4.8l53-30.58a17.37,17.37,0,0,1,15.76,0l53,30.58c2.19,1.27,3.39,3,3.39,4.8s-1.2,3.54-3.39,4.8l-53,30.58A16,16,0,0,1,249,351Zm0-73.67a15.05,15.05,0,0,0-7.44,1.78l-53,30.58c-1.9,1.1-3,2.53-3,4s1.05,3,3,4.05l53,30.58a16.52,16.52,0,0,0,14.88,0l53-30.58c1.9-1.1,2.95-2.54,2.95-4.05s-1.05-2.94-2.95-4l-53-30.58A15.05,15.05,0,0,0,249,277.37Z"/><path class="cls-7" d="M254.25,313.85l-6.62,3.83a4.72,4.72,0,0,1-3.35.27l-4.5-1.45a1.34,1.34,0,0,1-1-.78c-.08-.33.13-.66.58-.92L246,311l.88.5-6.68,3.86c-.17.09-.25.21-.22.31s.15.19.36.26l4.5,1.44a2.71,2.71,0,0,0,1.87-.15l6.63-3.82a.62.62,0,0,0,.18-1l-6-5.33a1,1,0,0,1,.13-1.79l1.39-.8.88.5-1.39.8a.55.55,0,0,0,0,.9l6,5.33C255.26,312.51,255.11,313.36,254.25,313.85Z"/><polygon class="cls-7" points="257.71 314.64 248.65 319.87 247.78 319.36 256.12 314.55 252.29 311.19 253.32 310.8 257.71 314.64"/><path class="cls-7" d="M251,321.15a3.49,3.49,0,0,1-3.15,0,1,1,0,0,1,0-1.82,3.49,3.49,0,0,1,3.15,0A1,1,0,0,1,251,321.15Zm-2.28-1.31a.43.43,0,0,0,0,.81,1.57,1.57,0,0,0,1.4,0c.39-.23.39-.59,0-.81A1.51,1.51,0,0,0,248.7,319.84Z"/><path class="cls-7" d="M258.58,316.76a3.49,3.49,0,0,1-3.15,0,1,1,0,0,1,0-1.82,3.49,3.49,0,0,1,3.15,0A1,1,0,0,1,258.58,316.76Zm-2.28-1.31a.43.43,0,0,0,0,.81,1.57,1.57,0,0,0,1.4,0c.39-.23.39-.59,0-.81A1.57,1.57,0,0,0,256.3,315.45Z"/><polygon class="cls-7" points="248.81 310.46 247.94 310.96 247.06 310.45 247.94 309.95 248.81 310.46"/><g id="_0_1_0_0_1_0_1_1_0_1_0_1_0_0_1_0_1_1_1_0_0_0_1_0_1_1_0_0_1_1_1_0_1_1_0_1_0_1_1_1_1_0_1_0_1_0_1_0_0_0" data-name="0 1 0 0 1 0 1 1 0 1 0 1 0 0 1 0 1 1 1 0 0 0 1 0 1 1 0 0 1 1 1 0 1 1 0 1 0 1 1 1 1 0 1 0 1 0 1 0 0 0"><path class="cls-7" d="M60.72,292a2.18,2.18,0,0,1,.6.48,1,1,0,0,1,.25.52.73.73,0,0,1-.11.49,1.36,1.36,0,0,1-.48.43,2.52,2.52,0,0,1-.74.28,4,4,0,0,1-.86.06,4.06,4.06,0,0,1-1.72-.49,2.19,2.19,0,0,1-.6-.49.94.94,0,0,1-.25-.51.75.75,0,0,1,.1-.5,1.46,1.46,0,0,1,.48-.43,2.58,2.58,0,0,1,.74-.27,4.1,4.1,0,0,1,.86-.06,3.93,3.93,0,0,1,.89.14A3.47,3.47,0,0,1,60.72,292Zm-.8.46a3.06,3.06,0,0,0-.49-.22,3.11,3.11,0,0,0-.49-.11,2.22,2.22,0,0,0-.45,0,1,1,0,0,0-.37.12.61.61,0,0,0-.23.22.39.39,0,0,0,0,.26.9.9,0,0,0,.19.29,2.5,2.5,0,0,0,.38.28,3.06,3.06,0,0,0,.49.22,2.13,2.13,0,0,0,.49.1,1.69,1.69,0,0,0,.45,0,1.08,1.08,0,0,0,.37-.13.5.5,0,0,0,.22-.21.36.36,0,0,0,0-.27.82.82,0,0,0-.18-.28A2.08,2.08,0,0,0,59.92,292.45Z"/><path class="cls-7" d="M66.23,290l.72.42-2.41,1.39-.71-.42.84-.48-1.8-1a.24.24,0,0,1,0,.18l-.11.23a1.74,1.74,0,0,1-.18.22,1,1,0,0,1-.21.17l-.74-.42a.68.68,0,0,0,.19-.19,1.74,1.74,0,0,0,.14-.27,1.71,1.71,0,0,0,.07-.26.25.25,0,0,0,0-.16l.81-.47,2.67,1.54Z"/><path class="cls-7" d="M70.12,286.56a2.24,2.24,0,0,1,.61.48,1.09,1.09,0,0,1,.25.52.79.79,0,0,1-.11.49,1.36,1.36,0,0,1-.48.43,2.26,2.26,0,0,1-.74.27,3.45,3.45,0,0,1-.86.07,4,4,0,0,1-.89-.15,3.18,3.18,0,0,1-.83-.35,2.24,2.24,0,0,1-.61-.48,1.1,1.1,0,0,1-.25-.51.82.82,0,0,1,.11-.5,1.28,1.28,0,0,1,.48-.43,2.58,2.58,0,0,1,.74-.27,3.07,3.07,0,0,1,.86-.06,3.93,3.93,0,0,1,.89.14A3.39,3.39,0,0,1,70.12,286.56Zm-.79.46a3.52,3.52,0,0,0-.49-.22,2.37,2.37,0,0,0-.5-.11,1.68,1.68,0,0,0-.45,0,1.07,1.07,0,0,0-.37.12.58.58,0,0,0-.22.22.39.39,0,0,0,0,.26.66.66,0,0,0,.19.28,1.7,1.7,0,0,0,.38.28,1.94,1.94,0,0,0,.49.22,2,2,0,0,0,.49.11,1.69,1.69,0,0,0,.45,0,1.35,1.35,0,0,0,.37-.13.58.58,0,0,0,.22-.22.33.33,0,0,0,0-.26.73.73,0,0,0-.19-.28A2,2,0,0,0,69.33,287Z"/><path class="cls-7" d="M75.18,283.64a2.24,2.24,0,0,1,.61.48,1.1,1.1,0,0,1,.25.51.76.76,0,0,1-.12.5,1.24,1.24,0,0,1-.47.43,2.51,2.51,0,0,1-.74.27,3.49,3.49,0,0,1-.86.07,4.6,4.6,0,0,1-.89-.15,3.57,3.57,0,0,1-.83-.35,2.4,2.4,0,0,1-.61-.48,1.1,1.1,0,0,1-.25-.51.82.82,0,0,1,.11-.5,1.28,1.28,0,0,1,.48-.43,2.32,2.32,0,0,1,.74-.27,3.07,3.07,0,0,1,.86-.06,3.93,3.93,0,0,1,.89.14A3.39,3.39,0,0,1,75.18,283.64Zm-.8.46a3,3,0,0,0-.48-.22,2.37,2.37,0,0,0-.5-.11,1.68,1.68,0,0,0-.45,0,1.07,1.07,0,0,0-.37.12.58.58,0,0,0-.22.22.33.33,0,0,0,0,.26.66.66,0,0,0,.19.28,1.7,1.7,0,0,0,.38.28,1.94,1.94,0,0,0,.49.22,2.16,2.16,0,0,0,.49.11,1.35,1.35,0,0,0,.45,0,1.07,1.07,0,0,0,.37-.12.58.58,0,0,0,.22-.22.39.39,0,0,0,0-.26.73.73,0,0,0-.19-.28A1.5,1.5,0,0,0,74.38,284.1Z"/><path class="cls-7" d="M80.7,281.63l.72.41L79,283.43l-.72-.41.85-.49-1.8-1a.42.42,0,0,1,0,.18,1.19,1.19,0,0,1-.12.22.91.91,0,0,1-.17.23.87.87,0,0,1-.22.17l-.74-.43a.44.44,0,0,0,.19-.19,1.17,1.17,0,0,0,.15-.27c0-.09,0-.17.07-.25a.3.3,0,0,0,0-.17l.81-.46L80,282.06Z"/><path class="cls-7" d="M84.59,278.21a2.24,2.24,0,0,1,.61.48,1.1,1.1,0,0,1,.25.51.76.76,0,0,1-.12.5,1.15,1.15,0,0,1-.47.42,2.52,2.52,0,0,1-.74.28,3.07,3.07,0,0,1-.86.06,3.93,3.93,0,0,1-.89-.14,3.64,3.64,0,0,1-.84-.35,2.34,2.34,0,0,1-.6-.48,1.1,1.1,0,0,1-.25-.51.75.75,0,0,1,.11-.5,1.24,1.24,0,0,1,.47-.43,2.23,2.23,0,0,1,.75-.27,3.45,3.45,0,0,1,.86-.07,4.6,4.6,0,0,1,.89.15A3.57,3.57,0,0,1,84.59,278.21Zm-.8.46a2.38,2.38,0,0,0-.49-.22,2.16,2.16,0,0,0-.49-.11,1.35,1.35,0,0,0-.45,0,1.07,1.07,0,0,0-.37.12.52.52,0,0,0-.22.22.33.33,0,0,0,0,.26.73.73,0,0,0,.19.28,1.5,1.5,0,0,0,.38.28,2.38,2.38,0,0,0,.49.22,2.08,2.08,0,0,0,.48.11,1.68,1.68,0,0,0,.45,0,.9.9,0,0,0,.38-.13.5.5,0,0,0,.22-.21.39.39,0,0,0,0-.26.66.66,0,0,0-.19-.28A1.5,1.5,0,0,0,83.79,278.67Z"/><path class="cls-7" d="M90.11,276.2l.72.41L88.42,278l-.72-.41.84-.49-1.79-1a.42.42,0,0,1,0,.18,1.19,1.19,0,0,1-.12.22,1.13,1.13,0,0,1-.17.23.87.87,0,0,1-.22.17l-.74-.43a.49.49,0,0,0,.19-.19.87.87,0,0,0,.14-.27,1,1,0,0,0,.07-.25.31.31,0,0,0,0-.17l.81-.47,2.67,1.54Z"/><path class="cls-7" d="M94.46,273.69l.71.41-2.4,1.39-.72-.41.84-.49-1.79-1a.35.35,0,0,1,0,.19A1.5,1.5,0,0,1,91,274a1.7,1.7,0,0,1-.17.23.87.87,0,0,1-.22.17l-.74-.43a.57.57,0,0,0,.19-.19.87.87,0,0,0,.14-.27,1,1,0,0,0,.07-.25.46.46,0,0,0,0-.17l.81-.47,2.66,1.54Z"/><path class="cls-7" d="M98.35,270.26a2,2,0,0,1,.6.49.94.94,0,0,1,.25.51.7.7,0,0,1-.11.5,1.39,1.39,0,0,1-.47.42,2.59,2.59,0,0,1-.75.28,4,4,0,0,1-.85.06,3.84,3.84,0,0,1-.89-.14,3.47,3.47,0,0,1-.84-.35,2.18,2.18,0,0,1-.6-.48,1,1,0,0,1-.25-.52.73.73,0,0,1,.11-.49,1.17,1.17,0,0,1,.47-.43,2.52,2.52,0,0,1,.74-.28,4.15,4.15,0,0,1,.87-.06,3.38,3.38,0,0,1,.88.15A3.44,3.44,0,0,1,98.35,270.26Zm-.8.47a2.42,2.42,0,0,0-.49-.23,2.25,2.25,0,0,0-.49-.1,1.69,1.69,0,0,0-.45,0,1.08,1.08,0,0,0-.37.13.45.45,0,0,0-.22.21.33.33,0,0,0,0,.26.8.8,0,0,0,.19.29,2,2,0,0,0,.38.28,4.13,4.13,0,0,0,.49.22,3.11,3.11,0,0,0,.49.11,2.22,2.22,0,0,0,.45,0,1,1,0,0,0,.38-.13.47.47,0,0,0,.21-.21.3.3,0,0,0,0-.26.74.74,0,0,0-.18-.28A1.7,1.7,0,0,0,97.55,270.73Z"/><path class="cls-7" d="M103.87,268.26l.71.41-2.41,1.39-.71-.41.84-.49-1.79-1a.31.31,0,0,1,0,.18,1.2,1.2,0,0,1-.11.23,1.24,1.24,0,0,1-.18.22,1.18,1.18,0,0,1-.21.18l-.74-.43a.68.68,0,0,0,.19-.19,1.74,1.74,0,0,0,.14-.27,1.45,1.45,0,0,0,.07-.26.26.26,0,0,0,0-.16l.82-.47,2.66,1.54Z"/><path class="cls-7" d="M107.76,264.83a2.18,2.18,0,0,1,.6.48,1.08,1.08,0,0,1,.25.52.73.73,0,0,1-.11.49,1.27,1.27,0,0,1-.48.43,2.52,2.52,0,0,1-.74.28,4,4,0,0,1-.86.06,4.7,4.7,0,0,1-.89-.14,4.05,4.05,0,0,1-.83-.35,2,2,0,0,1-.6-.49.94.94,0,0,1-.25-.51.72.72,0,0,1,.1-.49,1.38,1.38,0,0,1,.48-.44,2.7,2.7,0,0,1,.74-.27,4.1,4.1,0,0,1,.86-.06,3.84,3.84,0,0,1,.89.14A3.91,3.91,0,0,1,107.76,264.83Zm-.8.46a3.06,3.06,0,0,0-.49-.22A3.11,3.11,0,0,0,106,265a2.22,2.22,0,0,0-.45,0,.86.86,0,0,0-.37.13.53.53,0,0,0-.23.21.39.39,0,0,0,0,.26.8.8,0,0,0,.19.29,2.5,2.5,0,0,0,.38.28,3.06,3.06,0,0,0,.49.22,3.11,3.11,0,0,0,.49.11,2.22,2.22,0,0,0,.45,0,1.08,1.08,0,0,0,.37-.13.5.5,0,0,0,.22-.21.34.34,0,0,0,0-.26.77.77,0,0,0-.18-.29A2.68,2.68,0,0,0,107,265.29Z"/><path class="cls-7" d="M78.91,291.46l.72.41-2.41,1.39-.72-.41.85-.49-1.8-1a.42.42,0,0,1,0,.18,1.19,1.19,0,0,1-.12.22.91.91,0,0,1-.17.23.87.87,0,0,1-.22.17l-.74-.43a.52.52,0,0,0,.2-.19,1.71,1.71,0,0,0,.14-.27c0-.09,0-.17.07-.25a.3.3,0,0,0,0-.17l.81-.46,2.67,1.53Z"/><path class="cls-7" d="M82.8,288a2.4,2.4,0,0,1,.61.48,1.1,1.1,0,0,1,.25.51.76.76,0,0,1-.12.5,1.32,1.32,0,0,1-.47.43,2.83,2.83,0,0,1-.74.27,3.07,3.07,0,0,1-.86.06,3.93,3.93,0,0,1-.89-.14,3.39,3.39,0,0,1-.83-.35,2.24,2.24,0,0,1-.61-.48,1.1,1.1,0,0,1-.25-.51.75.75,0,0,1,.11-.5,1.24,1.24,0,0,1,.47-.43,2.23,2.23,0,0,1,.75-.27,3.49,3.49,0,0,1,.86-.07,4.6,4.6,0,0,1,.89.15A3.57,3.57,0,0,1,82.8,288Zm-.8.46a2.38,2.38,0,0,0-.49-.22,2.16,2.16,0,0,0-.49-.11,1.69,1.69,0,0,0-.45,0,1.35,1.35,0,0,0-.37.13.52.52,0,0,0-.22.22.33.33,0,0,0,0,.26.73.73,0,0,0,.19.28,1.5,1.5,0,0,0,.38.28,2.38,2.38,0,0,0,.49.22,2.08,2.08,0,0,0,.48.11,1.68,1.68,0,0,0,.45,0,1,1,0,0,0,.38-.13.5.5,0,0,0,.22-.21.39.39,0,0,0,0-.26.66.66,0,0,0-.19-.28A1.5,1.5,0,0,0,82,288.5Z"/><path class="cls-7" d="M87.86,285.11a2.66,2.66,0,0,1,.61.49,1.1,1.1,0,0,1,.25.51.76.76,0,0,1-.12.5,1.22,1.22,0,0,1-.47.42,2.52,2.52,0,0,1-.74.28,3.07,3.07,0,0,1-.86.06,3.93,3.93,0,0,1-.89-.14,3.64,3.64,0,0,1-.84-.35,2.18,2.18,0,0,1-.6-.48,1.09,1.09,0,0,1-.25-.52.73.73,0,0,1,.11-.49,1.24,1.24,0,0,1,.47-.43,2.23,2.23,0,0,1,.75-.27,3.45,3.45,0,0,1,.86-.07,4.06,4.06,0,0,1,1.72.49Zm-.8.47a2.38,2.38,0,0,0-.49-.22,1.73,1.73,0,0,0-.49-.11,1.69,1.69,0,0,0-.45,0,1.35,1.35,0,0,0-.37.13.47.47,0,0,0-.22.22.33.33,0,0,0,0,.26.73.73,0,0,0,.19.28,1.5,1.5,0,0,0,.38.28,2.38,2.38,0,0,0,.49.22,2.77,2.77,0,0,0,.48.11,1.68,1.68,0,0,0,.45,0,1,1,0,0,0,.38-.13.5.5,0,0,0,.22-.21.39.39,0,0,0,0-.26.66.66,0,0,0-.19-.28A1.5,1.5,0,0,0,87.06,285.58Z"/><path class="cls-7" d="M93.38,283.11l.71.41-2.4,1.39L91,284.5l.84-.49L90,283a.45.45,0,0,1,0,.19,1.64,1.64,0,0,1-.12.22.87.87,0,0,1-.17.22.73.73,0,0,1-.22.18l-.74-.43a.49.49,0,0,0,.19-.19,1,1,0,0,0,.14-.27,1,1,0,0,0,.07-.25.46.46,0,0,0,0-.17L90,282l2.67,1.54Z"/><path class="cls-7" d="M97.27,279.68a2.22,2.22,0,0,1,.61.49,1,1,0,0,1,.24.51.67.67,0,0,1-.11.49,1.32,1.32,0,0,1-.47.43,2.48,2.48,0,0,1-.75.28,3.88,3.88,0,0,1-1.74-.08,3.47,3.47,0,0,1-.84-.35,2.18,2.18,0,0,1-.6-.48,1,1,0,0,1-.25-.52.73.73,0,0,1,.11-.49,1.17,1.17,0,0,1,.47-.43,2.52,2.52,0,0,1,.74-.28,4.15,4.15,0,0,1,.87-.06,3.72,3.72,0,0,1,1.72.49Zm-.8.47a2.42,2.42,0,0,0-.49-.23,2.25,2.25,0,0,0-.49-.1,1.69,1.69,0,0,0-.45,0,1.08,1.08,0,0,0-.37.13.45.45,0,0,0-.22.21.33.33,0,0,0,0,.26.77.77,0,0,0,.18.29A2.19,2.19,0,0,0,95,281a3,3,0,0,0,.48.22,3.11,3.11,0,0,0,.49.11,2.22,2.22,0,0,0,.45,0,1.14,1.14,0,0,0,.38-.13A.47.47,0,0,0,97,281a.33.33,0,0,0,0-.26.77.77,0,0,0-.19-.28A1.7,1.7,0,0,0,96.47,280.15Z"/><path class="cls-7" d="M102.79,277.68l.71.41-2.4,1.39-.72-.42.84-.48-1.8-1a.24.24,0,0,1,0,.18.8.8,0,0,1-.11.23,1.18,1.18,0,0,1-.17.22,1.24,1.24,0,0,1-.22.18l-.74-.43a.68.68,0,0,0,.19-.19,1.16,1.16,0,0,0,.14-.27.92.92,0,0,0,.07-.26.42.42,0,0,0,0-.16l.81-.47,2.66,1.54Z"/><path class="cls-7" d="M107.13,275.16l.72.42-2.4,1.39-.72-.42.84-.48-1.8-1a.24.24,0,0,1,0,.18,1.2,1.2,0,0,1-.11.23,1.24,1.24,0,0,1-.18.22,1.18,1.18,0,0,1-.21.18l-.74-.43a.68.68,0,0,0,.19-.19,1.74,1.74,0,0,0,.14-.27.92.92,0,0,0,.07-.26.26.26,0,0,0,0-.16l.82-.47,2.66,1.54Z"/><path class="cls-7" d="M111.48,272.66l.72.41-2.41,1.39-.71-.42.84-.48-1.8-1a.24.24,0,0,1,0,.18l-.11.23a1.24,1.24,0,0,1-.18.22,1,1,0,0,1-.21.17l-.74-.42a.68.68,0,0,0,.19-.19,1.74,1.74,0,0,0,.14-.27,1.45,1.45,0,0,0,.07-.26.26.26,0,0,0,0-.16l.81-.47,2.67,1.54Z"/><path class="cls-7" d="M115.38,269.23a2.18,2.18,0,0,1,.6.48,1.09,1.09,0,0,1,.25.52.73.73,0,0,1-.11.49,1.36,1.36,0,0,1-.48.43,2.26,2.26,0,0,1-.74.27,3.45,3.45,0,0,1-.86.07,4,4,0,0,1-.89-.15,3.18,3.18,0,0,1-.83-.35,2.4,2.4,0,0,1-.61-.48,1.1,1.1,0,0,1-.25-.51.82.82,0,0,1,.11-.5,1.28,1.28,0,0,1,.48-.43,2.58,2.58,0,0,1,.74-.27,3.09,3.09,0,0,1,.86-.06,3.93,3.93,0,0,1,.89.14A3.47,3.47,0,0,1,115.38,269.23Zm-.81.46a3,3,0,0,0-.48-.22,3.22,3.22,0,0,0-.5-.11,1.61,1.61,0,0,0-.44,0,1,1,0,0,0-.37.12.54.54,0,0,0-.23.22.39.39,0,0,0,0,.26.66.66,0,0,0,.19.28,1.72,1.72,0,0,0,.38.29,3.06,3.06,0,0,0,.49.22,2.13,2.13,0,0,0,.49.1,1.69,1.69,0,0,0,.45,0,1.08,1.08,0,0,0,.37-.13.47.47,0,0,0,.22-.22.33.33,0,0,0,0-.26A.82.82,0,0,0,115,270,2.19,2.19,0,0,0,114.57,269.69Z"/><path class="cls-7" d="M81,297.87a2.4,2.4,0,0,1,.61.48,1.1,1.1,0,0,1,.25.51.76.76,0,0,1-.12.5,1.3,1.3,0,0,1-.47.42,2.48,2.48,0,0,1-.75.28,3,3,0,0,1-.85.06,3.93,3.93,0,0,1-.89-.14,3.47,3.47,0,0,1-.84-.35,2.18,2.18,0,0,1-.6-.48,1.09,1.09,0,0,1-.25-.52.73.73,0,0,1,.11-.49,1.24,1.24,0,0,1,.47-.43,2.26,2.26,0,0,1,.74-.27,3.57,3.57,0,0,1,.87-.07,4,4,0,0,1,.89.15A3.57,3.57,0,0,1,81,297.87Zm-.8.46a2.38,2.38,0,0,0-.49-.22,1.81,1.81,0,0,0-.49-.11,1.69,1.69,0,0,0-.45,0,1.35,1.35,0,0,0-.37.13.47.47,0,0,0-.22.22.38.38,0,0,0,0,.26.92.92,0,0,0,.2.28,1.5,1.5,0,0,0,.38.28,2.56,2.56,0,0,0,.48.22,2.29,2.29,0,0,0,.49.11,1.68,1.68,0,0,0,.45,0,1,1,0,0,0,.38-.13.5.5,0,0,0,.22-.21.39.39,0,0,0,0-.26.66.66,0,0,0-.19-.28A1.5,1.5,0,0,0,80.21,298.33Z"/><path class="cls-7" d="M86.07,294.94a2.39,2.39,0,0,1,.6.49.94.94,0,0,1,.25.51.7.7,0,0,1-.11.5,1.3,1.3,0,0,1-.47.42,2.48,2.48,0,0,1-.75.28,3.41,3.41,0,0,1-.85.06,3.93,3.93,0,0,1-.89-.14,3.47,3.47,0,0,1-.84-.35,2.18,2.18,0,0,1-.6-.48,1,1,0,0,1-.25-.52.73.73,0,0,1,.11-.49,1.17,1.17,0,0,1,.47-.43,2.52,2.52,0,0,1,.74-.28,4.15,4.15,0,0,1,.87-.06,4,4,0,0,1,.89.15A3.54,3.54,0,0,1,86.07,294.94Zm-.8.47a2.38,2.38,0,0,0-.49-.22,2.19,2.19,0,0,0-.49-.12,2.22,2.22,0,0,0-.45,0,1.08,1.08,0,0,0-.37.13.45.45,0,0,0-.22.21.34.34,0,0,0,0,.26.77.77,0,0,0,.18.29,1.78,1.78,0,0,0,.39.28,3.41,3.41,0,0,0,.48.22,3.11,3.11,0,0,0,.49.11,1.68,1.68,0,0,0,.45,0,1,1,0,0,0,.38-.13.42.42,0,0,0,.21-.21.33.33,0,0,0,0-.26.66.66,0,0,0-.19-.28A1.7,1.7,0,0,0,85.27,295.41Z"/><path class="cls-7" d="M91.59,292.94l.71.41-2.4,1.39-.72-.42.84-.48-1.79-1a.35.35,0,0,1,0,.19,1.5,1.5,0,0,1-.11.22.92.92,0,0,1-.18.22.72.72,0,0,1-.21.18l-.74-.43a.68.68,0,0,0,.19-.19,1.15,1.15,0,0,0,.14-.27,1,1,0,0,0,.07-.25.46.46,0,0,0,0-.17l.81-.47,2.66,1.54Z"/><path class="cls-7" d="M95.48,289.51a2.18,2.18,0,0,1,.6.48,1,1,0,0,1,.25.52.68.68,0,0,1-.11.49,1.32,1.32,0,0,1-.47.43,2.59,2.59,0,0,1-.75.28,4,4,0,0,1-.85.06,3.84,3.84,0,0,1-.89-.14,3.91,3.91,0,0,1-.84-.35,2.18,2.18,0,0,1-.6-.48,1,1,0,0,1-.25-.52.72.72,0,0,1,.1-.49,1.27,1.27,0,0,1,.48-.43,2.52,2.52,0,0,1,.74-.28,4.1,4.1,0,0,1,.86-.06,3.84,3.84,0,0,1,.89.14A3.91,3.91,0,0,1,95.48,289.51Zm-.8.46a3.06,3.06,0,0,0-.49-.22,3.11,3.11,0,0,0-.49-.11,2.22,2.22,0,0,0-.45,0,.91.91,0,0,0-.37.13.45.45,0,0,0-.22.21.33.33,0,0,0,0,.26.8.8,0,0,0,.19.29,2.5,2.5,0,0,0,.38.28,3.06,3.06,0,0,0,.49.22,3.11,3.11,0,0,0,.49.11,2.22,2.22,0,0,0,.45,0A1.14,1.14,0,0,0,95,291a.47.47,0,0,0,.21-.21.3.3,0,0,0,0-.26.67.67,0,0,0-.18-.28A2.09,2.09,0,0,0,94.68,290Z"/><path class="cls-7" d="M101,287.5l.72.42-2.4,1.39-.72-.42.84-.48-1.8-1a.24.24,0,0,1,0,.18,1.2,1.2,0,0,1-.11.23,1.24,1.24,0,0,1-.18.22l-.21.18-.74-.43a.68.68,0,0,0,.19-.19,1.74,1.74,0,0,0,.14-.27.92.92,0,0,0,.07-.26.26.26,0,0,0,0-.16l.82-.47,2.66,1.54Z"/><path class="cls-7" d="M105.34,285l.72.42-2.4,1.39-.72-.42.84-.48-1.8-1a.24.24,0,0,1,0,.18l-.11.23a1.24,1.24,0,0,1-.18.22l-.21.18-.74-.43a.68.68,0,0,0,.19-.19,1.74,1.74,0,0,0,.14-.27,1.45,1.45,0,0,0,.07-.26.25.25,0,0,0,0-.16l.81-.47,2.67,1.54Z"/><path class="cls-7" d="M109.23,281.57a2.09,2.09,0,0,1,.61.48,1.09,1.09,0,0,1,.25.52.73.73,0,0,1-.11.49,1.36,1.36,0,0,1-.48.43,2.26,2.26,0,0,1-.74.27,3.49,3.49,0,0,1-.86.07,4,4,0,0,1-.89-.15,3.18,3.18,0,0,1-.83-.35,2.18,2.18,0,0,1-.6-.48,1,1,0,0,1-.26-.51.82.82,0,0,1,.11-.5,1.36,1.36,0,0,1,.48-.43,2.58,2.58,0,0,1,.74-.27,3.53,3.53,0,0,1,.86-.06,3.93,3.93,0,0,1,.89.14A3.39,3.39,0,0,1,109.23,281.57Zm-.79.46a3.06,3.06,0,0,0-.49-.22,3,3,0,0,0-.5-.11,1.6,1.6,0,0,0-.44,0,1,1,0,0,0-.37.12.54.54,0,0,0-.23.22.39.39,0,0,0,0,.26.66.66,0,0,0,.19.28,2.09,2.09,0,0,0,.38.29,3.06,3.06,0,0,0,.49.22,2.25,2.25,0,0,0,.49.1,1.69,1.69,0,0,0,.45,0,1.08,1.08,0,0,0,.37-.13.47.47,0,0,0,.22-.22.33.33,0,0,0,0-.26.73.73,0,0,0-.19-.28A2,2,0,0,0,108.44,282Z"/><path class="cls-7" d="M114.29,278.65a2.09,2.09,0,0,1,.61.48,1.1,1.1,0,0,1,.25.51.8.8,0,0,1-.11.5,1.36,1.36,0,0,1-.48.43,2.26,2.26,0,0,1-.74.27,3.49,3.49,0,0,1-.86.07,4,4,0,0,1-.89-.15,3.57,3.57,0,0,1-.83-.35,2.4,2.4,0,0,1-.61-.48,1.1,1.1,0,0,1-.25-.51.82.82,0,0,1,.11-.5,1.28,1.28,0,0,1,.48-.43,2.58,2.58,0,0,1,.74-.27,3.09,3.09,0,0,1,.86-.06,3.93,3.93,0,0,1,.89.14A3.57,3.57,0,0,1,114.29,278.65Zm-.8.46a3,3,0,0,0-.48-.22,2.37,2.37,0,0,0-.5-.11,1.68,1.68,0,0,0-.45,0,1,1,0,0,0-.36.12.54.54,0,0,0-.23.22.33.33,0,0,0,0,.26.66.66,0,0,0,.19.28,2.09,2.09,0,0,0,.38.29,2.33,2.33,0,0,0,.49.21,1.73,1.73,0,0,0,.49.11,1.69,1.69,0,0,0,.45,0,1.35,1.35,0,0,0,.37-.13.52.52,0,0,0,.22-.22.33.33,0,0,0,0-.26.73.73,0,0,0-.19-.28A1.5,1.5,0,0,0,113.49,279.11Z"/><path class="cls-7" d="M119.81,276.64l.72.42-2.41,1.38-.71-.41.84-.49-1.8-1a.4.4,0,0,1,0,.18,1.19,1.19,0,0,1-.12.22.91.91,0,0,1-.17.23.87.87,0,0,1-.22.17l-.74-.43a.59.59,0,0,0,.2-.19,2.15,2.15,0,0,0,.14-.26c0-.1,0-.18.07-.26a.3.3,0,0,0,0-.17l.81-.46,2.67,1.54Z"/><path class="cls-7" d="M124.16,274.13l.72.41-2.41,1.39-.72-.41.85-.49-1.8-1a.4.4,0,0,1,0,.18,1.19,1.19,0,0,1-.12.22.91.91,0,0,1-.17.23.87.87,0,0,1-.22.17l-.74-.43a.49.49,0,0,0,.19-.19.87.87,0,0,0,.14-.27,1.44,1.44,0,0,0,.08-.25.3.3,0,0,0,0-.17l.81-.46,2.67,1.54Z"/><path class="cls-7" d="M94.86,299.85l.71.41-2.4,1.39-.72-.41.84-.49-1.79-1a.31.31,0,0,1,0,.18.8.8,0,0,1-.11.23,1.84,1.84,0,0,1-.17.22,1.74,1.74,0,0,1-.22.18l-.74-.43a.68.68,0,0,0,.19-.19,1.74,1.74,0,0,0,.14-.27.92.92,0,0,0,.07-.26.42.42,0,0,0,0-.16l.81-.47,2.66,1.54Z"/><path class="cls-7" d="M98.75,296.42a2.18,2.18,0,0,1,.6.48,1,1,0,0,1,.25.52.68.68,0,0,1-.11.49,1.32,1.32,0,0,1-.47.43,2.59,2.59,0,0,1-.75.28,4,4,0,0,1-.85.06,3.39,3.39,0,0,1-.89-.15,3.44,3.44,0,0,1-.84-.34,2.19,2.19,0,0,1-.6-.49,1,1,0,0,1-.25-.51.82.82,0,0,1,.1-.5,1.46,1.46,0,0,1,.48-.43,2.7,2.7,0,0,1,.74-.27,4.1,4.1,0,0,1,.86-.06,3.84,3.84,0,0,1,.89.14A3.91,3.91,0,0,1,98.75,296.42Zm-.8.46a3.06,3.06,0,0,0-.49-.22,3.11,3.11,0,0,0-.49-.11,2.22,2.22,0,0,0-.45,0,.86.86,0,0,0-.37.13.53.53,0,0,0-.23.21.39.39,0,0,0,0,.26.9.9,0,0,0,.19.29,2.5,2.5,0,0,0,.38.28A3.06,3.06,0,0,0,97,298a2.25,2.25,0,0,0,.49.1,1.69,1.69,0,0,0,.45,0,1.22,1.22,0,0,0,.38-.13.47.47,0,0,0,.21-.21.33.33,0,0,0,0-.26.77.77,0,0,0-.18-.29A2.68,2.68,0,0,0,98,296.88Z"/><path class="cls-7" d="M104.26,294.41l.72.42-2.4,1.39-.72-.42.84-.48-1.79-1a.31.31,0,0,1,0,.18,1.58,1.58,0,0,1-.11.23,1.24,1.24,0,0,1-.18.22,1,1,0,0,1-.21.17l-.74-.42a.68.68,0,0,0,.19-.19,1.74,1.74,0,0,0,.14-.27,1.71,1.71,0,0,0,.07-.26.25.25,0,0,0,0-.16l.82-.47,2.66,1.54Z"/><path class="cls-7" d="M108.61,291.9l.72.42-2.41,1.39-.71-.42.84-.48-1.8-1a.24.24,0,0,1,0,.18,1.58,1.58,0,0,1-.11.23,1.74,1.74,0,0,1-.18.22,1,1,0,0,1-.21.17l-.74-.42a.68.68,0,0,0,.19-.19,1.74,1.74,0,0,0,.14-.27,1.71,1.71,0,0,0,.07-.26.25.25,0,0,0,0-.16l.81-.47,2.67,1.54Z"/><path class="cls-7" d="M112.5,288.48a2.09,2.09,0,0,1,.61.48,1.09,1.09,0,0,1,.25.52.73.73,0,0,1-.11.49,1.36,1.36,0,0,1-.48.43,2.26,2.26,0,0,1-.74.27,3.49,3.49,0,0,1-.86.07,4,4,0,0,1-.89-.15,3.57,3.57,0,0,1-.83-.35,2.4,2.4,0,0,1-.61-.48,1,1,0,0,1-.24-.51.75.75,0,0,1,.1-.5,1.32,1.32,0,0,1,.47-.43,2.77,2.77,0,0,1,.75-.27,3.09,3.09,0,0,1,.86-.06,3.93,3.93,0,0,1,.89.14A3.39,3.39,0,0,1,112.5,288.48Zm-.8.46a3,3,0,0,0-.48-.22,2.37,2.37,0,0,0-.5-.11,1.69,1.69,0,0,0-.45,0,1.07,1.07,0,0,0-.37.12.58.58,0,0,0-.22.22.39.39,0,0,0,0,.26.66.66,0,0,0,.19.28,1.7,1.7,0,0,0,.38.28,1.94,1.94,0,0,0,.49.22,1.73,1.73,0,0,0,.49.11,1.69,1.69,0,0,0,.45,0A1.35,1.35,0,0,0,112,290a.52.52,0,0,0,.22-.22.33.33,0,0,0,0-.26.82.82,0,0,0-.18-.28A2.19,2.19,0,0,0,111.7,288.94Z"/><path class="cls-7" d="M118,286.47l.72.42-2.41,1.38-.71-.41.84-.49-1.8-1a.4.4,0,0,1,0,.18,1.19,1.19,0,0,1-.12.22.91.91,0,0,1-.17.23.87.87,0,0,1-.22.17l-.74-.42a.64.64,0,0,0,.2-.2,2.15,2.15,0,0,0,.14-.26c0-.1,0-.18.07-.26a.3.3,0,0,0,0-.17l.81-.46,2.67,1.54Z"/><path class="cls-7" d="M121.91,283.05a2.24,2.24,0,0,1,.61.48,1.1,1.1,0,0,1,.25.51.76.76,0,0,1-.12.5,1.32,1.32,0,0,1-.47.43,2.51,2.51,0,0,1-.74.27,3.49,3.49,0,0,1-.86.07,4.6,4.6,0,0,1-.89-.15,3.57,3.57,0,0,1-.83-.35,2.24,2.24,0,0,1-.61-.48,1.1,1.1,0,0,1-.25-.51.75.75,0,0,1,.11-.5,1.24,1.24,0,0,1,.47-.43,2.23,2.23,0,0,1,.75-.27,3.45,3.45,0,0,1,.86-.07,4.6,4.6,0,0,1,.89.15A3.39,3.39,0,0,1,121.91,283.05Zm-.8.46a2.56,2.56,0,0,0-.48-.22,2.37,2.37,0,0,0-.5-.11,1.35,1.35,0,0,0-.45,0,1.07,1.07,0,0,0-.37.12.52.52,0,0,0-.22.22.33.33,0,0,0,0,.26.66.66,0,0,0,.19.28,1.7,1.7,0,0,0,.38.28,1.94,1.94,0,0,0,.49.22,2,2,0,0,0,.49.11,1.6,1.6,0,0,0,.44,0,1.06,1.06,0,0,0,.38-.12.58.58,0,0,0,.22-.22.39.39,0,0,0,0-.26.73.73,0,0,0-.19-.28A1.5,1.5,0,0,0,121.11,283.51Z"/><path class="cls-7" d="M127.43,281l.72.41-2.41,1.39-.72-.41.85-.49-1.8-1a.42.42,0,0,1,0,.18,1.19,1.19,0,0,1-.12.22.91.91,0,0,1-.17.23.87.87,0,0,1-.22.17l-.74-.43a.49.49,0,0,0,.19-.19,1.38,1.38,0,0,0,.21-.52.31.31,0,0,0,0-.17l.81-.47,2.67,1.54Z"/><path class="cls-7" d="M131.78,278.53l.71.41-2.4,1.39-.72-.41.84-.49-1.79-1a.33.33,0,0,1,0,.18.76.76,0,0,1-.11.22,1.13,1.13,0,0,1-.17.23.87.87,0,0,1-.22.17l-.74-.43a.49.49,0,0,0,.19-.19.87.87,0,0,0,.14-.27,1,1,0,0,0,.07-.25.31.31,0,0,0,0-.17l.81-.47L131,279Z"/><path class="cls-7" d="M116.23,296.3l.72.42-2.41,1.38-.71-.41.84-.49-1.8-1a.3.3,0,0,1,0,.18l-.11.22a1.3,1.3,0,0,1-.18.23,1,1,0,0,1-.21.17l-.75-.42a.76.76,0,0,0,.2-.2,2.15,2.15,0,0,0,.14-.26,1.71,1.71,0,0,0,.07-.26.3.3,0,0,0,0-.17l.81-.46,2.67,1.54Z"/><path class="cls-7" d="M120.58,293.79l.72.41-2.41,1.39-.72-.41.84-.49-1.79-1a.4.4,0,0,1,0,.18,1.19,1.19,0,0,1-.12.22.91.91,0,0,1-.17.23.87.87,0,0,1-.22.17L116,294a.49.49,0,0,0,.19-.19.87.87,0,0,0,.14-.27,1.44,1.44,0,0,0,.08-.25.36.36,0,0,0,0-.16l.81-.47,2.67,1.54Z"/><path class="cls-7" d="M124.47,290.37a2.4,2.4,0,0,1,.61.48,1.1,1.1,0,0,1,.25.51.76.76,0,0,1-.12.5,1.41,1.41,0,0,1-.47.43,2.51,2.51,0,0,1-.74.27,3.09,3.09,0,0,1-.86.06,3.93,3.93,0,0,1-.89-.14,3.47,3.47,0,0,1-.84-.35,2.18,2.18,0,0,1-.6-.48,1.1,1.1,0,0,1-.25-.51.75.75,0,0,1,.11-.5,1.24,1.24,0,0,1,.47-.43,2.23,2.23,0,0,1,.75-.27,3.45,3.45,0,0,1,.86-.07,4.73,4.73,0,0,1,.89.15A3.57,3.57,0,0,1,124.47,290.37Zm-.8.46a2.38,2.38,0,0,0-.49-.22,2.16,2.16,0,0,0-.49-.11,1.35,1.35,0,0,0-.45,0,1.07,1.07,0,0,0-.37.12.52.52,0,0,0-.22.22.33.33,0,0,0,0,.26.73.73,0,0,0,.19.28,1.5,1.5,0,0,0,.38.28,1.94,1.94,0,0,0,.49.22,2.08,2.08,0,0,0,.48.11,1.68,1.68,0,0,0,.45,0,1,1,0,0,0,.38-.13.5.5,0,0,0,.22-.21.39.39,0,0,0,0-.26.73.73,0,0,0-.19-.28A1.5,1.5,0,0,0,123.67,290.83Z"/><path class="cls-7" d="M130,288.36l.71.41-2.4,1.39-.72-.41.84-.49-1.79-1a.33.33,0,0,1,0,.18.76.76,0,0,1-.11.22,1.13,1.13,0,0,1-.17.23.87.87,0,0,1-.22.17l-.74-.43a.49.49,0,0,0,.19-.19.87.87,0,0,0,.14-.27,1,1,0,0,0,.07-.25.31.31,0,0,0,0-.17l.81-.47,2.66,1.54Z"/><path class="cls-7" d="M133.88,284.93a2.39,2.39,0,0,1,.6.49.94.94,0,0,1,.25.51.75.75,0,0,1-.11.5,1.3,1.3,0,0,1-.47.42,2.59,2.59,0,0,1-.75.28,3,3,0,0,1-.85.06,3.84,3.84,0,0,1-.89-.14,3.47,3.47,0,0,1-.84-.35,2.18,2.18,0,0,1-.6-.48,1,1,0,0,1-.25-.52.73.73,0,0,1,.11-.49,1.24,1.24,0,0,1,.47-.43,2.26,2.26,0,0,1,.74-.27,3.57,3.57,0,0,1,.87-.07,3.86,3.86,0,0,1,.88.15A3.44,3.44,0,0,1,133.88,284.93Zm-.8.47a2.38,2.38,0,0,0-.49-.22,1.81,1.81,0,0,0-.49-.11,1.69,1.69,0,0,0-.45,0,1.35,1.35,0,0,0-.37.13.43.43,0,0,0-.22.22.38.38,0,0,0,0,.26,1.07,1.07,0,0,0,.19.28,1.78,1.78,0,0,0,.39.28,2.56,2.56,0,0,0,.48.22,2.29,2.29,0,0,0,.49.11,1.68,1.68,0,0,0,.45,0,1,1,0,0,0,.38-.13.47.47,0,0,0,.21-.21.39.39,0,0,0,0-.26.77.77,0,0,0-.19-.28A1.5,1.5,0,0,0,133.08,285.4Z"/><path class="cls-7" d="M139.4,282.93l.71.41-2.4,1.39-.72-.41.84-.49-1.8-1a.27.27,0,0,1,0,.19,1.5,1.5,0,0,1-.11.22,1.24,1.24,0,0,1-.18.22.88.88,0,0,1-.21.18l-.74-.43A.57.57,0,0,0,135,283a.87.87,0,0,0,.14-.27,1,1,0,0,0,.07-.25.29.29,0,0,0,0-.17l.82-.47,2.66,1.54Z"/><path class="cls-7" d="M89.4,319.41a2,2,0,0,1,.6.49,1,1,0,0,1,.25.51.73.73,0,0,1-.11.49,1.27,1.27,0,0,1-.48.43,2.52,2.52,0,0,1-.74.28,3.91,3.91,0,0,1-1.75-.08,4.05,4.05,0,0,1-.83-.35,2.18,2.18,0,0,1-.6-.48,1,1,0,0,1-.25-.52.72.72,0,0,1,.1-.49,1.27,1.27,0,0,1,.48-.43,2.33,2.33,0,0,1,.74-.28,4.1,4.1,0,0,1,.86-.06,3.93,3.93,0,0,1,.89.14A4.14,4.14,0,0,1,89.4,319.41Zm-.8.46a3.06,3.06,0,0,0-.49-.22,3.11,3.11,0,0,0-.49-.11,2.2,2.2,0,0,0-.45,0,.81.81,0,0,0-.37.13.53.53,0,0,0-.23.21.39.39,0,0,0,0,.26.69.69,0,0,0,.19.29,2.08,2.08,0,0,0,.38.28,3.06,3.06,0,0,0,.49.22,2.88,2.88,0,0,0,.49.11,2.22,2.22,0,0,0,.45,0,.91.91,0,0,0,.37-.13.5.5,0,0,0,.22-.21.33.33,0,0,0,0-.26.67.67,0,0,0-.18-.28A2.51,2.51,0,0,0,88.6,319.87Z"/><path class="cls-7" d="M94.91,317.41l.72.41-2.41,1.39-.71-.42.84-.48-1.8-1a.3.3,0,0,1,0,.18,2.4,2.4,0,0,1-.11.23,1.43,1.43,0,0,1-.4.4l-.74-.43a.6.6,0,0,0,.2-.19,1.74,1.74,0,0,0,.14-.27c0-.09,0-.18.07-.26a.26.26,0,0,0,0-.16l.81-.47,2.67,1.54Z"/><path class="cls-7" d="M98.8,314a2.24,2.24,0,0,1,.61.48,1.13,1.13,0,0,1,.25.52.74.74,0,0,1-.12.49,1.17,1.17,0,0,1-.47.43,2.52,2.52,0,0,1-.74.28,4.06,4.06,0,0,1-.86.06,4,4,0,0,1-.89-.15,3.54,3.54,0,0,1-.83-.34,2.25,2.25,0,0,1-.61-.49,1.1,1.1,0,0,1-.25-.51.82.82,0,0,1,.11-.5,1.32,1.32,0,0,1,.47-.43,2.77,2.77,0,0,1,.75-.27,4.06,4.06,0,0,1,.86-.06,3.93,3.93,0,0,1,.89.14A3.39,3.39,0,0,1,98.8,314Zm-.8.46a3,3,0,0,0-.48-.22,3.22,3.22,0,0,0-.5-.11,1.68,1.68,0,0,0-.45,0,1.07,1.07,0,0,0-.37.12.58.58,0,0,0-.22.22.33.33,0,0,0,0,.26.66.66,0,0,0,.19.28,1.51,1.51,0,0,0,.38.29,3.06,3.06,0,0,0,.49.22,2.13,2.13,0,0,0,.49.1,1.69,1.69,0,0,0,.45,0,1.08,1.08,0,0,0,.37-.13.5.5,0,0,0,.22-.21.36.36,0,0,0,0-.27.73.73,0,0,0-.19-.28A1.78,1.78,0,0,0,98,314.44Z"/><path class="cls-7" d="M103.86,311.06a2.09,2.09,0,0,1,.61.48,1.09,1.09,0,0,1,.25.52.74.74,0,0,1-.12.49,1.24,1.24,0,0,1-.47.43,2.26,2.26,0,0,1-.74.27,3.49,3.49,0,0,1-.86.07,4,4,0,0,1-.89-.15,3.18,3.18,0,0,1-.83-.35,2.24,2.24,0,0,1-.61-.48,1.1,1.1,0,0,1-.25-.51.82.82,0,0,1,.11-.5,1.32,1.32,0,0,1,.47-.43,2.77,2.77,0,0,1,.75-.27,3.07,3.07,0,0,1,.86-.06,3.93,3.93,0,0,1,.89.14A3.57,3.57,0,0,1,103.86,311.06Zm-.8.46a2.71,2.71,0,0,0-.49-.22,2.16,2.16,0,0,0-.49-.11,1.68,1.68,0,0,0-.45,0,1.07,1.07,0,0,0-.37.12.58.58,0,0,0-.22.22.33.33,0,0,0,0,.26.66.66,0,0,0,.19.28,1.72,1.72,0,0,0,.38.29,3.06,3.06,0,0,0,.49.22,2.16,2.16,0,0,0,.48.1,1.69,1.69,0,0,0,.45,0,1.31,1.31,0,0,0,.38-.13.47.47,0,0,0,.22-.22.33.33,0,0,0,0-.26.73.73,0,0,0-.19-.28A1.78,1.78,0,0,0,103.06,311.52Z"/><path class="cls-7" d="M108.92,308.14a2.24,2.24,0,0,1,.61.48,1.1,1.1,0,0,1,.25.51.76.76,0,0,1-.12.5,1.24,1.24,0,0,1-.47.43,2.26,2.26,0,0,1-.74.27,3.49,3.49,0,0,1-.86.07,4.6,4.6,0,0,1-.89-.15,3.57,3.57,0,0,1-.83-.35,2.09,2.09,0,0,1-.61-.48,1.1,1.1,0,0,1-.25-.51.75.75,0,0,1,.11-.5,1.32,1.32,0,0,1,.47-.43,2.77,2.77,0,0,1,.75-.27,3.07,3.07,0,0,1,.86-.06,3.93,3.93,0,0,1,.89.14A3.57,3.57,0,0,1,108.92,308.14Zm-.8.46a2.71,2.71,0,0,0-.49-.22,2.16,2.16,0,0,0-.49-.11,1.68,1.68,0,0,0-.45,0,1.07,1.07,0,0,0-.37.12.58.58,0,0,0-.22.22.33.33,0,0,0,0,.26.66.66,0,0,0,.19.28,1.7,1.7,0,0,0,.38.28,1.94,1.94,0,0,0,.49.22,2.08,2.08,0,0,0,.48.11,1.69,1.69,0,0,0,.45,0,1.31,1.31,0,0,0,.38-.13.58.58,0,0,0,.22-.22.38.38,0,0,0,0-.26.73.73,0,0,0-.19-.28A1.5,1.5,0,0,0,108.12,308.6Z"/><path class="cls-7" d="M114.44,306.13l.72.41-2.41,1.39-.72-.41.85-.49-1.8-1a.4.4,0,0,1,0,.18,1.19,1.19,0,0,1-.12.22.91.91,0,0,1-.17.23.87.87,0,0,1-.22.17l-.74-.43a.49.49,0,0,0,.19-.19.87.87,0,0,0,.14-.27,1.44,1.44,0,0,0,.08-.25.43.43,0,0,0,0-.17L111,305l2.67,1.54Z"/><path class="cls-7" d="M118.33,302.71a2.4,2.4,0,0,1,.61.48,1.1,1.1,0,0,1,.25.51.76.76,0,0,1-.12.5,1.32,1.32,0,0,1-.47.43,2.83,2.83,0,0,1-.74.27,3.09,3.09,0,0,1-.86.06,3.93,3.93,0,0,1-.89-.14,3.47,3.47,0,0,1-.84-.35,2.18,2.18,0,0,1-.6-.48,1.1,1.1,0,0,1-.25-.51.75.75,0,0,1,.11-.5,1.24,1.24,0,0,1,.47-.43,2.23,2.23,0,0,1,.75-.27,3.45,3.45,0,0,1,.86-.07,4.6,4.6,0,0,1,.89.15A3.57,3.57,0,0,1,118.33,302.71Zm-.8.46A2.38,2.38,0,0,0,117,303a2.16,2.16,0,0,0-.49-.11,1.35,1.35,0,0,0-.45,0,1.07,1.07,0,0,0-.37.12.52.52,0,0,0-.22.22.33.33,0,0,0,0,.26.73.73,0,0,0,.19.28,1.5,1.5,0,0,0,.38.28,2.05,2.05,0,0,0,.48.22,2.29,2.29,0,0,0,.49.11,1.68,1.68,0,0,0,.45,0,1,1,0,0,0,.38-.13.5.5,0,0,0,.22-.21.39.39,0,0,0,0-.26.73.73,0,0,0-.19-.28A1.5,1.5,0,0,0,117.53,303.17Z"/><path class="cls-7" d="M123.39,299.79a2.4,2.4,0,0,1,.61.48,1.1,1.1,0,0,1,.25.51.76.76,0,0,1-.12.5,1.22,1.22,0,0,1-.47.42,2.48,2.48,0,0,1-.75.28,3,3,0,0,1-.85.06,3.93,3.93,0,0,1-.89-.14,3.47,3.47,0,0,1-.84-.35,2.18,2.18,0,0,1-.6-.48,1.1,1.1,0,0,1-.25-.51.74.74,0,0,1,.11-.5,1.24,1.24,0,0,1,.47-.43,2.23,2.23,0,0,1,.75-.27,3.45,3.45,0,0,1,.86-.07,4,4,0,0,1,.89.15A3.57,3.57,0,0,1,123.39,299.79Zm-.8.46a2.38,2.38,0,0,0-.49-.22,1.73,1.73,0,0,0-.49-.11,1.69,1.69,0,0,0-.45,0,1.35,1.35,0,0,0-.37.13.47.47,0,0,0-.22.22.29.29,0,0,0,0,.26.73.73,0,0,0,.19.28,1.5,1.5,0,0,0,.38.28,2.38,2.38,0,0,0,.49.22,2.08,2.08,0,0,0,.48.11,1.68,1.68,0,0,0,.45,0,1,1,0,0,0,.38-.13.5.5,0,0,0,.22-.21.39.39,0,0,0,0-.26.66.66,0,0,0-.19-.28A1.5,1.5,0,0,0,122.59,300.25Z"/><path class="cls-7" d="M128.91,297.78l.71.41-2.4,1.39-.72-.41.84-.49-1.79-1a.31.31,0,0,1,0,.18.8.8,0,0,1-.11.23,1.13,1.13,0,0,1-.17.23.87.87,0,0,1-.22.17l-.74-.43a.57.57,0,0,0,.19-.19,1,1,0,0,0,.14-.27,1,1,0,0,0,.07-.25.31.31,0,0,0,0-.17l.81-.47,2.66,1.54Z"/><path class="cls-7" d="M133.25,295.27l.72.41-2.4,1.39-.72-.41.84-.49-1.8-1a.27.27,0,0,1,0,.19,1.5,1.5,0,0,1-.11.22,1.24,1.24,0,0,1-.18.22.7.7,0,0,1-.21.18l-.74-.43a.57.57,0,0,0,.19-.19,1.15,1.15,0,0,0,.14-.27,1,1,0,0,0,.07-.25.29.29,0,0,0,0-.17l.82-.47,2.66,1.54Z"/><path class="cls-7" d="M137.15,291.84a2.19,2.19,0,0,1,.6.49.94.94,0,0,1,.25.51.71.71,0,0,1-.11.49,1.27,1.27,0,0,1-.48.43,2.42,2.42,0,0,1-.74.28,4,4,0,0,1-.85.06,3.84,3.84,0,0,1-.89-.14,3.47,3.47,0,0,1-.84-.35,2.18,2.18,0,0,1-.6-.48,1,1,0,0,1-.25-.52.72.72,0,0,1,.1-.49,1.27,1.27,0,0,1,.48-.43,2.33,2.33,0,0,1,.74-.28,4.1,4.1,0,0,1,.86-.06,3.84,3.84,0,0,1,.89.14A3.91,3.91,0,0,1,137.15,291.84Zm-.8.47a2.42,2.42,0,0,0-.49-.23,3.11,3.11,0,0,0-.49-.11,2.22,2.22,0,0,0-.45,0,1,1,0,0,0-.37.13.45.45,0,0,0-.22.21.34.34,0,0,0,0,.26.8.8,0,0,0,.19.29,2.5,2.5,0,0,0,.38.28,3.06,3.06,0,0,0,.49.22,3.11,3.11,0,0,0,.49.11,2.22,2.22,0,0,0,.45,0,1,1,0,0,0,.38-.13.47.47,0,0,0,.21-.21.33.33,0,0,0,0-.26.74.74,0,0,0-.18-.28A1.7,1.7,0,0,0,136.35,292.31Z"/><path class="cls-7" d="M142.66,289.84l.72.41-2.4,1.39-.72-.42.84-.48-1.8-1a.24.24,0,0,1,0,.18,1.2,1.2,0,0,1-.11.23,1.24,1.24,0,0,1-.18.22,1.12,1.12,0,0,1-.21.18l-.74-.43a.68.68,0,0,0,.19-.19,1.74,1.74,0,0,0,.14-.27,1.45,1.45,0,0,0,.07-.26.26.26,0,0,0,0-.16l.81-.47,2.67,1.54Z"/><path class="cls-7" d="M147,287.32l.72.42-2.41,1.39-.71-.42.84-.48-1.8-1a.3.3,0,0,1,0,.18,2.4,2.4,0,0,1-.11.23,1.24,1.24,0,0,1-.18.22,1,1,0,0,1-.21.17l-.74-.42a.68.68,0,0,0,.19-.19,1.74,1.74,0,0,0,.14-.27,1.45,1.45,0,0,0,.07-.26.26.26,0,0,0,0-.16l.81-.47,2.67,1.54Z"/><path class="cls-7" d="M111.94,316.37l.72.41-2.41,1.39-.72-.41.85-.49-1.8-1a.4.4,0,0,1,0,.18,1.71,1.71,0,0,1-.12.23,1.09,1.09,0,0,1-.17.22.87.87,0,0,1-.22.17l-.74-.43a.49.49,0,0,0,.19-.19.94.94,0,0,0,.14-.26,1,1,0,0,0,.07-.26.28.28,0,0,0,0-.16l.81-.47,2.67,1.54Z"/><path class="cls-7" d="M115.83,313a2.4,2.4,0,0,1,.61.48,1,1,0,0,1,.24.51.7.7,0,0,1-.11.5,1.41,1.41,0,0,1-.47.43,2.51,2.51,0,0,1-.74.27,3.09,3.09,0,0,1-.86.06,3.93,3.93,0,0,1-.89-.14,3.47,3.47,0,0,1-.84-.35,2.18,2.18,0,0,1-.6-.48,1.1,1.1,0,0,1-.25-.51.75.75,0,0,1,.11-.5,1.24,1.24,0,0,1,.47-.43,2.23,2.23,0,0,1,.75-.27,3.45,3.45,0,0,1,.86-.07,4.73,4.73,0,0,1,.89.15A3.57,3.57,0,0,1,115.83,313Zm-.8.46a2.38,2.38,0,0,0-.49-.22,2.16,2.16,0,0,0-.49-.11,1.68,1.68,0,0,0-.45,0,1.07,1.07,0,0,0-.37.12.51.51,0,0,0-.22.22.33.33,0,0,0,0,.26.58.58,0,0,0,.19.28,1.5,1.5,0,0,0,.38.28,2.05,2.05,0,0,0,.48.22,2.29,2.29,0,0,0,.49.11,1.35,1.35,0,0,0,.45,0,1.13,1.13,0,0,0,.38-.12.54.54,0,0,0,.21-.22.33.33,0,0,0,0-.26.87.87,0,0,0-.19-.28A1.7,1.7,0,0,0,115,313.41Z"/><path class="cls-7" d="M121.35,310.94l.71.41-2.4,1.39-.72-.41.84-.49-1.79-1a.33.33,0,0,1,0,.18.76.76,0,0,1-.11.22,1,1,0,0,1-.18.23.68.68,0,0,1-.21.17l-.74-.43a.57.57,0,0,0,.19-.19,1.38,1.38,0,0,0,.21-.52.46.46,0,0,0,0-.17l.81-.47,2.66,1.54Z"/><path class="cls-7" d="M125.7,308.43l.71.41-2.4,1.39-.72-.41.84-.49-1.79-1a.33.33,0,0,1,0,.18,1.13,1.13,0,0,1-.11.22,1,1,0,0,1-.18.23,1,1,0,0,1-.21.17l-.74-.43a.57.57,0,0,0,.19-.19,1.15,1.15,0,0,0,.14-.27,1,1,0,0,0,.07-.25.29.29,0,0,0,0-.17l.82-.47,2.66,1.54Z"/><path class="cls-7" d="M129.59,305a2.39,2.39,0,0,1,.6.49,1,1,0,0,1,.25.51.75.75,0,0,1-.11.5,1.26,1.26,0,0,1-.48.42,2.42,2.42,0,0,1-.74.28,3,3,0,0,1-.86.06,3.84,3.84,0,0,1-.88-.14,3.47,3.47,0,0,1-.84-.35,2.18,2.18,0,0,1-.6-.48.93.93,0,0,1-.25-.52.72.72,0,0,1,.1-.49,1.36,1.36,0,0,1,.48-.43,2.18,2.18,0,0,1,.74-.27,3.53,3.53,0,0,1,.86-.07,4,4,0,0,1,.89.15A3.44,3.44,0,0,1,129.59,305Zm-.8.47a1.94,1.94,0,0,0-.49-.22,1.81,1.81,0,0,0-.49-.11,1.69,1.69,0,0,0-.45,0,1,1,0,0,0-.37.13.55.55,0,0,0-.23.22.38.38,0,0,0,0,.26.87.87,0,0,0,.19.28,2,2,0,0,0,.38.28,2.38,2.38,0,0,0,.49.22,2.29,2.29,0,0,0,.49.11,1.68,1.68,0,0,0,.45,0,1,1,0,0,0,.38-.13.53.53,0,0,0,.21-.21.33.33,0,0,0,0-.26.74.74,0,0,0-.18-.28A1.7,1.7,0,0,0,128.79,305.47Z"/><path class="cls-7" d="M134.65,302.08a2.19,2.19,0,0,1,.6.49,1,1,0,0,1,.25.51.75.75,0,0,1-.11.5,1.26,1.26,0,0,1-.48.42,2.42,2.42,0,0,1-.74.28,3.46,3.46,0,0,1-.86.06,4,4,0,0,1-.89-.14,3.57,3.57,0,0,1-.83-.35,2.18,2.18,0,0,1-.6-.48.93.93,0,0,1-.25-.52.72.72,0,0,1,.1-.49,1.27,1.27,0,0,1,.48-.43,2.1,2.1,0,0,1,.74-.27,3.53,3.53,0,0,1,.86-.07,3.85,3.85,0,0,1,.89.15A3.44,3.44,0,0,1,134.65,302.08Zm-.8.46a3.06,3.06,0,0,0-.49-.22,2.25,2.25,0,0,0-.49-.1,1.69,1.69,0,0,0-.45,0,1,1,0,0,0-.37.13.53.53,0,0,0-.23.21.39.39,0,0,0,0,.26.8.8,0,0,0,.19.29,2.5,2.5,0,0,0,.38.28,3.06,3.06,0,0,0,.49.22,2.88,2.88,0,0,0,.49.11,2.22,2.22,0,0,0,.45,0,1,1,0,0,0,.38-.13.53.53,0,0,0,.21-.21.33.33,0,0,0,0-.26.74.74,0,0,0-.18-.28A2.09,2.09,0,0,0,133.85,302.54Z"/><path class="cls-7" d="M140.16,300.08l.72.41-2.41,1.39-.71-.42.84-.48-1.8-1a.24.24,0,0,1,0,.18,2.4,2.4,0,0,1-.11.23,1.24,1.24,0,0,1-.18.22,1.12,1.12,0,0,1-.21.18l-.74-.43a.68.68,0,0,0,.19-.19,1.74,1.74,0,0,0,.14-.27,1.45,1.45,0,0,0,.07-.26.26.26,0,0,0,0-.16l.81-.47,2.67,1.54Z"/><path class="cls-7" d="M144.06,296.65a2.18,2.18,0,0,1,.6.48,1.18,1.18,0,0,1,.25.52.73.73,0,0,1-.11.49,1.27,1.27,0,0,1-.48.43,2.52,2.52,0,0,1-.74.28,4.06,4.06,0,0,1-.86.06,3.93,3.93,0,0,1-.89-.14,4.05,4.05,0,0,1-.83-.35,2.4,2.4,0,0,1-.61-.48,1.06,1.06,0,0,1-.24-.52.72.72,0,0,1,.1-.49,1.3,1.3,0,0,1,.48-.44,2.58,2.58,0,0,1,.74-.27,4.06,4.06,0,0,1,.86-.06,3.93,3.93,0,0,1,.89.14A4.14,4.14,0,0,1,144.06,296.65Zm-.81.46a2.62,2.62,0,0,0-.48-.22,3.11,3.11,0,0,0-.49-.11,2.22,2.22,0,0,0-.45,0,.9.9,0,0,0-.38.13.5.5,0,0,0-.22.21.39.39,0,0,0,0,.26.69.69,0,0,0,.19.29,2.08,2.08,0,0,0,.38.28,3.06,3.06,0,0,0,.49.22,2.88,2.88,0,0,0,.49.11,2.22,2.22,0,0,0,.45,0,1.08,1.08,0,0,0,.37-.13.5.5,0,0,0,.22-.21.33.33,0,0,0,0-.26.77.77,0,0,0-.18-.29A2.84,2.84,0,0,0,143.25,297.11Z"/><path class="cls-7" d="M149.57,294.64l.72.42-2.41,1.39-.71-.42.84-.48-1.8-1a.4.4,0,0,1,0,.18,2.4,2.4,0,0,1-.11.23,1.74,1.74,0,0,1-.18.22l-.21.18-.74-.43a.68.68,0,0,0,.19-.19c.05-.09.1-.18.14-.27s.05-.18.07-.26a.25.25,0,0,0,0-.16l.81-.47,2.67,1.54Z"/><path class="cls-7" d="M153.46,291.22a2.4,2.4,0,0,1,.61.48,1.09,1.09,0,0,1,.25.52.74.74,0,0,1-.12.49,1.32,1.32,0,0,1-.47.43,2.26,2.26,0,0,1-.74.27,3.53,3.53,0,0,1-.86.07,4,4,0,0,1-.89-.15,3.54,3.54,0,0,1-.83-.34,2.46,2.46,0,0,1-.61-.49,1.1,1.1,0,0,1-.25-.51.82.82,0,0,1,.11-.5,1.24,1.24,0,0,1,.47-.43,2.77,2.77,0,0,1,.75-.27,3.49,3.49,0,0,1,.86-.06,3.93,3.93,0,0,1,.89.14A3.57,3.57,0,0,1,153.46,291.22Zm-.8.46a2.71,2.71,0,0,0-.49-.22,2.88,2.88,0,0,0-.49-.11,1.68,1.68,0,0,0-.45,0,1.07,1.07,0,0,0-.37.12.58.58,0,0,0-.22.22.33.33,0,0,0,0,.26.66.66,0,0,0,.19.28,1.51,1.51,0,0,0,.38.29,3.06,3.06,0,0,0,.49.22,2.05,2.05,0,0,0,.48.1,1.77,1.77,0,0,0,.46,0,1.08,1.08,0,0,0,.37-.13.47.47,0,0,0,.22-.22.38.38,0,0,0,0-.26A.73.73,0,0,0,153,292,1.78,1.78,0,0,0,152.66,291.68Z"/><path class="cls-7" d="M124.62,317.85l.71.41-2.4,1.39-.72-.41.84-.49-1.8-1a.27.27,0,0,1,0,.19.76.76,0,0,1-.11.22c-.05.08-.11.15-.17.23a.87.87,0,0,1-.22.17l-.74-.43a.57.57,0,0,0,.19-.19,1.15,1.15,0,0,0,.14-.27,1,1,0,0,0,.07-.25.46.46,0,0,0,0-.17l.81-.47,2.66,1.54Z"/><path class="cls-7" d="M128.51,314.42a2.19,2.19,0,0,1,.6.49,1,1,0,0,1,.25.51.75.75,0,0,1-.11.5,1.3,1.3,0,0,1-.47.42,2.59,2.59,0,0,1-.75.28,3,3,0,0,1-.86.06,3.84,3.84,0,0,1-.88-.14,3.47,3.47,0,0,1-.84-.35,2.18,2.18,0,0,1-.6-.48.93.93,0,0,1-.25-.52.78.78,0,0,1,.1-.49,1.36,1.36,0,0,1,.48-.43,2.42,2.42,0,0,1,.74-.28,4.1,4.1,0,0,1,.86-.06,3.85,3.85,0,0,1,.89.15A3.44,3.44,0,0,1,128.51,314.42Zm-.8.47a2.38,2.38,0,0,0-.49-.22,1.81,1.81,0,0,0-.49-.11,1.69,1.69,0,0,0-.45,0,1,1,0,0,0-.37.13.43.43,0,0,0-.22.22.31.31,0,0,0,0,.25.8.8,0,0,0,.19.29,2,2,0,0,0,.38.28,2.64,2.64,0,0,0,.49.22,3.11,3.11,0,0,0,.49.11,1.68,1.68,0,0,0,.45,0,1,1,0,0,0,.38-.13.47.47,0,0,0,.21-.21.39.39,0,0,0,0-.26.77.77,0,0,0-.19-.28A1.7,1.7,0,0,0,127.71,314.89Z"/><path class="cls-7" d="M133.57,311.5a2.19,2.19,0,0,1,.6.49,1,1,0,0,1,.25.51.71.71,0,0,1-.11.49,1.2,1.2,0,0,1-.48.43,2.42,2.42,0,0,1-.74.28,4,4,0,0,1-.85.06,3.84,3.84,0,0,1-.89-.14,3.91,3.91,0,0,1-.84-.35,2.18,2.18,0,0,1-.6-.48,1,1,0,0,1-.25-.52.72.72,0,0,1,.1-.49,1.27,1.27,0,0,1,.48-.43,2.33,2.33,0,0,1,.74-.28,4.1,4.1,0,0,1,.86-.06,3.39,3.39,0,0,1,.89.15A3.44,3.44,0,0,1,133.57,311.5Zm-.8.47a2.42,2.42,0,0,0-.49-.23,3.11,3.11,0,0,0-.49-.11,2.22,2.22,0,0,0-.45,0,1,1,0,0,0-.37.13.45.45,0,0,0-.22.21.34.34,0,0,0,0,.26.8.8,0,0,0,.19.29,2.5,2.5,0,0,0,.38.28,3.52,3.52,0,0,0,.49.22,3.11,3.11,0,0,0,.49.11,1.68,1.68,0,0,0,.45,0,.86.86,0,0,0,.37-.13.5.5,0,0,0,.22-.21.33.33,0,0,0,0-.26.74.74,0,0,0-.18-.28A1.7,1.7,0,0,0,132.77,312Z"/><path class="cls-7" d="M139.08,309.5l.72.41-2.4,1.39-.72-.42.84-.48-1.8-1a.24.24,0,0,1,0,.18,1.2,1.2,0,0,1-.11.23,1.24,1.24,0,0,1-.18.22,1.12,1.12,0,0,1-.21.18l-.74-.43a.68.68,0,0,0,.19-.19,1.74,1.74,0,0,0,.14-.27,1.45,1.45,0,0,0,.07-.26.26.26,0,0,0,0-.16l.81-.47,2.67,1.54Z"/><path class="cls-7" d="M143,306.07a2.09,2.09,0,0,1,.61.48,1.18,1.18,0,0,1,.25.52.73.73,0,0,1-.11.49,1.36,1.36,0,0,1-.48.43,2.52,2.52,0,0,1-.74.28,3.91,3.91,0,0,1-1.75-.08,4.05,4.05,0,0,1-.83-.35,2,2,0,0,1-.6-.49.94.94,0,0,1-.25-.51.72.72,0,0,1,.1-.49,1.3,1.3,0,0,1,.48-.44,2.58,2.58,0,0,1,.74-.27,4.1,4.1,0,0,1,.86-.06,3.93,3.93,0,0,1,.89.14A3.63,3.63,0,0,1,143,306.07Zm-.8.46a2.62,2.62,0,0,0-.48-.22,3,3,0,0,0-.5-.11,2.14,2.14,0,0,0-.44,0,1,1,0,0,0-.37.12.61.61,0,0,0-.23.22.39.39,0,0,0,0,.26.69.69,0,0,0,.19.29,2.08,2.08,0,0,0,.38.28,3.06,3.06,0,0,0,.49.22,2.25,2.25,0,0,0,.49.1,1.69,1.69,0,0,0,.45,0,1.08,1.08,0,0,0,.37-.13.5.5,0,0,0,.22-.21.34.34,0,0,0,0-.26.67.67,0,0,0-.18-.28A2.19,2.19,0,0,0,142.17,306.53Z"/><path class="cls-7" d="M148.49,304.06l.72.42-2.41,1.39-.71-.42.84-.48-1.8-1a.24.24,0,0,1,0,.18l-.11.23a1.24,1.24,0,0,1-.18.22,1,1,0,0,1-.21.17l-.74-.42a.68.68,0,0,0,.19-.19,1.74,1.74,0,0,0,.14-.27c0-.1.05-.18.07-.26a.25.25,0,0,0,0-.16l.81-.47,2.67,1.54Z"/><path class="cls-7" d="M152.84,301.55l.72.42-2.41,1.39-.71-.42.84-.48-1.8-1a.3.3,0,0,1,0,.18l-.11.23a1.74,1.74,0,0,1-.18.22.87.87,0,0,1-.22.17l-.74-.42a.89.89,0,0,0,.2-.19,1.66,1.66,0,0,0,.13-.27,1.86,1.86,0,0,0,.08-.26.25.25,0,0,0,0-.16l.81-.47,2.67,1.54Z"/><path class="cls-7" d="M157.19,299l.72.42-2.41,1.39-.72-.42.85-.48-1.8-1a.4.4,0,0,1,0,.18,1.71,1.71,0,0,1-.12.23,1.09,1.09,0,0,1-.17.22.87.87,0,0,1-.22.17l-.74-.42a.61.61,0,0,0,.19-.2.94.94,0,0,0,.14-.26,1.86,1.86,0,0,0,.08-.26.36.36,0,0,0,0-.16l.81-.47,2.67,1.54Z"/><path class="cls-7" d="M161.08,295.62a2.4,2.4,0,0,1,.61.48,1.1,1.1,0,0,1,.25.51.75.75,0,0,1-.12.5,1.32,1.32,0,0,1-.47.43,2.47,2.47,0,0,1-.75.27,3.41,3.41,0,0,1-.85.07,4,4,0,0,1-.89-.15,3.47,3.47,0,0,1-.84-.35,2.18,2.18,0,0,1-.6-.48,1.1,1.1,0,0,1-.25-.51.75.75,0,0,1,.11-.5,1.24,1.24,0,0,1,.47-.43,2.77,2.77,0,0,1,.75-.27,3,3,0,0,1,.86-.06,4,4,0,0,1,.89.14A3.57,3.57,0,0,1,161.08,295.62Zm-.8.46a3.06,3.06,0,0,0-.49-.22,2.16,2.16,0,0,0-.49-.11,1.68,1.68,0,0,0-.45,0,1.07,1.07,0,0,0-.37.12.58.58,0,0,0-.22.22.33.33,0,0,0,0,.26.66.66,0,0,0,.19.28,1.5,1.5,0,0,0,.38.28,2.62,2.62,0,0,0,.48.23,2.25,2.25,0,0,0,.49.1,1.35,1.35,0,0,0,.45,0,1.13,1.13,0,0,0,.38-.12.52.52,0,0,0,.22-.22.38.38,0,0,0,0-.26.87.87,0,0,0-.19-.28A1.5,1.5,0,0,0,160.28,296.08Z"/></g><path class="cls-7" d="M253.86,151.05h0a14,14,0,0,1,6.87,1.63c1.65.95,2.56,2.15,2.56,3.39s-.91,2.44-2.56,3.39a15.38,15.38,0,0,1-13.74,0c-1.64-1-2.55-2.16-2.55-3.39s.91-2.44,2.55-3.39a14,14,0,0,1,6.87-1.63m0-1a15.15,15.15,0,0,0-7.37,1.76c-4.07,2.35-4.07,6.16,0,8.51a16.31,16.31,0,0,0,14.74,0c4.07-2.35,4.07-6.16,0-8.51a15.1,15.1,0,0,0-7.37-1.76Z"/><path class="cls-7" d="M257.34,154.16a3.68,3.68,0,0,0-1.57.25.84.84,0,0,0,.3-.79,1.15,1.15,0,0,0-.61-.7,2.88,2.88,0,0,0-1.83-.33,5.12,5.12,0,0,0-1.83.55l-.91-.52-1.21.7.89.52-.66.38-.89-.52-1.22.7.9.52-1.15.66,1.22.7.88-.51,4.15,2.4-.88.51,1.22.7,1.14-.66.9.52,1.21-.7-.9-.52.67-.38.89.52,1.21-.7-.9-.52a2.26,2.26,0,0,0,1.11-1.2c.12-.45-.1-.83-.66-1.16A3.27,3.27,0,0,0,257.34,154.16Zm-6.21.76,1.47-.85a1.86,1.86,0,0,1,.84-.28,1.26,1.26,0,0,1,.77.17q.34.19.3.45c0,.16-.19.33-.47.49l-1.47.85Zm6.24,1a1.2,1.2,0,0,1-.61.6l-1.47.85-1.56-.91,1.47-.84a2.48,2.48,0,0,1,1-.37,1.44,1.44,0,0,1,.87.16C257.34,155.5,257.43,155.67,257.37,155.87Z"/><g class="cls-27"><path class="cls-28" d="M203.19,243l-1.76,1-2,1.14-2.33,1.35c-2.41,1.42-5.1,3-7.85,4.56-8.39,4.81-17.42,10-22,12.71a5.88,5.88,0,0,1-.72.33l-.06,0a6.74,6.74,0,0,1-1.26.36h0a5.86,5.86,0,0,1-3.13-.36l-.05,0a5.4,5.4,0,0,1-.73-.33L141,252.06l-.05,0c-6.14-3.52-12.12-7-16-9.22a2.89,2.89,0,0,1-1.35-3.23,2.79,2.79,0,0,1,1.35-1.76c3.8-2.18,9.6-5.54,15.61-9,8-4.6,16.26-9.39,20.47-11.85a5.6,5.6,0,0,1,3.86-.65,5.48,5.48,0,0,1,1.66.54l.21.11,1.52.88,1.79,1,3.13,1.81,7.48,4.33,2.36,1.37,6.16,3.55,13.93,8A2.88,2.88,0,0,1,203.19,243Z"/></g><path class="cls-29" d="M205,94.13V241a2.56,2.56,0,0,1-.1.79,1.12,1.12,0,0,1-.46.48L202,243.65l-1.74,1-2,1.12-2.29,1.33c-2.37,1.4-5,2.93-7.73,4.48-8.25,4.74-17.15,9.89-21.69,12.52a5.74,5.74,0,0,1-.71.33l0,0-.41.22a1.2,1.2,0,0,1-.84.13h0a5.78,5.78,0,0,1-3.08-.35l0,0-20.72-12-15.48-8.95a3,3,0,0,1-1.53-2.62V94.13a3.07,3.07,0,0,1,3.06-3.06H202A3,3,0,0,1,205,94.13Z"/><path class="cls-30" d="M189.26,115.75V251.4c-8.39,4.81-17.42,10-22,12.71a5.88,5.88,0,0,1-.72.33l-.06,0-.41.23a1.23,1.23,0,0,1-.85.13h0a5.86,5.86,0,0,1-3.13-.36l-.05,0a5.4,5.4,0,0,1-.73-.33L141,252.41l-.05,0a.19.19,0,0,0,0-.1,1.72,1.72,0,0,1-.31-1V115.75a1.82,1.82,0,0,1,1.81-1.84h45A1.82,1.82,0,0,1,189.26,115.75Z"/><path class="cls-31" d="M168.41,207a2,2,0,1,1-1.28-2.6A2,2,0,0,1,168.41,207Z"/><path class="cls-31" d="M164.32,185a1.07,1.07,0,0,1-1.36.68,1.08,1.08,0,1,1,.69-2A1.07,1.07,0,0,1,164.32,185Z"/><g class="cls-32"><path class="cls-31" d="M134.86,208.92a1.32,1.32,0,1,1-.83-1.67A1.33,1.33,0,0,1,134.86,208.92Z"/></g><g class="cls-32"><path class="cls-31" d="M147.45,213.09a1.32,1.32,0,0,1-1.67.83,1.31,1.31,0,1,1,1.67-.83Z"/></g><g class="cls-32"><path class="cls-31" d="M137.37,224a1.3,1.3,0,0,1-1.66.82,1.31,1.31,0,1,1,1.66-.82Z"/></g><g class="cls-32"><path class="cls-31" d="M142.75,243.49a1.32,1.32,0,1,1-.82-1.67A1.32,1.32,0,0,1,142.75,243.49Z"/></g><g class="cls-32"><path class="cls-31" d="M147.5,232a1.31,1.31,0,1,1-.82-1.66A1.3,1.3,0,0,1,147.5,232Z"/></g><g class="cls-32"><path class="cls-31" d="M140.35,198.5a1.31,1.31,0,0,1-2.49-.84,1.31,1.31,0,1,1,2.49.84Z"/></g><g class="cls-32"><path class="cls-31" d="M141,174.8a1.31,1.31,0,1,1-2.49-.84,1.31,1.31,0,0,1,2.49.84Z"/></g><g class="cls-32"><circle class="cls-31" cx="172.76" cy="194.93" r="1.31" transform="translate(-68.47 96.7) rotate(-26.29)"/></g><g class="cls-32"><path class="cls-31" d="M187.67,197.71a1.33,1.33,0,0,1-1.67.82,1.31,1.31,0,0,1,.84-2.49A1.32,1.32,0,0,1,187.67,197.71Z"/></g><g class="cls-32"><circle class="cls-31" cx="176.12" cy="215.7" r="1.31" transform="translate(-77.33 100.33) rotate(-26.29)"/></g><g class="cls-32"><path class="cls-31" d="M192.27,208a1.31,1.31,0,1,1,1.73-2,1.31,1.31,0,0,1-1.73,2Z"/></g><g class="cls-32"><path class="cls-31" d="M188.16,215.25a1.32,1.32,0,0,1-1.26-1.37,1.32,1.32,0,0,1,2.63.1A1.33,1.33,0,0,1,188.16,215.25Z"/></g><g class="cls-32"><path class="cls-31" d="M195.09,220.51a1.31,1.31,0,0,1-1.27-1.36,1.32,1.32,0,1,1,2.63.1A1.3,1.3,0,0,1,195.09,220.51Z"/></g><g class="cls-32"><circle class="cls-31" cx="191.19" cy="234.31" r="1.31" transform="translate(-81.21 365.65) rotate(-76.53)"/></g><g class="cls-32"><path class="cls-31" d="M197.9,207.19a1.31,1.31,0,1,1,1-2.43,1.31,1.31,0,1,1-1,2.43Z"/></g><path class="cls-31" d="M164.29,216.82a2,2,0,1,1-1.37-2.56A2.06,2.06,0,0,1,164.29,216.82Z"/><path class="cls-31" d="M160.43,227.31a2.05,2.05,0,1,1-1.37-2.56A2.06,2.06,0,0,1,160.43,227.31Z"/><path class="cls-31" d="M165.86,226.59a1.39,1.39,0,1,1-.93-1.74A1.39,1.39,0,0,1,165.86,226.59Z"/><path class="cls-31" d="M162.29,239.12a1.4,1.4,0,1,1-.93-1.74A1.4,1.4,0,0,1,162.29,239.12Z"/><path class="cls-31" d="M163,202.12a1.39,1.39,0,1,1-.93-1.73A1.39,1.39,0,0,1,163,202.12Z"/><path class="cls-31" d="M172.17,187.11a1.39,1.39,0,1,1-.93-1.73A1.39,1.39,0,0,1,172.17,187.11Z"/><path class="cls-31" d="M168,234.21a2,2,0,1,1-1.37-2.56A2.05,2.05,0,0,1,168,234.21Z"/><path class="cls-31" d="M167.05,241.84a2,2,0,1,1-1.37-2.55A2,2,0,0,1,167.05,241.84Z"/><g class="cls-1"><path class="cls-33" d="M166.78,194.76l-5.16-3c0-2.58,0-5.15,0-7.8l5.16,3C166.76,189.62,166.77,192.19,166.78,194.76Z"/><path class="cls-34" d="M169.05,165.3l5.15,3a2.57,2.57,0,0,1,1.05,2.42,8.1,8.1,0,0,1-2.32,5.4l-5.16-3a8.21,8.21,0,0,0,2.33-5.41A2.63,2.63,0,0,0,169.05,165.3Z"/><path class="cls-35" d="M176.6,157.46l5.15,3a4.45,4.45,0,0,0-3.18-.3l-1,.21-5.16-3,1-.2A4.47,4.47,0,0,1,176.6,157.46Z"/><path class="cls-36" d="M159.18,199.16l-5.16-3c0-2.65,0-5.26,0-8l5.15,3C159.16,193.9,159.17,196.5,159.18,199.16Z"/><path class="cls-37" d="M163.47,183l-5.16-3,1.88-1.06a32.64,32.64,0,0,0,6.95-5.08c.22-.21.43-.45.63-.68l5.16,3-.63.69a33,33,0,0,1-7,5.07Z"/><path class="cls-38" d="M150.66,196.06l-5.16-3c.29-2.16.55-4.16.82-6.24l5.15,3Z"/><path class="cls-39" d="M167.11,151.53l5.16,3a2.54,2.54,0,0,1,1,2.37,7.44,7.44,0,0,1-2.12,5,22.51,22.51,0,0,1-5.55,4.34c-.26.17-.53.32-.8.48l-1.35.77-5.15-3,1.34-.76.81-.49a22.64,22.64,0,0,0,5.55-4.33,7.51,7.51,0,0,0,2.12-5A2.52,2.52,0,0,0,167.11,151.53Z"/><path class="cls-40" d="M174.06,143.48l5.16,3a4.09,4.09,0,0,0-2.37-.44,13.08,13.08,0,0,0-2.71.56c-1.08.34-2.19.82-3.35,1.26l-5.15-3c1.16-.44,2.27-.92,3.35-1.25a12.5,12.5,0,0,1,2.7-.56A3.94,3.94,0,0,1,174.06,143.48Z"/><path class="cls-41" d="M163.18,152.08l-5.15-3,3.39-2,5.16,3Z"/><path class="cls-42" d="M150.3,159.7l5.15,3c.4.23.61.76.62,1.56q0,10.37.06,20.76a3.32,3.32,0,0,1-1.76,3.14c-.36.23-.72.44-1.09.65l-1.81,1-5.15-3c.62-.35,1.22-.68,1.8-1,.37-.21.74-.43,1.1-.66A3.31,3.31,0,0,0,151,182q0-10.38-.06-20.76A1.68,1.68,0,0,0,150.3,159.7Z"/><path class="cls-43" d="M166.56,142.49l-5.16-3,4.22-2.43,5.15,3Z"/><path class="cls-44" d="M166.58,150.11l-5.16-3c0-2.54,0-5,0-7.63l5.16,3C166.57,145.07,166.57,147.58,166.58,150.11Z"/><path class="cls-45" d="M159,154.75l-5.16-3c0-2.69,0-5.28,0-7.92l5.16,3C159,149.46,159,152.06,159,154.75Z"/><path class="cls-46" d="M159,146.82l-5.16-3,4.16-2.4,5.15,3Z"/><path class="cls-47" d="M150.62,164.76l-5.16-3c0-1.71,0-3.37,0-5.14l5.15,3C150.61,161.38,150.61,163.05,150.62,164.76Z"/><path class="cls-48" d="M183.56,164.25a18,18,0,0,1-5.66,14.66,54.74,54.74,0,0,1-4.19,3.55c-.89.71-1.81,1.28-2.79,2,0,2.67,0,5.28,0,7.94l-4.16,2.4c0-2.57,0-5.14,0-7.8l-3.41,2c0,2.57,0,5.16,0,7.81l-4.19,2.42c0-2.66,0-5.26,0-8l-8.49,4.9.81-6.23,1.81-1c.37-.21.73-.42,1.09-.65a3.32,3.32,0,0,0,1.76-3.14q0-10.39-.06-20.76c0-1.57-.83-2.09-2.19-1.36-.41.21-.81.44-1.22.68-.67.38-1.34.79-2,1.19,0-1.71,0-3.38,0-5.15l8.43-4.86c0-2.69,0-5.29,0-7.93l4.15-2.4c0,2.53,0,5.06,0,7.66l3.4-2c0-2.53,0-5,0-7.62l4.21-2.43c0,2.6,0,5.17,0,7.79,1.16-.44,2.27-.92,3.35-1.26a13.08,13.08,0,0,1,2.71-.56c2.72-.21,4.13,1.42,4.27,4.74a13.3,13.3,0,0,1-3.21,9.13,4.49,4.49,0,0,0-.3.47l1-.21C181.52,159.56,183.31,160.77,183.56,164.25Zm-10.63,11.87a8.1,8.1,0,0,0,2.32-5.4c0-1.95-.91-2.79-2.44-2.7a15.14,15.14,0,0,0-6.23,2.38c-1,.6-2.09,1.25-3.14,1.86,0,3.57,0,7,0,10.69l1.87-1.07a33,33,0,0,0,7-5.07l.63-.69m-9.55-18.37c0,3.27,0,6.4,0,9.7l1.35-.77c.27-.16.54-.31.8-.48a22.51,22.51,0,0,0,5.55-4.34,7.44,7.44,0,0,0,2.12-5c0-1.82-.74-2.68-2.15-2.61a11.85,11.85,0,0,0-5.06,1.88c-.87.5-1.75,1.06-2.64,1.59"/><path class="cls-49" d="M150.6,159.61l-5.15-3,8.42-4.87,5.16,3Z"/></g></g></g></g></svg>