<svg xmlns="http://www.w3.org/2000/svg" viewBox="0 0 48 42"><defs><style>.cls-1{fill:#4f5e66;}.cls-2{fill:#313b45;}.cls-3{fill:#526168;}.cls-4{fill:#ea5262;}</style></defs><title>onboarding_noscrshot</title><g id="Text"><path class="cls-1" d="M32,9.11V32.89a.81.81,0,0,1-.81.81h-.82a.81.81,0,0,0,.81-.81V9.11a.81.81,0,0,0-.81-.81h.82A.81.81,0,0,1,32,9.11Z"/><path class="cls-2" d="M31.15,9.06V32.92a.78.78,0,0,1-.81.76H18.45a.78.78,0,0,1-.81-.76V9.06a.78.78,0,0,1,.81-.76H30.34A.78.78,0,0,1,31.15,9.06Zm-.68,22V11H18.32V31.09ZM27.19,9.71a.28.28,0,1,0-.55,0,.28.28,0,0,0,.55,0Zm-.36,22.64a.29.29,0,0,0-.28-.28H22.23a.27.27,0,0,0-.19.08.28.28,0,0,0-.08.2.28.28,0,0,0,.27.27h4.32A.28.28,0,0,0,26.83,32.35ZM26.06,9.72a.28.28,0,0,0-.28-.27H22.67a.27.27,0,0,0-.27.27.27.27,0,0,0,.27.27h3.11A.28.28,0,0,0,26.06,9.72Z"/><rect class="cls-3" x="18.32" y="11" width="12.16" height="20.09"/><path class="cls-1" d="M26.91,9.43a.28.28,0,0,1,.28.28.28.28,0,0,1-.55,0A.28.28,0,0,1,26.91,9.43Z"/><path class="cls-1" d="M26.55,32.07a.28.28,0,1,1,0,.55H22.23a.28.28,0,0,1-.27-.27.28.28,0,0,1,.08-.2.27.27,0,0,1,.19-.08Z"/><path class="cls-1" d="M25.78,9.45a.27.27,0,1,1,0,.54H22.67a.27.27,0,0,1-.27-.27.27.27,0,0,1,.27-.27Z"/><path class="cls-4" d="M24.81,4.28A16.72,16.72,0,1,0,41.52,21,16.74,16.74,0,0,0,24.81,4.28Zm0,1.84a14.83,14.83,0,0,1,10.62,4.49L13,30A14.84,14.84,0,0,1,24.81,6.12Zm0,29.75a14.86,14.86,0,0,1-10.63-4.48L36.63,12A14.85,14.85,0,0,1,24.81,35.87Z"/></g></svg>