<svg xmlns="http://www.w3.org/2000/svg" viewBox="0 0 48 42"><defs><style>.cls-1{fill:#00b45a;}.cls-2{fill:#12a055;}.cls-3{fill:#e9eff4;}.cls-4{fill:#cfdbe6;}.cls-5{fill:#d0d1d3;}.cls-6{fill:#a6a8aa;}.cls-7{fill:#324a5e;}.cls-8{fill:#2b3b4e;}</style></defs><title>onboarding_write</title><g id="Text"><circle class="cls-1" cx="24.81" cy="21.63" r="16.71"/><path class="cls-2" d="M41.52,21.63l-9.29-9.29L24.88,23.88l-7.5,7,7.43,7.43A16.71,16.71,0,0,0,41.52,21.63Z"/><polygon class="cls-3" points="20.74 12.34 17.38 15.7 17.38 30.91 32.23 30.91 32.23 12.34 20.74 12.34"/><rect class="cls-4" x="24.77" y="12.34" width="7.47" height="18.57"/><polygon class="cls-4" points="20.74 15.7 20.74 12.34 17.38 15.7 20.74 15.7"/><rect class="cls-5" x="19.24" y="17.74" width="11.14" height="0.34"/><rect class="cls-5" x="19.24" y="19.6" width="11.14" height="0.34"/><rect class="cls-5" x="19.24" y="21.46" width="11.14" height="0.34"/><rect class="cls-5" x="19.24" y="23.31" width="11.14" height="0.34"/><rect class="cls-5" x="19.24" y="25.17" width="11.14" height="0.34"/><rect class="cls-6" x="24.77" y="17.74" width="5.61" height="0.34"/><rect class="cls-6" x="24.77" y="19.6" width="5.61" height="0.34"/><rect class="cls-6" x="24.77" y="21.46" width="5.61" height="0.34"/><rect class="cls-6" x="24.77" y="23.31" width="5.61" height="0.34"/><rect class="cls-6" x="24.77" y="25.17" width="5.61" height="0.34"/><path class="cls-7" d="M27.94,26.73l-1.56-1,6.51-10.17a.93.93,0,0,1,1.28-.28h0a.93.93,0,0,1,.28,1.29Z"/><path class="cls-8" d="M34.17,15.28h0l-7,11,.79.5,6.51-10.17A.92.92,0,0,0,34.17,15.28Z"/><polygon class="cls-1" points="26.16 27.8 27.94 26.73 26.38 25.73 26.16 27.8"/><polygon class="cls-2" points="26.16 27.78 26.16 27.8 27.94 26.73 27.15 26.23 26.16 27.78"/></g></svg>