<svg id="Layer_1" data-name="Layer 1" xmlns="http://www.w3.org/2000/svg" viewBox="0 0 20 20"><defs><style>.cls-1{fill:#fff;}</style></defs><title>qr_sweep</title><path class="cls-1" d="M6.05,7.51l-.25.12L1.92,2.2A.37.37,0,0,0,1.65,2H1.57a.48.48,0,0,0-.23.07.42.42,0,0,0-.1.58h0L5.13,8.13l-.19.2a3.43,3.43,0,0,0-.28,4.33l0,.08,2.13,5.38,7.88-5.66L10.26,8.67A3.47,3.47,0,0,0,6.05,7.51Zm-.71,4.66a2.59,2.59,0,0,1,.59-3.63h0a2.61,2.61,0,0,1,3.63.61l.19.27-4.23,3Zm8,.23L7.19,16.81l-1.4-3.55,4.65-3.33Z"/><g id="btc_testnet" data-name="btc testnet"><g id="Bitcoin"><path id="Shape" class="cls-1" d="M17.19,5.91c.06-.39-.24-.61-.65-.75l.14-.53-.33-.08-.13.54L16,5l.13-.52-.32-.08L15.63,5l-.2,0h0L15,4.79l-.09.34.23,0a.18.18,0,0,1,.16.19L15.12,6h0l-.21.85a.11.11,0,0,1-.14.08h0l-.23-.06-.16.37.41.11.23,0-.12.55.32.08.14-.54.26.07-.14.53.33.08.13-.53c.56.1,1,.06,1.14-.44a.55.55,0,0,0-.24-.76l0,0A.52.52,0,0,0,17.19,5.91Zm-.74,1c-.1.41-.78.19-1,.13l.18-.71c.22,0,.93.16.82.58Zm.09-1c-.1.37-.66.18-.83.13l.16-.65C16.06,5.44,16.65,5.53,16.54,5.91Z"/></g></g><path class="cls-1" d="M10.74,3.06a1.38,1.38,0,0,0-1.68,1,1.39,1.39,0,0,0,1,1.69,2,2,0,0,0,.34,0,1.39,1.39,0,0,0,.33-2.74Zm.74,1.61a1.07,1.07,0,0,1-.5.69A1.11,1.11,0,0,1,9.46,5V5a1.07,1.07,0,0,1-.12-.82,1.12,1.12,0,0,1,2.17.54v0Z"/><path class="cls-1" d="M10.71,3.9l.06-.23-.18,0-.06.23h-.07l.06-.22-.16-.07-.06.23h0L10,3.73,10,3.91h0l.09,0h0a.07.07,0,0,1,0,.06L10,4.6s0,0,0,0h0l-.08,0h0l-.09.2.21,0H10l0,.24.18,0,0-.23h.07l-.05.23.18,0L10.44,5c.19,0,.41,0,.48-.21a.26.26,0,0,0-.09-.33.24.24,0,0,0,.14-.2C11,4,10.85,4,10.71,3.9Zm-.09.77a.1.1,0,0,1,0,.07.62.62,0,0,1-.33,0h0l.07-.26h0a.39.39,0,0,1,.28.13A.07.07,0,0,1,10.62,4.67Zm-.26-.41h0L10.42,4h0a.36.36,0,0,1,.23.11.11.11,0,0,1,0,.08s0,0,0,.06A.43.43,0,0,1,10.36,4.26Z"/><path class="cls-1" d="M16,3.07a3.22,3.22,0,1,0,3.21,3.22A3.22,3.22,0,0,0,16,3.07ZM16,8.9a2.62,2.62,0,1,1,2.61-2.61A2.62,2.62,0,0,1,16,8.9Z"/></svg>