<svg id="Layer_1" data-name="Layer 1" xmlns="http://www.w3.org/2000/svg" xmlns:xlink="http://www.w3.org/1999/xlink" viewBox="0 0 24 24"><defs><style>.cls-1{fill:none;}.cls-2{clip-path:url(#clip-path);}.cls-3{fill:#fff;}.cls-4{clip-path:url(#clip-path-2);}</style><clipPath id="clip-path"><rect class="cls-1" x="95.59" y="-81.52" width="21.97" height="17.42"/></clipPath><clipPath id="clip-path-2"><path class="cls-1" d="M48.37,12A4.68,4.68,0,1,1,43.7,7.31,4.67,4.67,0,0,1,48.37,12Zm5.91-2-3.1-.48a7.72,7.72,0,0,0-1.55-2.71l1.18-2.91-3.38-2-2,2.42a7.62,7.62,0,0,0-3.49,0L40,1.9l-3.38,2,1.18,2.9a7.92,7.92,0,0,0-1.55,2.7l-3.09.5V14l3.09.48a7.87,7.87,0,0,0,1.55,2.71L36.58,20l3.38,2,2-2.42a7.62,7.62,0,0,0,3.49,0l2,2.42,3.38-2-1.18-2.9a7.72,7.72,0,0,0,1.55-2.71l3.1-.49Z"/></clipPath></defs><title>settings</title><path class="cls-3" d="M15,19.41a7.65,7.65,0,0,0,1.88-1.08l.06,0,2.85,1.15,2.49-4.14-2.37-2v-.07a7.73,7.73,0,0,0,0-2.54v-.07l2.37-2L19.75,4.56,16.9,5.71l-.06,0A7.65,7.65,0,0,0,15,4.59l-.07,0-.48-3H9.59l-.48,3L9,4.59A7.65,7.65,0,0,0,7.16,5.67l-.06,0L4.25,4.56,1.77,8.7l2.37,2v.07a7.73,7.73,0,0,0,0,2.54v.07l-2.37,2,2.48,4.14,2.84-1.15.06,0A7.71,7.71,0,0,0,9,19.41l.06,0,.48,3h4.83l.47-3ZM14,18.25l-.41.13-.41,2.7H10.77l-.41-2.69L10,18.26A6.52,6.52,0,0,1,7.68,17l-.32-.28-2.53,1L3.58,15.61l2.1-1.73-.09-.42a6.54,6.54,0,0,1,0-2.92l.09-.42L3.58,8.39,4.83,6.3l2.53,1L7.69,7A6.39,6.39,0,0,1,10,5.74l.41-.13.41-2.7h2.45l.41,2.7.41.13A6.52,6.52,0,0,1,16.31,7l.32.28,2.53-1,1.25,2.08-2.1,1.73.09.42a6.54,6.54,0,0,1,0,2.92l-.09.42,2.1,1.73-1.25,2.09-2.53-1L16.3,17A6.39,6.39,0,0,1,14,18.25Z"/><path class="cls-3" d="M12,7.7A4.3,4.3,0,1,0,16.29,12,4.31,4.31,0,0,0,12,7.7Zm0,7.43A3.13,3.13,0,1,1,15.13,12,3.14,3.14,0,0,1,12,15.13Z"/></svg>