<svg id="Layer_1" data-name="Layer 1" xmlns="http://www.w3.org/2000/svg" viewBox="0 0 65.58 48"><defs><style>.cls-1{fill:#76dfd1;}.cls-2{fill:#fff;}.cls-3{fill:#46beae;}</style></defs><title>liquid</title><g id="liquid"><g id="liquid_logo_rgb_dark" data-name="liquid logo rgb dark"><path id="Shape" class="cls-1" d="M6.7,21.39H6.58a.82.82,0,0,1-.73-.91,13.1,13.1,0,0,1,1.41-4.59,13.53,13.53,0,0,1,18.13-5.81,13.67,13.67,0,0,1,1.73,1,.82.82,0,0,1,.19,1.15.84.84,0,0,1-1.16.18,11,11,0,0,0-1.52-.92,11.86,11.86,0,0,0-15.91,5.1,11.56,11.56,0,0,0-1.23,4A.83.83,0,0,1,6.7,21.39Z"/><g id="Group"><g id="Shape-2" data-name="Shape"><path class="cls-2" d="M30.66,16a1,1,0,0,1,.28.7,1.15,1.15,0,0,1-.35.85,1.14,1.14,0,0,1-.87.34,1,1,0,0,1-.74-.27,1,1,0,0,1-.28-.71,1.15,1.15,0,0,1,.35-.85,1.19,1.19,0,0,1,.87-.34A1.05,1.05,0,0,1,30.66,16Z"/><path class="cls-2" d="M55.23,16a1,1,0,0,1,.28.7,1.15,1.15,0,0,1-.35.85,1.18,1.18,0,0,1-.88.34,1,1,0,0,1-.73-.27,1,1,0,0,1-.28-.71,1.12,1.12,0,0,1,.35-.85,1.18,1.18,0,0,1,.87-.34A1,1,0,0,1,55.23,16Z"/></g><path id="Shape-3" data-name="Shape" class="cls-2" d="M20.72,27,22.3,16h-.53a1.88,1.88,0,0,0-1.86,1.6L18.33,28.76h6.93L25.72,27Z"/><path id="Shape-4" data-name="Shape" class="cls-2" d="M29.84,19.33A1.88,1.88,0,0,0,28,20.93l-1.1,7.83H29l1.32-9.44Z"/><path id="Shape-5" data-name="Shape" class="cls-2" d="M38.53,33.86l1.78-13.94a8,8,0,0,0-3.62-.87,4.69,4.69,0,0,0-3,.95,5.6,5.6,0,0,0-1.74,2.41,8,8,0,0,0-.55,3,4.27,4.27,0,0,0,.78,2.7,2.7,2.7,0,0,0,2.22,1,3,3,0,0,0,1.45-.36,3.1,3.1,0,0,0,1.06-.87l.28-.36-.52,4.43a1.81,1.81,0,0,0,.51,1.47A1.77,1.77,0,0,0,38.53,33.86Zm-2.25-6.78a1.89,1.89,0,0,1-1.17.42c-1,0-1.54-.71-1.55-2.13a8.43,8.43,0,0,1,.31-2.22,4.48,4.48,0,0,1,1-1.86,2.32,2.32,0,0,1,1.77-.76,3.76,3.76,0,0,1,.71.06,2.86,2.86,0,0,1,.68.2l.09,0-.79,5.08A5.18,5.18,0,0,1,36.28,27.08Z"/><path id="Shape-6" data-name="Shape" class="cls-2" d="M49.78,19.32a1.88,1.88,0,0,0-1.87,1.61l-.65,4.54a7.51,7.51,0,0,1-1.17,1.4,1.93,1.93,0,0,1-1.31.55,1,1,0,0,1-.72-.26,1.14,1.14,0,0,1-.23-.81,2.75,2.75,0,0,1,0-.55l.9-6.48h-.44a1.88,1.88,0,0,0-1.86,1.61l-.73,5.18a4.85,4.85,0,0,0-.05.64,2.27,2.27,0,0,0,.58,1.68,2.15,2.15,0,0,0,1.62.59,3,3,0,0,0,1.54-.38A5.22,5.22,0,0,0,47,27.2l.24-.32-.11,1.87H48.9l1.32-9.44Z"/><path id="Shape-7" data-name="Shape" class="cls-2" d="M54.33,19.32a1.87,1.87,0,0,0-1.86,1.61l-1.1,7.82h2.09l1.32-9.44Z"/><path id="Shape-8" data-name="Shape" class="cls-2" d="M65.35,15.89a1.86,1.86,0,0,0-2.07,1.6l-.38,2.78-.18-.22a2.75,2.75,0,0,0-2.18-1A3.57,3.57,0,0,0,58,20a5.71,5.71,0,0,0-1.49,2.41A8.93,8.93,0,0,0,56,25.27a4.44,4.44,0,0,0,.76,2.78A2.58,2.58,0,0,0,59,29a2.87,2.87,0,0,0,1.59-.45,4.13,4.13,0,0,0,1.22-1.24L62,27l0,1.79h1.83l1.77-12.83Zm-3.19,9.57A6.87,6.87,0,0,1,61,27a2,2,0,0,1-1.33.53c-1,0-1.45-.72-1.45-2.15a9.39,9.39,0,0,1,.26-2.13,4.78,4.78,0,0,1,.87-1.86,2,2,0,0,1,1.65-.8,2,2,0,0,1,1,.24,2.14,2.14,0,0,1,.74.73l0,0Z"/></g><path id="Shape-9" data-name="Shape" class="cls-3" d="M6.65,32.38a1.27,1.27,0,0,1-1.05-.51A16.52,16.52,0,0,1,3.54,16.39a16.7,16.7,0,0,1,15-10.81h0a1.24,1.24,0,1,1,.09,2.47,14.14,14.14,0,0,0-11,22.39,1.23,1.23,0,0,1-.29,1.71A1.16,1.16,0,0,1,6.65,32.38Z"/><path id="Shape-10" data-name="Shape" class="cls-1" d="M17.13,40.79H17A18.74,18.74,0,0,1,2.55,12.89.83.83,0,0,1,4,13.7,17.11,17.11,0,0,0,17.2,39.15a.82.82,0,0,1,.73.91A.8.8,0,0,1,17.13,40.79Z"/><path id="Shape-11" data-name="Shape" class="cls-3" d="M20.29,38.67h-.35A17.29,17.29,0,0,1,9.1,35.09.81.81,0,0,1,9,33.94a.83.83,0,0,1,1.16-.15,15.9,15.9,0,0,0,14,2.64.83.83,0,0,1,1,.57.81.81,0,0,1-.56,1A17.2,17.2,0,0,1,20.29,38.67Z"/><path id="Shape-12" data-name="Shape" class="cls-1" d="M19.58,36.15a.61.61,0,0,1-.47-.64.64.64,0,0,1,.65-.58,18,18,0,0,0,7.91-2,.61.61,0,0,1,.84.23.62.62,0,0,1-.23.84,17.36,17.36,0,0,1-8.58,2.13Z"/></g></g></svg>