<svg id="Layer_1" data-name="Layer 1" xmlns="http://www.w3.org/2000/svg" viewBox="0 0 48 48"><defs><style>.cls-1{fill:#76dfd1;}.cls-2{fill:#46beae;}</style></defs><title>btc_liquid</title><path class="cls-1" d="M37.6,11.93a13,13,0,0,0-1.7-1A13.24,13.24,0,0,0,16.69,21.13a1.09,1.09,0,0,0,.94,1.21.68.68,0,0,0,.19,0h0a1.11,1.11,0,0,0,1.07-1A10.66,10.66,0,0,1,20,17.61,11.09,11.09,0,0,1,34.9,12.85a12.08,12.08,0,0,1,1.41.86,1.11,1.11,0,0,0,1.54-.25,1.09,1.09,0,0,0,.2-.8A1.06,1.06,0,0,0,37.6,11.93ZM17.82,22.05Z"/><path class="cls-2" d="M28.48,5.4A16.66,16.66,0,0,0,13.56,16.19a16.48,16.48,0,0,0,2,15.45,1.56,1.56,0,0,0,1.26.64h0a1.47,1.47,0,0,0,.84-.29,1.5,1.5,0,0,0,.62-1,1.54,1.54,0,0,0-.27-1.14A13.55,13.55,0,0,1,28.61,8.45,1.51,1.51,0,0,0,29.67,8a1.49,1.49,0,0,0,.4-1.1A1.54,1.54,0,0,0,28.48,5.4Z"/><path class="cls-1" d="M27.87,40.26a1.2,1.2,0,0,0-.82-.44A17.57,17.57,0,0,1,11.56,25.73a17.39,17.39,0,0,1,1.95-12,1.16,1.16,0,0,0,.11-.91A1.21,1.21,0,0,0,12.13,12a1.18,1.18,0,0,0-.73.56,20,20,0,0,0,15.43,29.7H27a1.2,1.2,0,0,0,1.16-1.07A1.19,1.19,0,0,0,27.87,40.26Z"/><path class="cls-2" d="M35.61,36.62a1.12,1.12,0,0,0-1.4-.71,14.32,14.32,0,0,1-3.86.71A14.7,14.7,0,0,1,21,33.92a1.11,1.11,0,0,0-1.54.26,1.09,1.09,0,0,0-.19.82,1.11,1.11,0,0,0,.45.72,16.87,16.87,0,0,0,10.48,3.11h.24l.34,0A16.9,16.9,0,0,0,34.9,38a1.14,1.14,0,0,0,.65-.55A1.11,1.11,0,0,0,35.61,36.62Z"/><path class="cls-1" d="M38.94,31.76a.9.9,0,0,0-1.25-.27,16.64,16.64,0,0,1-7.32,2.31.9.9,0,0,0-.13,1.79.33.33,0,0,0,.17,0l.56,0A17.18,17.18,0,0,0,38.68,33a.91.91,0,0,0,.39-.58A.84.84,0,0,0,38.94,31.76Z"/></svg>