<svg xmlns="http://www.w3.org/2000/svg" xmlns:xlink="http://www.w3.org/1999/xlink" width="1024" height="1024" viewBox="0 0 1024 1024">
    <defs>
        <path id="bgoeeq96ka" d="M1024 318.915c0-12.156 0-24.314-.07-36.471-.06-10.241-.179-20.48-.457-30.716-.601-22.31-1.918-44.812-5.885-66.874-4.024-22.38-10.596-43.21-20.951-63.544-10.18-19.987-23.479-38.276-39.346-54.131-15.863-15.856-34.157-29.146-54.15-39.32-20.356-10.358-41.208-16.927-63.613-20.95-22.064-3.961-44.572-5.275-66.882-5.878-10.244-.277-20.488-.393-30.734-.457C729.75.5 717.585.506 705.422.506L564.19 0H458.56L319.827.506c-12.187 0-24.374-.006-36.561.068-10.268.064-20.53.18-30.793.457-22.363.603-44.922 1.918-67.038 5.885-22.435 4.021-43.318 10.588-63.7 20.938C101.698 38.03 83.365 51.32 67.468 67.18 51.574 83.033 38.25 101.319 28.052 121.3 17.668 141.646 11.084 162.487 7.05 184.88c-3.972 22.053-5.288 44.547-5.893 66.848C.881 261.965.762 272.204.7 282.444c-.075 12.159-.7 27.261-.7 39.419v243.572l.631 139.717c0 12.174-.005 24.347.069 36.52.062 10.256.181 20.508.458 30.76.604 22.338 1.923 44.872 5.898 66.964 4.033 22.41 10.615 43.269 20.99 63.63 10.2 20.015 23.526 38.327 39.422 54.205 15.895 15.879 34.224 29.186 54.257 39.375 20.395 10.371 41.287 16.949 63.736 20.977 22.106 3.968 44.658 5.284 67.012 5.886 10.263.277 20.527.396 30.794.458 12.187.073 24.373.073 36.56.073h385.594c12.164 0 24.328 0 36.491-.073 10.246-.062 20.49-.18 30.734-.458 22.319-.604 44.834-1.92 66.908-5.891 22.392-4.028 43.233-10.603 63.577-20.969 19.998-10.187 38.296-23.497 54.16-39.378 15.865-15.875 29.162-34.185 39.342-54.197 10.362-20.37 16.933-41.24 20.96-63.664 3.964-22.083 5.279-44.608 5.881-66.939.277-10.252.395-20.505.456-30.758.07-12.174.07-24.347.07-36.521V458.56 318.915"/>
        <path id="b8zg65tace" d="M57.055 327.875V64.413c0-4.418 3.581-8 8-8H363.67c4.418 0 8-3.582 8-8V8c0-4.418-3.582-8-8-8H8.68c-4.42 0-8 3.582-8 8v264.141c0 54.646 38.443 98.96 88.57 139.605-19.834-25.284-32.195-52.878-32.195-83.871z"/>
        <path id="2nvcx129zg" d="M298.993 111.466H119.936c-4.419 0-8 3.582-8 8v264.142c0 87.406 98.622 148.44 185.427 210.427 86.94-61.85 185.427-122.885 185.427-210.427V119.466c0-4.418-3.581-8-8-8H298.993zm128.509 272.142c0 48.665-64.39 96.242-129.867 142.188-65.341-46.082-129.867-93.523-129.867-142.188V175.064c0-4.418 3.581-8 8-8h243.734c4.418 0 8 3.582 8 8v208.544z"/>
        <filter id="k6xybzv7zd" width="110.8%" height="109.7%" x="-5.4%" y="-2.4%" filterUnits="objectBoundingBox">
            <feOffset dy="10" in="SourceAlpha" result="shadowOffsetOuter1"/>
            <feGaussianBlur in="shadowOffsetOuter1" result="shadowBlurOuter1" stdDeviation="5"/>
            <feColorMatrix in="shadowBlurOuter1" values="0 0 0 0 0 0 0 0 0 0 0 0 0 0 0 0 0 0 0.589734484 0"/>
        </filter>
        <filter id="qd30lk5czf" width="114%" height="111.6%" x="-7%" y="-2.9%" filterUnits="objectBoundingBox">
            <feOffset dy="16" in="SourceAlpha" result="shadowOffsetOuter1"/>
            <feGaussianBlur in="shadowOffsetOuter1" result="shadowBlurOuter1" stdDeviation="6"/>
            <feColorMatrix in="shadowBlurOuter1" values="0 0 0 0 0 0 0 0 0 0 0 0 0 0 0 0 0 0 0.715799825 0"/>
        </filter>
        <linearGradient id="7urtf6y4qc" x1="55.924%" x2="50%" y1="7.678%" y2="100%">
            <stop offset="0%" stop-color="#293340"/>
            <stop offset="100%" stop-color="#12171E"/>
        </linearGradient>
    </defs>
    <g fill="none" fill-rule="evenodd">
        <g>
            <g>
                <g transform="translate(-20 -780) translate(10 172) translate(10 608)">
                    <mask id="1hwhxs0hjb" fill="#fff">
                        <use xlink:href="#bgoeeq96ka"/>
                    </mask>
                    <use fill="#000" xlink:href="#bgoeeq96ka"/>
                    <g mask="url(#1hwhxs0hjb)">
                        <g>
                            <path fill="url(#7urtf6y4qc)" d="M0.845 0.845H1057.156V1057.156H0.845z" transform="translate(-17 -17)"/>
                            <path fill="#12171E" d="M0.845 0.845H1057.156V1057.156H0.845z" transform="translate(-17 -17)"/>
                            <g fill-rule="nonzero">
                                <g transform="translate(-17 -17) translate(305.31 244.417)">
                                    <use fill="#000" filter="url(#k6xybzv7zd)" xlink:href="#b8zg65tace"/>
                                    <use fill="#00B45A" xlink:href="#b8zg65tace"/>
                                </g>
                                <g transform="translate(-17 -17) translate(305.31 244.417)">
                                    <use fill="#000" filter="url(#qd30lk5czf)" xlink:href="#2nvcx129zg"/>
                                    <use fill="#FFF" xlink:href="#2nvcx129zg"/>
                                </g>
                            </g>
                        </g>
                    </g>
                </g>
            </g>
        </g>
    </g>
</svg>
